<svg xmlns="http://www.w3.org/2000/svg" width="198" height="197" viewBox="0 0 184.938 184.08"><g transform="matrix(3.479352 0 0 3.463205 -2884.8617 -5150.528)"><path d="M847.868 1528.18l-7.81 4.26c-.458.25-.87.557-1.253.892 4.554 3.84 10.432 6.156 16.855 6.156a26.07 26.07 0 0 0 16.757-6.069c-.42-.354-.873-.672-1.377-.923l-8.364-4.18a3.19 3.19 0 0 1-1.763-2.853v-3.282c.235-.268.504-.61.79-1.017 1.14-1.6 2.002-3.38 2.6-5.24 1.073-.33 1.863-1.322 1.863-2.5v-3.503c0-.77-.343-1.46-.875-1.94v-5.063s1.04-7.88-9.63-7.88-9.63 7.88-9.63 7.88v5.063c-.533.482-.875 1.17-.875 1.94v3.503c0 .923.485 1.735 1.21 2.204.875 3.8 3.167 6.552 3.167 6.552v3.2c-.001 1.166-.64 2.24-1.663 2.798z" fill="#d0f4b1" stroke="#3c5467" stroke-width="1.088"/><circle cx="855.714" cy="1513.791" r="25.795" fill="none" stroke="#4199d5" stroke-width="1.564" stroke-linejoin="round"/></g></svg>