<svg xmlns="http://www.w3.org/2000/svg" xmlns:xlink="http://www.w3.org/1999/xlink" viewBox="0 0 40.67 32.59"><use xlink:href="#B" fill="#dff2fc"/><use xlink:href="#B" fill="none" stroke="#14385e" stroke-linejoin="round" stroke-width=".5"/><use xlink:href="#C" fill="#dff2fc"/><g fill="#14385e"><path d="M8.77 15.38h31.66v3.76H8.77z" opacity=".1"/><rect x="12.16" y="24.97" width="9.4" height="3.43" rx="1.07" opacity=".1"/></g><g fill="none" stroke="#14385e" stroke-linejoin="round" stroke-width=".5"><use xlink:href="#C"/><path d="M36.88 24.77H26.16m6.47 3.2h-6.47" stroke-linecap="round"/></g><defs ><path id="B" d="M1.83 10L23.5.48A2.61 2.61 0 0 1 27 1.8l6.3 14.32a2.62 2.62 0 0 1-1.35 3.45L10.23 29.1a2.61 2.61 0 0 1-3.45-1.33L.47 13.46A2.61 2.61 0 0 1 1.83 10z"/><path id="C" d="M11.64 9.5h25.9a2.87 2.87 0 0 1 2.88 2.86v17.1a2.87 2.87 0 0 1-2.88 2.86h-25.9a2.86 2.86 0 0 1-2.87-2.86v-17.1a2.86 2.86 0 0 1 2.87-2.86z"/></defs></svg>