<svg id="Layer_1" data-name="Layer 1" xmlns="http://www.w3.org/2000/svg" viewBox="0 0 285.47 646.09"><defs><style>.cls-1{opacity:0.2;}.cls-2,.cls-4{fill:none;stroke:#9ac5d9;stroke-linecap:round;stroke-linejoin:round;stroke-width:2px;}.cls-3,.cls-4{opacity:0.4;}</style></defs><title>3. Ilustrasi Login- Regis</title><g class="cls-1"><path class="cls-2" d="M261.58,1A6.6,6.6,0,0,0,255,7.13a4.73,4.73,0,0,0-1.77-.34A4.91,4.91,0,0,0,248.4,11a4.9,4.9,0,0,0-7.21,4.32c.84,3.66,2.13,5,6.87,4.47h27.19c3,0,5.46-2.9,5-7.36-.37-3.72-5.86-8.73-12.14-5.55A6.58,6.58,0,0,0,261.58,1Z"/></g><g class="cls-3"><path class="cls-2" d="M90.73,372.77a6.49,6.49,0,0,1,6.47,6,4.8,4.8,0,0,1,6.5,3.76A4.73,4.73,0,0,1,106,382a4.82,4.82,0,0,1,4.82,4.82c-.83,3.6-2.1,4.95-6.77,4.4H77.27c-3,0-5.37-2.85-4.93-7.24.37-3.67,5.77-8.59,12-5.46A6.49,6.49,0,0,1,90.73,372.77Z"/></g><g class="cls-3"><path class="cls-2" d="M266.88,462.84a6.91,6.91,0,0,0-6.33,4.14,7,7,0,0,0-1.6-.18,6.88,6.88,0,1,0,2.45,13.31,6.37,6.37,0,0,0,10.1-.26,6.48,6.48,0,0,0,2.78.64,6.3,6.3,0,0,0,4.74-2.13h.14a5.29,5.29,0,1,0-2.31-10,6.26,6.26,0,0,0-2.57-.54,6.45,6.45,0,0,0-.76,0,6.9,6.9,0,0,0-6.64-5Z"/></g><g class="cls-1"><path class="cls-2" d="M49.53,32.76c2.58.66,4.45-1,9.49,2.88,1.34-3.83,2.68-6.36,7.37-10.36"/><path class="cls-2" d="M81.87,34.23c-1.05,1.59-2.88,1.63-3.67,6.09-2.57-1.32-4.52-2-9-1.76"/></g><g class="cls-3"><path class="cls-2" d="M13.42,594.79c-6.39-3.23-12,1.86-12.37,5.65-.45,4.55,2,7.5,5.11,7.5H33.85c4.82.57,6.14-.83,7-4.56a5,5,0,0,0-7.34-4.4,5,5,0,0,0-4.94-4.23,5.14,5.14,0,0,0-1.8.34,6.7,6.7,0,0,0-13.35-.3Z"/></g><g class="cls-3"><path class="cls-2" d="M176.08,519.1,161,501.81a75.46,75.46,0,0,1,18.63-4.62,3.28,3.28,0,0,1,3.55,4.06A75.47,75.47,0,0,1,176.08,519.1Z"/><path class="cls-2" d="M133.6,552l-10.86-12.41c14.07-34.41,45.3-41.08,56.87-42.37a3.26,3.26,0,0,1,3.53,4C180.32,512.52,169.57,542.58,133.6,552Z"/><circle class="cls-2" cx="157.65" cy="519.96" r="6.19"/><path class="cls-2" d="M133.6,552c8.15,9.31-1.81,18-1.81,18,16.82-9.24,12.68-21,12.17-21.55A72.71,72.71,0,0,1,133.6,552Z"/><path class="cls-2" d="M127.61,529.75c-.53-.58-11.59-6.24-23,9.21,0,0,10-8.71,18.11.6A72.88,72.88,0,0,1,127.61,529.75Z"/><rect class="cls-2" x="125.11" y="534.96" width="4.12" height="23.36" rx="2.06" transform="translate(454.78 90.94) rotate(48.81)"/></g><path class="cls-4" d="M72.86,630.36c2.26-41.44,37.37-66.76,37.37-66.76"/><path class="cls-4" d="M54.78,645.09s.59-54.06,55.09-89.23"/><g class="cls-3"><path class="cls-2" d="M238.1,219.63c1.64,2.08,4.15,1.89,5.77,8.06,3.39-2.23,6-3.42,12.16-3.74"/><path class="cls-2" d="M262.87,240.47c-1.81.62-3.28-.46-6.62,2.6-1.24-2.62-2.39-4.32-6.06-6.86"/></g></svg>