<svg xmlns="http://www.w3.org/2000/svg" width="23" height="23" viewBox="0 0 22.939 22.938"><path fill="#4298d3" d="M11.47 0C5.146 0 0 5.145 0 11.47s5.146 11.47 11.472 11.47 11.47-5.145 11.47-11.47S17.795 0 11.47 0z"/><path d="M14.427 17.386c-.326 0-.592-.265-.592-.592V15.6a1.78 1.78 0 0 0-1.777-1.774h-4.73c-.98 0-1.775.796-1.775 1.774v1.184c0 .327-.268.592-.592.592s-.592-.265-.592-.592V15.6c0-1.63 1.328-2.958 2.96-2.958h4.73c1.633 0 2.96 1.327 2.96 2.958v1.184a.59.59 0 0 1-.592.592zM9.7 11.47c-1.627 0-2.955-1.327-2.955-2.958s1.328-2.96 2.955-2.96c1.633 0 2.96 1.328 2.96 2.96A2.97 2.97 0 0 1 9.7 11.47zm0-4.733c-.977 0-1.77.797-1.77 1.775s.795 1.774 1.77 1.774c.982 0 1.777-.796 1.777-1.774S10.673 6.737 9.7 6.737zm8.278 10.65a.59.59 0 0 1-.592-.592V15.6a1.78 1.78 0 0 0-1.332-1.717.59.59 0 1 1 .297-1.146 2.96 2.96 0 0 1 2.219 2.862v1.184c0 .328-.268.593-.592.593zm-4.142-5.988a.59.59 0 0 1-.572-.444.59.59 0 0 1 .426-.72 1.78 1.78 0 0 0 1.279-1.279 1.75 1.75 0 0 0-.195-1.345 1.75 1.75 0 0 0-1.084-.815.59.59 0 1 1 .293-1.147 2.93 2.93 0 0 1 1.809 1.358 2.93 2.93 0 0 1 .324 2.24c-.268 1.048-1.086 1.864-2.133 2.132a.59.59 0 0 1-.147.02z" fill="#fff"/></svg>