<svg xmlns="http://www.w3.org/2000/svg" width="23" height="23" viewBox="0 0 22.938 22.938" fill="#fff"><path d="M14.428 17.386c-.326 0-.592-.265-.592-.592V15.6c0-.98-.797-1.774-1.775-1.774H7.328c-.98 0-1.775.796-1.775 1.774v1.184c0 .327-.266.592-.592.592s-.592-.265-.592-.592V15.6c0-1.63 1.328-2.958 2.96-2.958h4.732A2.96 2.96 0 0 1 15.02 15.6v1.184a.59.59 0 0 1-.591.592zM9.693 11.47a2.96 2.96 0 0 1-2.957-2.958c0-1.63 1.328-2.96 2.957-2.96s2.96 1.328 2.96 2.96a2.96 2.96 0 0 1-2.959 2.958zm0-4.734c-.98 0-1.773.797-1.773 1.775s.795 1.774 1.773 1.774a1.78 1.78 0 0 0 1.775-1.774c0-.978-.794-1.775-1.775-1.775zm8.287 10.65a.59.59 0 0 1-.592-.592V15.6a1.78 1.78 0 0 0-1.332-1.717.59.59 0 1 1 .297-1.146 2.96 2.96 0 0 1 2.219 2.862v1.184c-.001.328-.266.593-.592.593zm-4.144-6a.59.59 0 0 1-.572-.444.59.59 0 0 1 .426-.72c.627-.16 1.12-.65 1.28-1.28a1.76 1.76 0 0 0-.193-1.345 1.76 1.76 0 0 0-1.086-.815.59.59 0 1 1 .293-1.147 2.96 2.96 0 0 1 1.81 1.358c.4.678.518 1.476.322 2.24-.268 1.048-1.086 1.864-2.133 2.132a.54.54 0 0 1-.147.019z"/></svg>