<svg xmlns="http://www.w3.org/2000/svg" xmlns:xlink="http://www.w3.org/1999/xlink" width="54" height="39" viewBox="0 0 14.191 10.062"><style><![CDATA[.B{fill:none}.C{stroke:#3f5669}.D{stroke-width:.25}.E{stroke-linejoin:round}.F{stroke-miterlimit:10}.G{fill:#cececf}]]></style><defs><clipPath id="A"><path d="M0 1126.568h4335.032V0H0z"/></clipPath><path id="B" d="M3943.537 802.376l.9-8.806a.42.42 0 0 1 .249-.34l8.124-3.562a.42.42 0 0 1 .337 0l8.204 3.61a.42.42 0 0 1 .248.345l.818 8.787-9.148-3.18a.9.9 0 0 0-.591 0z"/><path id="C" d="M3956.636 791.187s-.615 5.3 1.44 5.983c0 0 .516.305 1.436.163 0 0-.914.056-1.163-1.01s.054-4.342.054-4.342z"/><path id="D" d="M3949.69 791.07s.572 4.37-2.606 4.763c0 0-.372.053-.636-.204 0 0 .484.333.916-.34s.606-2.607.56-3.46z"/></defs><g clip-path="url(#A)" transform="matrix(.570265 0 0 -.570265 -2247.5302 459.50244)"><path d="M3943.537 802.376l9.484-3.246 9.397 3.28-9.443 3.234z" fill="#999594"/><path d="M3943.537 802.376l9.484-3.246 9.397 3.28-9.443 3.234z" class="B C D E F"/><use xlink:href="#B" fill="#eeeded"/><g class="B C D E F"><use xlink:href="#B"/><path d="M3953.02 799.13l-.044-9.497" stroke-linecap="round"/></g><use xlink:href="#C" fill="#b4b3b2"/><use xlink:href="#C" class="B C D E F"/><path d="M3957.208 796.406s.693 1.382 1.905 1.833c1.257.468 2.858-.055 3.03-1.474s-.035-2.032.124-2.668.526-1.997 2.766-1.86c0 0 .113-.643-.13-.863s-1.128-.78-2.52 0-.94 2.95-.94 2.95.412 2.35-1.93 3.008c0 0-1.377.34-2.306-.926" class="G"/><path d="M3957.208 796.406s.693 1.382 1.905 1.833c1.257.468 2.858-.055 3.03-1.474s-.035-2.032.124-2.668.526-1.997 2.766-1.86c0 0 .113-.643-.13-.863s-1.128-.78-2.52 0-.94 2.95-.94 2.95.412 2.35-1.93 3.008c0 0-1.377.34-2.306-.926z" class="B C D E F"/><path d="M3963.375 793.135s1.3.35 1.657-.9c0 0 .08-.445-.07-.793l.972 1.284s.302 1.257-1 1.665c0 0-.583.125-.94-.023 0 0 .023-.61-.62-1.234" class="G"/><path d="M3963.375 793.135s1.3.35 1.657-.9c0 0 .08-.445-.07-.793l.972 1.284s.302 1.257-1 1.665c0 0-.583.125-.94-.023 0 0 .023-.61-.62-1.234z" class="B C D E F"/><path d="M3947.038 795.837s-1.52.208-2.293-.678-.295-2.14-.704-3.942-2.713-1.586-2.713-1.586l.685-1.38s2.013.037 2.906 1.066.78 2.085.892 2.846c0 0-.037 1.3.145 2.444s.74 1.182 1.082 1.23" class="G"/><use xlink:href="#D" fill="#b4b3b2"/><g class="B C D E F"><use xlink:href="#D"/><path d="M3947.038 795.837s-1.52.208-2.293-.678-.295-2.14-.704-3.942-2.713-1.586-2.713-1.586l.685-1.38s2.013.037 2.906 1.066.78 2.085.892 2.846c0 0-.037 1.3.145 2.444s.74 1.182 1.082 1.23z"/></g></g></svg>