<svg xmlns="http://www.w3.org/2000/svg" xmlns:xlink="http://www.w3.org/1999/xlink" viewBox="0 0 17.681 19.443" width="18" height="20"><style><![CDATA[.J{fill:none}.K{stroke:#13405e}.L{stroke-width:.25}.M{stroke-miterlimit:10}.N{fill:#d1e5a7}]]></style><defs><clipPath ><path d="M217.64-933.42h360v751.6h-360z" class="J"/></clipPath><clipPath ><path d="M-194.48 146.57H165.4v117.5h-359.88z" class="J"/></clipPath><clipPath ><path d="M222.9 38.6h-476c-5.85 0-10.57 3.15-10.57 7.08v210.54c0 3.92 4.72 7.08 10.57 7.08h476c5.86 0 10.58-3.16 10.58-7.08V45.68c0-3.93-4.72-7.08-10.58-7.08z" class="J"/></clipPath><clipPath ><path d="M-709.85 41.37h1396.7v784.28h-1396.7z" class="J"/></clipPath><path id="E" d="M.125 6.148l.36 2.4a.39.39 0 0 0 .27.32l8 2.62a.46.46 0 0 0 .26 0l8.1-2.96a.44.44 0 0 0 .26-.35l.17-2.4a.41.41 0 0 0-.28-.41l-8.2-2.62a.78.78 0 0 0-.5 0l-8.14 3a.41.41 0 0 0-.3.4z"/><path id="F" d="M8.695 4.858a11.83 11.83 0 0 1-3.49 1.7c-1.53.3-2.32.17-2.68-1.25a1.85 1.85 0 0 1 .6-1.56.49.49 0 0 0 .09-.59 3.21 3.21 0 0 1-.36-1.62 1.59 1.59 0 0 1 2.27-1.13 16.89 16.89 0 0 1 3.49 2z"/><path id="G" d="M7.195 3.428a3.58 3.58 0 0 0-1.26-.42.75.75 0 0 0-.88.72c0 .36.24.77 1 .7l1.25-.15z"/><path id="H" d="M8.995 4.858a11.74 11.74 0 0 0 3.55 1.57c1.54.25 2.33.08 2.63-1.35a1.84 1.84 0 0 0-.65-1.55.49.49 0 0 1-.1-.58 3.25 3.25 0 0 0 .3-1.63c-.07-.72-1-1.6-2.37-1a16.83 16.83 0 0 0-3.41 2.14z"/><path id="I" d="M10.435 3.368a3.62 3.62 0 0 1 1.26-.46.74.74 0 0 1 .89.68c0 .37-.2.78-1 .74a12.12 12.12 0 0 1-1.26-.11z"/></defs><use xlink:href="#E" fill="#d0e3f2"/><g fill="#edf4fb"><path d="M16.125 6.148s1-.33 1.2.22a5.73 5.73 0 0 1 .07 1.64l.14-2v-.3zm-7.17 2.37l1.57-.5s-1.16.5-1.27 1l-.3 2.07z"/><path d="M7.655 8.138s.82.36.93.7.36 2.4.36 2.4v-2.73zm-7.22-.15s-.14-1.4.07-1.58 1.86.2 1.86.2l-2.18-.64v.05z"/><path d="M17.575 5.668l-8.62 2.85-8.77-2.55a.41.41 0 0 1 .24-.22l8.14-2.9a.81.81 0 0 1 .56-.09l8.23 2.58a.41.41 0 0 1 .22.34z"/></g><use xlink:href="#E" class="J K L M"/><path d="M1.175 8.988l.87 7.22a.36.36 0 0 0 .21.28l6.7 2.8a.34.34 0 0 0 .28 0l6.67-3.07a.38.38 0 0 0 .2-.29l.54-7.23-7.45 2.75a.75.75 0 0 1-.49 0z" fill="#d0e3f2"/><path d="M16.655 8.748v.38a.46.46 0 0 1-.3.39l-4.23 1.52-.38 7.18v-7l-2.78 1-2.85-1 .3 7-.64-7.08-4.23-1.4a.44.44 0 0 1-.31-.38l-.05-.35 7.8 2.52z" fill="#aed8ed" opacity=".75"/><g class="J K L M"><path d="M1.175 8.998l.87 7.2a.36.36 0 0 0 .21.28l6.7 2.8a.34.34 0 0 0 .28 0l6.67-3.07a.38.38 0 0 0 .2-.29l.54-7.18-7.45 2.73a.75.75 0 0 1-.49 0zm-1-3.03l8.77 2.55"/><path d="M17.575 5.668l-8.62 2.85.01 3 .14 7.8"/></g><g fill="#87c2e7"><path d="M6.415 18.218l-2.43-1-.68-7.53 2.4.8zm5.34-.1l2.4-1.1.4-7.55-2.38.88z"/><path d="M3.025 6.788l.3 2.9 2.4.8-.32-3zm11.7-.16l-.18 2.85-2.37.87.2-2.94z"/><path d="M11.645 3.598l-8.62 3.2 2.38.7 8.4-3.2z"/><path d="M14.725 6.628l-7.94-3.2-2.44.88 8.04 3.1z"/></g><path d="M13.795 4.268l-2.15-.67-2.3.86-2.55-1.03-2.44.88 2.64 1.02-3.96 1.46.25 2.44h-.01l.72 7.98 2.43 1-.7-7.75h.01l-.04-.37-.28-2.62 3.63-1.38 3.35 1.3-.2 2.96-.42 7.77 2.4-1.1.4-7.55.17-2.86-3.4-1.35z" class="J K L M"/><use xlink:href="#F" class="N"/><use xlink:href="#G" fill="#add064"/><use xlink:href="#H" class="N"/><path d="M10.045 2.548s1.88-2.26 3-2.44a2.42 2.42 0 0 0-1.17.38 25.91 25.91 0 0 0-2.44 1.56zm-2.45-.1s-2-2-3.1-2.2a3.22 3.22 0 0 1 1.33.42c.8.4 2.4 1.44 2.4 1.44z" fill="#e3eec8"/><use xlink:href="#I" fill="#add064"/><g class="J K L M"><use xlink:href="#F"/><use xlink:href="#G"/><use xlink:href="#H"/><use xlink:href="#I"/></g><circle cx="8.825" cy="3.638" r="1.7" class="N"/><path d="M10.515 3.598a1.1 1.1 0 0 1 0 .36 1.7 1.7 0 0 0-3.33 0 1.33 1.33 0 0 1 0-.28 1.71 1.71 0 0 1 1.67-1.73 1.68 1.68 0 0 1 1.66 1.65z" fill="#e3eec8"/><circle cx="8.825" cy="3.638" r="1.7" class="J K L"/></svg>