<svg xmlns="http://www.w3.org/2000/svg" width="23" height="23" viewBox="0 0 22.938 22.938" fill="#4198d3"><path d="M16.9 18.245c-.375 0-.678-.303-.678-.678v-1.355c0-1.12-.912-2.032-2.03-2.032H8.758c-1.12 0-2.033.912-2.033 2.032v1.355c0 .375-.303.678-.678.678s-.678-.303-.678-.678v-1.355c0-1.867 1.52-3.388 3.4-3.388h5.422c1.867 0 3.387 1.52 3.387 3.388v1.355a.68.68 0 0 1-.678.678zm-5.42-6.775c-1.87 0-3.4-1.52-3.4-3.388s1.52-3.4 3.4-3.4a3.39 3.39 0 0 1 3.387 3.39 3.39 3.39 0 0 1-3.387 3.388zm0-5.42c-1.12 0-2.033.912-2.033 2.033s.912 2.032 2.033 2.032a2.03 2.03 0 0 0 2.03-2.032c0-1.122-.9-2.033-2.03-2.033zm-.01 16.888C5.145 22.938 0 17.793 0 11.47S5.145 0 11.47 0s11.47 5.145 11.47 11.47-5.145 11.47-11.47 11.47zm0-21.83a10.37 10.37 0 0 0-10.36 10.36c0 5.712 4.645 10.36 10.36 10.36s10.36-4.647 10.36-10.36S17.18 1.1 11.47 1.1z"/></svg>