<svg xmlns="http://www.w3.org/2000/svg" width="23" height="23" viewBox="0 0 22.939 22.938"><path fill="#4298d3" d="M11.47 0C5.146 0 0 5.145 0 11.47s5.146 11.47 11.47 11.47 11.47-5.145 11.47-11.47S17.795 0 11.47 0z"/><path d="M16.9 18.245c-.375 0-.678-.303-.678-.678v-1.355c0-1.12-.914-2.032-2.03-2.032H8.76c-1.12 0-2.033.912-2.033 2.032v1.355c0 .375-.303.678-.678.678s-.678-.303-.678-.678v-1.355c0-1.867 1.52-3.388 3.4-3.388h5.422a3.39 3.39 0 0 1 3.385 3.388v1.355c-.001.375-.3.678-.676.678zm-5.42-6.775c-1.87 0-3.4-1.52-3.4-3.388s1.52-3.4 3.4-3.4a3.39 3.39 0 0 1 3.387 3.39 3.39 3.39 0 0 1-3.387 3.388zm0-5.42c-1.12 0-2.033.912-2.033 2.033s.912 2.032 2.033 2.032a2.03 2.03 0 0 0 2.03-2.034c0-1.12-.908-2.033-2.03-2.033z" fill="#fff"/></svg>