<svg xmlns="http://www.w3.org/2000/svg" xmlns:xlink="http://www.w3.org/1999/xlink" width="223" height="223" viewBox="0 0 58.87 58.87"><style><![CDATA[.B{stroke:#143f5d}.C{fill:#fff}.D{fill:#e4e4e4}.E{fill:#d0f4b1}.F{stroke-width:3.25}]]></style><g transform="translate(-58.521 -101.868)"><circle r="29.435" cy="131.303" cx="87.956" fill="#bee3f6"/><g transform="matrix(1.1486 0 0 1.1486 -12.590109 -20.761967)"><g transform="matrix(.376192 0 0 .376192 -1917.3807 -1336.0185)"><path d="M5332.204 3881.093l40.28.013-.012 64.273-40.28-.013z" stroke-width=".906" class="B C"/><path d="M5334.31 3881.934l30.758.013-.01 62.58-30.758-.013z" class="D"/></g><g transform="matrix(.376192 0 0 .376192 -1918.0371 -1336.0185)"><path d="M5307.34 3861.7l53.897.02-.014 83.66-53.897-.02z" stroke-width=".969" class="B C"/><path d="M5307.905 3862.58l26.204-.717.172 82.823-26.37-.17z" class="D"/><g fill="none" class="B"><path d="M5319.634 3922.013l29.3.01-.004 22.937-29.3-.01z" stroke-width=".945"/><path d="M5334.28 3921.573v23.113" stroke-width=".944"/></g></g><rect transform="matrix(1 .000478 -.000125 1 0 0)" ry=".451" y="147.503" x="77.112" height=".997" width="27.516" stroke-width=".344" class="B C"/><g transform="matrix(.282222 0 0 .282222 -1477.4366 -1030.0522)" class="B"><g transform="matrix(1 .000478 -.000125 1 0 0)" stroke-width="1.218" class="C"><rect width="81.428" height="3.531" x="5508.686" y="4057.439" ry="1.598"/><rect ry="1.598" y="4076.189" x="5508.689" height="3.531" width="81.428"/><rect width="81.428" height="3.531" x="5508.691" y="4094.939" ry="1.598"/><rect width="81.428" height="3.531" x="5508.696" y="4132.439" ry="1.598"/><rect width="81.428" height="3.531" x="5508.693" y="4113.689" ry="1.598"/></g><g stroke-width=".994"><use xlink:href="#B" class="C"/><g fill="none"><use xlink:href="#B" x="-22.5"/><use xlink:href="#B" x="-45"/></g><use xlink:href="#B" y="-18.75" class="C"/><g fill="none"><use xlink:href="#B" x="-22.5" y="-18.75"/><use xlink:href="#B" x="-45" y="-18.75"/></g><g class="C"><use xlink:href="#B" y="-37.5"/><use xlink:href="#B" x="-22.5" y="-37.5"/></g><use xlink:href="#B" x="-45" y="-37.5" fill="none"/><g class="C"><use xlink:href="#B" y="-56.25"/><use xlink:href="#B" x="-22.5" y="-56.25"/></g><use xlink:href="#B" x="-45" y="-56.25" class="D"/></g></g><g transform="matrix(.090676 -.023359 .023359 .090676 -361.85951 29.869989)"><path d="M4244.858 2274.228a5.9 5.9 0 0 0-7.55 2.132l-4.34 6.783c-4.692-.9-9.47-1.162-14.232-.758l-3.54-7.378c-1.3-2.708-4.4-3.99-7.236-3.032l-13.155 4.536a5.89 5.89 0 0 0-3.829 6.85l1.85 8.448a50.72 50.72 0 0 0-9.741 8.924l-8.143-2.876c-2.836-.992-5.95.292-7.257 2.975l-6.095 12.514c-1.307 2.683-.397 5.927 2.133 7.548l7.674 4.905c-.688 4.022-.917 8.113-.666 12.177l-8.29 3.976c-2.708 1.3-3.99 4.4-3.032 7.236l4.538 13.155c.98 2.837 3.915 4.474 6.85 3.828l8.916-1.96a52 52 0 0 0 8.338 9.56l-3.068 8.75c-.993 2.836.292 5.95 2.974 7.257l12.515 6.095c2.683 1.307 5.927.397 7.548-2.133l4.812-7.538a52.6 52.6 0 0 0 13.472.934l3.826 7.96c1.3 2.708 4.412 4 7.238 3.032l3.567-1.23a58.838 58.838 0 0 1 41.333-86.615l-.877-2.543a5.89 5.89 0 0 0-6.85-3.829l-7.698 1.697a51.89 51.89 0 0 0-9.16-10.427l2.664-7.6c.992-2.836-.292-5.95-2.975-7.257z" class="B E F"/><g transform="rotate(356.78 4243.137 2341.697)" fill="#bee3f6"><path d="M4238.264 2306.716a31.063 31.063 0 1 0-30.297 54.238 31.063 31.063 0 0 0 24.535 2.451 58.838 58.838 0 0 1 20.54-37.848 31.063 31.063 0 0 0-14.778-18.84z" clip-path="none" class="B F"/><path clip-path="none" d="M4209.877 2359.743a29.112 29.112 0 1 0 28.394-50.831 29.112 29.112 0 0 0-22.994-2.297 55.142 55.142 0 0 1-19.249 35.471 29.112 29.112 0 0 0 13.85 17.657z"/></g><g transform="matrix(.271348 .132156 -.132156 .271348 3149.34 1508.2905)" stroke-width="10.769" class="B"><path d="M4514.78 937.562c2.833 9.71 6.763 19.076 11.735 27.862l-14.162 17.862c-4.624 5.838-4.104 14.162 1.098 19.423l24.394 24.394c5.26 5.26 13.584 5.722 19.423 1.098l17.746-14.047c9.133 5.26 18.845 9.365 28.96 12.255l2.66 22.833c.867 7.4 7.1 12.948 14.51 12.948h34.5c7.4 0 13.642-5.55 14.51-12.948l2.543-22.024c10.868-2.832 21.272-7.052 31.042-12.544l17.168 13.584c5.838 4.624 14.162 4.104 19.423-1.098l24.394-24.394c5.26-5.26 5.723-13.584 1.098-19.423l-13.353-16.937c5.55-9.596 9.885-19.827 12.775-30.52l20.58-2.37c7.4-.867 12.948-7.1 12.948-14.51v-34.5c0-7.4-5.55-13.642-12.948-14.51l-20.3-2.37c-2.775-10.578-6.937-20.694-12.254-30.174l12.486-15.78c4.624-5.838 4.104-14.162-1.098-19.423l-24.336-24.336c-5.26-5.26-13.584-5.723-19.423-1.098l-15.318 12.14a128.65 128.65 0 0 0-31.735-13.295l-2.312-19.827c-.867-7.4-7.1-12.948-14.51-12.948h-34.5c-7.4 0-13.642 5.55-14.51 12.948l-2.312 19.827c-11.445 3.064-22.37 7.688-32.544 13.758l-15.896-12.602c-5.838-4.624-14.162-4.104-19.423 1.098l-24.394 24.394c-5.26 5.26-5.723 13.584-1.098 19.423l13.295 16.82c-5.318 9.596-9.365 19.827-12.024 30.463l-21.272 2.428c-7.4.867-12.948 7.1-12.948 14.51v34.5c0 7.4 5.55 13.642 12.948 14.51z" class="E"/><circle cx="4639.091" cy="902.531" r="77.013" fill="#f6f6f6"/></g><circle transform="rotate(25.968)" r="18.588" cy="250.587" cx="4818.103" class="B E F"/></g></g></g><defs ><path id="B" d="M5566.956 4123.997h9.543v6.627h-9.543z"/></defs></svg>