<svg xmlns="http://www.w3.org/2000/svg" width="70" height="47" viewBox="0 0 18.325 12.173"><g transform="matrix(.111635 0 0 .111635 -326.889316 -286.40394)"><g transform="matrix(1.04525 0 0 1 -137.92519 .000109)"><rect width="138.239" height="107.17" x="2951.241" y="2566.462" ry="11.571" fill="#fff" stroke="#143f5d" stroke-width="1.875"/><path d="M3077.08 2672.458l-113.18-.124c-6.27-.01-11.283-5.048-11.32-11.318l-.473-82.188c20.103 38.13 81.354 74.26 124.973 93.63z" fill="#f7f7f7"/><path d="M2963.77 2573.746h21.308v2.13h-21.308zm45.937 0h21.308v2.13h-21.308zm45.937 0h21.308v2.13h-21.308zm-91.874 90h21.308v2.13h-21.308zm45.937 0h21.308v2.13h-21.308zm45.937 0h21.308v2.13h-21.308z" fill="#143f5d"/></g><g stroke="#143f5d" stroke-width="1.875"><path d="M3062.18 2607.807h28.827v24.48h-28.827a5.65 5.65 0 0 1-5.662-5.662v-13.157a5.65 5.65 0 0 1 5.662-5.662z" fill="#66addd"/><circle r="3.965" cx="3066.268" cy="2620.047" fill="#fff"/></g></g><g transform="matrix(.162606 0 0 .162471 41.899446 -19.100096)"><circle cx="-236.278" cy="171.091" r="20.746" fill="#7ac8e5" stroke="#3aaed9" stroke-width="14.556"/><path d="M-238.715 158.107v14.666l-8.9-2.228 11.347 13.53 11.347-13.53-8.9 2.228v-14.666z" fill="#fff"/></g></svg>