<svg xmlns="http://www.w3.org/2000/svg" width="70" height="47" viewBox="0 0 18.337 12.173"><g transform="matrix(.111635 0 0 .111635 -326.877486 -286.40419)"><g transform="matrix(1.04525 0 0 1 -137.92519 .000109)"><rect ry="11.571" y="2566.462" x="2951.241" height="107.17" width="138.239" fill="#fff" stroke="#143f5d" stroke-width="1.875"/><path d="M3077.08 2672.458l-113.18-.124c-6.27-.01-11.283-5.048-11.32-11.318l-.473-82.188c20.103 38.13 81.354 74.26 124.973 93.63z" fill="#f7f7f7"/><path d="M2963.77 2573.746h21.308v2.13h-21.308zm45.937 0h21.308v2.13h-21.308zm45.937 0h21.308v2.13h-21.308zm-91.874 90h21.308v2.13h-21.308zm45.937 0h21.308v2.13h-21.308zm45.937 0h21.308v2.13h-21.308z" fill="#143f5d"/></g><g stroke="#143f5d" stroke-width="1.875"><path d="M3062.18 2607.807h28.827v24.48h-28.827a5.65 5.65 0 0 1-5.662-5.662v-13.157a5.65 5.65 0 0 1 5.662-5.662z" fill="#66addd"/><circle cy="2620.047" cx="3066.268" r="3.965" fill="#fff"/></g></g><g transform="matrix(-.160519 0 0 -.160391 -34.490844 36.181602)"><circle r="20.746" cy="171.091" cx="-236.278" fill="#d0f4b1" stroke="#9fe960" stroke-width="14.745"/><path d="M-238.715 158.107v14.666l-8.9-2.228 11.347 13.53 11.347-13.53-8.9 2.228v-14.666z" fill="#fff"/></g></svg>