<svg xmlns="http://www.w3.org/2000/svg" xmlns:xlink="http://www.w3.org/1999/xlink" viewBox="0 0 217.75 246.16"><style><![CDATA[.M{fill:none}.N{stroke:#465c66}.O{stroke-width:.5}.P{stroke-miterlimit:10}.Q{fill:#21a2d6}.R{stroke-linejoin:round}.S{opacity:.508}.T{fill:#9ad9f7}.U{stroke-linecap:round}.V{fill:#fdd6c4}]]></style><path d="M217.75 169.84c0 29.36-45.78 53.17-102.25 53.17S13.25 199.2 13.25 169.84c0-29.36 45.78-53.17 102.25-53.17s102.25 23.8 102.25 53.17z" opacity=".3" class="T"/><path d="M208.86 63.1L101.5 1.6C99.57.5 97.07-.03 94.9.47c-3.04.7-5.9 1.66-5.9 4.32l-.16 99.8 9.44 5.58-97.5 47.5-.23 3.85a4.63 4.63 0 0 0 2.32 4.02l110 63.62c3.1 1.8 6.9 1.8 10 0l89.32-51.63a3.02 3.02 0 0 0 1.51-2.61l.16-103.16a9.96 9.96 0 0 0-5.02-8.63z" class="Q"/><path d="M210.32 174.94l-121.97-69.6-.25-99.57c-.01-2.88 3.1-4.68 5.6-3.25l112.47 64.43c2.45 1.4 3.96 4 3.97 6.83l.18 101.15z" class="T"/><path d="M93.12 8.3l111.66 64.1.23 93.73-111.9-64.23z" fill="#dae7ed"/><path d="M210.25 174.93l-121.9-70.3-86.2 49.82a3.74 3.74 0 0 0 0 6.47l112.22 64.86c2.44 1.4 5.45 1.4 7.9 0l88-50.85z" fill="#cce6f8"/><path d="M47.54 178.6l.13-.1L69 166.1c.7-.4 1.93-.36 2.75.12l36.3 20.95a1.99 1.99 0 0 1 .35.26c.54-.4.4-1.06-.35-1.5l-36.3-20.95c-.82-.47-2.05-.52-2.75-.12l-21.34 12.4c-.57.34-.6.9-.12 1.33z" fill="#b9e2f8"/><path d="M108.04 187.17c.82.47.9 1.2.2 1.6l-21.34 12.4c-.7.4-1.93.35-2.75-.12l-36.3-20.95c-.82-.47-.92-1.18-.22-1.6L69 166.1c.7-.4 1.93-.35 2.75.12l36.3 20.95zm80.4-10.37c.8.46.84 1.18.1 1.6L151 200.23c-.74.43-2 .4-2.78-.05L45.65 140.95c-.8-.46-.84-1.18-.1-1.6l37.52-21.8c.74-.43 2-.4 2.78.05l102.58 59.22z" class="T"/><path d="M45.56 139.42c.03-.02.05-.04.08-.06l37.53-21.8c.74-.43 2-.4 2.78.06l102.58 59.22c.07.04.13.08.2.13.64-.44.57-1.1-.2-1.55L85.95 116.18c-.8-.46-2.04-.48-2.78-.05l-37.53 21.8c-.67.4-.68 1.02-.08 1.48z" fill="#b9e2f8"/><path d="M138.03 219.45l.2-.97 48.37-27.52v-2.37l-51.36 29.7.76 1.37.53.74z" class="Q"/><g class="N"><path d="M141.93 217.92l-19.35 11.2c-3.1 1.8-6.9 1.8-10 0l-110-63.6c-1.44-.83-2.3-2.36-2.3-4.02l.2-3.32c-.35-1.5.23-3.2 1.76-4.1l86.2-49.83.1.06.16-99.52C88.7 2.1 91.55 1.15 94.6.45c2.17-.5 4.67.03 6.6 1.13l107.36 61.5c3.1 1.77 5 5.07 5.02 8.64l-.15 103.16a3.02 3.02 0 0 1-1.51 2.61l-31.4 18.16-38.57 22.27z" class="M O P"/><g stroke-width=".709"><path d="M173.195 131.868l2.608-39.782-60.202-34.7-2.608 39.715z" opacity=".323" fill="#c9dce4"/><g fill="#fff" class="R"><path d="M173.195 131.868l.175-3.356-1.08-34.588-58.634-33.953-.66 37.14z" class="S"/><path d="M173.195 131.868l.175-3.356-3.437-32.73-58.634-33.953 1.695 35.282z" class="S"/><path d="M173.195 131.868l.175-3.356-5.402-29.93-58.634-33.953 3 28.335.65 4.145z" class="S"/><path d="M173.195 131.868l.175-3.356-6.944-27.074-58.634-33.953 4.552 25.48.65 4.145z" class="S"/></g></g><path d="M98.536 63.937l17.834 10.297 5.686 7.056 37.156 21.452 14.158 25.77-.175 3.356L112.993 97.1l-.78-3.494z" stroke-width=".816" class="Q R"/></g><g transform="translate(-2.189 -3.992)"><g transform="translate(-54.58 -9.69)"><linearGradient y2="208.211" x2="146.594" y1="206.199" x1="119.403" gradientUnits="userSpaceOnUse" id="A"><stop offset="0" stop-color="#231f20"/><stop offset="1" stop-color="#231f20" stop-opacity="0"/></linearGradient><path d="M121.2 200.27l-1.44 1.25 21.67 13.6 4.92-3.55-14.6-10.3-5.56-1.87z" opacity=".3" fill-rule="evenodd" fill="url(#A)"/><path d="M152.682 100.632l6.638 9.588" stroke-width="2" class="M N U"/><use xlink:href="#C" class="V"/><use xlink:href="#C" class="M N O P"/><g fill="#15405d"><use xlink:href="#D"/><use xlink:href="#E"/></g><g class="M N O P"><use xlink:href="#D"/><use xlink:href="#E"/></g><use xlink:href="#F" fill="#4c7597"/><use xlink:href="#F" class="M N O P"/><use xlink:href="#G" fill="#15405d"/><path d="M157.34 114.03s-1.5-1.45-1.45-3.76l-.44-1.98s.13-1.2 1.13-.63c1.12.65.84 2.28 1.5 2.7s1.25-.14 1.25-.14l-.87 3.54-1.06.25" class="V"/><g class="M N O P"><path d="M158.44 113.76l-1.06.25m-.04.02s-1.5-1.45-1.45-3.76l-.44-1.98s.13-1.2 1.13-.63c1.12.65.84 2.28 1.5 2.7s1.25-.14 1.25-.14"/><use xlink:href="#G"/></g><use xlink:href="#H" class="V"/><use xlink:href="#H" class="M N O P"/><use xlink:href="#I" fill="#5e4d45"/><use xlink:href="#I" class="M N O P"/></g><g transform="matrix(1 0 .169251 1 -13.780563 .130381)"><g class="N"><g class="R"><circle r="7.099" cy="84.452" cx="94.452" fill="#cce6f8" stroke-width="1.092"/><path d="M94.324 75.758c-4.817 0-8.744 3.927-8.744 8.744s3.927 8.744 8.744 8.744 8.744-3.927 8.744-8.744-3.927-8.744-8.744-8.744zm0 2a6.73 6.73 0 1 1 0 13.488 6.73 6.73 0 1 1 0-13.488z" class="Q"/></g><path d="M90.396 82.24c-1.197 1.34-.7 6.352 3.596 6.776" class="M U"/></g><path d="M92.773 87.388l-.86 1.728" stroke="#cce6f8" class="M R U"/></g></g><path d="M110.646 79.84l11.76 6.79 3.75 4.653 29.715 17.274 6.454 12.383-44.9-26.047z" fill="#2194c3"/><defs ><path id="C" d="M161.54 116.24s2.72-4.82 1.4-7.56c-1.32-2.75-4.9-3.77-6.04-2.4-1.14 1.37-.42 3.18.07 3.96s1.2 4.1 1.2 4.1l3.85 2.46"/><path id="D" d="M129.4 203.9s-.74 3.1.75 3.82c2.12 1 4.06-1.08 5.6-1.62s4.77-1.87 5.68-3.82.64-2.62.37-2.98c-.4-.53-1.62-.56-3.07.08-1.13.5-5.47 3.03-5.47 3.03l-3.52 1.54"/><path id="E" d="M118.2 198.2s-.74 3.1.75 3.82c2.12 1 4.07-1.08 5.6-1.62s4.77-1.87 5.68-3.82.64-2.62.36-2.98c-.4-.53-1.62-.56-3.06.07-1.13.5-5.47 3.03-5.47 3.03l-3.53 1.54"/><path id="F" d="M135.86 155.87l-.87-5.6-18.66-4.6a67.41 67.41 0 0 0 .76 7.22c.7 4.15 1.85 8.7 1.98 13.17.25 8.46-1.2 33.4-1.2 33.47.04 1.3 4.57 2.07 4.93-.1 0 0 2.68-21.62 2.98-27.78l.66-11.34s3.94 13.08 3.07 21.3c-.87 8.2-.65 17.3-.65 17.3s.17 5.68.3 5.95c.47 1.16 5.04 1.16 5.4-1l.05-1.23c.01 0 3.37-31.2 1.25-46.76z"/><path id="G" d="M159.55 113.87c-1.46-.36-2.36.24-2.36.24s-3.62 7.1-7.3 10.07c-1.56 1.26-12.8-11.2-12.8-11.2-3.23-4.26-10.65-6.58-10.65-6.58s-2.98-.6-5.57.7c-3.55 1.8-3 14.9-3.3 27-.2 8.5-3 8.3-2.22 10.97 1.28 4.36 15.63 6.74 20.53 4.75.97-.4 2.35-10.7 2.86-20.17 2.94 2.36 6.5 4.2 9.83 4.45 6.32.46 10.2-9.62 13.47-16.67.75-1.6-.87-3.18-2.47-3.58z"/><path id="H" d="M138.76 90.78l-.08-.17c-2.85-1.16-12.4 6.45-9.55 12.1h-3.47l-.8 4.72c3.05 3.48 7 1.38 7 1.38l.7-3c3.7 1.22 5.78-4.56 5.75-7.3-.04-3.33.43-7.74.43-7.74z"/><path id="I" d="M123.98 103.67s.6 1.6 4.76 1.8c0 0 1.66-.1 2.1-.4.83-.57 1.32-3.1 1.32-3.1s-2.13-2.64-1-3.88c1.25-1.36 1.97.3 2.2 2.14.06.5 1.26.2 1.26.2s.5-1.63.63-3.43c.14-2.07-.06-4.38.77-4.6 0 0 3.97-.92 3.54-3.84 0 0-2.02-.04-4.95-1.47-2.92-1.43-12.84-3-12.53 2.34 0 0-.68 1.46-.68 2.75 0 2.18-.01 6.77 2.6 11.47"/></defs></svg>