<svg xmlns="http://www.w3.org/2000/svg" width="359" height="178" viewBox="0 0 94.981 46.844"><path d="M9.208-.001A9.19 9.19 0 0 0 0 9.206a9.19 9.19 0 0 0 9.207 9.207h11.334c-1.94 1.42-3.096 3.2-3.096 5.14 0 1.82 1.018 3.502 2.748 4.875h-3.878a9.19 9.19 0 0 0-9.207 9.207 9.19 9.19 0 0 0 9.207 9.207H67.36a9.19 9.19 0 0 0 9.207-9.207 9.19 9.19 0 0 0-9.207-9.207h-5.17c1.73-1.373 2.748-3.054 2.748-4.875 0-1.94-1.156-3.72-3.096-5.14h23.934a9.19 9.19 0 0 0 9.208-9.207 9.19 9.19 0 0 0-9.208-9.207z" fill="#dce7ec"/><g transform="matrix(.225228 0 0 .225228 -215.11267 -558.53049)"><g stroke="#143f5d" stroke-width="1.883"><path d="M1122.83 2482.22l-12.522 5.797-8.623-5.538-10.463 6.177-12.863-5.832c-1.008 47.91.16 79.758-.292 127.436 0 10.773 8.08 19.506 18.05 19.507 2.616-.01 5.2-.63 7.572-1.823l44.162.652v-145.772l-13.044 6.2z" fill="#fff"/><path d="M1114.807 2604.122v-86.898c0-7.043 5.303-12.922 11.822-12.882l27.293.168c6.518.04 11.765 12.713 11.765 12.713v99.902l-11.765 12.714-59.524-.262c23.043.29 20.4-25.456 20.4-25.456z" fill="#ebebeb"/><rect width="98.175" height="125.631" x="1126.446" y="2549.015" ry="7.072" fill="#d0f4b1"/><rect ry="1.483" y="2571.232" x="1143.764" height="29.157" width="63.539" fill="#fff"/></g><path d="M1138.052 2620.402h74.962v2.354h-74.962zm0 16.478h74.962v2.354h-74.962zm0 16.48h74.962v2.354h-74.962z" fill="#143f5d"/><path d="M1184.27 2618.9h14.38v41.52h-14.38zm-31.187 0h14.38v41.52h-14.38z" fill="#d0f4b1"/><path d="M1136.148 2555.197h78.77v5.742h-78.77z" fill="#143f5d"/><path d="M1145.96 2572.136c6.868 16.064 31.726 22.09 60.482 25.943 0 .77-.6 1.4-1.322 1.4h-59.16c-.732 0-1.322-.62-1.322-1.4v-24.553c0-.77.6-1.4 1.322-1.4z" fill="#ededed"/><path d="M1125.677 2504.356l68.612.127c15.065-.403 17.254 15.47 17.254 15.47v39.54l-71.283-.588.033-32.056s1.742-22.698-14.616-22.494z" fill="#fff" stroke="#143f5d" stroke-width="1.883"/><path d="M1115.843 2514.987s3.11-4.267 9.834-4.475 12.215 4.33 12.215 4.33c-3.47-12.872-19.112-12.968-22.05.145z" fill="#ababab"/></g></svg>