<?xml version="1.0" encoding="utf-8"?>
<!-- Generator: Adobe Illustrator 23.0.0, SVG Export Plug-In . SVG Version: 6.00 Build 0)  -->
<svg version="1.1" id="Layer_1" xmlns="http://www.w3.org/2000/svg" xmlns:xlink="http://www.w3.org/1999/xlink" x="0px" y="0px"
	 viewBox="0 0 218.14 216.55" style="enable-background:new 0 0 218.14 216.55;" xml:space="preserve">
<style type="text/css">
	.st0{fill:#F3FAFD;stroke:#3D5567;stroke-width:0.5;stroke-miterlimit:10;}
	.st1{fill:none;stroke:#4299D4;stroke-width:2;stroke-linecap:round;stroke-linejoin:round;}
	.st2{fill:none;stroke:#3E5568;stroke-width:0.2;stroke-miterlimit:10;}
	.st3{fill:#3E5568;}
	.st4{fill:none;stroke:#3D5567;stroke-linecap:round;}
	.st5{fill:#4299D4;}
	.st6{fill:#AED582;}
	.st7{fill:none;}
	.st8{fill:#F3FAFD;}
	.st9{opacity:0.2;}
	.st10{fill:#FFFFFF;}
	.st11{fill:url(#rect2546_8_);}
	.st12{opacity:0.1;}
	.st13{fill:#5CA6D6;}
	.st14{fill:none;stroke:#5CA6D6;stroke-linecap:round;stroke-linejoin:round;}
	.st15{opacity:0.7;}
	.st16{fill:none;stroke:#3E5568;stroke-width:0.1;stroke-miterlimit:10;}
	.st17{fill:#3E5568;stroke:#3E5568;stroke-width:1.5;stroke-linecap:round;stroke-linejoin:round;}
	.st18{fill:#8CC540;}
	.st19{fill:#4C89B1;}
	.st20{fill:none;stroke:#FFFFFF;stroke-width:2;stroke-linecap:round;}
	.st21{opacity:0.85;fill:#3F5768;}
	.st22{opacity:0.08;}
	.st23{opacity:0.5;}
	.st24{fill:url(#rect2546_10_);}
	.st25{opacity:0.7;clip-path:url(#SVGID_2_);}
	.st26{opacity:0.15;fill:#FFFFFF;enable-background:new    ;}
	.st27{opacity:0.1;fill:#FFFFFF;enable-background:new    ;}
	.st28{fill:none;stroke:#3E5568;stroke-width:0.3;stroke-miterlimit:10;}
	.st29{fill:url(#rect2546_12_);}
	.st30{opacity:0.7;clip-path:url(#SVGID_4_);}
	.st31{fill:#D1D2D6;}
	.st32{opacity:0.6;}
	.st33{opacity:0.8;}
	.st34{fill:#FFFFFF;stroke:#5CA6D6;stroke-width:0.7;stroke-miterlimit:10;}
	.st35{opacity:0.3;fill:#4299D4;}
	.st36{clip-path:url(#rect2546_13_);fill:url(#SVGID_5_);}
	.st37{clip-path:url(#rect2546_16_);}
	.st38{opacity:0.15;clip-path:url(#SVGID_7_);fill:#FFFFFF;enable-background:new    ;}
	.st39{opacity:0.1;clip-path:url(#SVGID_7_);fill:#FFFFFF;enable-background:new    ;}
	.st40{clip-path:url(#rect2546_19_);fill:url(#SVGID_8_);}
	.st41{clip-path:url(#SVGID_10_);}
	.st42{fill:#EC7690;}
	.st43{fill:none;stroke:#5CA6D6;stroke-width:0.3;stroke-miterlimit:10;}
	.st44{fill:none;stroke:#3D5567;stroke-width:0.2;stroke-miterlimit:10;}
	.st45{fill:none;stroke:#4299D4;stroke-width:0.75;stroke-miterlimit:10;}
	.st46{fill:#FAFDFF;}
	.st47{fill:#ED7790;}
	.st48{opacity:0.2;fill:none;stroke:#4299D4;stroke-width:3;stroke-linecap:round;stroke-linejoin:round;}
	.st49{clip-path:url(#SVGID_12_);}
	.st50{clip-path:url(#rect2546_25_);}
	.st51{opacity:0.7;clip-path:url(#SVGID_14_);}
	.st52{clip-path:url(#rect2546_26_);fill:url(#SVGID_15_);}
	.st53{clip-path:url(#SVGID_17_);}
	.st54{opacity:0.2;clip-path:url(#SVGID_17_);}
	.st55{clip-path:url(#SVGID_17_);fill:#FFFFFF;}
	.st56{clip-path:url(#SVGID_19_);}
	.st57{opacity:0.1;fill:#88C3E9;}
	.st58{fill:none;stroke:#819EB6;stroke-width:0.2;stroke-miterlimit:10;}
	.st59{fill:#3E5568;stroke:#3E5568;stroke-linecap:round;stroke-linejoin:round;}
	.st60{fill:#A6CF5B;}
	.st61{fill:#D16060;}
	.st62{clip-path:url(#SVGID_21_);}
	.st63{opacity:0.2;clip-path:url(#SVGID_21_);}
	.st64{clip-path:url(#SVGID_21_);fill:#FFFFFF;}
	.st65{clip-path:url(#rect2546_27_);fill:url(#SVGID_22_);}
	.st66{clip-path:url(#rect2546_28_);}
	.st67{opacity:0.15;clip-path:url(#SVGID_24_);fill:#FFFFFF;enable-background:new    ;}
	.st68{opacity:0.1;clip-path:url(#SVGID_24_);fill:#FFFFFF;enable-background:new    ;}
	.st69{clip-path:url(#SVGID_26_);}
	.st70{opacity:0.2;clip-path:url(#SVGID_26_);}
	.st71{clip-path:url(#SVGID_26_);fill:#FFFFFF;}
	.st72{opacity:0.6;fill:#ACBCC4;}
	.st73{fill:none;stroke:#4299D4;stroke-width:3;stroke-linecap:round;stroke-linejoin:round;}
	.st74{fill:#F2FAFE;}
	.st75{fill:none;stroke:#ACBCC4;stroke-width:0.3;stroke-miterlimit:10;}
	.st76{fill:none;stroke:#ACBCC4;stroke-width:0.2;stroke-miterlimit:10;}
	.st77{fill:none;stroke:#4299D4;stroke-width:6;stroke-linecap:round;stroke-linejoin:round;}
	.st78{fill:#ACBCC4;}
	.st79{fill:none;stroke:#ACBCC4;stroke-miterlimit:10;}
	.st80{clip-path:url(#rect2546_29_);}
	.st81{opacity:0.15;clip-path:url(#SVGID_28_);fill:#FFFFFF;enable-background:new    ;}
	.st82{opacity:0.1;clip-path:url(#SVGID_28_);fill:#FFFFFF;enable-background:new    ;}
	.st83{clip-path:url(#rect2546_30_);fill:url(#SVGID_29_);}
	.st84{clip-path:url(#SVGID_31_);}
	.st85{clip-path:url(#SVGID_33_);}
	.st86{clip-path:url(#rect2546_32_);}
	.st87{opacity:0.7;clip-path:url(#SVGID_35_);}
	.st88{clip-path:url(#rect2546_33_);fill:url(#SVGID_36_);}
	.st89{clip-path:url(#SVGID_38_);}
	.st90{opacity:0.2;clip-path:url(#SVGID_38_);}
	.st91{clip-path:url(#SVGID_38_);fill:#FFFFFF;}
	.st92{clip-path:url(#SVGID_40_);}
	.st93{clip-path:url(#SVGID_42_);}
	.st94{opacity:0.2;clip-path:url(#SVGID_42_);}
	.st95{clip-path:url(#SVGID_42_);fill:#FFFFFF;}
	.st96{clip-path:url(#rect2546_34_);}
	.st97{opacity:0.15;clip-path:url(#SVGID_44_);fill:#FFFFFF;enable-background:new    ;}
	.st98{opacity:0.1;clip-path:url(#SVGID_44_);fill:#FFFFFF;enable-background:new    ;}
	.st99{clip-path:url(#SVGID_46_);}
	.st100{opacity:0.2;clip-path:url(#SVGID_46_);}
	.st101{clip-path:url(#SVGID_46_);fill:#FFFFFF;}
	.st102{clip-path:url(#SVGID_48_);}
	.st103{fill:#F7F6F6;}
	.st104{fill:#F7F7F7;}
	.st105{clip-path:url(#SVGID_50_);}
	.st106{opacity:0.2;clip-path:url(#SVGID_50_);}
	.st107{clip-path:url(#SVGID_50_);fill:#FFFFFF;}
	.st108{fill:none;stroke:#4299D4;stroke-width:1.5;stroke-linecap:round;stroke-linejoin:round;}
	.st109{clip-path:url(#SVGID_50_);fill:none;stroke:#819EB6;stroke-width:0.2;stroke-miterlimit:10;}
	.st110{fill:none;stroke:#819EB6;stroke-miterlimit:10;}
	.st111{fill:#819EB6;}
	.st112{fill:none;stroke:#4399D4;stroke-width:1.3;stroke-miterlimit:10;}
	.st113{fill:none;stroke:#4299D4;stroke-miterlimit:10;}
	.st114{fill:none;stroke:#4299D4;stroke-linecap:round;stroke-linejoin:round;stroke-miterlimit:10;}
	.st115{fill:#FFFFFF;stroke:#4299D4;stroke-width:0.75;stroke-linecap:round;stroke-linejoin:round;stroke-miterlimit:10;}
	.st116{fill:#FFFFFF;stroke:#4299D4;stroke-linecap:round;stroke-linejoin:round;stroke-miterlimit:10;}
	.st117{fill:#4399D4;stroke:#4399D4;stroke-miterlimit:10;}
	.st118{fill:none;stroke:#FFFFFF;stroke-miterlimit:10;}
	.st119{fill:none;stroke:#FFFFFF;stroke-linecap:round;stroke-linejoin:round;stroke-miterlimit:10;}
	.st120{fill:#FFFFFF;stroke:#FFFFFF;stroke-width:0.75;stroke-linecap:round;stroke-linejoin:round;stroke-miterlimit:10;}
	.st121{fill-rule:evenodd;clip-rule:evenodd;fill:#4299D4;}
	.st122{fill:none;stroke:#4499D4;stroke-width:1.3;stroke-miterlimit:10;}
	.st123{fill:#4499D4;stroke:#4499D4;stroke-miterlimit:10;}
	.st124{fill:none;stroke:#FFFFFF;stroke-width:0.7;stroke-linecap:round;stroke-linejoin:round;stroke-miterlimit:10;}
	.st125{fill:none;stroke:#FFFFFF;stroke-width:0.7;stroke-linecap:round;stroke-miterlimit:10;}
	.st126{fill:#FFFFFF;stroke:#4499D4;stroke-linecap:round;stroke-linejoin:round;stroke-miterlimit:10;}
	.st127{fill:none;stroke:#4499D4;stroke-width:0.7;stroke-linecap:round;stroke-miterlimit:10;}
	.st128{fill:#4499D4;stroke:#4499D4;stroke-width:1.3;stroke-miterlimit:10;}
	.st129{fill:none;stroke:#4499D4;stroke-width:0.7;stroke-linecap:round;stroke-linejoin:round;stroke-miterlimit:10;}
	.st130{fill:#4499D4;stroke:#FFFFFF;stroke-linecap:round;stroke-linejoin:round;stroke-miterlimit:10;}
	.st131{fill:#4399D4;stroke:#4399D4;stroke-width:1.3;stroke-miterlimit:10;}
	.st132{fill:#4299D4;stroke:#FFFFFF;stroke-linecap:round;stroke-linejoin:round;stroke-miterlimit:10;}
	.st133{fill-rule:evenodd;clip-rule:evenodd;fill:#FFFFFF;}
	.st134{fill:url(#rect2546_35_);}
	.st135{opacity:0.7;clip-path:url(#SVGID_52_);}
	.st136{fill:none;stroke:#E1F4FD;stroke-width:1.5;stroke-linecap:round;stroke-linejoin:bevel;}
	.st137{fill:#92C5E6;}
	.st138{fill:#C5C5C4;}
	.st139{opacity:0.5;fill:#A6CF5D;}
	.st140{fill:#A6CF5D;}
	.st141{fill:url(#rect2546_36_);}
	.st142{opacity:0.7;clip-path:url(#SVGID_54_);}
	.st143{fill:#FFFCEB;}
	.st144{opacity:0.5;fill:#FFFCED;}
	.st145{opacity:0.25;fill:#FFFCED;}
	.st146{fill:none;stroke:#3D5567;stroke-width:0.5;stroke-miterlimit:10;}
	.st147{fill:#FDE2E4;}
	.st148{opacity:0.5;fill:#FDE2E4;}
	.st149{opacity:0.25;fill:#FDE2E4;}
	.st150{fill:url(#rect2546_37_);}
	.st151{opacity:0.7;clip-path:url(#SVGID_56_);}
	.st152{fill:url(#rect2546_38_);}
	.st153{opacity:0.7;clip-path:url(#SVGID_58_);}
	.st154{fill:#4299D4;stroke:#FFFFFF;stroke-width:0.75;stroke-linecap:round;stroke-linejoin:round;stroke-miterlimit:10;}
	.st155{fill:none;stroke:#E35162;stroke-miterlimit:10;}
	.st156{fill:#E35162;}
</style>
<g>
	<line class="st75" x1="3.66" y1="10.01" x2="52.76" y2="10.01"/>
	<line class="st76" x1="0" y1="192.99" x2="218.14" y2="192.99"/>
	<g>
		<line class="st77" x1="110.78" y1="44.07" x2="110.78" y2="111.21"/>
		<line class="st77" x1="77.21" y1="77.64" x2="144.35" y2="77.64"/>
	</g>
	<g class="st32">
		<g>
			<path class="st78" d="M28.82,160.15c0,2.51-2.03,4.54-4.54,4.54c-2.51,0-4.54-2.03-4.54-4.54c0-2.51,2.03-4.54,4.54-4.54
				C26.78,155.61,28.82,157.65,28.82,160.15z"/>
			<rect x="35.85" y="156.81" class="st78" width="42.64" height="6.69"/>
			<rect x="19.74" y="171.13" class="st78" width="58.75" height="6.69"/>
		</g>
		<g>
			<path class="st78" d="M148.73,160.15c0,2.51-2.03,4.54-4.54,4.54c-2.51,0-4.54-2.03-4.54-4.54c0-2.51,2.03-4.54,4.54-4.54
				C146.69,155.61,148.73,157.65,148.73,160.15z"/>
			<rect x="155.76" y="156.81" class="st78" width="42.64" height="6.69"/>
			<rect x="139.65" y="171.13" class="st78" width="58.75" height="6.69"/>
		</g>
	</g>
	<g class="st32">
		<g>
			<path class="st78" d="M32.9,208.74v2.81c-0.24-0.35-0.61-0.6-1.03-0.71v-1.51c0-0.66-0.44-1.23-1.05-1.42
				c-0.19-0.06-0.31-0.24-0.31-0.43l0,0c0-0.39,0.34-0.7,0.72-0.65c0.42,0.06,0.8,0.26,1.09,0.55
				C32.69,207.73,32.9,208.21,32.9,208.74z"/>
			<path class="st78" d="M32.71,213.92c0.07-0.07,0.13-0.15,0.19-0.23v0.23c0,0.75-0.44,1.41-1.07,1.72
				c0.03-0.13,0.04-0.26,0.04-0.4v-0.85C32.2,214.31,32.48,214.15,32.71,213.92z"/>
			<path class="st78" d="M27.23,205.12l-4.29,2.24c-0.12,0.06-0.25,0.06-0.37-0.01l0,0c-0.21-0.12-0.25-0.4-0.08-0.58l3.26-3.5
				c0.18-0.19,0.48-0.18,0.64,0.02l0.97,1.19C27.54,204.68,27.47,205,27.23,205.12z"/>
			<path class="st78" d="M29.34,207.76l-6.01,0.26c-0.08,0-0.15-0.03-0.2-0.09l0,0c-0.1-0.12-0.05-0.31,0.1-0.37l5.36-2.2
				c0.22-0.09,0.48,0.02,0.56,0.25l0.57,1.58C29.82,207.46,29.63,207.75,29.34,207.76z"/>
			<path class="st78" d="M31.01,211.55h-1.13c-0.59,0.01-1.06,0.49-1.06,1.07c0,0.59,0.48,1.07,1.07,1.07c0.01,0,1.12,0,1.12,0
				c0.3,0,0.56-0.12,0.76-0.31c0.19-0.19,0.31-0.46,0.31-0.76C32.08,212.03,31.6,211.55,31.01,211.55z M29.9,212.9
				c-0.16,0-0.28-0.13-0.28-0.28c0-0.16,0.13-0.28,0.28-0.28c0.16,0,0.28,0.13,0.28,0.28C30.18,212.77,30.05,212.9,29.9,212.9z"/>
			<path class="st78" d="M28.32,211.35c-0.33,0.33-0.53,0.78-0.54,1.28c-0.01,1.02,0.88,1.86,1.9,1.86h0.94
				c0.18,0,0.32,0.15,0.32,0.32v0.3c0,0.79-0.64,1.44-1.44,1.44h-8.33c-0.79,0-1.44-0.65-1.44-1.44v-6.87
				c0-0.12,0.01-0.23,0.04-0.34c0.15-0.63,0.72-1.09,1.4-1.09h0.18c0.18,0,0.32,0.15,0.32,0.32v0.01c0,0.11-0.06,0.2-0.14,0.27
				c-0.02,0.02-0.05,0.04-0.07,0.06c-0.13,0.13-0.21,0.31-0.21,0.51c0,0.38,0.29,0.69,0.66,0.72v0.01c0.06,0.01,0.12,0.02,0.19,0.02
				h7.08c0.97,0,1.76,0.79,1.76,1.76l0,0c0,0.18-0.15,0.32-0.32,0.32h-1C29.11,210.81,28.65,211.02,28.32,211.35z"/>
		</g>
		<rect x="41.01" y="208.94" class="st78" width="37.48" height="4.75"/>
	</g>
	<rect x="140.41" y="208.94" class="st72" width="57.99" height="4.75"/>
	<rect x="3.91" class="st78" width="48.85" height="4.75"/>
	<rect x="3.91" y="16" class="st78" width="16.38" height="4.75"/>
</g>
</svg>
