<svg xmlns="http://www.w3.org/2000/svg" width="359" height="178" viewBox="0 0 94.981 46.844"><path d="M9.208-.001A9.19 9.19 0 0 0 0 9.206a9.19 9.19 0 0 0 9.207 9.207h11.334c-1.94 1.42-3.096 3.2-3.096 5.14 0 1.82 1.018 3.502 2.748 4.875h-3.878a9.19 9.19 0 0 0-9.207 9.207 9.19 9.19 0 0 0 9.207 9.207H67.36a9.19 9.19 0 0 0 9.207-9.207 9.19 9.19 0 0 0-9.207-9.207h-5.17c1.73-1.373 2.748-3.054 2.748-4.875 0-1.94-1.156-3.72-3.096-5.14h23.934a9.19 9.19 0 0 0 9.208-9.207 9.19 9.19 0 0 0-9.208-9.207z" fill="#dce7ec"/><g transform="matrix(.249805 0 0 .249805 -710.01498 -623.39554)"><g transform="rotate(317.072 3003.6 2544.235)" stroke="#143f5d"><rect ry="7.576" y="2534.474" x="2970.017" height="60.609" width="95.544" fill="#fff" stroke-width="1.698"/><g fill="#d0f4b1" stroke-width="1.875"><rect ry="2.975" y="2538.53" x="3037.639" height="16.683" width="18.246"/><path d="M3031.138 2574.628h30.636v7.7h-30.636z"/></g></g><g transform="rotate(328.295 3019.246 2560.096)"><rect width="95.544" height="60.609" x="2970.017" y="2534.474" ry="7.576" fill="#d0f4b1" stroke="#143f5d" stroke-width="1.698"/><path d="M2970.033 2545.164h94.687v10.362h-94.687zm61.105 29.464h30.636v2.344h-30.636zm0 7.702h30.636v2.344h-30.636z" fill="#fff"/></g><g transform="matrix(.957013 0 0 .957013 126.90467 110.28364)"><g transform="matrix(1.04525 0 0 1 -137.92519 .000109)"><rect ry="11.571" y="2566.462" x="2951.241" height="107.17" width="138.239" fill="#fff" stroke="#143f5d" stroke-width="1.875"/><path d="M3077.08 2672.458l-113.18-.124c-6.27-.01-11.283-5.048-11.32-11.318l-.473-82.188c20.103 38.13 81.354 74.26 124.973 93.63z" fill="#f7f7f7"/><path d="M2963.77 2573.746h21.308v2.13h-21.308zm45.937 0h21.308v2.13h-21.308zm45.937 0h21.308v2.13h-21.308zm-91.874 90h21.308v2.13h-21.308zm45.937 0h21.308v2.13h-21.308zm45.937 0h21.308v2.13h-21.308z" fill="#143f5d"/></g><g stroke="#143f5d" stroke-width="1.875"><path d="M3062.18 2607.807h28.827v24.48h-28.827a5.65 5.65 0 0 1-5.662-5.662v-13.157a5.65 5.65 0 0 1 5.662-5.662z" fill="#d0f4b1"/><circle cy="2620.047" cx="3066.268" r="3.965" fill="#fff"/></g></g></g></svg>