<svg xmlns="http://www.w3.org/2000/svg" width="359" height="178" viewBox="0 0 94.981 46.844"><g transform="matrix(.282222 0 0 .282222 -1003.1445 -709.88715)"><path d="M3587.075 2515.348c-18.074 0-32.624 14.55-32.624 32.624s14.55 32.624 32.624 32.624h40.16c-6.876 5.028-10.97 11.34-10.97 18.214 0 6.453 3.61 12.408 9.735 17.273h-13.74c-18.074 0-32.624 14.55-32.624 32.624s14.55 32.624 32.624 32.624h180.865c18.074 0 32.624-14.55 32.624-32.624s-14.55-32.624-32.624-32.624h-18.32c6.127-4.865 9.737-10.82 9.737-17.273 0-6.875-4.095-13.185-10.972-18.214h84.805c18.074 0 32.626-14.55 32.626-32.624s-14.552-32.624-32.626-32.624z" fill="#dce7ec"/><g transform="matrix(.939681 0 0 .939681 207.90347 169.2351)"><g transform="matrix(.599713 0 0 .599713 1566.0293 1059.4714)"><path d="M3627.62 2575.606h130.782v97H3627.62z" fill="#fff" stroke="#143f5d" stroke-width="3.327"/><path d="M3627.673 2577.287h36.648v93.686h-36.648z" fill="#dcdcdc"/><path d="M3643.692 2544.9h98.64l16.07 30.706H3627.62z" fill="#fff" stroke="#143f5d" stroke-width="3.327"/><path d="M3643.767 2546.535l10.187.743 10.726 26.608-37.207-.062z" fill="#dcdcdc"/></g><g stroke="#143f5d" stroke-width="1.995"><path d="M3775.792 2585.8h8.9l1.18 18.38.023 15.697-5.465-3.408-6.036 3.408-.098-15.686z" fill="#d0f4b1"/><path d="M3770.35 2604.105h16.754" fill="none"/></g></g><g transform="matrix(.8398 0 0 .8398 580.76085 426.46288)"><path d="M3627.62 2575.606h130.782v97H3627.62z" fill="#d0f4b1" stroke="#143f5d" stroke-width="2.233"/><path d="M3628.658 2576.743c30.31 46.857 77.48 73.237 128.65 94.765h-128.65z" fill="#b9e98f"/><path d="M3643.692 2544.9h98.64l16.07 30.706H3627.62z" fill="#d0f4b1" stroke="#143f5d" stroke-width="2.233"/></g><g stroke="#143f5d"><g stroke-width="1.575"><path d="M3675.172 2563.836h12.45l1.654 25.738.033 21.98-7.652-4.772-8.453 4.772-.137-21.966z" fill="#fff"/><path d="M3667.553 2589.47h23.462" fill="none"/></g><path d="M3636.324 2601.414h14.713v14.713h-14.713zm69.098 46.76h21.567v4.948h-21.567zm-13.334 11.25h34.9v4.948h-34.9z" fill="#fff" stroke-width="1.313"/></g></g></svg>