<svg xmlns="http://www.w3.org/2000/svg" width="359" height="178" viewBox="0 0 94.981 46.844"><style><![CDATA[.B{stroke:#143f5d}.C{stroke-width:1.875}.D{fill:#d0f4b1}.E{fill:#143f5d}.F{stroke-linecap:square}]]></style><path d="M9.208-.001A9.19 9.19 0 0 0 0 9.206a9.19 9.19 0 0 0 9.207 9.207h11.334c-1.94 1.42-3.096 3.2-3.096 5.14 0 1.82 1.018 3.502 2.748 4.875h-3.878a9.19 9.19 0 0 0-9.207 9.207 9.19 9.19 0 0 0 9.207 9.207H67.36a9.19 9.19 0 0 0 9.207-9.207 9.19 9.19 0 0 0-9.207-9.207h-5.17c1.73-1.373 2.748-3.054 2.748-4.875 0-1.94-1.156-3.72-3.096-5.14h23.934a9.19 9.19 0 0 0 9.208-9.207 9.19 9.19 0 0 0-9.208-9.207z" fill="#dce7ec"/><g transform="matrix(.319178 0 0 .319178 -430.589812 -973.674609)" stroke-width="1.828" class="B"><path d="M1461.792 3133.66c-24.107 0-43.513 16.597-43.513 37.213v17.364-18.744 18.744h114.8v-17.364c0-20.615-19.406-37.213-43.513-37.213z" class="D"/><g fill="#e9d0b8"><path d="M1462.47 3089.722h29.54v43.938l-14.877 4.52-14.665-4.52z"/><rect ry="24.655" y="3061.782" x="1446.974" height="64.849" width="57.927"/></g><path d="M1458.836 3055.428c-6.822 0-12.314 5.845-12.314 13.105v7.103l.474 8.607s4.287-11.278 12.787-10.89 32.613 14.786 39.326 6.156l5.685 3.078v-14.052c0-7.26-5.492-13.105-12.314-13.105z" fill="#bc7f67"/><path d="M1460.9 3133.66l14.665 4.52-9.1 10.407-15.6-13.495zm29.54 0l-14.665 4.52 8.615 10.407 16.063-13.495z" fill="#fff"/></g><g transform="matrix(.282222 0 0 .282222 -438.1102 -709.00947)"><rect width="119.801" height="156.4" x="2332.248" y="2524.32" ry="3.788" stroke-width="4.43" transform="matrix(.432542 0 0 .414134 721.74199 1556.8355)" class="B D"/><g transform="matrix(.907806 0 0 .907806 162.68048 239.50904)"><path d="M1773.543 2612.44l5.822.17-.404 51.908h-5.543z" fill="#d9d9d9"/><path d="M1734.08 2605.774h44.1v58.337h-44.1z" fill="#fff" class="B C"/><path d="M1735.105 2606.838c10.912 23.052 23.863 40.97 41.564 56.104l-41.556.216z" fill="#f9f9f9"/><path d="M1756.06 2622.783h16.936v.78h-16.936z" class="E"/><path d="M1741.665 2622.036l2.393 2.883 5.66-3.72" fill="none" class="B C F"/><path d="M1756.3 2633.22h16.705v.78H1756.3z" class="E"/><path d="M1741.665 2632.474l2.393 2.883 5.66-3.72" fill="none" class="B C F"/><path d="M1756.044 2643.66h16.95v.78h-16.95z" class="E"/><path d="M1741.665 2642.912l2.393 2.883 5.66-3.72" fill="none" class="B C F"/></g><path d="M1756.128 2598.082a2.8 2.8 0 0 0-2.75 2.287h-4.93c-.94 0-1.697.757-1.697 1.697v1.404c0 .94.757 1.697 1.697 1.697h15.362c.94 0 1.697-.757 1.697-1.697v-1.404c0-.94-.757-1.697-1.697-1.697h-4.93a2.8 2.8 0 0 0-2.751-2.287z" stroke-width="1.313" class="B D"/></g></svg>