<svg xmlns="http://www.w3.org/2000/svg" xmlns:xlink="http://www.w3.org/1999/xlink" width="459" height="196" viewBox="0 0 121.34 51.648"><style><![CDATA[.B{stroke:#143f5d}.C{fill:#b8b8b8}.D{fill:#d0f4b1}.E{stroke-width:.757}.F{stroke-width:.593}.G{stroke-width:.73}.H{stroke-width:.223}.I{stroke-width:1.312}.J{stroke-width:.432}]]></style><path d="M.114 48.37H121.34v.416H.114z" fill="#143f5d"/><path d="M96.335 0c-.477 0-.864.387-.864.864 0 .43.313.78.723.847v4.022H93.24V6.87h-4.692v1.455h.573l2.53 5.062h2.222v34.74h4.983v-34.74h2.16l2.53-5.062h.582V6.87h-4.7V5.732h-2.955V1.7c.4-.067.723-.417.723-.847 0-.477-.387-.864-.864-.864zM46.267 18.847v2.92h1.446v10.557h-11.35v2.92h2.258V48.06h50.64V35.242h2.258v-2.92H80.17V21.766h1.446v-2.92h-35.35z" opacity=".4" fill="#c2e1f5" stroke="#4199d5" stroke-width=".448"/><g stroke="#3375a3" class="D E"><g transform="matrix(.223758 0 0 .223758 107.88098 -127.569508)"><use xlink:href="#B"/><path d="M-405.348 786.747v-40.714m-.078 8.637l-9.208-8.494"/><path d="M-405.43 758.83l10.414-9.995"/><use xlink:href="#C"/><path d="M-379.707 786.747v-30.5m-.058 6.463l-6.892-6.365"/><path d="M-379.768 765.827l7.794-7.5"/></g><g transform="matrix(-.223758 0 0 .223758 20.737729 -127.569508)"><use xlink:href="#B"/><path d="M-405.348 786.747v-40.714m-.078 8.637l-9.208-8.494"/><path d="M-405.43 758.83l10.414-9.995"/><use xlink:href="#C"/><path d="M-379.707 786.747v-30.5m-.058 6.463l-6.892-6.365"/><path d="M-379.768 765.827l7.794-7.5"/></g></g><g transform="matrix(1.267883 .034346 -.034346 1.267883 -47.570256 -80.296584)"><path d="M66.445 92.063l2.314 7.573 50.62-1.22z" fill="#9cbdcf" stroke-width=".209" class="B"/><path d="M66.58 92.063l.608 1.89 52.192 4.462z" fill="#5086a4"/><path d="M72.428 85.837l-2.018.797-13.17 4.96 62.138 6.822-31.788-10.62z" fill="#f2f2f2" class="B H"/><path d="M71.867 82.697L70.4 86.633l-13.17 4.96 24.513 2.575 13.986-3.53s-13.24-3.897-23.872-7.942z" class="C"/><g fill="#fff" class="B H"><path d="M71.782 82.515L70.4 86.633l15.464 3.864 27.56-6.246L86.3 87.478z"/><path d="M70.4 86.633l-13.17 4.96 23.903 2.56 32.29-9.903-27.67 6.22z"/></g><path d="M85.77 90.617L70.426 86.78l-12.574 4.74 23.295 2.5.93-.684zm-13.903-7.92L70.58 86.53l15.196 3.803.52-2.714z" fill="#f8f8f8"/></g><g transform="matrix(1.146639 .17919 -.17919 1.146639 172.5103 -86.406537)"><g transform="matrix(.184709 -.015846 .015846 .184709 -76.268731 113.59599)"><path d="M-234.568 72.233a13.762 13.762 0 0 0-13.252 7.127l12.277 1.053a1.33 1.33 0 0 1 1.213 1.44l-.758 8.833a1.33 1.33 0 0 1-1.44 1.212l-12.058-1.034a13.762 13.762 0 0 0 25.353.779l.322.04 55.048 4.723c2.274.195 4.228-1.085 4.38-2.87l.237-2.762c.153-1.785-1.554-3.38-3.828-3.574l-55.374-4.738a13.762 13.762 0 0 0-12.12-10.228z" fill="#f8f8f8" class="B I"/><path d="M-236.726 98.777c2.254.137 9.007.11 13.274-7.666l55.118 4.538c1.393.22 2.98-.513 2.98-.513l-58.746-5.103c-3.858 4.86-8.166 8.092-12.627 8.743z" fill="#cfcfcf"/><circle cx="-160.307" cy="105.682" r="2.393" transform="matrix(.99634 .085476 -.085476 .99634 0 0)" fill="#fff" class="B I"/></g><rect ry=".15" y="132.991" x="-116.078" height=".451" width="8.954" fill="#cfcfcf"/></g><g transform="matrix(1.802444 0 0 1.802444 -112.282977 -153.5792)" class="B"><g transform="matrix(.362678 0 0 .362678 136.04218 80.301823)" class="J"><path d="M-40.005 85.428l-1.26 2.18h-2.517l-1.26-2.18 1.26-2.18h2.517z" class="C"/><circle cx="-42.522" cy="85.428" r="1.182" fill="#fff"/></g><g transform="matrix(-.077262 -.469318 .469318 -.077262 72.105798 90.675563)" class="C F"><rect rx=".526" y="82.404" x="-59.271" height="8.375" width="1.24"/><path d="M-59.347 82.922l1.294.5m-1.294.823l1.294.5m-1.294.823l1.294.5m-1.294.822l1.294.5m-1.294.824l1.294.5"/><rect width="3.378" height="1.205" x="-60.34" y="89.574" ry=".267"/></g></g><g transform="matrix(1.802444 0 0 1.802444 -127.701435 -153.5792)" class="B"><g transform="matrix(.362678 0 0 .362678 136.04218 80.301823)" class="J"><path d="M-40.005 85.428l-1.26 2.18h-2.517l-1.26-2.18 1.26-2.18h2.517z" class="C"/><circle r="1.182" cy="85.428" cx="-42.522" fill="#fff"/></g><g transform="matrix(.475635 .000509 -.000509 .475635 146.60651 68.944803)" class="C F"><rect width="1.24" height="8.375" x="-59.271" y="82.404" rx=".526"/><path d="M-59.347 82.922l1.294.5m-1.294.823l1.294.5m-1.294.823l1.294.5m-1.294.822l1.294.5m-1.294.824l1.294.5"/><rect ry=".267" y="89.574" x="-60.34" height="1.205" width="3.378"/></g></g><g transform="matrix(.618282 .002827 -.002827 .618282 112.744286 -12.922874)"><path d="M-121.808 95.546h10.824a.8.8 0 0 1 .802.802v4.076a.8.8 0 0 1-.802.802h-10.824c-.444 0-1.537-.358-1.537-.802v-4.076c0-.444 1.093-.802 1.537-.802z" class="B D G"/><path d="M-144.52 97.63l2.127-.47 1.914.47 15.97-.067c.275-.001.496.183.496.4v.82c0 .227-.22.41-.496.4l-15.97.067-1.843.47-2.198-.47c-.266-.057-.496-.183-.496-.4v-.82c0-.227.22-.4.496-.4z" fill="#fff" class="B G"/><path d="M-144.344 97.77l1.95-.484 1.914.47 15.97-.067c.275-.001.496.183.496.4v.292c0 .227 0 0 0 0l-20.704.082v-.292c0-.227.106-.344.372-.4z" fill="#e1e1e1"/><g class="B G"><path d="M-142.542 97.163l.067 2.58" fill="none"/><g class="D"><rect ry=".468" y="95.478" x="-124.904" height="5.813" width="1.693"/><path d="M-120.25 95.546h6.43v5.68h-6.43z"/></g><path d="M-119.718 96.943h4.8m-4.762 1.554h4.8m-4.742 1.555h4.8" fill="none"/></g></g><defs ><path id="B" d="M-378.063 747.462c0 14.99-12.472 27.143-27.857 27.143s-27.857-12.152-27.857-27.143 12.472-27.143 27.857-27.143 27.857 12.152 27.857 27.143z"/><path id="C" d="M-359.285 757.31c0 11.233-9.335 20.34-20.85 20.34s-20.85-9.106-20.85-20.34 9.335-20.34 20.85-20.34 20.85 9.106 20.85 20.34z"/></defs></svg>