<svg xmlns="http://www.w3.org/2000/svg" viewBox="0 0 361.5 455.95" fill="none" stroke="#e1f4fd" stroke-width="1.5" stroke-linejoin="bevel"><path d="M360.75 415.02v39.83H285.7c-4.87.58-8.48.45-11.23-.42-3.68.93-8.4 1-14.56.28H162c-2.6.6-5.92.65-10.2.14H72.87a11.87 11.87 0 0 1-1.19-.07c-2.7.55-6.1.56-10.43.05H.75v-46.56c3.28-6.9 10.3-11.7 18.47-11.7 10.83 0 19.68 8.4 20.44 19.05 1.7-.66 3.55-1.04 5.5-1.04a15.23 15.23 0 0 1 15.05 12.91.3.3 0 0 0 .08-.04c4.93-9.23 18.34-17.65 33.3-10.08 1.1-9.53 9.16-16.93 18.98-16.93 10.12 0 18.38 7.86 19.1 17.8.02 0 .03-.01.05-.01 6.1-13.46 25.46-26.66 47.15-15.68C180.4 389.3 191.6 379 205.27 379c14.1 0 25.6 10.94 26.57 24.77 2.23-.87 4.63-1.36 7.16-1.36 9.9 0 18.1 7.3 19.57 16.8a19.56 19.56 0 0 1 9.33-2.34c8.25 0 15.33 5.07 18.3 12.25.16.08.33.14.5.23 1.04-6.82 6.94-12.06 14.06-12.06 1.8 0 3.54.35 5.13.97.7-9.93 8.97-17.8 19.1-17.8 9.82 0 17.87 7.4 18.98 16.93 6-3.04 11.75-3.5 16.8-2.36zM229.57 146.27c-5.03 0-9.15 3.9-9.5 8.85a6.98 6.98 0 0 0-2.56-.48c-3.54 0-6.48 2.6-7 6a7.09 7.09 0 0 0-3.34-.83 7.08 7.08 0 0 0-7.08 7.08c1.2 5.3 3.08 7.27 9.93 6.46h39.3c4.37 0 7.9-4.18 7.24-10.63-.54-5.38-8.47-12.6-17.55-8.02a9.49 9.49 0 0 0-9.43-8.43zm-130.4 180.5c-6.4-3.24-11.98 1.86-12.37 5.65-.46 4.54 2.03 7.5 5.1 7.5h27.7c4.83.57 6.14-.82 7-4.55 0-2.75-2.23-5-5-5-.85 0-1.65.2-2.35.6-.37-2.4-2.44-4.23-4.93-4.23-.64 0-1.24.12-1.8.34-.25-3.48-3.15-6.24-6.7-6.24-3.43 0-6.26 2.6-6.65 5.94zM313.55.75c-2.83 0-5.27 1.7-6.33 4.14a6.99 6.99 0 0 0-1.59-.19c-3.8 0-6.9 3.07-6.9 6.87s3.1 6.9 6.9 6.9c.86 0 1.68-.16 2.45-.45 1.17 1.44 2.96 2.36 4.95 2.36 2.12 0 3.98-1.04 5.14-2.63a6.36 6.36 0 0 0 2.79.65c1.9 0 3.57-.83 4.74-2.13h.14c2.93 0 5.3-2.36 5.3-5.28a5.31 5.31 0 0 0-5.3-5.3c-.83 0-1.6.2-2.3.54a6.33 6.33 0 0 0-2.57-.54c-.26 0-.5.02-.76.05a6.93 6.93 0 0 0-6.65-4.98zm-44.35 275.3l17.8 21.92s4.16 5.86 9.63-7.55l19.22-35.87s1.15-4.2-4.07-4.06l-62.43 5.64s-4.1 2.4.15 4.82l12.76 8.48 39.2-12.63s2.9-.44.54 1.98l-32.8 17.27z"/><path d="M262.23 269.43l1.93 19.94 5.03-13.32 32.78-17.27s2.92-2.66-1.17-1.77l-38.57 12.42z"/><path d="M275.74 284.12l-11.58 5.24 5.03-13.32z"/><path d="M155.03 399.36c29.3-79.2 96.55-104.88 96.55-104.88M117.75 399.36s29.3-88.54 137.3-117.8" stroke-linecap="round"/><path d="M68.82 186.75c-4.18 0-7.77 2.5-9.34 6.1a10.14 10.14 0 0 0-2.35-.27c-5.62 0-10.18 4.53-10.18 10.13s4.56 10.15 10.18 10.15a10.1 10.1 0 0 0 3.61-.66c1.72 2.12 4.36 3.48 7.3 3.48 3.12 0 5.87-1.53 7.58-3.87 1.24.6 2.64.96 4.1.96 2.78 0 5.27-1.22 7-3.14h.2c4.32 0 7.83-3.48 7.83-7.8s-3.5-7.8-7.83-7.8c-1.23 0-2.37.3-3.4.8a9.39 9.39 0 0 0-3.79-.8c-.38 0-.75.02-1.12.07a10.22 10.22 0 0 0-9.8-7.35z"/><path d="M287.5 96.44c2.32 2.6 5.6 2.12 8.23 10.05 4.25-3.2 7.55-4.98 15.6-5.9m-48.73 10.2c1.7 1.84 4.06 1.52 6 7.14 3.06-2.24 5.45-3.5 11.26-4.1m41.8 7.77c-2.3.96-4.32-.32-8.44 3.96-1.84-3.32-3.48-5.45-8.5-8.46M38.43 31.58c3.06.96 5.44-.95 11.27 4.1 1.87-4.54 3.65-7.5 9.58-12.04M77.4 35.46c-1.38 1.85-3.58 1.78-4.83 7.12-3.02-1.77-5.33-2.7-10.73-2.7" stroke-linecap="round"/></svg>