<svg xmlns="http://www.w3.org/2000/svg" viewBox="0 0 218.3 222.5"><path d="M213.3 92v44.12c-3.84-5.42-9.54-9.4-16.12-11.1v-23.75c0-10.44-6.93-19.3-16.42-22.24-2.94-.94-4.9-3.7-4.9-6.8 0-6.1 5.32-11.06 11.36-10.2 6.65.94 12.62 4.06 17.17 8.6 5.48 5.46 8.9 13.02 8.9 21.36zm-3.02 81.35a27.83 27.83 0 0 0 3.01-3.58v3.58c0 11.84-6.86 22.15-16.82 27.06a28.11 28.11 0 0 0 .7-6.25v-13.3a28.39 28.39 0 0 0 13.1-7.5zM124.22 35.23L56.88 70.35c-1.8.95-4 .88-5.75-.16-3.23-1.93-3.86-6.34-1.3-9.1l51.2-54.97c2.76-2.97 7.5-2.82 10.08.32l15.2 18.6a6.69 6.69 0 0 1-2.1 10.17zm33.14 41.47L63 80.8a3.68 3.68 0 0 1-3.07-1.4c-1.56-1.95-.8-4.84 1.5-5.8l84.16-34.52c3.52-1.44 7.53.33 8.83 3.9l8.95 24.75c1.53 4.23-1.5 8.75-6 8.95zm26.24 59.43h-17.7c-9.23.1-16.7 7.63-16.7 16.86 0 9.3 7.56 16.82 16.86 16.82l17.53-.04c4.65 0 8.86-1.87 11.9-4.92a16.81 16.81 0 0 0 4.92-11.9c0-9.3-7.53-16.8-16.83-16.8zm-17.52 21.23c-2.44 0-4.4-1.97-4.4-4.4a4.4 4.4 0 0 1 8.8 0 4.4 4.4 0 0 1-4.4 4.4z" fill="#4299d4"/><path d="M141.25 133.04a28.85 28.85 0 0 0-8.46 20.11c-.17 16.05 13.84 29.17 29.9 29.17h14.7c2.82 0 5.1 2.3 5.1 5.1v4.76c0 12.44-10.1 22.57-22.57 22.57H29.1c-12.48 0-22.57-10.13-22.57-22.57V84.3c0-1.87.24-3.68.67-5.4 2.4-9.87 11.3-17.2 21.9-17.2h2.8c2.82 0 5.1 2.3 5.1 5.1v.2c0 1.68-.87 3.17-2.2 4.2-.4.3-.76.63-1.1.97-2.04 2.04-3.3 4.85-3.3 7.96 0 5.92 4.58 10.8 10.37 11.23v.17c.94.17 1.9.27 2.9.27h111.17c15.3 0 27.68 12.4 27.68 27.68 0 2.82-2.3 5.1-5.1 5.1h-15.74c-7.98.01-15.2 3.2-20.42 8.43z" fill="none" stroke="#4299d4" stroke-width="10" stroke-miterlimit="10"/></svg>