<svg xmlns="http://www.w3.org/2000/svg" viewBox="0 0 27.3 27.3"><g fill="none" stroke="#4499d4"><g stroke-width=".7" stroke-miterlimit="10"><path d="M6.55 11.38L13.7 7.2l7.48 4.17z" stroke-linejoin="round"/><g stroke-linecap="round"><path d="M7.9 11.62v8.63m1.95-8.63v8.63m7.65-8.87v8.87m1.95-8.87v8.87"/><path d="M11.8 12.93h3.62m-9.4 7.32H21.2"/><path d="M11.9 20.25v-4a1.76 1.76 0 0 1 1.75-1.75h.45a1.76 1.76 0 0 1 1.75 1.75v4"/></g></g><circle cx="13.608" cy="13.734" r="13" stroke-width="1.3"/></g><circle cx="13.608" cy="13.734" r="13" fill="#4499d4" stroke="#4499d4"/><g fill="none" stroke-width=".7" stroke-miterlimit="10" stroke="#fff"><path d="M6.55 11.38L13.7 7.2l7.48 4.17z" stroke-linejoin="round"/><g stroke-linecap="round"><path d="M7.9 11.62v8.63m1.95-8.63v8.63m7.65-8.87v8.87m1.95-8.87v8.87"/><path d="M11.8 12.93h3.62m-9.4 7.32H21.2"/><path d="M11.9 20.25v-4a1.76 1.76 0 0 1 1.75-1.75h.45a1.76 1.76 0 0 1 1.75 1.75v4"/></g></g></svg>