<svg xmlns="http://www.w3.org/2000/svg" width="201" height="92" viewBox="0 0 52.919 24.296"><defs><clipPath id="A"><path d="M-496.014 177.375h-80.66V-346.46h80.66z" opacity="1" fill="url(#linearGradient12731)" fill-opacity="1" stroke="none"/></clipPath></defs><g transform="matrix(-.65609 0 0 -.431516 -325.42787 76.54121)" clip-path="url(#A)" opacity=".7" fill="#fff"><path d="M-588.73 149.923s21.108-21.375 37.14-.267 27.253-16.298 41.147 2.672 28.055-10.687 39.81 2.405l-.267 23.245s-15.23 5.344-40.078-5.077-34.467 4.275-57.98-4.275-38.208-25.383-38.208-25.383l17.1 6.412z" opacity=".15"/><path d="M-595.292 167.156c4.542 11.49 30.46-16.03 49.697-10.42s32.062 21.375 43.284 10.687 13.36-30.994 25.65-14.16 12.023 42.483 12.023 42.483l-125.844.534z" opacity=".1"/></g></svg>