<svg xmlns="http://www.w3.org/2000/svg" width="333" height="77" viewBox="0 0 87.95 20.121"><defs><clipPath id="A"><rect rx="0" ry="2.244" width="105.484" height="71.195" x="-578.269" y="97.144" opacity="1" fill="url(#linearGradient12687)" fill-opacity="1" stroke="none"/></clipPath></defs><g clip-path="url(#A)" transform="matrix(.833777 0 0 .833777 482.14663 -120.236503)" opacity=".7" fill="#b2dbf0"><path d="M-586.133 158.237s20.934-27.09 36.966-5.983 26.56-13.7 40.454 5.27 26.842-10.34 38.598 2.75l-.787 17.702s-15.23 5.344-40.078-5.077-42.608 6.18-66.12-2.37-27.47-18.974-27.47-18.974l17.1 6.412z" opacity=".15"/><path d="M-595.292 167.156c4.542 11.49 25.61-13.433 44.847-7.822s36.912 18.777 48.134 8.09 14.918-27.356 27.21-10.523 10.464 38.845 10.464 38.845l-125.844.534z" opacity=".1"/></g></svg>