<svg xmlns="http://www.w3.org/2000/svg" width="333" height="77" viewBox="0 0 87.95 20.121"><defs><clipPath id="A"><rect rx="0" ry="2.244" width="105.484" height="71.195" x="-578.269" y="97.144" opacity="1" fill="url(#linearGradient12687)" fill-opacity="1" stroke="none"/></clipPath></defs><g clip-path="url(#A)" transform="matrix(.833777 0 0 .833777 482.14663 -120.236503)" opacity=".7" fill="#fff"><path d="M-578.128 161.867s19.177-24.506 33.862-5.412 24.33-12.393 37.057 4.767 24.588-9.354 35.357 2.49l-.72 16.013s-13.95 4.834-36.712-4.592-39.03 5.59-60.568-2.144-25.162-17.163-25.162-17.163l15.664 5.8z" opacity=".15"/><path d="M-586.518 169.935c4.16 10.393 23.46-12.15 41.08-7.076s33.813 16.985 44.092 7.317 13.665-24.746 24.924-9.52 9.586 35.14 9.586 35.14l-115.277.483z" opacity=".1"/></g></svg>