<svg xmlns="http://www.w3.org/2000/svg" xmlns:xlink="http://www.w3.org/1999/xlink" viewBox="0 0 360.97 60.25"><linearGradient id="A" gradientUnits="userSpaceOnUse" x1="72.246" y1="-46.013" x2="319.328" y2="127.015"><stop offset="0" stop-color="#50a0d8"/><stop offset="1" stop-color="#2b7fb9"/></linearGradient><path d="M.97 0h360v60.25H.97z" fill="url(#A)"/><defs><path id="B" d="M0 0v-145.26h360.74v205.5H0V0"/></defs><clipPath id="C"><use xlink:href="#B"/></clipPath><g transform="matrix(.833777 0 0 .833777 147.87569 -91.725744)" opacity=".7" clip-path="url(#C)" fill="#fff"><path d="M-184.13 166s80.64-92.38 142.4-20.4C20 217.58 60.56 98.9 114.08 163.57c53.52 64.7 103.4-35.26 148.68 9.38l-3.03 60.36s-58.66 18.22-154.37-17.3-164.12 21.07-254.7-8.08-105.8-64.7-105.8-64.7l65.87 21.86 5.13.92z" opacity=".15" enable-background="new "/><path d="M-219.42 196.4c17.5 39.17 98.64-45.8 172.74-26.67 74.1 19.13 142.18 64.03 185.4 27.58 43.23-36.44 57.46-93.28 104.8-35.88 47.34 57.4 40.3 132.46 40.3 132.46l-484.74 1.82-18.52-99.3z" opacity=".1" enable-background="new "/></g></svg>