<svg xmlns="http://www.w3.org/2000/svg" xmlns:xlink="http://www.w3.org/1999/xlink" width="1714" height="742" viewBox="0 0 1606.713 694.917"><style><![CDATA[.B{stroke:none}.C{fill:#fff}.D{stroke-width:1.261}.E{stroke-width:1}.F{fill:#b5db95}.G{fill:#4e687e}.H{stroke-width:1.087}.I{fill:#324a5d}.J{stroke-width:1.519}.K{fill:none}.L{stroke:#3375a3}.M{fill:#3c5467}.N{stroke-width:1.071}.O{fill:#d0f4b1}.P{fill:#fbfeff}.Q{fill:#d7eaf4}.R{stroke:#4199d5}.S{stroke-width:1.332}.T{stroke-width:1.378}.U{stroke-width:1.452}.V{stroke-width:1.589}.W{stroke-width:1.795}]]></style><path d="M1294.54 386.732v66.397c-8.254-.034-14.318-.17-14.05-.6v44.322h-57.42v44.6h-4.377v-7.29H1180.7v7.29h-7.863v63.273H1135.1v87.81h37.748v.937h433.875V541.46h-7.863v-7.29h-37.99v7.29h-4.378v-44.6h-57.42v-44.253c-.846.92-33 .53-52.637.208v-64.487h-58.257V546.77h-35.37v-160.04h-58.257z" fill="#477090"/><path d="M1449.938 476.57h41.17v12.35h-41.17z" fill="#658ba8"/><g transform="matrix(1.306289 0 0 1.306289 2.84069 -994.35078)"><path d="M168.806 1072.065v15.373h7.008v50.516H163.12v51.74h-10.723v-65.216s-47.126.96-47.984.048v30.626h-40.69v30.867H60.62v-5.044H33.7v5.044h-5.572v105.21h314.807v-105.21h-5.572v-5.044H310.44v5.044h-3.102v-30.867h-40.69v-30.626c-.858.912-47.984-.048-47.984-.048v13.476h-9.593v-50.516h7.008v-15.373h-47.276z" fill="#477090"/><path d="M195.124 1088.64h9.344v14.3h-9.344zm0 34h9.344v14.3h-9.344zm29.68 17.665h35.727v8.794h-35.727zm-155.55 20.337H77.5v12.092h-8.245zm67.608 15.4h8.794v12.642h-8.794zm-26-42h8.794v12.642h-8.794z" fill="#658ba8"/></g><path d="M593.742 275.684c-6.196 0-11.522 3.72-13.845 9.048-1.12-.265-2.285-.405-3.487-.405-8.333 0-15.098 6.713-15.098 15.024s6.765 15.058 15.098 15.058c1.89 0 3.68-.346 5.35-.98 2.553 3.14 6.463 5.166 10.833 5.166 4.627 0 8.706-2.276 11.24-5.74 1.835.888 3.916 1.418 6.093 1.418 4.13 0 7.808-1.812 10.36-4.66.102.003.202 0 .305 0 6.4 0 11.61-5.154 11.61-11.547s-5.2-11.58-11.61-11.58c-1.82 0-3.51.438-5.044 1.182-1.722-.76-3.615-1.182-5.62-1.182-.563 0-1.113.036-1.66.1-1.803-6.297-7.63-10.905-14.522-10.905z" opacity=".25" class="Q R T"/><path d="M627.943 289.83c-9.172 0-16.976 3.955-19.848 9.466-.574-.03-1.153 0-1.743 0-8.052 0-14.752 2.836-16.266 6.65-14.223-.485-17.57 16.528-8.085 20.533h75.23v-1.068c4.804-1.497 8.327-6.166 8.327-11.7 0-6.74-5.202-12.233-11.62-12.233-1.816 0-3.552.482-5.083 1.262-.945-7.224-9.932-12.912-20.913-12.912z" fill="#97c2d4"/><g class="T"><path d="M674.107 346.318c3.66 2.634 7.678 1.132 13.22 10.438 4.5-5.23 8.18-8.407 18.092-11.83m-58.866 26.504c2.654 1.86 5.566.8 9.585 7.368 3.255-3.692 5.93-5.934 13.116-8.35m55.108-1.772c-2.654 1.86-5.566.8-9.585 7.368-3.255-3.692-5.93-5.934-13.116-8.35M955 118.013c-3.66 2.634-7.678 1.132-13.22 10.438-4.5-5.23-8.18-8.407-18.092-11.83m58.876 26.505c-2.654 1.86-5.566.8-9.585 7.368-3.255-3.692-5.93-5.934-13.116-8.35m-55.108-1.774c2.654 1.86 5.566.8 9.585 7.368 3.255-3.692 5.93-5.934 13.116-8.35" stroke="#3c5467" class="K"/><path d="M1167.248 236.093c-8.054 0-14.634 6.254-15.198 14.164-1.272-.495-2.644-.775-4.1-.775-5.664 0-10.364 4.17-11.194 9.6-1.592-.854-3.406-1.335-5.34-1.335a11.33 11.33 0 0 0-11.323 11.323c1.942 8.465 4.93 11.63 15.887 10.333h62.858c6.984 0 12.62-6.692 11.58-17.006-.865-8.604-13.555-20.174-28.07-12.83-.882-7.585-7.3-13.476-15.112-13.476z" opacity=".25" class="Q R"/></g><path d="M1111.78 242.82c9.116 0 16.874 3.93 19.73 9.408.57-.03 1.146 0 1.732 0 8.003 0 14.664 2.82 16.168 6.61 14.137-.482 17.465 16.426 8.036 20.407h-74.778v-1.06c-4.775-1.488-8.277-6.128-8.277-11.627 0-6.7 5.17-12.157 11.55-12.157 1.805 0 3.53.48 5.052 1.254.94-7.18 9.872-12.833 20.788-12.833z" fill="#97c2d4"/><g transform="matrix(1.324064 0 0 1.324064 -418.8945 -1256.0643)" stroke="#749dba" class="M"><g class="U"><path d="M1239.128 1271.063c2.667-23.87 13.382-28.567 24.68-32.457 23.085-7.948 24.568-25.106 28.297-43.038v275.336h-52.978z"/><path d="M1229.036 1296.906h57.58v174.455h-57.58z"/></g><path d="M1260.67 1300.068h-28.284v100.005z" class="B G"/><path d="M1233.732 1331.756h46.1m-46.1 5.526h46.1m-46.1 35.922h46.1m-46.1 5.526h46.1m-46.1 35.923h46.1m-46.1 5.527h46.1" class="U"/><path d="M1282.813 1227.696c-3.7 5.253-9.21 9.618-17.938 12.625-10.87 3.744-21.185 8.278-23.75 31.25v4.375c13.765 3.17 29.813-6.185 37.72-22.875 4.04-8.53 5.242-17.493 3.97-25.375z" class="B G"/><g transform="matrix(.750595 0 0 .7514 1131.4864 938.7833)"><use xlink:href="#B" class="S"/><path d="M430.594 256.948V277.7h-7.87v32.814h-18.194v25.744h-10.367v63.88l74.917-87.878v-1.747h-18.194V277.7h-7.87v-20.753z" class="B G"/><g class="S"><path d="M410 288.8h7.857v16.43H410zm46 0h7.857v16.43H456z"/><path d="M432.857 335.22h9.286v322.857h-9.286z" class="C"/><path d="M400 346.648h10m6 0h10m-26 8h10m6 0h10m-26 8h10m6 0h10m-26 8h10m6 0h10m-26 8h10m6 0h10m-26 8h10m6 0h10m-26 8h10m6 0h10m-26 8h10m6 0h10m-26 8h10m6 0h10m-26 8h10m6 0h10m-26 8h10m6 0h10m-26 8h10m6 0h10m-26 8h10m6 0h10m-26 8h10m6 0h10m-26 8h10m6 0h10m-26 8h10m6 0h10m-26 8h10m6 0h10m-26 8h10m6 0h10m-26 8h10m6 0h10m-26 8h10m6 0h10m-26 8h10m6 0h10m-26 8h10m6 0h10m-26 8h10m6 0h10m-26 8h10m6 0h10m-26 8h10m6 0h10m-26 8h10m6 0h10m-26 8h10m6 0h10m-26 8h10m6 0h10m-26 8h10m6 0h10m-26 8h10m6 0h10m-26 8h10m6 0h10m-26 8h10m6 0h10m-26 8h10m6 0h10m-26 8h10m6 0h10"/><path d="M400 618.648h10m6 0h10m22-272h10m6 0h10m-26 8h10m6 0h10m-26 8h10m6 0h10m-26 8h10m6 0h10m-26 8h10m6 0h10m-26 8h10m6 0h10m-26 8h10m6 0h10m-26 8h10m6 0h10m-26 8h10m6 0h10m-26 8h10m6 0h10m-26 8h10m6 0h10m-26 8h10m6 0h10m-26 8h10m6 0h10m-26 8h10m6 0h10m-26 8h10m6 0h10m-26 8h10m6 0h10m-26 8h10m6 0h10m-26 8h10m6 0h10m-26 8h10m6 0h10m-26 8h10m6 0h10m-26 8h10m6 0h10m-26 8h10m6 0h10m-26 8h10m6 0h10m-26 8h10m6 0h10m-26 8h10m6 0h10m-26 8h10m6 0h10m-26 8h10m6 0h10m-26 8h10m6 0h10m-26 8h10m6 0h10m-26 8h10m6 0h10m-26 8h10m6 0h10m-26 8h10m6 0h10m-26 8h10m6 0h10m-26 8h10m6 0h10m-26 8h10m6 0h10"/><use xlink:href="#B" x="-138"/></g><path d="M292.385 257.016v20.753h-7.87v32.814h-18.194v25.744h-10.367v63.88l74.917-87.878v-1.747H312.68V277.77h-7.87v-20.753z" class="B G"/><g class="S"><path d="M272 288.8h7.857v16.43H272zm46 0h7.857v16.43H318z"/><path d="M294.857 335.22h9.286v322.857h-9.286z" class="C"/><path d="M262 346.648h10m6 0h10m-26 8h10m6 0h10m-26 8h10m6 0h10m-26 8h10m6 0h10m-26 8h10m6 0h10m-26 8h10m6 0h10m-26 8h10m6 0h10m-26 8h10m6 0h10m-26 8h10m6 0h10m-26 8h10m6 0h10m-26 8h10m6 0h10m-26 8h10m6 0h10m-26 8h10m6 0h10m-26 8h10m6 0h10m-26 8h10m6 0h10m-26 8h10m6 0h10m-26 8h10m6 0h10m-26 8h10m6 0h10m-26 8h10m6 0h10m-26 8h10m6 0h10m-26 8h10m6 0h10m-26 8h10m6 0h10m-26 8h10m6 0h10m-26 8h10m6 0h10m-26 8h10m6 0h10m-26 8h10m6 0h10m-26 8h10m6 0h10m-26 8h10m6 0h10m-26 8h10m6 0h10m-26 8h10m6 0h10m-26 8h10m6 0h10m-26 8h10m6 0h10m-26 8h10m6 0h10m-26 8h10m6 0h10"/><path d="M262 618.648h10m6 0h10m22-272h10m6 0h10m-26 8h10m6 0h10m-26 8h10m6 0h10m-26 8h10m6 0h10m-26 8h10m6 0h10m-26 8h10m6 0h10m-26 8h10m6 0h10m-26 8h10m6 0h10m-26 8h10m6 0h10m-26 8h10m6 0h10m-26 8h10m6 0h10m-26 8h10m6 0h10m-26 8h10m6 0h10m-26 8h10m6 0h10m-26 8h10m6 0h10m-26 8h10m6 0h10m-26 8h10m6 0h10m-26 8h10m6 0h10m-26 8h10m6 0h10m-26 8h10m6 0h10m-26 8h10m6 0h10m-26 8h10m6 0h10m-26 8h10m6 0h10m-26 8h10m6 0h10m-26 8h10m6 0h10m-26 8h10m6 0h10m-26 8h10m6 0h10m-26 8h10m6 0h10m-26 8h10m6 0h10m-26 8h10m6 0h10m-26 8h10m6 0h10m-26 8h10m6 0h10m-26 8h10m6 0h10m-26 8h10m6 0h10m-26 8h10m6 0h10"/></g></g><path d="M1390.9 1269.198l10.588-.05 52.39-33.176 10.462-.12-.348 33.345v202.537H1390.9z" class="N"/><path d="M1411.994 1469.78h49.748v-97.553z" class="B I"/><g class="N"><path d="M1397.03 1281.223h8.252v12.025h-8.252zm13.07 0h8.252v12.025h-8.252zm13.07 0h8.252v12.025h-8.252zm13.072 0h8.252v12.025h-8.252zm13.07 0h8.252v12.025h-8.252z" class="C"/><path d="M1396.558 1304.368h8.488m4.584 0h8.488m4.582 0h8.488m4.582 0h8.488m4.584 0h8.488m-60.772 5.602h8.488m4.584 0h8.488m4.582 0h8.488m4.582 0h8.488m4.584 0h8.488m-60.772 5.602h8.488m4.584 0h8.488m4.582 0h8.488m4.582 0h8.488m4.584 0h8.488m-60.772 5.602h8.488m4.584 0h8.488m4.582 0h8.488m4.582 0h8.488m4.584 0h8.488m-60.772 5.6h8.488m4.584 0h8.488m4.582 0h8.488m4.582 0h8.488m4.584.001h8.488m-60.772 5.602h8.488m4.584 0h8.488m4.582 0h8.488m4.582 0h8.488m4.584 0h8.488m-60.772 5.603h8.488m4.584 0h8.488m4.582 0h8.488m4.582 0h8.488m4.584 0h8.488m-60.772 5.6h8.488m4.584 0h8.488m4.582 0h8.488m4.582 0h8.488m4.584 0h8.488m-60.772 5.603h8.488m4.584 0h8.488m4.582 0h8.488m4.582 0h8.488m4.584 0h8.488m-60.772 5.602h8.488m4.584 0h8.488m4.582 0h8.488m4.582 0h8.488m4.584 0h8.488m-60.772 5.602h8.488m4.584 0h8.488m4.582 0h8.488m4.582 0h8.488m4.584 0h8.488m-60.772 5.603h8.488m4.584.01h8.488m4.582 0h8.488m4.582 0h8.488m4.584 0h8.488m-60.772 5.6h8.488m4.584 0h8.488m4.582 0h8.488m4.582 0h8.488m4.584 0h8.488m-60.772 5.603h8.488m4.584-.01h8.488m4.582 0h8.488m4.582 0h8.488m4.584 0h8.488m-60.772 5.6h8.488m4.584 0h8.488m4.582.001h8.488m4.582 0h8.488m4.584 0h8.488m-60.772 5.602h8.488m4.584 0h8.488m4.582 0h8.488m4.582 0h8.488m4.584 0h8.488m-60.772 5.602h8.488m4.584 0h8.488m4.582 0h8.488m4.582 0h8.488m4.584 0h8.488m-60.772 5.602h8.488m4.584 0h8.488m4.582 0h8.488m4.582 0h8.488m4.584 0h8.488m-60.772 5.602h8.488m4.584 0h8.488m4.582 0h8.488m4.582 0h8.488m4.584 0h8.488m-60.772 5.602h8.488m4.584 0h8.488m4.582 0h8.488m4.582 0h8.488m4.584 0h8.488m-60.772 5.602h8.488m4.584 0h8.488m4.582 0h8.488m4.582 0h8.488m4.584 0h8.488m-60.772 5.602h8.488m4.584 0h8.488m4.582 0h8.488m4.582 0h8.488m4.584 0h8.488m-60.772 5.592h8.488m4.584 0h8.488m4.582 0h8.488m4.582 0h8.488m4.584 0h8.488m-60.772 5.6h8.488m4.584 0h8.488m4.582 0h8.488m4.582 0h8.488m4.584 0h8.488m-60.772 5.613h8.488m4.584 0h8.488m4.582 0h8.488m4.582 0h8.488m4.584 0h8.488m-60.772 5.602h8.488m4.584 0h8.488m4.582 0h8.488m4.582 0h8.488m4.584 0h8.488m-60.772 5.602h8.488m4.584 0h8.488m4.582 0h8.488m4.582 0h8.488m4.584 0h8.488m-60.772 5.603h8.488m4.584 0h8.488m4.582 0h8.488m4.582 0h8.488m4.584 0h8.488"/><path d="M1354.14 1348.42h66.49v123.314h-66.49z"/><g class="C"><use xlink:href="#C"/><path d="M1379.604 1357.617v8.96m14.938-8.96v8.96"/><use xlink:href="#C" y="16.806"/><path d="M1379.604 1374.422v8.96m14.938-8.96v8.96"/><use xlink:href="#C" y="33.612"/><path d="M1379.604 1391.228v8.96m14.938-8.96v8.96"/><use xlink:href="#C" y="50.418"/><path d="M1379.604 1408.034v8.96m14.938-8.96v8.96"/></g></g><path d="M1419.533 1470.368v-62.124l-35.875 62.137z" class="B I"/><g class="C N"><use xlink:href="#C" y="67.223"/><path d="M1379.604 1424.84v8.96m14.938-8.96v8.96"/><use xlink:href="#C" y="84.028"/><path d="M1379.604 1441.645v8.96m14.938-8.96v8.96"/></g><g class="E"><path d="M1278.094 1360.78h54.7v109.12h-54.7zm41.832-6.13h7.68v6.13h-7.68z"/><g class="C"><use xlink:href="#D"/><use xlink:href="#D" x="16.805"/><use xlink:href="#D" x="31.744"/><use xlink:href="#D" y="22.407"/><use xlink:href="#D" x="16.805" y="22.407"/><use xlink:href="#D" x="31.744" y="22.407"/><use xlink:href="#D" y="46.682"/><use xlink:href="#D" x="16.805" y="46.682"/><use xlink:href="#D" x="31.744" y="46.682"/><use xlink:href="#D" y="69.09"/><use xlink:href="#D" x="16.805" y="69.09"/><use xlink:href="#D" x="31.744" y="69.09"/></g></g><g class="N"><path d="M1297.495 1397.935h56.823v73.8h-56.823z"/><path d="M1301.72 1403.123h13.675v6.838h-13.675zm17.74 0h13.675v6.838h-13.675zm17.74 0h13.675v6.838H1337.2z" class="C"/><path d="M1301.248 1415.148h14.854m2.886 0h14.854m2.885 0h14.854m-50.333 5.602h14.854m2.886 0h14.854m2.885 0h14.854m-50.333 5.6h14.854m2.886 0h14.854m2.885 0h14.854m-50.333 5.603h14.854m2.886 0h14.854m2.885 0h14.854m-14.854 5.602h14.854m-50.333 0h14.854m2.886 0h14.854"/></g><path d="M1315 1469.505h37.143v-36.43z" class="B I"/><path d="M1336.727 1437.555h14.854m-50.333 5.602h14.854m2.886 0h14.854m2.885 0h14.854m-50.333 5.603h14.854m2.886 0h14.854m2.885 0h14.854m-50.333 5.6h14.854m2.886 0h14.854m2.885 0h14.854" class="N"/><g class="E"><path d="M1224.784 1435.19h69.556v36.546h-69.556z"/><path d="M1228.32 1439.905h11.79v5.895h-11.79z" class="C"/><path d="M1227.378 1450.75h13.44m-13.44 3.735h13.44m-13.44 3.735h13.44"/><path d="M1245.127 1439.905h11.79v5.895h-11.79z" class="C"/><path d="M1244.183 1450.75h13.44m-13.44 3.735h13.44m-13.44 3.735h13.44"/><path d="M1261.932 1439.905h11.79v5.895h-11.79z" class="C"/><path d="M1261 1450.75h13.44m-13.44 3.735h13.44m-13.45 3.735h13.44"/><path d="M1278.738 1439.905h11.79v5.895h-11.79z" class="C"/><path d="M1277.795 1450.75h13.44m-13.44 3.735h13.44m-13.44 3.735h13.44"/><path d="M1467.392 1343.648h54.7v127.794h-54.7z"/><path d="M1475.88 1337.518h41.026v6.13h-41.026z"/><g class="C"><use xlink:href="#D" x="189.298" y="-17.132"/><use xlink:href="#D" x="206.104" y="-17.132"/><use xlink:href="#D" x="221.043" y="-17.132"/><use xlink:href="#D" x="189.298" y="5.276"/><use xlink:href="#D" x="206.104" y="5.276"/><use xlink:href="#D" x="221.043" y="5.276"/><use xlink:href="#D" x="189.298" y="29.55"/><use xlink:href="#D" x="206.104" y="29.55"/><use xlink:href="#D" x="221.043" y="29.55"/><use xlink:href="#D" x="189.298" y="51.958"/><use xlink:href="#D" x="206.104" y="51.958"/><use xlink:href="#D" x="221.043" y="51.958"/></g></g><g transform="matrix(.628217 0 0 .63015 791.25106 922.446)"><path d="M624.286 628.648h16.43L645 842.22h-25.714zM555.714 843.8h151.43v8.57h-151.43zM570 852.648h123.57c-12.435 4.883-22.735 10.62-25.714 19.286h-68.57c-4.735-8.44-15.033-14.653-29.286-19.286z" class="V"/><ellipse transform="matrix(1.591808 0 0 1.586923 -1141.572 -1383.9294)" cx="1114.643" cy="1267.679" rx="5" ry="3.393" class="B I"/><g class="V"><path d="M615 621.22h33.57v7.143H615z"/><path d="M641.43 602.362c0 5.523-4.477 10-10 10s-10-4.477-10-10 4.477-24.873 10-24.873 10 19.35 10 24.873z" class="C"/><path d="M617.5 613.22h28.57v7.143H617.5z"/></g><g class="B"><path d="M633.435 581.46c2.81 3.867 3.174 9.897.48 15.476-2.364 4.897-6.504 8.183-10.713 9.068 1.483 2.76 4.387 4.665 7.74 4.665 4.855 0 8.79-3.95 8.79-8.806 0-3.99-2.653-16.185-6.297-20.402z" fill="#ececec"/><path d="M571.993 852.64c4.7 1.53 8.954 3.223 12.71 5.135h95.658c3.387-1.85 7.173-3.547 11.217-5.135H571.993z" class="I"/></g></g></g><g transform="matrix(1.654221 0 0 1.654221 -185.5129 -1510.1549)"><g stroke="#749dba"><g class="E"><path d="M248.53 1081.05v250.406h62.03V1081.05h-62.03zm6.875 24.594h48.25v34.437h-48.25v-34.437z" class="M"/><g class="C"><use xlink:href="#E"/><use xlink:href="#E" y="16.08"/><use xlink:href="#E" y="32.16"/><use xlink:href="#E" y="48.24"/><use xlink:href="#E" y="64.32"/><use xlink:href="#E" y="80.4"/><use xlink:href="#E" y="96.48"/><path d="M255.418 1271.258h48.24V1277h-48.24z"/><use xlink:href="#E" y="128.638"/><use xlink:href="#E" y="144.717"/></g></g><g class="Q"><path d="M300.98 1168.898h66.234V1331.8H300.98z" class="H M"/><path d="M335.876 1170.55h29.8v41.416z" class="B G"/><g class="H"><path d="M306.092 1174.708h56.24v6.74h-56.24z" class="C"/><path d="M306.092 1186.793v137.116m3.68-137.116v137.116m3.682-137.116v137.116m3.68-137.116v137.116m3.682-137.116v137.116m3.68-137.116v137.116m3.682-137.116v137.116m3.682-137.116v137.116m3.68-137.116v137.116m3.68-137.116v137.116m3.682-137.116v137.116m3.68-137.116v137.116m3.682-137.116v137.116m3.68-137.116v137.116m3.682-137.116v137.116m3.68-137.116v137.116"/></g></g><g class="M"><path d="M229.072 1248.146h52.3v83.664h-52.3z" class="H"/><path d="M255.063 1249.09h25.254v27.274z" class="B G"/><path d="M235.8 1255.118h39.973m-39.973 9.202h39.973m-39.973 5.522h39.973m-39.973 5.522h39.973m-39.973 5.52h39.973m-39.973 9.203h39.973M235.8 1295.6h39.973m-39.973 5.52h39.973m-39.963 5.533h39.973" class="H"/><path d="M369.452 1205.85h53.917v125.96h-53.917zm8.366-6.043h40.438v6.042h-40.438z" class="E"/></g><g class="C E"><use xlink:href="#F"/><use xlink:href="#F" x="16.565"/><use xlink:href="#F" x="31.288"/><use xlink:href="#F" y="22.087"/><use xlink:href="#F" x="16.565" y="22.087"/><use xlink:href="#F" x="31.288" y="22.087"/><use xlink:href="#F" y="46.013"/><use xlink:href="#F" x="16.565" y="46.013"/><use xlink:href="#F" x="31.288" y="46.013"/><use xlink:href="#F" y="68.099"/><use xlink:href="#F" x="16.565" y="68.099"/><use xlink:href="#F" x="31.288" y="68.099"/></g><g class="M"><g transform="matrix(.557837 0 0 .556238 358.01803 1003.972)"><path d="M-66.63 496.8h361.635v91.924H-66.63zm-10.606-9.093H305.6v9.1H-77.236zm65.154-13.657h252.538v13.637H-12.082zm-6.566-7.576h265.67v7.07h-265.67zm132.836-84.818c-38.495 0-69.687 32.582-69.687 72.75 0 3.766.252 7.45.78 11.063h137.813c.53-3.612.78-7.297.78-11.062 0-40.168-31.193-72.75-69.687-72.75z" class="W"/><path d="M-64.536 585.5V501.96l134.002 84.446z" class="B I"/><g class="W"><g class="C"><use xlink:href="#G"/><use xlink:href="#G" x="20"/><use xlink:href="#G" x="40"/><path d="M9.43 503.87h8.08v72.73H9.43z"/><use xlink:href="#G" x="80"/><use xlink:href="#G" x="100"/><use xlink:href="#G" x="120"/><use xlink:href="#G" x="140"/><use xlink:href="#G" x="160"/><use xlink:href="#G" x="180"/><use xlink:href="#G" x="200"/><use xlink:href="#G" x="220"/><use xlink:href="#G" x="240"/><use xlink:href="#G" x="260"/><use xlink:href="#G" x="280"/><use xlink:href="#G" x="300"/><use xlink:href="#G" x="320"/></g><use xlink:href="#H"/><use xlink:href="#H" x="6"/><use xlink:href="#H" x="12"/><use xlink:href="#H" x="18"/><use xlink:href="#H" x="24"/><use xlink:href="#H" x="30"/><use xlink:href="#H" x="36"/><use xlink:href="#H" x="42"/><use xlink:href="#H" x="48"/><use xlink:href="#H" x="54"/><use xlink:href="#H" x="60"/><use xlink:href="#H" x="66"/><use xlink:href="#H" x="72"/><use xlink:href="#H" x="78"/><use xlink:href="#H" x="84"/><use xlink:href="#H" x="90"/><use xlink:href="#H" x="96"/><use xlink:href="#H" x="102"/><use xlink:href="#H" x="108"/><use xlink:href="#H" x="114"/><use xlink:href="#H" x="120"/><use xlink:href="#H" x="126"/><use xlink:href="#H" x="132"/><use xlink:href="#H" x="138"/><use xlink:href="#H" x="144"/><use xlink:href="#H" x="150"/><use xlink:href="#H" x="156"/><use xlink:href="#H" x="162"/><use xlink:href="#H" x="168"/><use xlink:href="#H" x="174"/><use xlink:href="#H" x="180"/><use xlink:href="#H" x="186"/><use xlink:href="#H" x="192"/><use xlink:href="#H" x="198"/><use xlink:href="#H" x="204"/><use xlink:href="#H" x="210"/><use xlink:href="#H" x="216"/><use xlink:href="#H" x="222"/><use xlink:href="#H" x="228"/><use xlink:href="#H" x="234"/></g><g class="B"><path d="M114.65 383.48c-37.244 0-67.424 31.527-67.424 70.4 0 3.643.247 7.214.76 10.708h1.68c-.49-3.356-.705-6.774-.705-10.273 0-21.863 9.883-41.345 25.31-53.703 1.33 29.57 25.687 53.16 55.5 53.16 18.353 0 34.605-8.957 44.714-22.72a70.28 70.28 0 0 1 3.957 23.264c0 3.5-.213 6.917-.705 10.273h3.577c.512-3.494.76-7.064.76-10.708 0-38.863-30.18-70.4-67.424-70.4z" class="G"/><path d="M-64.91 498.33h358.016v2.724H-64.91z" class="I"/></g></g><g class="H"><path d="M175.577 1132.18l10.436-.05 51.64-32.7 10.312-.117-.343 32.866v199.63h-72.044z"/><path d="M181.62 1144.03h8.134v11.852h-8.134zm12.883 0h8.134v11.852h-8.134zm12.883 0h8.134v11.852h-8.134zm12.884 0h8.134v11.852h-8.134zm12.883 0h8.134v11.852h-8.134z" class="C"/><path d="M181.154 1166.844h8.366m4.518 0h8.366m4.516 0h8.366m4.52 0h8.366m4.528 0h8.366m-59.902 5.52h8.366m4.508.001h8.366m4.516 0h8.366m4.52 0h8.366m4.52 0h8.366m-59.903 5.522h8.366m4.518 0h8.366m4.516 0h8.366m4.52 0h8.366m4.528 0h8.366m-59.902 5.52h8.366m4.507.001h8.366m4.516 0h8.366m4.52 0h8.366m4.52 0h8.366m-59.904 5.522h8.366m4.518 0h8.366m4.516 0h8.366m4.52 0h8.366m4.528 0h8.366m-59.902 5.52h8.366m4.508 0h8.366m4.516 0h8.366m4.52 0h8.366m4.52 0h8.366m-59.903 5.523h8.366m4.518 0h8.366m4.515 0h8.366m4.52 0h8.366m4.528 0h8.366m-59.902 5.52h8.366m4.508.001h8.366m4.516 0h8.366m4.52 0h8.366m4.52 0h8.366m-59.904 5.522h8.366m4.518 0h8.366m4.516 0h8.366m4.52 0h8.366m4.528 0h8.366m-59.902 5.522h8.366m4.508 0h8.366m4.516 0h8.366m4.52 0h8.366m4.52 0h8.366m-59.903 5.522h8.366m4.518 0h8.366m4.516 0h8.366m4.52 0h8.366m4.528 0h8.366m-59.902 5.52h8.366m4.508 0h8.366m4.516 0h8.366m4.52 0h8.366m4.52 0h8.366m-59.904 5.522h8.366m4.518 0h8.366m4.516 0h8.366m4.52 0h8.366m4.527 0h8.366m-59.902 5.522h8.366m4.508 0h8.366m4.516 0h8.366m4.52 0h8.366m4.52 0h8.366m-59.903 5.52h8.366m4.518 0h8.366m4.515.001h8.366m4.52 0h8.366m4.528 0h8.366m-59.902 5.522h8.366m4.508 0h8.366m4.516 0h8.366m4.52 0h8.366m4.52 0h8.366m-59.904 5.52h8.366m4.518 0h8.366m4.516 0h8.366m4.52 0h8.366m4.528 0h8.366m-59.902 5.512h8.366m4.508 0h8.366m4.516 0h8.366m4.52 0h8.366m4.52 0h8.366m-59.903 5.53h8.366m4.518 0h8.366"/></g><path d="M176.87 1261.375v69.448h40.66z" fill="#2c4557" class="B"/><path d="M206.92 1266.23h8.366m4.52 0h8.366m4.528 0h8.366m-59.902 5.523h8.366m4.508 0h8.366m4.516 0h8.366m4.52 0h8.366m4.52 0h8.366m-59.904 5.52h8.366m4.518 0h8.366m4.516 0h8.366m4.52 0h8.366m4.528 0h8.366m-59.902 5.522h8.366m4.508 0h8.366m4.516 0h8.366m4.52.001h8.366m4.52 0h8.366m-59.903 5.52h8.366m4.518 0h8.366m4.516.001h8.366m4.52 0h8.366m4.528 0h8.366m-59.902 5.523h8.366m4.508 0h8.366m4.516 0h8.366m4.52 0h8.366m4.52 0h8.366m-59.904 5.52h8.366m4.518 0h8.366m4.516 0h8.366m4.52 0h8.366m4.527 0h8.366m-59.902 5.522h8.366m4.508 0h8.366m4.516 0h8.366m4.52 0h8.366m4.52 0h8.366m-59.903 5.522h8.366m4.518 0h8.366m4.515 0h8.366m4.52 0h8.366m4.528 0h8.366m-59.902 5.52h8.366m4.508.001h8.366m4.516 0h8.366m4.52 0h8.366m4.52 0h8.366" class="H"/><path d="M176.366 1133.085h9.714l52.048-32.755-.884 2.525-50.02 31.997h-10.86z" class="B G"/><path d="M116.962 1210.265H182.5V1331.8h-65.537z" class="H"/><path d="M156.512 1210.868h25.254v27.274z" class="B G"/><g class="C H"><use xlink:href="#I"/><path d="M142.062 1219.33v8.83m14.724-8.83v8.83"/><use xlink:href="#I" y="16.566"/><path d="M142.062 1235.893v8.83m14.724-8.83v8.83"/><use xlink:href="#I" y="33.14"/><path d="M142.062 1252.458v8.83m14.724-8.83v8.83"/><use xlink:href="#I" y="49.695"/><path d="M142.062 1269.022v8.83m14.724-8.83v8.83"/></g><path d="M118.82 1330.154v-62.124l35.875 62.137z" class="B I"/><g class="C H"><use xlink:href="#I" y="66.26"/><path d="M142.062 1285.587v8.83m14.724-8.83v8.83"/><use xlink:href="#I" y="82.824"/><path d="M142.062 1302.152v8.83m14.724-8.83v8.83"/></g><g class="E"><path d="M231.8 1295.788h68.558v36.022H231.8z"/><path d="M235.276 1300.436h11.62v5.8h-11.62z" class="C"/><path d="M234.346 1311.127h13.247m-13.247 3.68h13.247m-13.247 3.683h13.247"/><path d="M251.84 1300.436h11.62v5.8h-11.62z" class="C"/><path d="M250.9 1311.127h13.247m-13.247 3.68h13.247M250.9 1318.5h13.247"/><path d="M268.405 1300.436h11.62v5.8h-11.62z" class="C"/><path d="M267.475 1311.127h13.247m-13.247 3.68h13.247m-13.247 3.683h13.247"/><path d="M284.97 1300.436h11.62v5.8h-11.62z" class="C"/><path d="M284.04 1311.127h13.247m-13.247 3.68h13.247m-13.247 3.683h13.247"/></g></g></g><path d="M271.226 1082.35h37.376v38.89l-4.04-10.1v-7.07l-5.436-.06z" class="G"/></g><g transform="matrix(1.217262 0 0 1.217262 -156.1665 -587.23945)" class="L"><g class="J"><g transform="matrix(.657073 0 0 .659275 196.74549 795.27436)"><path d="M1070.257 368.994h8.586v20.203h-8.586z" fill="#7daebb"/><path d="M1074.297 368.994v-54.548l-10.1-9.09h-9.09l.068 4.022" class="K"/><g transform="matrix(.83324 0 0 .83324 174.59203 51.416872)" class="P"><circle cx="1056.054" cy="317.415" r="8.586"/><path d="M1048.538 314.95h15.152"/></g><path d="M1074.626 368.994v-54.548l10.1-9.09h9.09l-.068 4.022" class="K"/><g transform="matrix(-.83324 0 0 .83324 1974.3315 51.416872)" class="P"><circle cx="1056.054" cy="317.415" r="8.586"/><path d="M1048.538 314.95h15.152"/></g></g><g transform="matrix(.657073 0 0 .659275 102.89709 795.27436)"><path d="M1070.257 368.994h8.586v20.203h-8.586z" fill="#7daebb"/><path d="M1074.297 368.994v-54.548l-10.1-9.09h-9.09l.068 4.022" class="K"/><g transform="matrix(.83324 0 0 .83324 174.59203 51.416872)" class="P"><circle cx="1056.054" cy="317.415" r="8.586"/><path d="M1048.538 314.95h15.152"/></g><path d="M1074.626 368.994v-54.548l10.1-9.09h9.09l-.068 4.022" class="K"/><g transform="matrix(-.83324 0 0 .83324 1974.3315 51.416872)"><circle cx="1056.054" cy="317.415" r="8.586" class="P"/><path d="M1048.538 314.95h15.152" class="K"/></g></g></g><g transform="matrix(.792845 0 0 .792845 1068.9979 428.09348)" class="O"><ellipse cx="-405.92" cy="747.462" rx="27.857" ry="27.143" class="D"/><use xlink:href="#J" class="B F"/><g class="D"><path d="M-405.348 786.747v-40.714m-.078 8.637l-9.208-8.494"/><path d="M-405.43 758.83l10.414-9.995"/></g><g transform="matrix(.74845 0 0 .749348 159.71176 580.51228)"><ellipse cx="-721.286" cy="235.934" rx="27.857" ry="27.143" class="D"/><use xlink:href="#J" x="-315.366" y="-511.527" class="B F"/><g class="D"><path d="M-720.714 275.22v-40.714m-.078 8.636l-9.208-8.494"/><path d="M-720.796 247.3l10.414-9.995"/></g></g></g><g transform="matrix(-.792845 0 0 .792845 642.07111 428.09348)" class="O"><ellipse cx="-405.92" cy="747.462" rx="27.857" ry="27.143" class="D"/><use xlink:href="#J" class="B F"/><g class="D"><path d="M-405.348 786.747v-40.714m-.078 8.637l-9.208-8.494"/><path d="M-405.43 758.83l10.414-9.995"/></g><g transform="matrix(.74845 0 0 .749348 159.71176 580.51228)"><ellipse cx="-721.286" cy="235.934" rx="27.857" ry="27.143" class="D"/><use xlink:href="#J" x="-315.366" y="-511.527" class="B F"/><g class="D"><path d="M-720.714 275.22v-40.714m-.078 8.636l-9.208-8.494"/><path d="M-720.796 247.3l10.414-9.995"/></g></g></g></g><g transform="matrix(1.035685 0 0 1.035685 782.044815 -121.627342)" class="L O"><ellipse cx="-405.92" cy="747.462" rx="27.857" ry="27.143" class="D"/><use xlink:href="#J" class="B F"/><g class="D"><path d="M-405.348 786.747v-40.714m-.078 8.637l-9.208-8.494"/><path d="M-405.43 758.83l10.414-9.995"/></g><g transform="matrix(.74845 0 0 .749348 104.21542 580.51228)"><ellipse cx="-721.286" cy="235.934" rx="27.857" ry="27.143" class="D"/><use xlink:href="#J" x="-315.366" y="-511.527" class="B F"/><g class="D"><path d="M-720.714 275.22v-40.714m-.078 8.636l-9.208-8.494"/><path d="M-720.796 247.3l10.414-9.995"/></g></g></g><g transform="matrix(1.035685 0 0 1.035685 612.22719 -121.627342)" class="L O"><ellipse cx="-405.92" cy="747.462" rx="27.857" ry="27.143" class="D"/><use xlink:href="#J" class="B F"/><g class="D"><path d="M-405.348 786.747v-40.714m-.078 8.637l-9.208-8.494"/><path d="M-405.43 758.83l10.414-9.995"/></g><g transform="matrix(.74845 0 0 .749348 104.21542 580.51228)"><ellipse cx="-721.286" cy="235.934" rx="27.857" ry="27.143" class="D"/><use xlink:href="#J" x="-315.366" y="-511.527" class="B F"/><g class="D"><path d="M-720.714 275.22v-40.714m-.078 8.636l-9.208-8.494"/><path d="M-720.796 247.3l10.414-9.995"/></g></g></g><g transform="matrix(-1.049777 0 0 1.049777 844.401974 -130.992006)" class="L O"><ellipse cx="-405.92" cy="747.462" rx="27.857" ry="27.143" class="D"/><use xlink:href="#J" class="B F"/><g class="D"><path d="M-405.348 786.747v-40.714m-.078 8.637l-9.208-8.494"/><path d="M-405.43 758.83l10.414-9.995"/></g><g transform="matrix(.74845 0 0 .749348 109.26054 580.51228)"><ellipse cx="-721.286" cy="235.934" rx="27.857" ry="27.143" class="D"/><use xlink:href="#J" x="-315.366" y="-511.527" class="B F"/><g class="D"><path d="M-720.714 275.22v-40.714m-.078 8.636l-9.208-8.494"/><path d="M-720.796 247.3l10.414-9.995"/></g></g></g><g transform="matrix(-1.049777 0 0 1.049777 1003.28959 -130.992006)" class="L O"><ellipse cx="-405.92" cy="747.462" rx="27.857" ry="27.143" class="D"/><use xlink:href="#J" class="B F"/><g class="D"><path d="M-405.348 786.747v-40.714m-.078 8.637l-9.208-8.494"/><path d="M-405.43 758.83l10.414-9.995"/></g><g transform="matrix(.74845 0 0 .749348 68.899564 580.51228)"><ellipse cx="-721.286" cy="235.934" rx="27.857" ry="27.143" class="D"/><use xlink:href="#J" x="-315.366" y="-511.527" class="B F"/><g class="D"><path d="M-720.714 275.22v-40.714m-.078 8.636l-9.208-8.494"/><path d="M-720.796 247.3l10.414-9.995"/></g></g></g><path d="M0 693.332h1605.714" class="K R"/><defs ><path id="B" d="M429.28 255.938v20.72h-7.844V309.5h-18.22v25.72h-10.375V708.78h87.875V335.22h-10.375V309.5h-18.187v-32.844h-7.875v-20.72h-15z"/><path id="C" d="M1364.042 1357.852h46.45v8.96h-46.45z"/><path id="D" d="M1288.94 1375.87h6.602v13.675h-6.602z"/><path id="E" d="M255.418 1158.7h48.24v5.743h-48.24z"/><path id="F" d="M380.142 1220.723h6.507v13.48h-6.507z"/><path id="G" d="M-50.57 503.87h8.08v72.73h-8.08z"/><path id="H" d="M-2.813 477.08v6.566"/><path id="I" d="M126.723 1219.56h45.783v8.83h-45.783z"/><path id="J" d="M-423.972 729.13c-5.535 4.645-9.085 11.488-9.085 19.164 0 13.99 11.648 25.343 26.005 25.343 10.768 0 20-6.394 23.945-15.485-4.54 3.773-10.448 6.07-16.883 6.07-14.358 0-26.005-11.354-26.005-25.343 0-3.456.737-6.746 2.023-9.747z"/></defs></svg>