<svg id="Layer_1" data-name="Layer 1" xmlns="http://www.w3.org/2000/svg" viewBox="0 0 8.99 9.58"><defs><style>.cls-1,.cls-3{fill:#fff;}.cls-1{fill-rule:evenodd;opacity:0.3;}.cls-2{fill:none;stroke:#fff;stroke-linecap:round;stroke-linejoin:round;}</style></defs><title>Aset CU DASHBOARD BARU</title><path class="cls-1" d="M8.4,4.29C7.59,8.78,4.57,9.08,4.57,9.08a4,4,0,0,1-1.68-.75A6.65,6.65,0,0,1,1.56,6.86c-.08-.17-.17-.34-.25-.53a2,2,0,0,1,1.19-1C3.52,5,4,5.46,4.84,5s.66-.64,1.7-1A1.7,1.7,0,0,1,8.4,4.29Z"/><path class="cls-2" d="M1.49,6.86a8.41,8.41,0,0,1-1-4.67s.67-.85,4-1.69c3.31.84,4,1.69,4,1.69.22,6.33-4,6.89-4,6.89a4.12,4.12,0,0,1-1.68-.75"/><path class="cls-3" d="M4.8,6.37H3V5.8a.75.75,0,0,1,0-.26A.79.79,0,0,1,3.81,5H5.18a.79.79,0,0,1,.57.25.75.75,0,0,1,.13.18A.86.86,0,0,1,6,5.8v.57H5.58"/><path class="cls-3" d="M5.28,3.56A.83.83,0,0,1,5.16,4,.78.78,0,0,1,3.83,4a.74.74,0,0,1-.12-.42.73.73,0,0,1,.08-.33.78.78,0,0,1,1.43,0A.72.72,0,0,1,5.28,3.56Z"/></svg>