<svg id="Layer_1" data-name="Layer 1" xmlns="http://www.w3.org/2000/svg" xmlns:xlink="http://www.w3.org/1999/xlink" viewBox="0 0 221.58 171.78"><defs><style>.cls-1{fill:none;}.cls-2{clip-path:url(#clip-path);}.cls-3{fill:#87c3ea;opacity:0.05;}.cls-4{opacity:0.1;}.cls-5{fill:#4196d2;fill-rule:evenodd;}.cls-6{fill:#fff;}.cls-7{fill:#133f5d;}.cls-8{fill:#a4cd5d;}.cls-9{fill:#87bee2;}.cls-10{fill:#dbecbe;}</style><clipPath id="clip-path"><rect class="cls-1" x="-392.96" y="-0.1" width="363" height="110.27"/></clipPath></defs><title>Onboarding Ionic Paper - 040719</title><g class="cls-2"><path class="cls-3" d="M65.33,52.83S-47-44.63-133,31.3s-142.54-49.28-217.1,19-144-37.2-207.13,9.9l4.22,63.68s75.92-12.16,214.43-13.67c144.18-1.58,229.31,17.64,355.49-13.11S164.27,23.8,164.27,23.8L72.5,51.87Z"/><path class="cls-3" d="M50.94,105.26C26.57,146.58-48.83-21.47-167,52.23c-64.93,40.5-134.57,55.15-194.79,16.7s-102.79-97.16-168.75-36.6-56.16,139.74-56.16,139.74L88.68,174Z"/></g><g class="cls-4"><path class="cls-5" d="M24,46.54C39.9,31,70.6,25.11,85.21,28.6,102,32.59,118.84,37,129.39,36c20.64-2,35.59-22.56,67.28-5.72,27.7,14.72,37.1,68.2,3.07,103.28-19.37,20-37.26,32.69-82.84,37.55C66.74,176.49-8.49,148.2.78,87.2,3.43,69.81,8.37,61.7,24,46.54Z"/></g><path class="cls-6" d="M165,70.41v66.84a10.88,10.88,0,0,1-10.88,10.87H67.5a10.87,10.87,0,0,1-10.87-10.87V70.41Z"/><path class="cls-7" d="M154.07,148.37H67.5a11.13,11.13,0,0,1-11.12-11.12V70.41a.25.25,0,0,1,.25-.25H165a.25.25,0,0,1,.25.25v66.84A11.14,11.14,0,0,1,154.07,148.37ZM56.88,70.66v66.59A10.64,10.64,0,0,0,67.5,147.87h86.57a10.64,10.64,0,0,0,10.63-10.62V70.66Z"/><path class="cls-6" d="M103.59,36.18l-47,34.23,54,41.33L165,70.41,118.33,36.2A11.75,11.75,0,0,0,103.59,36.18Z"/><path class="cls-7" d="M110.61,112a.3.3,0,0,1-.15,0l-54-41.34a.25.25,0,0,1-.1-.2.26.26,0,0,1,.1-.2l47-34.22a12.06,12.06,0,0,1,15,0L165.1,70.2a.26.26,0,0,1,.1.2.22.22,0,0,1-.1.2l-54.34,41.34A.25.25,0,0,1,110.61,112ZM57.05,70.41l53.56,41,53.93-41-46.36-34a11.55,11.55,0,0,0-14.43,0h0Zm46.54-34.23h0Z"/><path class="cls-6" d="M164.62,140.05a10.89,10.89,0,0,1-10.51,8.07H67.54A10.88,10.88,0,0,1,57,139.81l46.33-32.14a11.73,11.73,0,0,1,14.91,0Z"/><path class="cls-7" d="M154.11,148.37H67.54a11.1,11.1,0,0,1-10.82-8.51.26.26,0,0,1,.1-.26l46.34-32.13a12,12,0,0,1,15.21,0l46.39,32.36a.24.24,0,0,1,.1.27A11.14,11.14,0,0,1,154.11,148.37Zm-96.86-8.46a10.59,10.59,0,0,0,10.29,8h86.57a10.65,10.65,0,0,0,10.22-7.71l-46.26-32.27a11.53,11.53,0,0,0-14.61,0Z"/><circle class="cls-8" cx="110.52" cy="105.01" r="15.35"/><path class="cls-7" d="M110.52,120.6A15.6,15.6,0,1,1,126.12,105,15.61,15.61,0,0,1,110.52,120.6Zm0-30.69a15.1,15.1,0,1,0,15.1,15.1A15.12,15.12,0,0,0,110.52,89.91Z"/><path class="cls-6" d="M114.75,113.75a10.15,10.15,0,0,1-4.9,1.1,8.2,8.2,0,0,1-8.35-8.6c0-5.67,3.94-10.57,10.06-10.57a7.65,7.65,0,0,1,8,8c0,4.13-2.31,6.55-4.9,6.55a2,2,0,0,1-2-2.42h-.11a4.33,4.33,0,0,1-3.88,2.42c-1.6,0-3-1.29-3-3.47a6.5,6.5,0,0,1,6.53-6.52,7.33,7.33,0,0,1,3,.57l-.94,5c-.41,2.09-.08,3.06.82,3.08,1.41,0,3-1.84,3-5,0-4-2.4-6.85-6.67-6.85-4.48,0-8.26,3.55-8.26,9.14,0,4.6,3,7.44,7.08,7.44a8.53,8.53,0,0,0,4.16-1Zm-1.52-11.9a4.81,4.81,0,0,0-1.37-.19c-2.43,0-4.38,2.28-4.38,5,0,1.21.6,2.1,1.82,2.1,1.59,0,3-2,3.36-3.75Z"/><path class="cls-9" d="M118.12,63.9l-14.54-.17c-14.32-29.49-.33-53.91,5.63-62.27a2.88,2.88,0,0,1,4.73.05C119.7,10,133.12,34.75,118.12,63.9Z"/><path class="cls-10" d="M121.53,16.66l-20.26-.23A66.32,66.32,0,0,1,109.2,1.48a2.89,2.89,0,0,1,4.75.05A66.55,66.55,0,0,1,121.53,16.66Z"/><path class="cls-7" d="M118.12,64.15h0L103.58,64a.24.24,0,0,1-.23-.14C89.12,34.53,102.57,10.35,109,1.31A3.06,3.06,0,0,1,111.59,0a3.1,3.1,0,0,1,2.56,1.37C120.38,10.55,133.26,35,118.34,64A.23.23,0,0,1,118.12,64.15Zm-14.38-.67,14.23.17c14.68-28.68,1.93-52.9-4.24-62A2.59,2.59,0,0,0,111.59.5h0a2.59,2.59,0,0,0-2.14,1.1C103,10.55,89.73,34.47,103.74,63.48Z"/><circle class="cls-6" cx="111.25" cy="29.27" r="5.45"/><rect class="cls-10" x="109.02" y="54.68" width="3.64" height="20.59" rx="1.82" transform="translate(0.76 -1.29) rotate(0.67)"/><path class="cls-10" d="M118.12,63.9C129,64,128.89,75.69,128.89,75.69c3.83-16.48-6.3-20.65-7-20.68A64.13,64.13,0,0,1,118.12,63.9Z"/><path class="cls-10" d="M100,54.76c-.7,0-10.92,3.94-7.48,20.51,0,0,.14-11.67,11-11.54A64.08,64.08,0,0,1,100,54.76Z"/><path class="cls-7" d="M110.74,75.53h0a2.06,2.06,0,0,1-1.45-.63,2,2,0,0,1-.59-1.47l.2-17a2.08,2.08,0,0,1,2.07-2h0a2.06,2.06,0,0,1,2,2.09l-.19,17A2.08,2.08,0,0,1,110.74,75.53Zm0-.5h0a1.58,1.58,0,0,0,1.57-1.55l.19-17a1.57,1.57,0,0,0-3.13,0l-.2,17A1.58,1.58,0,0,0,110.72,75Z"/><path class="cls-7" d="M128.89,75.94h0a.27.27,0,0,1-.23-.25c0-.47,0-11.42-10.52-11.54a.24.24,0,0,1-.21-.12.23.23,0,0,1,0-.24,63.92,63.92,0,0,0,3.76-8.86.26.26,0,0,1,.25-.17,10.08,10.08,0,0,1,5,3.77c2.17,2.85,4.31,8.15,2.21,17.22A.26.26,0,0,1,128.89,75.94ZM118.53,63.66a10,10,0,0,1,9.3,6.08A15.81,15.81,0,0,1,129,73.92c1.4-7.71-.46-12.34-2.35-14.91a10.41,10.41,0,0,0-4.6-3.7A64.57,64.57,0,0,1,118.53,63.66Z"/><path class="cls-7" d="M92.53,75.52a.26.26,0,0,1-.24-.2c-1.9-9.12.37-14.36,2.61-17.16A10,10,0,0,1,100,54.51a.26.26,0,0,1,.24.18,64.29,64.29,0,0,0,3.55,8.93.23.23,0,0,1,0,.24.27.27,0,0,1-.21.12C93,63.83,92.79,75.16,92.78,75.27a.25.25,0,0,1-.22.25Zm7.31-20.47a10.48,10.48,0,0,0-4.68,3.59c-2,2.53-3.93,7.13-2.69,14.89.54-3.25,2.62-9.93,10.71-10.05A64.74,64.74,0,0,1,99.84,55.05Z"/></svg>