<svg xmlns="http://www.w3.org/2000/svg" xmlns:xlink="http://www.w3.org/1999/xlink" width="319" height="210" viewBox="0 0 298.859 196.266"><style><![CDATA[.B{fill:#f7fbfd}.C{stroke-width:1.869}]]></style><g transform="matrix(.860133 0 0 .860133 1658.613 -1616.1057)" stroke="#d9e9f3"><g fill="#fff"><g transform="matrix(.812914 0 0 .812914 -1681.0773 1466.3222)" opacity=".86" stroke-width="1.23"><path d="M-26.517 570.56l11.34-.053 56.114-35.534 11.205-.128-.373 35.714v216.93h-78.287z" fill="#f6fafd" stroke="#e9f3f7"/><path d="M-19.95 583.438h8.84v12.88h-8.84zm14 0H2.9v12.88h-8.84zm14 0h8.84v12.88H8.05zm14 0h8.84v12.88h-8.84zm14 0h8.84v12.88h-8.84zm-56.506 24.8h9.1m4.9-.001h9.1m4.9 0h9.1m4.9-.01h9.1m4.9 0h9.1m-65.1 6h9.1m4.9 0h9.1m4.9 0h9.1m4.9 0h9.1m4.9 0h9.1m-65.1 6h9.1m4.9 0h9.1m4.9 0h9.1m4.9 0h9.1m4.9 0h9.1m-65.1 6h9.1m4.9 0h9.1m4.9 0h9.1m4.9 0h9.1m4.9 0h9.1m-65.1 6h9.1m4.9 0h9.1m4.9 0h9.1m4.9 0h9.1m4.9 0h9.1m-65.1 6h9.1m4.9 0h9.1m4.9 0h9.1m4.9 0h9.1m4.9 0h9.1m-65.1 6h9.1m4.9 0h9.1m4.9 0h9.1m4.9 0h9.1m4.9 0h9.1m-65.1 6h9.1m4.9 0h9.1m4.9 0h9.1m4.9 0h9.1m4.9 0h9.1m-65.1 6h9.1m4.9 0h9.1m4.9 0h9.1m4.9 0h9.1m4.9 0h9.1m-65.1 6h9.1m4.9 0h9.1m4.9 0h9.1m4.9 0h9.1m4.9 0h9.1m-65.1 6h9.1m4.9 0h9.1m4.9 0h9.1m4.9 0h9.1m4.9 0h9.1m-65.1 6h9.1m4.9 0h9.1m4.9 0h9.1m4.9 0h9.1m4.9 0h9.1m-65.1 6h9.1m4.9 0h9.1m4.9 0h9.1m4.9 0h9.1m4.9 0h9.1m-65.1 6h9.1m4.9 0h9.1m4.9 0h9.1m4.9 0h9.1m4.9 0h9.1m-65.1 6h9.1m4.9 0h9.1m4.9 0h9.1m4.9 0h9.1m4.9 0h9.1m-65.1 6h9.1m4.9 0h9.1m4.9 0h9.1m4.9 0h9.1m4.9 0h9.1m-65.1 6h9.1m4.9 0h9.1m4.9 0h9.1m4.9 0h9.1m4.9 0h9.1m-65.1 6h9.1m4.9 0h9.1m4.9 0h9.1m4.9 0h9.1m4.9 0h9.1m-65.1 6h9.1m4.9 0h9.1m4.9 0h9.1m4.9 0h9.1m4.9 0h9.1m-65.1 6h9.1m4.9 0h9.1m4.9 0h9.1m4.9 0h9.1m4.9 0h9.1m-65.1 6h9.1m4.9 0h9.1m4.9 0h9.1m4.9 0h9.1m4.9 0h9.1m-65.1 6h9.1m4.9 0h9.1m4.9 0h9.1m4.9 0h9.1m4.9 0h9.1m-65.1 6h9.1m4.9 0h9.1m4.9 0h9.1m4.9 0h9.1m4.9 0h9.1m-65.1 6h9.1m4.9 0h9.1m4.9 0h9.1m4.9 0h9.1m4.9 0h9.1m-65.1 6h9.1m4.9 0h9.1m4.9 0h9.1m4.9 0h9.1m4.9 0h9.1m-65.1 6h9.1m4.9 0h9.1m4.9 0h9.1m4.9 0h9.1m4.9 0h9.1m-65.1 6h9.1m4.9 0h9.1m4.9 0h9.1m4.9 0h9.1m4.9 0h9.1m-65.1 6h9.1m4.9 0h9.1m4.9 0h9.1m4.9 0h9.1m4.9 0h9.1"/><g class="B"><path d="M-151.018 650.613h58.59V787.49h-58.59z"/><path d="M-141.926 644.047h43.942v6.566h-43.942z"/></g><use xlink:href="#B"/><use xlink:href="#B" x="18"/><use xlink:href="#B" x="34"/><use xlink:href="#B" y="24"/><use xlink:href="#B" x="18" y="24"/><use xlink:href="#B" x="34" y="24"/><use xlink:href="#B" y="50"/><use xlink:href="#B" x="18" y="50"/><use xlink:href="#B" x="34" y="50"/><use xlink:href="#B" y="74"/><use xlink:href="#B" x="18" y="74"/><use xlink:href="#B" x="34" y="74"/><path d="M28.032 655.41h71.216V787.49H28.032z" class="B"/><use xlink:href="#C"/><path d="M55.306 665.26v9.596m16-9.596v9.596"/><use xlink:href="#C" y="18"/><path d="M55.306 683.26v9.596m16-9.596v9.596"/><use xlink:href="#C" y="36"/><path d="M55.306 701.26v9.596m16-9.596v9.596"/><use xlink:href="#C" y="54"/><path d="M55.306 719.26v9.596m16-9.596v9.596"/><use xlink:href="#C" y="72"/><path d="M55.306 737.26v9.596m16-9.596v9.596"/><use xlink:href="#C" y="90"/><path d="M55.306 755.26v9.596m16-9.596v9.596"/><path d="M-92.934 610.46h71.973v177.03h-71.973z" class="B"/><path d="M-87.378 616.773h61.114v7.324h-61.114z"/><use xlink:href="#D"/><use xlink:href="#D" x="4"/><use xlink:href="#D" x="8"/><use xlink:href="#D" x="12"/><use xlink:href="#D" x="16"/><use xlink:href="#D" x="20"/><use xlink:href="#D" x="24"/><use xlink:href="#D" x="28"/><use xlink:href="#D" x="32"/><use xlink:href="#D" x="36"/><use xlink:href="#D" x="40"/><use xlink:href="#D" x="44"/><use xlink:href="#D" x="48"/><use xlink:href="#D" x="52"/><use xlink:href="#D" x="56"/><use xlink:href="#D" x="60"/><path d="M-97.732 696.575h56.82v90.914h-56.82z" class="B"/><path d="M-90.41 704.15h43.437" fill="#f1f7fc"/><path d="M-90.4 714.15h43.437m-43.437 6h43.437m-43.437 6h43.437m-43.437 6h43.437m-43.437 10h43.437m-43.437 6h43.437m-43.437 6h43.437m-43.437 6h43.437"/><path d="M-40.638 708.445h60.862v79.044h-60.862z" class="B"/><path d="M-36.113 714h14.647v7.324h-14.647zm19 0h14.647v7.324h-14.647zm19 0h14.647v7.324H1.887zm-38.505 12.88h15.9m3.1 0h15.9m3.1 0h15.9m-53.9 6h15.9m3.1 0h15.9m3.1 0h15.9m-53.9 6h15.9m3.1 0h15.9m3.1 0h15.9m-53.9 6h15.9m3.1 0h15.9m3.1 0h15.9m-53.9 6h15.9m3.1 0h15.9m3.1 0h15.9m-53.9 6h15.9m3.1 0h15.9m3.1 0h15.9m-53.9 6h15.9m3.1 0h15.9m3.1 0h15.9m-53.9 6h15.9m3.1 0h15.9m3.1 0h15.9"/><path d="M-107.58 762.74h41.416v24.75h-41.416z" class="B"/><path d="M-102.258 768.676v4.543" fill="#4199d5"/><path d="M-97.972 768.676v4.543m4.286-4.543v4.543m4.286-4.543v4.543m4.285-4.543v4.543m4.285-4.543v4.543m4.287-4.543v4.543m4.285-4.543v4.543"/><g class="B"><path d="M-66.165 729.405h9.596v4.798h-9.596z"/><path d="M-70.206 733.446h37.88v54.043h-37.88z"/></g><path d="M-54.063 738.75v4.798m4-4.798v4.798m4-4.798v4.798m4-4.798v4.798m4-4.798v4.798m-16 5.202v4.798m4-4.798v4.798m4-4.798v4.798m4-4.798v4.798m4-4.798v4.798m-16 5.202v4.798m4-4.798v4.798m4-4.798v4.798m4-4.798v4.798m4-4.798v4.798m-16 5.202v4.798m4-4.798v4.798m4-4.798v4.798m4-4.798v4.798m4-4.798v4.798"/></g><g transform="matrix(.644515 0 0 .644515 -1634.2949 1599.1873)"><g stroke-width="1.552"><ellipse ry="27.143" rx="27.857" cy="747.462" cx="-405.92" fill="#f0f9e7"/><path d="M-405.348 786.747v-40.714m-.715 8l-8.57-7.857m10 11.857l9.617-9.2"/></g><g transform="matrix(.732325 0 0 .732325 146.74696 584.18702)" stroke-width="2.119"><ellipse ry="27.143" rx="27.857" cy="235.934" cx="-721.286" fill="#f0f9e7"/><path d="M-720.714 276.6v-42.094m-.716 8l-8.57-7.857m10 11.856l9.617-9.2"/></g></g></g><g transform="matrix(.534144 0 0 .535934 -2419.6522 1897.6739)" class="C"><path d="M1070.257 368.994h8.586v20.203h-8.586z" fill="#ebf4fb"/><path d="M1074.297 368.994v-54.548l-10.1-9.09h-9.09l.068 4.022" fill="none"/><g transform="matrix(.83324 0 0 .83324 174.59203 51.416872)"><circle r="8.586" cy="317.415" cx="1056.054" fill="#fff"/><path d="M1048.538 314.95h15.152" fill="none"/></g><path d="M1074.626 368.994v-54.548l10.1-9.09h9.09l-.068 4.022" fill="none"/><g transform="matrix(-.83324 0 0 .83324 1974.3315 51.416872)"><circle r="8.586" cy="317.415" cx="1056.054" fill="#fff"/><path d="M1048.538 314.95h15.152" fill="none"/></g></g></g><defs ><path id="B" d="M-139.4 666.776h7.07v14.647h-7.07z"/><path id="C" d="M38.638 665.513h49.75v9.596h-49.75z"/><path id="D" d="M-87.378 629.905v148.997"/></defs></svg>