<svg xmlns="http://www.w3.org/2000/svg" xmlns:xlink="http://www.w3.org/1999/xlink" viewBox="0 0 31.97 27.52"><style><![CDATA[.G{stroke:#14385e}.H{stroke-width:.5}.I{stroke-miterlimit:10}]]></style><path d="M2.05.33s.93-.3 1.9.3S5.4 2.2 5.4 3.4c.01.28-.01.46-.01.46v.73H.25C.25 1.46 1.3.56 2.05.33z" fill="#edf8fe"/><path d="M2.05.33s.93-.3 1.9.3S5.4 2.2 5.4 3.4v1.2H.25C.25 1.46 1.3.56 2.05.33z" fill="none" class="G H I"/><use xlink:href="#B" fill="#dff3fd"/><use xlink:href="#B" fill="none" class="G H I"/><path d="M7.58 27.17h.62c-.2.03-.4.03-.62 0z" fill="#aed582"/><use xlink:href="#C" fill="#edf8fe"/><use xlink:href="#C" fill="none" class="G H I"/><circle cx="23.29" cy="11.77" r="8.43" fill="#c5c5c4"/><g fill="none" class="G H"><circle cx="23.29" cy="11.77" r="8.43"/><path d="M24.8 8.37l1.9 1.9-4.9 4.9h-1.9v-1.9z" class="I"/></g><defs ><path id="B" d="M28.45 27.2c-.85.16-16.9.02-20.26-.02 2.28-.2 1.93-3.32 1.93-3.32h19.65c0 .01.4 3.02-1.32 3.34z"/><path id="C" d="M26.05 23.86H10.27s.4 3.64-2.54 3.32c0 0-2.63.08-2.47-3.4S5.3 4.1 5.12 3.4c-.04-.9-.4-2.77-2.58-3.14 0 0-.1-.02-.26-.02H22.2c.03 0 3.36.01 3.84 3.8.5 3.8.01 19.82.01 19.82z"/></defs></svg>