<svg xmlns="http://www.w3.org/2000/svg" xmlns:xlink="http://www.w3.org/1999/xlink" width="52" height="56" viewBox="0 0 13.499 14.566"><style><![CDATA[.B{fill:none}.C{stroke-width:.176}.D{stroke-miterlimit:10}.E{stroke:#3f5669}.F{stroke:#cececf}.G{stroke-linejoin:round}.H{fill:#cececf}]]></style><path d="M.088 7.726l1.16-.945v.945z" fill="#9a9696"/><path d="M.088 7.726l1.16-.945v.945z" class="B C D E G"/><path d="M13.41 7.726l-1.16-.945v.945z" fill="#9a9696"/><path d="M13.41 7.726l-1.16-.945v.945z" class="B C D E G"/><path d="M12.252 14.478H1.248V.088h11.004z" fill="#f1f0f0"/><path d="M3.227.088s2.217 8.015 9.024 8.94v1.386H1.248V.088z" fill="#cfcfd0"/><g class="B C D"><path d="M12.252 14.478H1.248V.088h11.004z" class="E"/><path d="M10.794 6.72H2.687V4.67h8.107zm-5.35-4.924h5.35m-5.35.842h5.35m-4.158.805H9.3" class="F"/></g><use xlink:href="#B" class="H"/><path d="M10.052 3.443c0 .04-.032.07-.07.07s-.07-.032-.07-.07.032-.07.07-.07.07.032.07.07z" class="B C D F"/><use xlink:href="#B" x="0.683" class="H"/><path d="M10.735 3.443c0 .04-.032.07-.07.07s-.07-.032-.07-.07.032-.07.07-.07.07.032.07.07z" class="B C D F"/><path d="M2.687 2.757h1.08v-1.08h-1.08z" class="H"/><use xlink:href="#C" fill="#cfcfd0"/><g fill="#fff"><path d="M6.258 10.306s2.81.588 3.475-2.316l3.678-.265h-4.1s-.574 2.468-3.054 2.58"/><path d="M7.18 10.313c-2.986.235-3.548-1.952-3.548-1.952l-1.607-.005h-.147c-.678.007-1.353.053-1.415.89l-.36 5.23-.014-6.75h4.1l.086.61c.752 2.147 2.905 1.976 2.905 1.976"/></g><use xlink:href="#C" class="B C D E G"/><g fill="#3f5669"><path d="M13.026 8.175c0 .04-.032.07-.07.07s-.07-.032-.07-.07.03-.07.07-.07.07.032.07.07m0 5.852c0 .04-.032.07-.07.07s-.07-.032-.07-.07.03-.07.07-.07.07.032.07.07"/><use xlink:href="#B" x="-9.446" y="4.732"/><use xlink:href="#B" x="-9.446" y="10.584"/></g><path d="M3.145 5.694h7.17" class="B C D F"/><defs ><path id="B" d="M10.052 3.443c0 .04-.032.07-.07.07s-.07-.032-.07-.07.032-.07.07-.07.07.032.07.07"/><path id="C" d="M13.41 7.726v6.752H.088V7.726h4.1c0 1.414 1.148 2.562 2.562 2.562S9.31 9.14 9.31 7.726z"/></defs></svg>