<svg xmlns="http://www.w3.org/2000/svg" viewBox="0 0 20.785 21.975" width="21" height="22"><style><![CDATA[.S{fill:none}.T{stroke-width:.25}.U{stroke:#3f5669}.V{stroke-linejoin:round}.W{stroke:#cfcfce}.X{stroke-miterlimit:10}]]></style><defs><clipPath ><path d="M0 146.57h359.88v117.5H0z" class="S"/></clipPath><clipPath ><path d="M417.37 38.6h-476c-5.85 0-10.57 3.15-10.57 7.08v210.54c0 3.92 4.72 7.08 10.57 7.08h476c5.86 0 10.58-3.16 10.58-7.08V45.68c.05-3.93-4.72-7.08-10.58-7.08z" class="S"/></clipPath><clipPath ><path d="M-515.37 41.37h1396.7v784.28h-1396.7z" class="S"/></clipPath></defs><path d="M1.705 10.505H.125l1.58-1.28z" fill="#6c9bb9"/><path d="M1.705 10.505H.125l1.58-1.28z" class="S T U V"/><path d="M16.655 10.505h1.57l-1.57-1.28z" fill="#6c9bb9"/><g class="T"><path d="M16.655 10.505h1.57l-1.57-1.28z" class="S U V"/><path d="M1.705.125h14.95v19.55H1.705z" fill="#fff" stroke="#15395e"/></g><path d="M4.395.125s3 10.9 12.26 12.15v1.9H1.705v-14z" fill="#f7f8f9" opacity=".65"/><g class="S T X"><path d="M1.705.125h14.95v19.55H1.705z" class="U"/><path d="M3.655 6.355h11.02v2.8H3.655zm3.75-3.9h7.27m-7.27 1.14h7.27m-5.65 1.1h3.6" class="W"/></g><g fill="#cfcfce" class="T W"><circle cx="13.565" cy="4.685" r=".1"/><circle cx="14.495" cy="4.685" r=".1"/></g><path d="M3.655 2.285h1.47v1.47h-1.47z" fill="#3f97d3"/><path d="M18.225 10.505v9.18H.135v-9.18h5.57a3.5 3.5 0 0 0 7 0z" fill="#87c2e7"/><g fill="#fff"><path d="M8.505 14.015a4 4 0 0 0 4.73-3.15l5-.36h-5.58a4.62 4.62 0 0 1-4.15 3.51z" opacity=".6"/><path d="M9.765 14.025c-4.06.32-4.82-2.65-4.82-2.65h-2.4c-.92 0-1.84.07-1.92 1.2l-.5 7.1v-9.18h5.57l.12.83a4 4 0 0 0 3.94 2.69z" opacity=".4"/></g><path d="M18.225 10.505v9.18H.135v-9.18h5.57a3.5 3.5 0 0 0 7 0z" class="S T U V"/><g fill="#3f5669"><circle cx="17.615" cy="11.115" r=".1"/><circle cx=".735" cy="11.115" r=".1"/><circle cx=".735" cy="19.065" r=".1"/></g><path d="M4.275 7.745h9.75" class="S T W X"/><circle cx="16.875" cy="18.065" r="3.91" fill="#3f5669" opacity=".15"/><circle cx="16.245" cy="17.375" r="3.91" fill="#a5cd5c"/><path d="M13.075 17.785a3.89 3.89 0 0 0 1.66 3.19 3.91 3.91 0 0 1-.373-7.024 3.91 3.91 0 0 1 4.143.224 3.85 3.85 0 0 0-1.52-.3 3.91 3.91 0 0 0-3.91 3.91z" fill="#c9e094" opacity=".35"/><g class="S T"><circle cx="16.245" cy="17.375" r="3.91" class="U"/><path d="M14.625 17.525l.92 1 2.32-2.33" stroke-linecap="round" stroke="#fff" class="V"/></g></svg>