<svg xmlns="http://www.w3.org/2000/svg" xmlns:xlink="http://www.w3.org/1999/xlink" viewBox="0 0 23.4 20.2"><style><![CDATA[.H{stroke-miterlimit:10}.I{stroke:#14385e}.J{stroke-width:.5}]]></style><path d="M1.6.3S2.3.1 3 .5s1 1.1 1 2v.8H.3c0-2.2.7-2.8 1.3-3z" fill="#ecf7fd"/><path d="M1.6.3S2.3.1 3 .5s1 1.1 1 2v.9H.3C.3 1.1 1 .5 1.6.3z" fill="none" class="H I J"/><path d="M20.8 19.9c-.6.1-12.3 0-14.8 0 1.7-.2 1.4-2.4 1.4-2.4h14.3c.1-.1.3 2.1-.9 2.4z" fill="#def2fc"/><path d="M20.8 19.9c-.6.1-12.3 0-14.8 0 1.7-.2 1.4-2.4 1.4-2.4h14.3c.1-.1.3 2.1-.9 2.4z" fill="none" class="H I J"/><path d="M5.6 19.9z" fill="#acd480"/><use xlink:href="#B" fill="#ecf7fd"/><g class="I J"><use xlink:href="#B" fill="none" class="H"/><circle cx="17" cy="8.6" r="6.1" fill="#ea768f" stroke-linejoin="round"/><g fill="none"><circle cx="17" cy="8.6" r="6.1"/><path d="M17.1 10V5.3" stroke-linecap="round" class="H"/></g></g><circle cx="17.1" cy="11.6" r=".4" fill="#14385e"/><defs ><path id="B" d="M19 17.4H7.6s.3 2.7-1.9 2.4c0 0-1.9.1-1.8-2.5.1-2.4 0-14.3-.1-14.8 0-.6-.3-2-1.9-2.3h-.2 14.5S18.6.2 19 3s0 14.4 0 14.4z"/></defs></svg>