<svg xmlns="http://www.w3.org/2000/svg" width="446" height="113" viewBox="0 0 117.916 29.785"><defs><clipPath id="A"><path d="M425.078 411.515h334.25v266.503h-334.25z"/></clipPath><clipPath id="B"><path d="M275.542 495.946H804.46V326.838H275.542z"/></clipPath><clipPath id="C"><path d="M275.542 495.946H804.46V382.6H275.542z"/></clipPath><clipPath id="D"><path d="M373.17 480.586H763.49V326.838H373.17z"/></clipPath></defs><g clip-path="url(#A)" transform="matrix(.352778 0 0 -.352778 -149.95845 174.95844)"><g clip-path="url(#B)" opacity=".7"><g clip-path="url(#C)" opacity=".15"><path d="M349.897 430.69s68.377 114.412 140.12 40.244 96.322 65.255 158.812-1.64 98.97 52.4 150.474 7.237l5.155-68.793s-53.335-35.77-154.208-7c-100.876 28.777-164.9-35.55-259.744-13.39s-114.964 60.622-114.964 60.622l69.068-16.868z" fill="#fff"/></g><g clip-path="url(#D)" opacity=".1"><path d="M373.17 409.195c17.075-31.574 75.825 36.5 133.263 26.958 45.246-7.514 43.272-10.154 87.843-.03 24.554 5.577 47.33 16.98 66.942 32.77 21.32 17.164 43.63 18.05 74.586-15.186 41.276-44.313 24.177-81.838 24.177-81.838l-362.872-45.03z" fill="#fff"/></g></g></g></svg>