<?xml version="1.0" encoding="UTF-8" standalone="no"?>
<!-- Created with Inkscape (http://www.inkscape.org/) -->

<svg
   xmlns:dc="http://purl.org/dc/elements/1.1/"
   xmlns:cc="http://creativecommons.org/ns#"
   xmlns:rdf="http://www.w3.org/1999/02/22-rdf-syntax-ns#"
   xmlns:svg="http://www.w3.org/2000/svg"
   xmlns="http://www.w3.org/2000/svg"
   xmlns:sodipodi="http://sodipodi.sourceforge.net/DTD/sodipodi-0.dtd"
   xmlns:inkscape="http://www.inkscape.org/namespaces/inkscape"
   width="600"
   height="161"
   viewBox="0 0 600.00002 161"
   id="svg2"
   version="1.1"
   inkscape:version="0.48.4 r9939"
   sodipodi:docname="paperlogofinal.svg">
  <defs
     id="defs4">
    <inkscape:path-effect
       effect="spiro"
       id="path-effect17946"
       is_visible="true" />
    <inkscape:path-effect
       effect="powerstroke"
       id="path-effect17948"
       is_visible="true"
       offset_points="0,4.3358438"
       sort_points="true"
       interpolator_type="Linear"
       interpolator_beta="0.2"
       start_linecap_type="zerowidth"
       linejoin_type="round"
       miter_limit="4"
       end_linecap_type="zerowidth"
       cusp_linecap_type="round" />
  </defs>
  <sodipodi:namedview
     id="base"
     pagecolor="#ffffff"
     bordercolor="#666666"
     borderopacity="1.0"
     inkscape:pageopacity="0.0"
     inkscape:pageshadow="2"
     inkscape:zoom="0.98994949"
     inkscape:cx="260.00255"
     inkscape:cy="94.429709"
     inkscape:document-units="px"
     inkscape:current-layer="g4185"
     showgrid="false"
     inkscape:window-width="1600"
     inkscape:window-height="837"
     inkscape:window-x="-8"
     inkscape:window-y="-8"
     inkscape:window-maximized="1"
     fit-margin-top="0"
     fit-margin-left="0"
     fit-margin-right="0"
     fit-margin-bottom="0"
     units="px"
     showguides="true"
     inkscape:guide-bbox="true">
    <sodipodi:guide
       position="42.426408,11.111678"
       orientation="1,0"
       id="guide4158" />
    <sodipodi:guide
       orientation="1,0"
       position="256.57875,188.89853"
       id="guide4670" />
    <sodipodi:guide
       orientation="1,0"
       position="561.64482,326.27927"
       id="guide4672" />
  </sodipodi:namedview>
  <metadata
     id="metadata7">
    <rdf:RDF>
      <cc:Work
         rdf:about="">
        <dc:format>image/svg+xml</dc:format>
        <dc:type
           rdf:resource="http://purl.org/dc/dcmitype/StillImage" />
        <dc:title />
      </cc:Work>
    </rdf:RDF>
  </metadata>
  <g
     inkscape:label="Layer 1"
     inkscape:groupmode="layer"
     id="layer1"
     transform="translate(86.223399,-492.52462)">
    <g
       id="g4185"
       transform="matrix(0.81622671,0,0,0.81584439,25.489696,107.80937)">
      <g
         style="font-size:110.77722168px;font-style:normal;font-weight:normal;line-height:125%;letter-spacing:0px;word-spacing:0px;fill:#374e5f;fill-opacity:1;stroke:none;font-family:sans-serif"
         id="text4136"
         transform="matrix(0.93746393,0,0,0.93746393,8.4746382,35.771877)">
        <path
           d="m 182.49189,553.0826 c -0.11386,-7.64718 -2.37161,-13.02755 -6.77327,-16.14113 -4.40176,-3.11345 -10.26463,-4.61559 -17.58864,-4.50641 l -22.61397,0 0,70.68231 10.92462,0 0,-28.73176 12.89106,0 c 7.17835,0.0683 12.81362,-1.57038 16.90585,-4.91608 4.09213,-3.34563 6.17691,-8.80793 6.25435,-16.38693 z m -11.14312,0 c -0.0524,4.93433 -1.23134,8.33917 -3.53684,10.21452 -2.30559,1.87543 -5.42366,2.76761 -9.35421,2.67653 l -12.01709,0 0,-25.12663 11.47086,0 c 3.85772,-0.1456 7.03951,0.58271 9.54539,2.18493 2.50578,1.60233 3.80308,4.95255 3.89189,10.05065 z"
           style="font-size:109.24763489px;font-variant:normal;font-stretch:normal;letter-spacing:1.02768075px;fill:#374e5f;font-family:Colaborate-Regular;-inkscape-font-specification:Colaborate-Regular"
           id="path4675"
           inkscape:connector-curvature="0" />
        <path
           d="m 257.60298,603.11737 -26.65608,-70.68231 -9.61367,0 -28.73175,70.68231 11.47085,0 7.42874,-19.99206 27.09307,0 6.99176,19.99206 z m -21.74,-28.18553 -21.30301,0 11.03387,-29.82422 z"
           style="font-size:109.24763489px;font-variant:normal;font-stretch:normal;letter-spacing:1.02768075px;fill:#374e5f;font-family:Colaborate-Regular;-inkscape-font-specification:Colaborate-Regular"
           id="path4677"
           inkscape:connector-curvature="0" />
        <path
           d="m 319.3998,553.0826 c -0.11385,-7.64718 -2.37161,-13.02755 -6.77326,-16.14113 -4.40176,-3.11345 -10.26464,-4.61559 -17.58865,-4.50641 l -22.61397,0 0,70.68231 10.92463,0 0,-28.73176 12.89105,0 c 7.17835,0.0683 12.81363,-1.57038 16.90586,-4.91608 4.09212,-3.34563 6.1769,-8.80793 6.25434,-16.38693 z m -11.14311,0 c -0.0524,4.93433 -1.23134,8.33917 -3.53685,10.21452 -2.30559,1.87543 -5.42366,2.76761 -9.35421,2.67653 l -12.01708,0 0,-25.12663 11.47085,0 c 3.85772,-0.1456 7.03951,0.58271 9.54539,2.18493 2.50579,1.60233 3.80309,4.95255 3.8919,10.05065 z"
           style="font-size:109.24763489px;font-variant:normal;font-stretch:normal;letter-spacing:1.02768075px;fill:#374e5f;font-family:Colaborate-Regular;-inkscape-font-specification:Colaborate-Regular"
           id="path4679"
           inkscape:connector-curvature="0" />
        <path
           d="m 378.12397,603.11737 0,-8.41196 -30.58894,0 0,-23.92492 27.31155,0 0,-8.41196 -27.31155,0 0,-21.52151 29.60572,0 0,-8.41196 -40.53035,0 0,70.68231 z"
           style="font-size:109.24763489px;font-variant:normal;font-stretch:normal;letter-spacing:1.02768075px;fill:#374e5f;font-family:Colaborate-Regular;-inkscape-font-specification:Colaborate-Regular"
           id="path4681"
           inkscape:connector-curvature="0" />
        <path
           d="m 450.44585,603.11737 -23.05096,-30.80744 c 6.99627,-0.84207 11.90324,-3.14535 14.72093,-6.90982 2.81759,-3.7644 4.17406,-8.19797 4.06943,-13.30073 -0.26635,-7.7018 -2.73804,-12.94561 -7.41509,-15.73145 -4.67715,-2.78572 -9.96193,-4.09667 -15.85436,-3.93287 l -24.25266,0 0,70.68231 10.92462,0 0,-30.4797 5.13457,0 22.50473,30.4797 z m -15.40372,-51.01799 c 0.0409,3.51641 -0.83305,6.39778 -2.62191,8.64411 -1.78895,2.24641 -4.7386,3.40715 -8.84894,3.48222 l -13.98352,0 0,-23.37869 13.87427,0 c 3.82813,0.0251 6.71405,1.01287 8.65776,2.96331 1.94363,1.95055 2.91774,4.71357 2.92234,8.28905 z"
           style="font-size:109.24763489px;font-variant:normal;font-stretch:normal;letter-spacing:1.02768075px;fill:#374e5f;font-family:Colaborate-Regular;-inkscape-font-specification:Colaborate-Regular"
           id="path4683"
           inkscape:connector-curvature="0" />
      </g>
      <g
         transform="matrix(0.56977331,0,0,0.56977331,210.02245,343.72343)"
         id="g4175">
        <circle
           style="fill:#ffffff;fill-opacity:1;fill-rule:nonzero;stroke:#4199d5;stroke-width:10.75372314;stroke-linecap:square;stroke-linejoin:round;stroke-miterlimit:4;stroke-opacity:1;stroke-dasharray:none;stroke-dashoffset:0"
           id="path17864"
           cx="-368.57144"
           cy="392.36221"
           r="146.97719"
           d="m -221.59425,392.36221 c 0,81.17326 -65.80393,146.97719 -146.97719,146.97719 -81.17326,0 -146.97719,-65.80393 -146.97719,-146.97719 0,-81.17326 65.80393,-146.97718 146.97719,-146.97718 81.17326,0 146.97719,65.80392 146.97719,146.97718 z"
           sodipodi:cx="-368.57144"
           sodipodi:cy="392.36221"
           sodipodi:rx="146.97719"
           sodipodi:ry="146.97719" />
        <g
           id="g18010"
           transform="matrix(1.1192946,0,0,1.1192946,-1051.0846,-351.55419)">
          <path
             sodipodi:nodetypes="czzzzzzc"
             inkscape:connector-curvature="0"
             inkscape:original-d="m 593.46461,747.80122 c -24.51384,-15.99773 -34.79986,-62.93768 -36.36548,-78.28682 -1.56562,-15.34914 14.3414,-52.24462 35.35533,-59.09393 21.01393,-6.84931 53.32185,14.79097 58.08378,37.37565 4.76193,22.58468 -24.74653,45.85917 -50.00255,46.97209 -25.25602,1.11292 -57.11792,-29.77627 -56.56855,-55.55839 0.54937,-25.78212 47.26693,-42.14215 72.28284,-49.58413 25.01591,-7.44198 52.32784,34.86763 52.00182,36.99312"
             id="path17944"
             d="m 596.19237,744.43093 c -22.18038,-17.81873 -35.5543,-46.28527 -35.06796,-74.83337 0.13808,-11.68912 2.53141,-23.35 7.97003,-33.42384 5.43813,-10.07365 14.08503,-18.48884 24.56618,-22.56718 11.57126,-4.49144 25.31306,-3.37783 35.89087,3.19481 5.32177,3.24611 9.8766,7.7996 13.10353,13.1771 3.22664,5.37696 5.12306,11.58349 5.40661,17.88845 0.44394,11.91425 -5.04114,23.89308 -14.02696,32.07353 -8.98085,8.17561 -21.20669,12.62342 -33.5356,12.96992 -14.38698,0.38698 -28.99312,-4.83025 -39.49128,-14.7187 -10.49637,-9.88663 -16.64893,-24.45568 -15.8045,-38.90067 0.42311,-8.02423 2.93004,-15.94613 7.10057,-22.89379 4.17014,-6.94695 9.98285,-12.91397 16.77729,-17.4343 13.64366,-8.95311 30.92384,-11.82687 47.11424,-9.03235 21.55887,3.756 41.20981,17.5697 52.05641,36.68827 -10.66413,-19.21532 -30.23768,-33.30524 -51.94723,-37.29797 -16.27586,-3.01958 -33.85049,-0.36553 -47.89649,8.60204 -7.05034,4.44 -13.18808,10.41445 -17.6851,17.4977 -4.49658,7.08258 -7.33522,15.27627 -7.99199,23.70811 -1.10114,15.20367 5.15121,30.66203 16.13722,41.30211 10.98399,10.63825 26.38427,16.39412 41.7041,16.19527 13.10412,-0.15527 26.37865,-4.66636 36.35376,-13.45465 9.9696,-8.78371 16.37186,-21.93224 16.08878,-35.44608 -0.10096,-7.14384 -2.02773,-14.2641 -5.53316,-20.53617 -3.50506,-6.27145 -8.57066,-11.67219 -14.61748,-15.62159 -12.15906,-7.81789 -28.02152,-9.36967 -41.61591,-4.33318 -12.31427,4.55155 -22.32855,14.07954 -28.6623,25.34936 -6.33382,11.26933 -9.14708,24.16711 -9.51215,36.84748 -0.74406,31.02557 13.5258,62.07213 37.663,81.74027 z"
             style="fill:#4199d5;fill-opacity:1;fill-rule:evenodd;stroke:#4199d5;stroke-width:3.8430357;stroke-linecap:butt;stroke-linejoin:miter;stroke-miterlimit:4;stroke-opacity:1;stroke-dasharray:none" />
          <g
             transform="translate(1112.8571,-286.42857)"
             id="g18005">
            <path
               style="fill:#a5ed5e;fill-opacity:1;fill-rule:evenodd;stroke:none"
               d="m -396.61114,918.01193 -39.90103,8.58628 -8.33375,-17.42512 z"
               id="path17968"
               inkscape:connector-curvature="0"
               sodipodi:nodetypes="cccc" />
            <path
               style="fill:#a5ed5e;fill-opacity:1;fill-rule:evenodd;stroke:none"
               d="m -445.24639,909.42562 -7.82869,13.38453 13.13199,-2.02031 z"
               id="path17972"
               inkscape:connector-curvature="0"
               sodipodi:nodetypes="cccc" />
            <path
               style="fill:#a5ed5e;fill-opacity:1;fill-rule:evenodd;stroke:none"
               d="m -445.73879,907.65786 -7.75471,-12.44834 56.88236,22.54986 z"
               id="path17970"
               inkscape:connector-curvature="0"
               sodipodi:nodetypes="cccc" />
          </g>
        </g>
        <path
           style="fill:#4199d5;fill-opacity:1;fill-rule:evenodd;stroke:none"
           d="m -432.09918,398.83346 c 2.50569,4.00112 4.92596,8.4009 9.99948,10.69014 l -0.57368,-5.14044 c -3.08584,-4.08241 -4.98897,-5.26954 -7.0046,-8.30033 -0.51557,-0.8264 -2.33359,-2.91262 -2.33359,-2.91262 -0.67785,1.88775 -0.0847,3.7755 -0.0876,5.66325 z"
           id="path18027"
           inkscape:connector-curvature="0"
           sodipodi:nodetypes="ccccccc" />
      </g>
    </g>
  </g>
</svg>
