<?xml version="1.0" encoding="UTF-8" standalone="no"?>
<!-- Created with Inkscape (http://www.inkscape.org/) -->

<svg
   xmlns:dc="http://purl.org/dc/elements/1.1/"
   xmlns:cc="http://creativecommons.org/ns#"
   xmlns:rdf="http://www.w3.org/1999/02/22-rdf-syntax-ns#"
   xmlns:svg="http://www.w3.org/2000/svg"
   xmlns="http://www.w3.org/2000/svg"
   xmlns:sodipodi="http://sodipodi.sourceforge.net/DTD/sodipodi-0.dtd"
   xmlns:inkscape="http://www.inkscape.org/namespaces/inkscape"
   width="200"
   height="50"
   viewBox="0 0 200.00001 49.999998"
   id="svg2"
   version="1.1"
   inkscape:version="0.92.3 (2405546, 2018-03-11)"
   sodipodi:docname="paperlogowhite.svg">
  <defs
     id="defs4">
    <inkscape:path-effect
       effect="spiro"
       id="path-effect17946"
       is_visible="true" />
    <inkscape:path-effect
       effect="powerstroke"
       id="path-effect17948"
       is_visible="true"
       offset_points="0,4.3358438"
       sort_points="true"
       interpolator_type="Linear"
       interpolator_beta="0.2"
       start_linecap_type="zerowidth"
       linejoin_type="round"
       miter_limit="4"
       end_linecap_type="zerowidth"
       cusp_linecap_type="round" />
  </defs>
  <sodipodi:namedview
     id="base"
     pagecolor="#ffffff"
     bordercolor="#666666"
     borderopacity="1.0"
     inkscape:pageopacity="0.0"
     inkscape:pageshadow="2"
     inkscape:zoom="3.959798"
     inkscape:cx="24.324545"
     inkscape:cy="-2.1630549"
     inkscape:document-units="px"
     inkscape:current-layer="g4185"
     showgrid="false"
     inkscape:window-width="1920"
     inkscape:window-height="1005"
     inkscape:window-x="-9"
     inkscape:window-y="-9"
     inkscape:window-maximized="1"
     fit-margin-top="0"
     fit-margin-left="0"
     fit-margin-right="0"
     fit-margin-bottom="0"
     units="px"
     showguides="true"
     inkscape:guide-bbox="true">
    <sodipodi:guide
       position="-22.325271,87.418805"
       orientation="1,0"
       id="guide4158"
       inkscape:locked="false" />
    <sodipodi:guide
       orientation="1,0"
       position="74.751288,119.70308"
       id="guide3776"
       inkscape:locked="false" />
    <sodipodi:guide
       orientation="1,0"
       position="153.03811,8.0812203"
       id="guide3778"
       inkscape:locked="false" />
  </sodipodi:namedview>
  <metadata
     id="metadata7">
    <rdf:RDF>
      <cc:Work
         rdf:about="">
        <dc:format>image/svg+xml</dc:format>
        <dc:type
           rdf:resource="http://purl.org/dc/dcmitype/StillImage" />
        <dc:title></dc:title>
      </cc:Work>
    </rdf:RDF>
  </metadata>
  <g
     inkscape:label="Layer 1"
     inkscape:groupmode="layer"
     id="layer1"
     transform="translate(-32.238905,-661.96661)">
    <g
       id="g4185"
       transform="matrix(0.27752766,0,0,0.27739766,72.189541,530.19469)">
      <g
         style="font-style:normal;font-weight:normal;font-size:110.77722168px;line-height:125%;font-family:sans-serif;letter-spacing:0px;word-spacing:0px;fill:#ffffff;fill-opacity:1;stroke:none"
         id="text4136"
         transform="matrix(1.1001209,0,0,1.1001209,7.6755016,-57.264323)">
        <path
           d="m 167.11076,552.9906 c -0.0977,-6.55931 -2.03423,-11.17428 -5.80972,-13.84493 -3.77557,-2.67054 -8.80441,-3.95898 -15.08652,-3.86534 h -19.39695 v 60.6272 h 9.37051 v -24.64444 h 11.0572 c 6.15717,0.0586 10.99078,-1.34698 14.50086,-4.21673 3.50999,-2.86969 5.2982,-7.55494 5.36462,-14.05576 z m -9.55792,0 c -0.0449,4.23238 -1.05617,7.15285 -3.0337,8.76142 -1.97761,1.60864 -4.6521,2.3739 -8.0235,2.29578 h -10.30756 v -21.55218 h 9.83903 c 3.30893,-0.12488 6.03809,0.49982 8.18748,1.87411 2.14932,1.37439 3.26207,4.24801 3.33825,8.62087 z"
           style="font-variant:normal;font-stretch:normal;font-size:93.70630646px;font-family:Colaborate-Regular;-inkscape-font-specification:Colaborate-Regular;letter-spacing:3.60408878px;fill:#ffffff;fill-opacity:1"
           id="path3776"
           inkscape:connector-curvature="0" />
        <path
           d="m 234.25931,595.90753 -22.86404,-60.6272 h -8.24605 l -24.64444,60.6272 h 9.83904 l 6.37194,-17.14803 h 23.23887 l 5.99712,17.14803 z M 215.612,571.73162 h -18.27249 l 9.46421,-25.5815 z"
           style="font-variant:normal;font-stretch:normal;font-size:93.70630646px;font-family:Colaborate-Regular;-inkscape-font-specification:Colaborate-Regular;letter-spacing:3.60408878px;fill:#ffffff;fill-opacity:1"
           id="path3778"
           inkscape:connector-curvature="0" />
        <path
           d="m 289.98766,552.9906 c -0.0977,-6.55931 -2.03423,-11.17428 -5.80972,-13.84493 -3.77557,-2.67054 -8.80441,-3.95898 -15.08652,-3.86534 h -19.39695 v 60.6272 h 9.37051 v -24.64444 h 11.0572 c 6.15717,0.0586 10.99078,-1.34698 14.50086,-4.21673 3.50999,-2.86969 5.2982,-7.55494 5.36462,-14.05576 z m -9.55792,0 c -0.0449,4.23238 -1.05617,7.15285 -3.0337,8.76142 -1.97761,1.60864 -4.6521,2.3739 -8.0235,2.29578 h -10.30756 v -21.55218 h 9.83903 c 3.30893,-0.12488 6.03809,0.49982 8.18748,1.87411 2.14932,1.37439 3.26207,4.24801 3.33825,8.62087 z"
           style="font-variant:normal;font-stretch:normal;font-size:93.70630646px;font-family:Colaborate-Regular;-inkscape-font-specification:Colaborate-Regular;letter-spacing:3.60408878px;fill:#ffffff;fill-opacity:1"
           id="path3780"
           inkscape:connector-curvature="0" />
        <path
           d="m 343.08044,595.90753 v -7.21529 h -26.23743 v -20.52142 h 23.42628 v -7.21529 h -23.42628 v -18.45991 h 25.39409 v -7.21529 h -34.7646 v 60.6272 z"
           style="font-variant:normal;font-stretch:normal;font-size:93.70630646px;font-family:Colaborate-Regular;-inkscape-font-specification:Colaborate-Regular;letter-spacing:3.60408878px;fill:#ffffff;fill-opacity:1"
           id="path3782"
           inkscape:connector-curvature="0" />
        <path
           d="m 407.83657,595.90753 -19.77178,-26.42484 c 6.00099,-0.72228 10.20991,-2.6979 12.62676,-5.92685 2.41677,-3.22888 3.58027,-7.03174 3.49052,-11.40859 -0.22846,-6.60616 -2.34853,-11.104 -6.36024,-13.49353 -4.01179,-2.38943 -8.54477,-3.51389 -13.59895,-3.37339 h -20.80253 v 60.6272 h 9.37051 v -26.14372 h 4.40414 l 19.30325,26.14372 z m -13.21242,-43.76028 c 0.0351,3.01617 -0.71454,5.48764 -2.24892,7.41442 -1.53446,1.92684 -4.0645,2.92246 -7.59012,2.98685 h -11.99425 v -20.0529 h 11.90055 c 3.28355,0.0215 5.75892,0.86878 7.42612,2.54176 1.66713,1.67307 2.50267,4.04303 2.50662,7.10987 z"
           style="font-variant:normal;font-stretch:normal;font-size:93.70630646px;font-family:Colaborate-Regular;-inkscape-font-specification:Colaborate-Regular;letter-spacing:3.60408878px;fill:#ffffff;fill-opacity:1"
           id="path3784"
           inkscape:connector-curvature="0" />
      </g>
      <g
         transform="matrix(0.57398019,0,0,0.57398019,219.25234,341.60332)"
         id="g4175">
        <circle
           style="fill:#ffffff;fill-opacity:1;fill-rule:nonzero;stroke:#4199d5;stroke-width:9.87687778;stroke-linecap:square;stroke-linejoin:round;stroke-miterlimit:4;stroke-dasharray:none;stroke-dashoffset:0;stroke-opacity:1"
           id="path17864"
           cx="-368.57144"
           cy="392.36221"
           r="146.97719" />
        <g
           id="g18010"
           transform="matrix(1.1192946,0,0,1.1192946,-1051.0846,-355.17275)">
          <path
             sodipodi:nodetypes="czzzzzzc"
             inkscape:connector-curvature="0"
             inkscape:original-d="m 593.46461,747.80122 c -24.51384,-15.99773 -34.79986,-62.93768 -36.36548,-78.28682 -1.56562,-15.34914 14.3414,-52.24462 35.35533,-59.09393 21.01393,-6.84931 53.32185,14.79097 58.08378,37.37565 4.76193,22.58468 -24.74653,45.85917 -50.00255,46.97209 -25.25602,1.11292 -57.11792,-29.77627 -56.56855,-55.55839 0.54937,-25.78212 47.26693,-42.14215 72.28284,-49.58413 25.01591,-7.44198 52.32784,34.86763 52.00182,36.99312"
             id="path17944"
             d="m 596.19237,744.43093 c -22.18038,-17.81873 -35.5543,-46.28527 -35.06796,-74.83337 0.13808,-11.68912 2.53141,-23.35 7.97003,-33.42384 5.43813,-10.07365 14.08503,-18.48884 24.56618,-22.56718 11.57126,-4.49144 25.31306,-3.37783 35.89087,3.19481 5.32177,3.24611 9.8766,7.7996 13.10353,13.1771 3.22664,5.37696 5.12306,11.58349 5.40661,17.88845 0.44394,11.91425 -5.04114,23.89308 -14.02696,32.07353 -8.98085,8.17561 -21.20669,12.62342 -33.5356,12.96992 -14.38698,0.38698 -28.99312,-4.83025 -39.49128,-14.7187 -10.49637,-9.88663 -16.64893,-24.45568 -15.8045,-38.90067 0.42311,-8.02423 2.93004,-15.94613 7.10057,-22.89379 4.17014,-6.94695 9.98285,-12.91397 16.77729,-17.4343 13.64366,-8.95311 30.92384,-11.82687 47.11424,-9.03235 21.55887,3.756 41.20981,17.5697 52.05641,36.68827 -10.66413,-19.21532 -30.23768,-33.30524 -51.94723,-37.29797 -16.27586,-3.01958 -33.85049,-0.36553 -47.89649,8.60204 -7.05034,4.44 -13.18808,10.41445 -17.6851,17.4977 -4.49658,7.08258 -7.33522,15.27627 -7.99199,23.70811 -1.10114,15.20367 5.15121,30.66203 16.13722,41.30211 10.98399,10.63825 26.38427,16.39412 41.7041,16.19527 13.10412,-0.15527 26.37865,-4.66636 36.35376,-13.45465 9.9696,-8.78371 16.37186,-21.93224 16.08878,-35.44608 -0.10096,-7.14384 -2.02773,-14.2641 -5.53316,-20.53617 -3.50506,-6.27145 -8.57066,-11.67219 -14.61748,-15.62159 -12.15906,-7.81789 -28.02152,-9.36967 -41.61591,-4.33318 -12.31427,4.55155 -22.32855,14.07954 -28.6623,25.34936 -6.33382,11.26933 -9.14708,24.16711 -9.51215,36.84748 -0.74406,31.02557 13.5258,62.07213 37.663,81.74027 z"
             style="fill:#4199d5;fill-opacity:1;fill-rule:evenodd;stroke:#4199d5;stroke-width:3.08577728;stroke-miterlimit:4;stroke-dasharray:none;stroke-opacity:1" />
          <g
             transform="translate(1112.8571,-286.42857)"
             id="g18005">
            <path
               style="fill:#a5ed5e;fill-opacity:1;fill-rule:evenodd;stroke:none"
               d="m -396.61114,918.01193 -39.90103,8.58628 -8.33375,-17.42512 z"
               id="path17968"
               inkscape:connector-curvature="0"
               sodipodi:nodetypes="cccc" />
            <path
               style="fill:#a5ed5e;fill-opacity:1;fill-rule:evenodd;stroke:none"
               d="m -445.24639,909.42562 -7.82869,13.38453 13.13199,-2.02031 z"
               id="path17972"
               inkscape:connector-curvature="0"
               sodipodi:nodetypes="cccc" />
            <path
               style="fill:#a5ed5e;fill-opacity:1;fill-rule:evenodd;stroke:none"
               d="m -445.73879,907.65786 -7.75471,-12.44834 56.88236,22.54986 z"
               id="path17970"
               inkscape:connector-curvature="0"
               sodipodi:nodetypes="cccc" />
          </g>
        </g>
        <path
           style="fill:#4199d5;fill-opacity:1;fill-rule:evenodd;stroke:none"
           d="m -432.09918,398.83346 c 2.50569,4.00112 4.92596,8.4009 9.99948,10.69014 l -0.57368,-5.14044 c -3.08584,-4.08241 -4.98897,-5.26954 -7.0046,-8.30033 -0.51557,-0.8264 -2.33359,-2.91262 -2.33359,-2.91262 -0.67785,1.88775 -0.0847,3.7755 -0.0876,5.66325 z"
           id="path18027"
           inkscape:connector-curvature="0"
           sodipodi:nodetypes="ccccccc" />
      </g>
    </g>
  </g>
</svg>
