<svg xmlns="http://www.w3.org/2000/svg" xmlns:xlink="http://www.w3.org/1999/xlink" viewBox="0 0 31.31 22.72"><use xlink:href="#B" fill="#e0f3fd"/><path d="M25.57 14.86h-9.52m5.75 2.84h-5.74" fill="none" stroke="#14385e" stroke-width=".5" stroke-linecap="round" stroke-linejoin="round" stroke-miterlimit="10"/><path d="M.25 5.96h30.8v3.66H.25zm11.38 12.67h-7a1.07 1.07 0 0 1-1.07-1.07v-1.2a1.07 1.07 0 0 1 1.07-1.07h7a1.07 1.07 0 0 1 1.07 1.07v1.2a1.07 1.07 0 0 1-1.07 1.07z" opacity=".1" fill="#14385e"/><use xlink:href="#B" fill="none" stroke="#14385e" stroke-width=".5" stroke-linejoin="round" stroke-miterlimit="10"/><defs ><path id="B" d="M3.05.25h25.2c1.55 0 2.8 1.24 2.8 2.78V19.7c0 1.53-1.25 2.78-2.8 2.78H3.05c-1.55 0-2.8-1.24-2.8-2.78V3.03C.25 1.5 1.5.25 3.05.25z"/></defs></svg>