<svg xmlns="http://www.w3.org/2000/svg" viewBox="0 0 29.04 24.49"><g fill="#edf8fe"><path d="M5.73 9.3h17.64v12.23H5.73z"/><path d="M26.08 9.3h1.36c.78 0 1.36-.4 1.36-1.16 0-.58-.4-1.16-.97-1.36L15.03.4a1.25 1.25 0 0 0-1.16 0L1.08 6.6C.5 6.8.1 7.57.3 8.15S1.08 9.3 1.66 9.3h1.16v12.2h-.4a1.32 1.32 0 0 0-1.36 1.36 1.32 1.32 0 0 0 1.36 1.36h23.84a1.32 1.32 0 0 0 1.36-1.36 1.32 1.32 0 0 0-1.36-1.36h-.2V9.3zm-2.7 12.23H5.73V9.3h17.64v12.23z" stroke="#14395e" stroke-width=".5"/></g><path d="M23.37 9.3h2.9m-2.93 12.24h2.9" stroke="#14395e" stroke-width=".5" fill="#4499d4"/><path d="M27.45 26.93H1.6a1.36 1.36 0 0 1-1.35-1.35 1.36 1.36 0 0 1 1.35-1.35h25.86a1.36 1.36 0 0 1 1.35 1.35 1.35 1.35 0 0 1-1.35 1.35z" fill="#edf8fe" stroke="#14395e" stroke-width=".5"/><g fill="#cae0b4"><path d="M12.22 15.3h4.7v1.4l2.6-2.6-2.45-2.45v1.26h-3.43l-1.42 1.1z"/><path d="M14.7 15.3h-1.3c-.65 0-1.18-.53-1.18-1.18s.53-1.18 1.18-1.18h1.3c.65 0 1.18.53 1.18 1.18s-.53 1.18-1.18 1.18z"/></g><g fill="#f1a3ac"><path d="M16.78 15.45h-4.7v-1.42l-2.6 2.6 2.45 2.45v-1.26h3.43l1.4-1.27z"/><path d="M14.3 15.45h1.3c.65 0 1.18.53 1.18 1.18s-.53 1.18-1.18 1.18h-1.3c-.65 0-1.18-.53-1.18-1.18.01-.65.54-1.18 1.18-1.18z"/></g><path d="M12.16 19.5c-.04 0-.1-.03-.17-.1l-2.63-2.63c-.13-.13-.13-.2 0-.33L12 13.8c.1-.1.16-.1.17-.1.12.04.16.07.16.23v1.28l4.42.05c.27 0 .3.03.3.3v.83l2.26-2.14-2.18-2.24-.1.97c0 .2-.04.23-.24.23h-2.96c-.26 0-.26-.1-.26-.16 0-.04.01-.08.03-.1.04-.04.13-.06.25-.07h2.8c.05-.05.05-1.06.05-1.3 0-.1.02-.16.03-.18.04-.07.08-.07.1-.07.05 0 .1.03.17.1l2.65 2.65c.14.15.14.2 0 .35l-2.63 2.63c-.1.1-.15.1-.17.1-.12-.04-.16-.07-.16-.24v-1.25c-.05-.05-.47-.07-.54-.07H12.2c-.16-.01-.2-.05-.2-.2v-.95l-2.25 2.14 2.17 2.24.1-.95c0-.2.04-.24.23-.24h3c.22 0 .22.12.23.15 0 .04-.01.08-.03.1-.04.04-.1.06-.2.06h-2.87c-.05.05-.05 1.07-.05 1.3 0 .18-.04.2-.1.24l-.07.03z" fill="#14395e"/></svg>