<svg xmlns="http://www.w3.org/2000/svg" xmlns:xlink="http://www.w3.org/1999/xlink" viewBox="0 0 41.26 34.15"><style><![CDATA[.E{stroke-miterlimit:10}.F{stroke-linecap:round}.G{fill:#e1f3fd}.H{stroke-linejoin:round}]]></style><use xlink:href="#B" fill="#e0f3fd"/><path d="M25.57 26.3h-9.52m5.75 2.82h-5.74" fill="none" stroke="#14385e" stroke-width=".5" class="E F H"/><path d="M.25 17.4h30.8v3.66H.25zm11.38 12.66h-7a1.07 1.07 0 0 1-1.07-1.07v-1.2a1.07 1.07 0 0 1 1.07-1.07h7a1.07 1.07 0 0 1 1.07 1.07V29a1.07 1.07 0 0 1-1.07 1.07z" opacity=".1" fill="#14385e"/><g stroke="#14385e" stroke-width=".5" class="H"><use xlink:href="#B" fill="none" class="E"/><circle cx="8.13" cy="5.52" r="1.6" class="G"/><g fill="none" class="E F"><path d="M8.13 7.12v4.56"/><path d="M8.13 9.4H4.35V3.45"/></g><circle cx="4.35" cy="1.85" r="1.6" class="G"/><path d="M31.06 19.8h3.78v-5.35" fill="none" class="E F"/><g class="G"><circle cx="34.84" cy="12.86" r="1.6"/><path d="M32.84 19.8h6.57" class="E F"/><circle cx="39.41" cy="19.81" r="1.6"/></g></g><defs ><path id="B" d="M3.05 11.68h25.2c1.55 0 2.8 1.24 2.8 2.78v16.66c0 1.53-1.25 2.78-2.8 2.78H3.05c-1.55 0-2.8-1.24-2.8-2.78V14.46c0-1.54 1.25-2.78 2.8-2.78z"/></defs></svg>