<svg xmlns="http://www.w3.org/2000/svg" viewBox="0 0 42.73 30.33"><style><![CDATA[.E{stroke:#14385e}.F{stroke-width:.5}.G{stroke-linejoin:round}.H{stroke-miterlimit:10}]]></style><path d="M18.98 11.7L8.05 15.2l4.75 14.9 29.68-9.5L37.72 5.7 26.8 9.2" fill="#edf8fe"/><path d="M8.043 15.194L37.716 5.71l4.758 14.89L12.8 30.083z" fill="none" class="E F G H"/><circle cx="25.26" cy="17.89" r="2.44" fill="#cae0b4"/><g fill="#14385e"><circle cx="16.02" cy="20.77" r=".34"/><circle cx="34.41" cy="14.72" r=".34"/></g><g fill="none" class="E F G"><circle cx="25.26" cy="17.89" r="2.44"/><path d="M36.44 10.48l2.23 6.98c-.02 0-.05 0-.07.01a1.49 1.49 0 0 0-.96 1.87l-21.7 6.93c-.25-.8-1.1-1.22-1.87-.97l-2.22-6.96a1.49 1.49 0 0 0 .96-1.87l21.7-6.93c.25.8 1.1 1.22 1.87.97l.06-.03z" class="H"/></g><path d="M11.14 6.47L.25 10.1 5.2 24.93l29.56-9.86L29.8.25 18.9 3.88" fill="#edf8fe"/><path d="M.25 10.1L29.798.255l4.945 14.827-29.55 9.856z" fill="none" class="E F G H"/><circle cx="17.5" cy="12.59" r="2.44" fill="#cae0b4"/><g fill="#14385e"><circle cx="8.29" cy="15.59" r=".34"/><circle cx="26.61" cy="9.3" r=".34"/></g><g fill="none" class="E F G"><circle cx="17.5" cy="12.59" r="2.44"/><path d="M28.58 5.03l2.32 6.95c-.03 0-.05 0-.07.01-.77.26-1.2 1.1-.93 1.88L8.3 21.1a1.5 1.5 0 0 0-1.88-.95L4.1 13.2c.77-.26 1.2-1.1.93-1.88l21.6-7.2a1.5 1.5 0 0 0 1.88.95c.02-.01.05-.02.06-.04z" class="H"/></g></svg>