<svg xmlns="http://www.w3.org/2000/svg" xmlns:xlink="http://www.w3.org/1999/xlink" viewBox="0 0 23.7 23.8"><style><![CDATA[.K{fill:none}.L{stroke:#14385e}.M{stroke-width:.5}.N{stroke-linejoin:round}.O{stroke-miterlimit:10}.P{fill:#a6cf5d}]]></style><path d="M.5 8s.4-1.1 1.8-1.1c1.4-.1 17.2 0 17.2 0s1.3-.1 2 .6.5 2 .5 2v3.8H.3V9l.2-1z" fill="#d2dcc1"/><path d="M.5 8s.4-1.1 1.8-1.1c1.4-.1 17.2 0 17.2 0s1.3-.1 2 .6.5 2 .5 2v3.8H.3V9l.2-1z" class="K L M N O"/><use xlink:href="#B" fill="#fff"/><use xlink:href="#B" opacity=".5" class="P"/><g class="K L M N O"><use xlink:href="#B"/><use xlink:href="#B" opacity=".5"/></g><use xlink:href="#C" fill="#fff"/><use xlink:href="#C" opacity=".75" class="P"/><g class="K L M N O"><use xlink:href="#C"/><use xlink:href="#C" opacity=".75"/></g><use xlink:href="#D" class="P"/><use xlink:href="#D" class="K L M N O"/><use xlink:href="#E" fill="#e7f1d2"/><use xlink:href="#E" class="K L M N O"/><use xlink:href="#F" fill="#e7f1d2"/><use xlink:href="#F" class="K L M N O"/><path d="M15.1 17.4h-4.2V19l-4.3-3.2 4.3-3.2v1.6h4.2v3.2z" fill="#a6cf5c"/><path d="M15.1 17.4h-4.3V19l-4.3-3.2 4.3-3.3v1.6h4.3z" class="K L M N O"/><defs ><path id="B" d="M16.7 6.9L7.6 16a1.09 1.09 0 0 1-1.5 0l-4.9-4.9a1.09 1.09 0 0 1 0-1.5L10.3.5a1.09 1.09 0 0 1 1.5 0l4.9 4.9c.5.4.5 1.1 0 1.5z"/><path id="C" d="M18.6 10.1L5.5 17.6c-.5.3-1.1.1-1.4-.4l-3.4-6c-.4-.4-.2-1 .3-1.3l13.1-7.6c.5-.3 1.1-.1 1.4.4l3.4 6c.3.5.2 1.1-.3 1.4z"/><path id="D" d="M20.7 13.7L6.1 17.6c-.6.1-1.1-.2-1.3-.7L3 10.2a1.11 1.11 0 0 1 .8-1.3L18.4 5c.6-.1 1.1.2 1.3.7l1.8 6.7c.1.5-.3 1.1-.8 1.3z"/><path id="E" d="M22.5 11c0-1.9-1.5-2-1.5-2H1.3S.4 8.9.5 8c0 0-.2.2-.2 1v13c.3 1.6 1.8 1.5 1.8 1.5h18.6c1.7-.1 1.8-1.7 1.8-1.7V11z"/><path id="F" d="M22.8 18h-2.2c-.7 0-1.3-.6-1.3-1.3V16c0-.7.6-1.3 1.3-1.3h2.2c.4 0 .6.3.6.6v2.1c0 .4-.3.6-.6.6z"/></defs></svg>