<svg xmlns="http://www.w3.org/2000/svg" width="223" height="223" viewBox="0 0 58.87 58.87"><circle cx="29.435" cy="29.435" r="29.435" fill="#bee3f6"/><g transform="matrix(.924604 0 0 .924604 31.231954 -167.606712)"><g transform="matrix(1.000482 0 0 1.000482 -27.210529 73.359002)"><g stroke="#143f5d" stroke-width=".466"><rect rx="1.512" y="125.616" x="6.158" height="28.005" width="39.62" fill="#e4e4e4"/><path d="M7.67 125.616a1.51 1.51 0 0 0-1.512 1.512v3.04h39.62v-3.04a1.51 1.51 0 0 0-1.512-1.512z" fill="#fff"/></g><g fill="#c3c3c3"><circle r=".501" cy="127.964" cx="8.708"/><circle cx="10.252" cy="127.964" r=".501"/><circle r=".501" cy="127.964" cx="11.795"/></g></g><g transform="matrix(1.020811 0 0 1.020811 -23.777072 70.270032)" stroke="#143f5d" stroke-width=".489"><path d="M17.394 147.478l-3.438-.035 1.75-2.96z" fill="#fff"/><path d="M6.103 143.738h19.14v.347H6.103z" fill="#143f5d"/><path d="M6.658 135.954h5.206v7.785H6.658zm10.988 5.356h1.717v2.23h-1.717zm2.48-6.2h4.562v8.628h-4.562z" fill="#fff"/></g></g><g transform="matrix(1.175039 -.171292 .171292 1.175039 -94.52824 -114.265607)"><g fill="#143f5d"><path d="M96.56 135.027l.74-.532 5.7 7.904 3.51 4.865-.74.532-3.802-5.276z"/><path d="M103.52 142.4l3.477 4.665-1.474 1.067-3.423-4.75z"/></g><g transform="matrix(.947605 0 0 .947605 4.605745 6.559846)"><path d="M100.9 128.487a7.858 7.765 90 0 1-1.767 10.967 7.858 7.765 90 0 1-10.839-1.788 7.858 7.765 90 0 1 1.767-10.967 7.858 7.765 90 0 1 10.839 1.788z" fill="#cbcbcb"/><circle transform="matrix(.785544 -.565346 .565346 .785544 -80.399411 122.15649)" r="7.617" cy="115.168" cx="141.107" fill="#fff" stroke="#143f5d" stroke-width=".58"/><path d="M93.106 127.476c2.137-.945 5.305-.074 6.33 1.606" fill="none" stroke="#c3c3c3" stroke-width=".667"/></g></g></svg>