<svg xmlns="http://www.w3.org/2000/svg" width="223" height="223" viewBox="0 0 58.87 58.87"><circle r="29.435" cy="29.435" cx="29.434" fill="#bee3f6"/><g stroke="#143f5d" stroke-width=".514"><path d="M19.425 13.097c-3.902.003-4.626 2.052-4.658 4.602v.137c-.001.018-.002-.096-.003-.078l.003.078-.064 24.78h22.802l.064-22.536a4.66 4.66 0 0 0 .623-2.32c0-2.574-16.192-4.662-18.767-4.662z" fill="#d2d2d2"/><path d="M38.89 13.102l-20.045.008c5.152.8 3.834 7.387.36 7.383H38.2l.4.024c3.064 0 4.01-2.05 4.05-3.725-.126-2.744-2.276-3.693-4.543-3.7z" fill="#f5f5f5"/></g><g transform="matrix(1.016394 0 0 1.016394 -59.790993 -103.798173)"><path d="M76.567 122.3c-.537 0-.97.466-.97 1.046v25.345c0 .58.432 1.046.97 1.046h21.8V122.3H79.474z" fill="#fff" stroke="#143f5d" stroke-width=".537"/><path d="M75.9 122.3c-.54 0-.974.466-.974 1.046v25.345c0 .252-.074.63.063.81.178.234.606.235.91.235h10.728V122.3h-7.805z" fill="#f5f5f5"/><path d="M75.757 122.295c-.557 0-1.005.466-1.005 1.045v26.38l.994.002h22.617v-27.427H78.772z" fill="none" stroke="#143f5d" stroke-width=".547"/><path d="M77.652 127.674h17.812v.85H77.652zm0 5.292h17.812v.85H77.652zm0 5.292h17.812v.85H77.652zm0 5.292h17.812v.85H77.652z" fill="#143f5d"/></g><g transform="matrix(1.085258 0 0 1.085258 -64.577057 -112.418213)"><g fill="#143f5d"><path d="M96.56 135.027l.74-.532 5.7 7.904 3.51 4.865-.74.532-3.802-5.276z"/><path d="M103.52 142.4l3.477 4.665-1.474 1.067-3.423-4.75z"/></g><g transform="matrix(.947605 0 0 .947605 4.605745 6.559846)"><ellipse cx="-7.565" cy="163.341" transform="matrix(.833107 -.553113 .615103 .788447 0 0)" ry="7.777" rx="7.978" fill="#fff"/><path d="M100.913 128.645a7.766 7.674 90 0 1-1.746 10.839 7.766 7.674 90 0 1-10.712-1.767 7.766 7.674 90 0 1 1.746-10.839 7.766 7.674 90 0 1 10.712 1.767z" fill="#f5f5f5"/><circle transform="matrix(.785544 -.565346 .565346 .785544 -80.399411 122.15649)" r="7.617" cy="115.168" cx="141.107" fill="#fff" stroke="#143f5d" stroke-width=".58"/><path d="M93.106 127.476c2.137-.945 5.305-.074 6.33 1.606" fill="none" stroke="#c3c3c3" stroke-width=".667"/></g></g><path d="M16.518 14.003c4.3-2.234 6.625 2.392 5.05 4.565-.24-2.41-1.643-4.802-5.05-4.565z" fill="#bbb"/></svg>