<svg xmlns="http://www.w3.org/2000/svg" width="385" height="376" viewBox="0 0 101.841 99.323"><path d="M99.666 45.917c2.9 1.635 2.9 5.81 0 7.446L19.69 98.505c-1.5.818-3.21 1.03-4.835.605l-10.1-2.736C1.217 95.43-.832 91.67.323 88.207L9.17 61.186a4.28 4.28 0 0 1 3.636-2.949l44.934-4.148v-8.896l-44.934-4.105a4.28 4.28 0 0 1-3.636-2.949L.323 11.117C-.832 7.61 1.217 3.894 4.766 2.95l10.1-2.736C16.48-.21 18.192.002 19.69.82z" fill="#73cff4"/><path d="M98.85 49.654H22.28L10.15 39.76z" fill="#63b6d7"/><path d="M98.963 49.654H22.28l-12.13 9.932z" fill="#9adaf8"/></svg>