<svg xmlns="http://www.w3.org/2000/svg" width="249" height="249" viewBox="0 0 232.974 232.974"><g transform="matrix(.792552 0 0 .792552 157.813142 -305.43785)"><circle r="146.977" cy="532.362" cx="-52.143" fill="#fff"/><g transform="matrix(1.119295 0 0 1.119295 -734.65605 -215.17275)" fill-rule="evenodd"><path d="M596.192 744.43c-22.18-17.82-35.554-46.285-35.068-74.833.138-11.69 2.53-23.35 7.97-33.424s14.085-18.49 24.566-22.567c11.57-4.49 25.313-3.378 35.89 3.195 5.322 3.246 9.877 7.8 13.104 13.177s5.123 11.583 5.407 17.888c.444 11.914-5.04 23.893-14.027 32.074s-21.207 12.623-33.536 12.97c-14.387.387-28.993-4.83-39.49-14.72s-16.65-24.456-15.804-38.9c.423-8.024 2.93-15.946 7.1-22.894s9.983-12.914 16.777-17.434c13.644-8.953 30.924-11.827 47.114-9.032 21.56 3.756 41.2 17.57 52.056 36.688-10.664-19.215-30.238-33.305-51.947-37.298-16.276-3.02-33.85-.366-47.896 8.602-7.05 4.44-13.188 10.414-17.685 17.498s-7.335 15.276-7.992 23.708c-1.1 15.204 5.15 30.662 16.137 41.302s26.384 16.394 41.704 16.195c13.104-.155 26.38-4.666 36.354-13.455 9.97-8.784 16.372-21.932 16.09-35.446-.1-7.144-2.028-14.264-5.533-20.536s-8.57-11.672-14.617-15.622c-12.16-7.818-28.022-9.37-41.616-4.333-12.314 4.552-22.33 14.08-28.662 25.35s-9.147 24.167-9.512 36.847c-.744 31.026 13.526 62.072 37.663 81.74z" fill="#4199d5"/><path d="M716.246 631.583l-39.9 8.586-8.334-17.425zm-48.636-8.586l-7.83 13.385 13.132-2.02zm-.492-1.767l-7.755-12.448 56.882 22.55z" fill="#a5ed5e"/></g><path d="M-115.67 538.833c2.506 4 4.926 8.4 10 10.7l-.574-5.14c-3.086-4.082-4.99-5.27-7.005-8.3-.516-.826-2.334-2.913-2.334-2.913-.678 1.888-.085 3.775-.088 5.663z" fill="#4199d5" fill-rule="evenodd"/></g></svg>