<svg xmlns="http://www.w3.org/2000/svg" width="398" height="237" viewBox="0 0 372.455 221.6"><g opacity=".3"><path d="M79.8 58.188c-9.917 0-18.358 5.23-21.558 12.538a17.12 17.12 0 0 0-2.292-.164c-8.282 0-15.01 5.92-15.01 13.25 0 5.118 3.284 9.556 8.078 11.772a12.03 12.03 0 0 0-.109 1.533c0 6.842 5.707 12.374 12.77 12.374 3.275 0 6.25-1.215 8.514-3.176 3.263 3.06 7.726 4.928 12.662 4.928 6.143 0 11.577-2.924 14.845-7.392 2.687 1.84 5.943 2.957 9.442 2.957 5.643 0 10.607-2.83 13.644-7.118 6.16-.44 11.025-5.38 11.025-11.443 0-5.4-3.826-9.92-9.005-11.17-2.38-6.377-8.476-10.896-15.664-10.896a16.76 16.76 0 0 0-7.368 1.697c-3.928-5.805-11.38-9.69-19.976-9.69z" opacity=".5" fill="#d7eaf4"/><path d="M123.203 76.945c-10.498 0-19.075 8.18-19.8 18.53a14.6 14.6 0 0 0-5.331-1.014c-7.383 0-13.51 5.453-14.59 12.56-2.075-1.117-4.44-1.746-6.96-1.746-8.147 0-14.76 6.636-14.76 14.812C64.284 131.16 68.18 135.3 82.46 133.6h81.933c9.103 0 16.448-8.755 15.096-22.246-1.128-11.255-17.668-26.4-36.59-16.783-1.15-9.922-9.502-17.628-19.698-17.628z" fill="#fff"/></g><g opacity=".3"><path d="M306.94 14.507c-11.434 0-20.775 8.926-21.576 20.216-1.805-.706-3.753-1.106-5.807-1.106-8.04 0-14.713 5.95-15.892 13.703-2.26-1.22-4.835-1.905-7.58-1.905-8.873 0-16.075 7.24-16.075 16.16 2.757 12.082 7 16.6 22.554 14.747h89.24c9.915 0 17.915-9.552 16.442-24.272-1.23-12.28-19.244-28.794-39.852-18.31-1.252-10.826-10.35-19.233-21.454-19.233z" opacity=".5" fill="#d7eaf4"/><path d="M262.374 45.968c11.434 0 20.775 8.926 21.576 20.216 1.805-.706 3.753-1.106 5.807-1.106 8.04 0 14.713 5.95 15.892 13.703 2.26-1.22 4.835-1.905 7.58-1.905 8.873 0 16.075 7.24 16.075 16.16-2.757 12.082-7 16.6-22.554 14.747H217.5c-9.915 0-17.915-9.552-16.442-24.272 1.23-12.28 19.244-28.794 39.852-18.31 1.252-10.826 10.35-19.233 21.454-19.233z" opacity=".84" fill="#fff"/></g><g transform="matrix(1.159185 0 0 1.15964 306.17575 -1218.8394)"><g transform="matrix(1.499132 0 0 1.499132 750.832 3.93806)"><g fill-rule="evenodd" stroke="#3375a3" stroke-width=".777"><path d="M-519.508 729.608l-59.018 11.744c-1.685.415-2.8.102-3.172-.805l-5.075-15.266z" fill="#b9d8e7"/><path d="M-519.503 729.522l-71.48-12.86 4.086 8.328-13.662 15.372z" fill="#fff"/></g><g fill="none"><path d="M-587 725.124l66.77 4.383" stroke="#3375a3" stroke-width=".777"/><path d="M-605.1 729.925h-23.25m16.927 4.178h-8.953" stroke-width=".777" stroke="#d0f4b1"/></g></g><path d="M-35.487 1097.64l-112 15 5-5.75z" fill="#d7eaf4"/><path d="M-98.37 1111.734v42.857" fill="none" stroke="#234054" stroke-width="1.164"/><g transform="matrix(.858474 0 0 .858474 -9.057103 198.20058)"><circle r="49.963" cy="1144.028" cx="-100.006" fill="#9eeb5f" stroke="#234054" stroke-width="1.355" stroke-linejoin="round"/><g fill="#fff"><path d="M-113.36 1162.988l35.227-45.925 9.42 7.22-35.227 45.925z"/><path d="M-126.364 1139.77l29.088 20.96-6.942 9.626-29.088-20.96z"/></g></g></g></svg>