<svg xmlns="http://www.w3.org/2000/svg" width="105" height="112" viewBox="0 0 27.672 29.492"><defs><clipPath id="A"><path d="M0 3015.462h3119.143V0H0z"/></clipPath></defs><path d="M2.044.073S2.902-.2 3.8.358 5.137 1.8 5.134 2.912c.01.26-.007.43-.007.43l.004.672H.386c0-2.9.958-3.724 1.658-3.94M26.42 24.87c-.787.15-15.597.017-18.702-.014 2.104-.195 1.78-3.066 1.78-3.066h18.14s.352 2.78-1.22 3.08" fill="#cae2b5"/><path d="M7.15 24.853l.568.004a2.37 2.37 0 0 1-.568-.004" fill="#add582"/><path d="M24.197 21.79H9.638s.38 3.362-2.348 3.062c0 0-2.428.073-2.278-3.135S5.04 3.543 4.88 2.912C4.844 2.097 4.524.362 2.503.02c0 0 .02-.02-.127-.02H20.65c.025 0 3.1.007 3.547 3.5.446 3.51 0 18.3 0 18.3" fill="#e7f1d2"/><path d="M8.423 6.997h12.76m-12.76 3.527h12.76m-12.76 3.528h12.76" fill="none" stroke="#95c16f" stroke-width=".706" stroke-linecap="round" stroke-linejoin="round" stroke-miterlimit="10"/><g clip-path="url(#A)" transform="matrix(.352778 0 0 -.352778 -683.35151 297.33763)"><path d="M1971.097 786.406a1.37 1.37 0 0 0 .976-2.17l-17.392-23.628a2.1 2.1 0 0 0-1.329-.807l-3.3-.525c-1.157-.2-2.247.637-2.364 1.798l-.96 9.032c-.064.54.21 1.068.673 1.335l12.55 7.094-1.166 2.592-13.63-4.7a1.37 1.37 0 0 0-1.446.383l-6.118 6.715a2.04 2.04 0 0 0 .227 2.961l2.58 2.12c.418.338.944.5 1.486.458z" fill="#73cff4"/><path d="M1971.35 785.21l-22.312-10.03-4.83 1.295z" fill="#63b6d7"/><path d="M1971.38 785.226l-22.344-10.044-2.234-4.482z" fill="#9adaf8"/></g></svg>