<svg xmlns="http://www.w3.org/2000/svg" width="23" height="23" viewBox="0 0 22.939 22.938"><path fill="#4298d3" d="M11.47 0C5.146 0 0 5.145 0 11.47s5.146 11.47 11.472 11.47 11.47-5.145 11.47-11.47S17.795 0 11.47 0z"/><g fill="#fff"><path d="M11.135 13.526c-.723 0-1.35-.583-1.457-1.356l-.622-4.565c-.117-.85.432-1.63 1.22-1.736l5-.683c.8-.106 1.525.5 1.64 1.345l.623 4.564a1.61 1.61 0 0 1-.248 1.116 1.41 1.41 0 0 1-.973.62l-4.998.684c-.06.008-.123.012-.183.012zm4.322-7.133l-5.018.684c-.104.015-.2.173-.174.362l.62 4.565c.025.18.148.303.248.303l.018-.002 5.002-.682c.057-.008.098-.052.12-.088.047-.072.068-.174.053-.275l-.62-4.563c-.024-.182-.15-.304-.25-.304zM7.9 13.222l-.988-5.757-1.736-1.063.636-1.04 2.2 1.35 1.08 6.303zm9.72.175l.154 1.2-6.877.876-.154-1.2z"/><path d="M8.795 17.764c-1.434 0-2.602-1.168-2.602-2.604s1.168-2.604 2.602-2.604a2.61 2.61 0 0 1 2.607 2.604 2.61 2.61 0 0 1-2.607 2.604zm0-3.988c-.76 0-1.38.62-1.38 1.385s.62 1.384 1.38 1.384a1.39 1.39 0 0 0 1.389-1.384 1.39 1.39 0 0 0-1.389-1.385z"/></g></svg>