<svg xmlns="http://www.w3.org/2000/svg" width="23" height="23" viewBox="0 0 22.938 22.938" fill="#4198d3"><path d="M11.47 22.938C5.145 22.938 0 17.793 0 11.47S5.145 0 11.47 0s11.47 5.145 11.47 11.47-5.145 11.47-11.47 11.47zm0-21.83a10.37 10.37 0 0 0-10.358 10.36 10.37 10.37 0 0 0 10.357 10.359c5.713 0 10.36-4.647 10.36-10.36A10.37 10.37 0 0 0 11.47 1.11zm-.336 12.417c-.724 0-1.35-.583-1.457-1.356l-.623-4.564c-.115-.85.434-1.628 1.22-1.736l5-.683c.812-.107 1.526.508 1.64 1.345l.623 4.563c.055.397-.033.793-.248 1.115a1.4 1.4 0 0 1-.974.62l-4.997.683c-.06.01-.125.013-.184.013zm4.32-7.13l-5.016.684c-.104.014-.202.172-.176.363l.622 4.563c.024.18.148.303.248.303l.018-.001 5.002-.683c.057-.008.097-.05.12-.087.047-.073.067-.174.052-.276l-.62-4.563c-.024-.182-.15-.303-.25-.303zM7.9 13.222l-1-5.758-1.737-1.06.637-1.04L8 6.714l1.078 6.304zm9.727.175l.154 1.2-6.877.877-.154-1.2z"/><path d="M8.795 17.763a2.61 2.61 0 0 1-2.603-2.604 2.61 2.61 0 0 1 2.603-2.604 2.61 2.61 0 0 1 2.606 2.604 2.61 2.61 0 0 1-2.606 2.604zm0-3.988c-.76 0-1.382.62-1.382 1.385s.62 1.384 1.382 1.384 1.387-.62 1.387-1.384a1.39 1.39 0 0 0-1.387-1.385z"/></svg>