<svg xmlns="http://www.w3.org/2000/svg" width="481" height="72" viewBox="0 0 127 18.859"><defs><clipPath id="A"><path d="M-482.57-303.667h127v21.256h-127z" opacity="1" fill="#666" fill-opacity="1" fill-rule="nonzero" stroke="#fff" stroke-width=".719" stroke-linejoin="miter" stroke-miterlimit="4" stroke-dasharray="none" stroke-dashoffset="0" stroke-opacity="1"/></clipPath><clipPath id="B"><path d="M132.52 2871.47h431.812v-99.9H132.52z"/></clipPath><clipPath id="C"><path d="M162.312 2855.78H582.23v-132.35H162.312z"/></clipPath></defs><g transform="matrix(.352778 0 0 -.352778 -69.97483 1012.99008)" clip-path="url(#A)"><g clip-path="url(#B)" opacity=".15"><path d="M191.728 2831.58s67.233 77.02 118.72 17 85.3 38.95 129.922-14.982 86.207 29.4 123.962-7.822l-2.527-50.33s-48.912-15.192-128.714 14.432-136.84-17.57-212.353 6.738-88.218 53.943-88.218 53.943l54.92-18.23z" fill="#fff"/></g><g clip-path="url(#C)" opacity=".1"><path d="M162.312 2806.223c14.588-32.663 82.247 38.19 144.03 22.238s118.55-53.384 154.588-22.998 47.912 77.776 87.383 29.918 33.608-110.438 33.608-110.438l-404.162-1.518z" fill="#fff"/></g></g></svg>