<svg id="Layer_1" data-name="Layer 1" xmlns="http://www.w3.org/2000/svg" xmlns:xlink="http://www.w3.org/1999/xlink" viewBox="0 0 363 104.09"><defs><style>.cls-1{fill:none;}.cls-2{opacity:0.7;}.cls-3{clip-path:url(#clip-path);}.cls-4,.cls-5{fill:#fff;isolation:isolate;}.cls-4{opacity:0.15;}.cls-5,.cls-7{opacity:0.1;}.cls-6{clip-path:url(#clip-path-2);}.cls-7{fill:#87c3ea;}</style><clipPath id="clip-path"><rect class="cls-1" x="399.06" y="4.45" width="362.25" height="99.64"/></clipPath><clipPath id="clip-path-2"><rect class="cls-1" width="363" height="104.09"/></clipPath></defs><title>SVG - Onboarding Ionic Paper Phase 1</title><g class="cls-2"><g class="cls-3"><g id="g12693" class="cls-2"><path id="path12689" class="cls-4" d="M347.88,60.16S433.1-37.48,498.37,38.59s108.13-49.37,164.7,19S772.35,20.32,820.21,67.5L817,131.3S755,150.56,653.84,113s-173.47,22.27-269.19-8.55S272.82,36.08,272.82,36.08l69.62,23.11Z"/><path id="path12691" class="cls-5" d="M310.59,92.3c18.49,41.41,104.26-48.41,182.58-28.19s150.27,67.67,196,29.15S749.87-5.33,799.9,55.34s42.6,140,42.6,140l-512.33,1.92Z"/></g></g></g><g class="cls-6"><path class="cls-7" d="M458.3,54.75S346-42.71,259.92,33.23s-142.54-49.29-217.1,19-144-37.2-207.14,9.9l4.22,63.68S-83.53,109,55,107.5c144.17-1.58,228.66,22.24,354.84-8.52S557.23,30.72,557.23,30.72L465.46,53.79Z"/><path class="cls-7" d="M507.45,71.15C483.08,112.48,370,22.82,266.78,43S68.69,110.56,8.46,72.11s-80.05-98.41-146-37.86S-193.72,174-193.72,174l675.36,1.93Z"/></g></svg>