<svg id="Layer_1" data-name="Layer 1" xmlns="http://www.w3.org/2000/svg" xmlns:xlink="http://www.w3.org/1999/xlink" viewBox="0 0 361 338.88"><defs><style>.cls-1,.cls-10,.cls-14,.cls-30,.cls-37,.cls-39,.cls-44{fill:none;}.cls-2{clip-path:url(#clip-path);}.cls-3,.cls-9{fill:#86c1e6;}.cls-3,.cls-45,.cls-5{opacity:0.1;}.cls-4{clip-path:url(#clip-path-2);}.cls-5{fill:#87c3ea;}.cls-6{clip-path:url(#clip-path-3);}.cls-7{fill:#dbecf9;}.cls-8{opacity:0.15;}.cls-10{stroke:#86c1e6;}.cls-10,.cls-11,.cls-14,.cls-19,.cls-20,.cls-33,.cls-34,.cls-35,.cls-36,.cls-37,.cls-44{stroke-linecap:round;stroke-linejoin:round;}.cls-10,.cls-11,.cls-14,.cls-19,.cls-20,.cls-21,.cls-24,.cls-25,.cls-26,.cls-30,.cls-33,.cls-34,.cls-35,.cls-36,.cls-37,.cls-44{stroke-width:0.5px;}.cls-11,.cls-13{fill:#d2e4ed;}.cls-11,.cls-14,.cls-33,.cls-36{stroke:#143f5d;}.cls-12,.cls-26,.cls-41,.cls-43{fill:#fff;}.cls-15{fill:#84b9dd;opacity:0.4;}.cls-16{fill:#cee1ad;}.cls-17{fill:#c5dff4;opacity:0.35;isolation:isolate;}.cls-18{fill:#083d5f;}.cls-19,.cls-20{fill:#e9d2bd;}.cls-19,.cls-23,.cls-24,.cls-25,.cls-34,.cls-35{stroke:#12405d;}.cls-20,.cls-21,.cls-26{stroke:#133f5d;}.cls-21{fill:#61554e;}.cls-21,.cls-23,.cls-24,.cls-25,.cls-30,.cls-39,.cls-43{stroke-miterlimit:10;}.cls-22{fill:#004e6e;}.cls-23,.cls-25{fill:#133f5d;}.cls-23{stroke-width:0.96px;}.cls-24{fill:#b9d980;}.cls-27{fill:#4197d2;}.cls-28,.cls-46{opacity:0.5;}.cls-29{opacity:0.3;}.cls-30{stroke:#4197d2;}.cls-31{opacity:0.2;}.cls-32,.cls-45,.cls-46{fill:#143f5d;}.cls-33{fill:#d0e4a5;}.cls-34{fill:#aed4eb;}.cls-35{fill:#1b577e;}.cls-36{fill:#ae8d85;}.cls-37{stroke:#0e3249;}.cls-38{fill:#abcf61;}.cls-39,.cls-43{stroke:#fff;}.cls-39{stroke-width:1.3px;}.cls-40{fill:#8ab53f;}.cls-41{fill-rule:evenodd;}.cls-42{fill:#4c9cd1;}.cls-43{stroke-width:0.3px;}.cls-44{stroke:#003348;}.cls-47{clip-path:url(#clip-path-4);}</style><clipPath id="clip-path"><rect class="cls-1" x="-375.62" y="-0.67" width="361" height="332.14"/></clipPath><clipPath id="clip-path-2"><rect class="cls-1" x="-794.74" y="-2.21" width="361" height="161.4"/></clipPath><clipPath id="clip-path-3"><rect class="cls-1" y="-0.92" width="361" height="338.79"/></clipPath><clipPath id="clip-path-4"><rect class="cls-1" x="381" y="-0.28" width="361" height="338.14"/></clipPath></defs><title>SVG - Onboarding Ionic Paper Phase 1</title><g class="cls-2"><path class="cls-3" d="M740.53,140.45H668.18V122.9c0-.14,0-.29,0-.43-.27-7.81-7.72-14.11-17-14.42v-6.58h-1.46v6.58c-9.27.3-16.72,6.6-17,14.42,0,.14,0,.29,0,.43v16.92l-15.7,0v-9.51h-2.35v9.51H604.12V151.4l-87.4-1.07v27.93H501.43v-7.82H491V164h-2.32v6.4H484v7.82h-2.32v41.39h-8.15v-3.21H431.94v3.21h-9v29h-9.66v-7.82H402.81v-6.4h-2.32v6.4h-3.18v-1.55H347.19V217.06H332.62V195.67H306.57v-7.82H296.12v-6.4h-2.33v6.4h-4.64v7.82h-2.32v23.09h-9.27v-3.2H236v3.2h-3.9l-.33-1.63h-4.06v-3.44H211.1V201.12H169V176.43H130.56V146.49h-5.17v29.94H121.7v12.88H64.09V171.43H56.21v17.88H48.33v36.24H23.63V188.17h-88v10.22h-54V215h-15.29v-7.82h-10.45v-6.4h-2.33v6.4h-4.64V215h-2.32v4.62h-8.16v-3.21h-41.59v3.21h-9v29h-9.65v-7.82h-10.45v-6.4h-2.33v6.4h-3.17v-1.55h-99.89V217.06h-15.24V124.13h-10.56v-9.51h-2.35v9.51h-4.69v92.93h-19.64v90.23l1130.65-.19Z"/><path class="cls-3" d="M663,174.42V166.6H652.5v-6.4h-2.32v6.4h-4.65v7.82h-2.32v21.39l-8.06.07v-3.44H618.57V179.87H507.16V118.41H468.75V88.47h-5.17v29.94h-3.69v12.88H402.27V113.41H394.4v17.88h-7.88v36.24h-24.7V119.2H353.1V101.66c0-.15,0-.3,0-.44-.27-7.8-7.72-14.11-17-14.42V80.22h-1.45V86.8c-9.28.3-16.73,6.61-17,14.42,0,.14,0,.29,0,.44V119.2h-8.72v11h-2.29V118.53h-4.69V109H299.6v9.51H289v11.62H273.79v10.22h-54V157H204.55v-7.82H194.09v-6.4h-2.32v6.4h-4.65V157H184.8v17.41H174.61V166.6H164.15v-6.4h-2.32v6.4h-4.65v7.82h-2.32v20.77H145.6v-.88H104v3.2h-3.9v2.27l-.33-3.9H95.72v-3.44H79.13V179.87H30.88V118.41H28.94V102.89H24.51V93.38H22.16v9.51H17.47v15.52H-1.4V88.47H-6.57v29.94h-3.69v12.88H-67.87V113.41h-7.88v17.88h-7.88v36.24h-24.7V119.2H-117V101.66c0-.15,0-.3,0-.44-.27-7.8-7.72-14.11-17-14.42V80.22h-1.45V86.8c-9.28.3-16.73,6.61-17,14.42,0,.14,0,.29,0,.44V119.2h-8.73v11h-2.28V118.53h-4.7V109h-2.34v9.51h-10.56v11.62h-15.25v10.22h-76.16V157h-40.41v-7.82h-10.45v-6.4h-2.33v6.4h-4.64V157h-2.32v38.13l-57.45.05v112.1l405.25.09h725.4l-.08-133Z"/></g><g class="cls-4"><path class="cls-5" d="M265.27,84.21S71.67-83.74-76.58,47.12-322.21-37.81-450.69,79.79s-248.22-64.1-356.95,17.06l7.28,109.73s132-28.86,370.63-31.47c248.44-2.72,394,38.32,611.47-14.68s254-117.63,254-117.63L277.62,82.56Z"/><path class="cls-5" d="M350,112.47C308,183.69,113.14,29.19-64.76,64s-341.35,116.4-445.13,50.15-138-169.59-251.62-65.24S-858.29,289.7-858.29,289.7L305.5,293Z"/></g><g class="cls-6"><path class="cls-7" d="M304.53,22.4a6.26,6.26,0,0,0-5.74,3.76,6.32,6.32,0,0,0-1.45-.17,6.25,6.25,0,1,0,0,12.49,6.08,6.08,0,0,0,2.22-.41,5.77,5.77,0,0,0,9.16-.23,6,6,0,0,0,2.53.58,5.75,5.75,0,0,0,4.3-1.93h.13a4.8,4.8,0,1,0-2.1-9.11,5.66,5.66,0,0,0-2.33-.49,5.32,5.32,0,0,0-.69,0,6.27,6.27,0,0,0-6-4.53Z"/><path class="cls-7" d="M56.71,27.51A4.85,4.85,0,0,1,61.54,32a3.75,3.75,0,0,1,1.3-.24,3.61,3.61,0,0,1,3.56,3.05A3.59,3.59,0,0,1,71.69,38c-.62,2.69-1.57,3.69-5,3.28h-20c-2.21,0-4-2.12-3.67-5.4.27-2.73,4.3-6.41,8.91-4.08A4.84,4.84,0,0,1,56.71,27.51Z"/><g class="cls-8"><path class="cls-9" d="M175.78,39.63a3.89,3.89,0,0,0-3.87,3.6,2.75,2.75,0,0,0-1-.2A2.87,2.87,0,0,0,168,45.47,2.88,2.88,0,0,0,163.79,48c.49,2.15,1.25,3,4,2.63h16c1.78,0,3.21-1.7,2.95-4.33a4.92,4.92,0,0,0-7.14-3.26A3.87,3.87,0,0,0,175.78,39.63Z"/></g><path class="cls-7" d="M181.82,44.6a4.77,4.77,0,0,0-4.38,2.88,4.94,4.94,0,0,0-1.1-.13,4.8,4.8,0,0,0,0,9.59,4.7,4.7,0,0,0,1.69-.31,4.37,4.37,0,0,0,7-.18,4.36,4.36,0,0,0,5.2-1h.09a3.69,3.69,0,0,0,0-7.38,3.55,3.55,0,0,0-1.59.38,4.39,4.39,0,0,0-2.3-.35,4.78,4.78,0,0,0-4.59-3.47Z"/><path class="cls-10" d="M29.49,67.56c.85,1,2.05.78,3,3.69a10,10,0,0,1,5.72-2.17"/><path class="cls-10" d="M269.39,27.07c-.84.36-1.58-.11-3.09,1.46a7.27,7.27,0,0,0-3.12-3.11"/><path class="cls-10" d="M186.14,82.44c.85,1,2.05.78,3,3.69A9.93,9.93,0,0,1,194.88,84"/><path class="cls-10" d="M198.67,91.68c-.85.35-1.59-.12-3.1,1.45a7.15,7.15,0,0,0-3.12-3.1"/><path id="path6481" class="cls-11" d="M163,101.33l5.31,2.69,11-9.52Z"/><path id="path6483" class="cls-12" d="M158.48,106.11l2.37-6.21L153,94.54l26.69-.17Z"/><path id="path6485" class="cls-13" d="M158.67,105.89l2.31-6,18.31-5.39L176,96.29l-13.8,3.94-2,4.82Z"/><path id="path6487" class="cls-13" d="M179.29,94.46l-26,.17,1.93,1.31,18.62-.71Z"/><path id="path6483-2" data-name="path6483" class="cls-14" d="M158.48,106.11l2.37-6.21L153,94.54l26.69-.17Z"/><path class="cls-15" d="M107.55,138s9.83-31.6,46.13-36.36C153.68,101.66,122.67,107.42,107.55,138Z"/><path class="cls-3" d="M749.15,140.52H676.8V123c0-.15,0-.29,0-.44-.27-7.8-7.72-14.11-17-14.42v-6.58h-1.45v6.58c-9.28.3-16.73,6.61-17,14.42,0,.15,0,.29,0,.44v16.91l-15.71,0v-9.51H623.3v9.51H612.74v11.62l-87.4-1.07v27.93H510.05v-7.82H499.6v-6.4h-2.33v6.4h-4.64v7.82h-2.32v41.39h-8.16v-3.2H440.56v3.2h-9v29h-9.65v-7.82H411.44v-6.4h-2.33v6.4h-3.18v-1.55H355.82V217.13H341.24V195.74H315.19v-7.82H304.74v-6.4h-2.32v6.4h-4.65v7.82h-2.32v23.09h-9.26v-3.2h-41.6v3.2h-3.9l-.32-1.62H236.3v-3.44H219.72V201.19H177.59V176.51h-38.4V146.56H134v29.95h-3.7v12.87H72.71V171.5H64.83v17.88H57v36.24H32.25V188.25h-88v10.22h-53.95V215.1H-125v-7.82h-10.45v-6.4h-2.32v6.4h-4.65v7.82h-2.32v4.62h-8.16v-3.2h-41.59v3.2h-9v29h-9.65v-7.82h-10.45v-6.4h-2.32v6.4h-3.18v-1.55H-329V217.13h-15.25V124.21h-10.56V114.7h-2.34v9.51h-4.69v92.92H-381.5v90.24l1130.65-.19Z"/><path class="cls-3" d="M671.58,174.49v-7.82H661.12v-6.4H658.8v6.4h-4.65v7.82h-2.32v21.39l-8.05.08v-3.44H627.2V180H515.78V118.49H477.37V88.54H472.2v29.95h-3.69v12.87H410.9V113.48H403v17.88h-7.88V167.6h-24.7V119.27h-8.72V101.73c0-.15,0-.29,0-.44-.27-7.8-7.71-14.1-17-14.41V80.29h-1.45v6.59c-9.27.3-16.72,6.6-17,14.41,0,.15,0,.29,0,.44v17.54h-8.73v11h-2.28V118.6h-4.69v-9.51h-2.35v9.51H297.66v11.63H282.42v10.21h-54v16.64H213.17v-7.82H202.72v-6.4h-2.33v6.4h-4.64v7.82h-2.32v17.41h-10.2v-7.82H172.78v-6.4h-2.33v6.4h-4.64v7.82h-2.32v20.78h-9.27v-.89H112.63v3.2h-3.9v2.27L108.4,196h-4.06v-3.44H87.76V180H39.5V118.49H37.56V103H33.13V93.45H30.79V103H26.1v15.53H7.22V88.54H2.05v29.95H-1.64v12.87H-59.25V113.48h-7.88v17.88H-75V167.6h-24.7V119.27h-8.71V101.73a3.24,3.24,0,0,0,0-.44c-.26-7.8-7.71-14.1-17-14.41V80.29h-1.45v6.59c-9.27.3-16.72,6.6-17,14.41,0,.15,0,.29,0,.44v17.54h-8.73v11h-2.28V118.6h-4.69v-9.51h-2.35v9.51h-10.55v11.63h-15.25v10.21H-263.9v16.64h-40.41v-7.82h-10.45v-6.4h-2.32v6.4h-4.65v7.82H-324v38.13l-57.45.06v112.1l405.25.08h725.4l-.08-133Z"/><path class="cls-16" d="M337.5,307.45a6.26,6.26,0,0,0-7.31-5.86,8,8,0,0,0-5.7-4.07,10.4,10.4,0,0,0-20.24.35,6.65,6.65,0,0,0-9.87,3.16l-.46,0a5.46,5.46,0,0,0-4.4,2.23,6.91,6.91,0,0,0-10,4.21Z"/><path class="cls-16" d="M70.5,307.45a6.26,6.26,0,0,0-7.31-5.86,8,8,0,0,0-5.7-4.07,10.4,10.4,0,0,0-20.24.35A6.65,6.65,0,0,0,27.38,301l-.46,0a5.46,5.46,0,0,0-4.4,2.23,6.91,6.91,0,0,0-10,4.21Z"/><path class="cls-16" d="M199.29,307.45a7.62,7.62,0,0,0-8.84-7.09,9.74,9.74,0,0,0-6.9-4.92,12.47,12.47,0,0,0-3.29-5.8,12.59,12.59,0,0,0-21.21,6.21,8.06,8.06,0,0,0-11.94,3.83l-.55,0a6.58,6.58,0,0,0-5.32,2.71,8.35,8.35,0,0,0-12.13,5.09Z"/><path class="cls-16" d="M163.17,307.45a7.67,7.67,0,0,0-7.66-7.19,7.85,7.85,0,0,0-1.19.1,9.72,9.72,0,0,0-6.89-4.92,12.59,12.59,0,0,0-24.5.41A8.06,8.06,0,0,0,111,299.68c-.19,0-.37,0-.56,0a6.6,6.6,0,0,0-5.32,2.71,8.29,8.29,0,0,0-4.06-1.06A8.39,8.39,0,0,0,93,307.45Z"/><ellipse class="cls-17" cx="247.63" cy="331.5" rx="60.91" ry="6.24"/><ellipse class="cls-17" cx="102.07" cy="329.56" rx="43.61" ry="4.77"/><path class="cls-18" d="M213.72,204.89l1.65,1.57,0,.17a18.07,18.07,0,0,0-1.93-.21,3.12,3.12,0,0,0-2.3.47q-2.37-2.56-4.84-5a5.11,5.11,0,0,0,.8-.54c.58-.48,1.18-.94,1.76-1.41l0,.05C210.46,201.67,212.06,203.3,213.72,204.89Z"/><path class="cls-19" d="M220.52,205.42c.74.87,1.26,1.92,2.08,2.71l.1,0c-.48,1.56-.92,3.14-1.34,4.72a.65.65,0,0,0,0,.39l0,.09-.05,0a3.41,3.41,0,0,1-.73-.2,3.76,3.76,0,0,1-.46-.2.51.51,0,0,1-.29-.25.88.88,0,0,1,.06-.67,3.1,3.1,0,0,0,.2-1.44,4.35,4.35,0,0,0-2.49-3.3,7.41,7.41,0,0,0-2.26-.69l0-.17-1.65-1.57.44-.44a4,4,0,0,1,3.36-.86A5.46,5.46,0,0,1,220.52,205.42Z"/><path class="cls-20" d="M235.74,163c.23.41.58.83,1,.79a1.22,1.22,0,0,0,.7-.47,6.87,6.87,0,0,0,1.15-4.91c0-.32,0-.71.27-.85s.52,0,.73.18a4.72,4.72,0,0,1,1.61,5.14c-.17.54-.4,1.26.05,1.6s.72.14,1.09.14a2.78,2.78,0,0,1,2,1,8.69,8.69,0,0,1,1.16,1.92c.11.23.23.46.33.7s.24.49.35.74A16.64,16.64,0,0,0,249,172.1a7.29,7.29,0,0,1-1.52,3,15.45,15.45,0,0,1-6.91,5v0a6.48,6.48,0,0,0-1.35-4.24c-.16-.21-.39-.45-.67-.4a.91.91,0,0,0-.4.24l-2.1,2a2.3,2.3,0,0,1-1.37.76,2.06,2.06,0,0,1-1.07-.37,8.76,8.76,0,0,1-1.95-1.59,8.25,8.25,0,0,0-2.58-2.39c-.82-.34-1.74-.27-2.54-.61a.54.54,0,0,1-.25-.19.45.45,0,0,1,0-.36,6.13,6.13,0,0,0,.41-2.05c-.12-1.3-1.33-2.19-2.27-3.1a8.51,8.51,0,0,1-2.67-6.21,1.85,1.85,0,0,1,0-.24,4.55,4.55,0,0,0,1.62-.57,21.74,21.74,0,0,0,4.21-2.74,11.45,11.45,0,0,1,3.06-2.13,2.94,2.94,0,0,1,3.41.75,3.74,3.74,0,0,1,.5,1.44C234.89,159.67,235,161.46,235.74,163Z"/><path class="cls-21" d="M235.74,163c-.79-1.52-.85-3.31-1.17-5a3.74,3.74,0,0,0-.5-1.44,2.94,2.94,0,0,0-3.41-.75,11.45,11.45,0,0,0-3.06,2.13,21.74,21.74,0,0,1-4.21,2.74,4.55,4.55,0,0,1-1.62.57,1.85,1.85,0,0,0,0,.24c-.93.41-2-.22-2.74-1a1.46,1.46,0,0,1-.35-.51,1.06,1.06,0,0,1,.32-1.05,3.69,3.69,0,0,1,.95-.64c3.41-1.93,5.44-5.72,8.86-7.65a11.26,11.26,0,0,1,6-1.37,9.88,9.88,0,0,1,4.75,1.37,6.75,6.75,0,0,1,3,3.86c.29,1.05.27,2.18.6,3.2a19.74,19.74,0,0,0,1.4,2.75c1.17,2.35,1.28,5.07,1.36,7.69l-.1,0c-.1-.24-.22-.47-.33-.7a8.69,8.69,0,0,0-1.16-1.92,2.78,2.78,0,0,0-2-1c-.37,0-.79.09-1.09-.14s-.22-1.06-.05-1.6a4.72,4.72,0,0,0-1.61-5.14c-.21-.16-.5-.31-.73-.18s-.3.53-.27.85a6.87,6.87,0,0,1-1.15,4.91,1.22,1.22,0,0,1-.7.47C236.32,163.81,236,163.39,235.74,163Z"/><polygon class="cls-22" points="243.17 224.15 243.14 224.17 242.97 223.88 243.17 224.15"/><path class="cls-22" d="M243.19,224.13h0l0,0-.17-.29Z"/><path class="cls-22" d="M256.2,210.76l-.05.07-.23-.2c-.82-1.17-1.59-2.37-2.35-3.57-.87-1.41-1.74-3-1.48-4.64a6.78,6.78,0,0,1,1-2.33A37.47,37.47,0,0,1,257.6,194c1.78,1.95,3.57,3.88,5.39,5.8l-.13.11c.11,2.52.23,5,.32,7.55l.33.39c-1.89,1.51-3.75,3.1-5.54,4.75Z"/><path class="cls-23" d="M263,199.82c1.52,1.62,3,3.23,4.57,4.83l0,.21a18.58,18.58,0,0,0-2.51,1.72c-.53.42-1.06.84-1.57,1.29l-.33-.39c-.09-2.51-.21-5-.32-7.55Z"/><path class="cls-24" d="M211.26,319.11c-.77-.37-1.54-.75-2.29-1.15h-.06c2.13-27.84,13.49-54.06,24.68-79.65v0c1,.26,2,.48,3,.69l2.42,8.65c1.25,4.47,2.51,9,4,13.34l-.13,0a340.78,340.78,0,0,0-26.89,60.16l-.39-.13-.61-.24C213.78,320.27,212.51,319.71,211.26,319.11Z"/><path class="cls-19" d="M211.12,206.89a3.12,3.12,0,0,1,2.3-.47,18.07,18.07,0,0,1,1.93.21,7.41,7.41,0,0,1,2.26.69,4.35,4.35,0,0,1,2.49,3.3,3.1,3.1,0,0,1-.2,1.44.88.88,0,0,0-.06.67.51.51,0,0,0,.29.25,3.76,3.76,0,0,0,.46.2v0a1.61,1.61,0,0,1-1.12.53l-2.63.49a4.24,4.24,0,0,1-1.37.11,3.17,3.17,0,0,1-1.85-1.17c-.48-.58-.84-1.24-1.3-1.84a13.53,13.53,0,0,1-1.43-2A2.14,2.14,0,0,1,211,207Z"/><path class="cls-25" d="M288.31,321a40.71,40.71,0,0,0,7.18-2.09,10.21,10.21,0,0,1,2.67,3.1,2.71,2.71,0,0,1,.44,1.75,3.08,3.08,0,0,1-.84,1.43c-1.52,1.79-3.06,3.57-4.59,5.36a3.14,3.14,0,0,1-2.33,1.33l-11,2.24c-1.56.31-3.62.39-4.27-1.07a.76.76,0,0,1,0-.64,1.09,1.09,0,0,1,.6-.46l10.6-4.57a1.67,1.67,0,0,0,.69-.47,1.45,1.45,0,0,0,.18-.72c.15-1.69.24-3.39.27-5.09Z"/><path class="cls-24" d="M295.49,318.94a40.71,40.71,0,0,1-7.18,2.09,5.9,5.9,0,0,1-.49-.51Q273,305,259.35,288.27A106.56,106.56,0,0,1,248,272.19,76.71,76.71,0,0,1,243.1,261c-1.53-4.38-2.79-8.87-4-13.34L236.64,239a82.71,82.71,0,0,0,21.58,1.59,16,16,0,0,0,6-1.19l-.36,29.2a6.41,6.41,0,0,0,.32,2.65,7,7,0,0,0,1.59,2.09A113.52,113.52,0,0,1,281,292.65c1.88,3,3.61,6.06,5.34,9.13,3.2,5.65,6.38,11.32,9.59,17l-.15.07Z"/><path class="cls-25" d="M263.78,223.93c.41,5,.83,10,1.24,15h0a7.31,7.31,0,0,1-.79.4,16.22,16.22,0,0,1-6,1.2,84,84,0,0,1-21.58-1.6c-1-.2-2-.43-3-.69-.18,0-.35-.08-.52-.12-.33-6.18.88-13,.92-19.2-.5-.31-2.52-.62-3-1-3.22-1.48-6.22-2.52-9.29-4.29a1,1,0,0,1-.34-.31.34.34,0,0,1,0-.08.62.62,0,0,1,0-.38q.63-2.38,1.34-4.73c0-.1.05-.19.09-.29a.45.45,0,0,1,.15-.28.47.47,0,0,1,.37,0c1.43.38,3.25,1,4.69,1.36l4,1,2-10.66a1.69,1.69,0,0,1-.4.12h-.05c.23-6.16,3.72-14.56,7.46-19.47.24-.06-.67.21-.43.11a15.37,15.37,0,0,0,6.9-5,7.19,7.19,0,0,0,1.53-3l.06-.36,0-.06c.56.25,1.11.48,1.68.72a28.26,28.26,0,0,1,3.83,1.87,11,11,0,0,1,1.18.84h0a5.6,5.6,0,0,0-4.49.37,7.11,7.11,0,0,0-3.08,3.37,5.39,5.39,0,0,0-.53,2.89,7.82,7.82,0,0,0,2.32,3.92c.81.9,1.62,1.81,2.45,2.7,4.81-.33,11.38-.37,12.05.11,1,.74,1.8,12.46,1.8,12.46l-5.53,11.68,2.83,11.5Z"/><rect class="cls-26" x="237.67" y="192.65" width="26.88" height="37.93" rx="2" transform="translate(-59.44 104.85) rotate(-21.15)"/><g id="path2794-7-8"><path class="cls-27" d="M250.35,200.33l-.22.08-.63-1.63.22-.09Z"/></g><g id="path2796-6-9"><path class="cls-27" d="M250.76,200.17l-.45-1.16.12,0s0,0,.07,0l.06.12a.88.88,0,0,1,.12-.21.64.64,0,0,1,.19-.13.44.44,0,0,1,.19,0,.42.42,0,0,1,.15,0,.32.32,0,0,1,.12.11,1,1,0,0,1,.1.17l.28.74-.2.08-.28-.74a.34.34,0,0,0-.14-.18.22.22,0,0,0-.21,0,.44.44,0,0,0-.15.12.4.4,0,0,0-.1.17l.33.85Z"/></g><g id="path2798-8-9"><path class="cls-27" d="M251.4,198.59l.16-.06h0l0,0,.58.63.06.06a.59.59,0,0,1,0,.08.34.34,0,0,0,0-.09v-1l0,0,.16-.06,0,1.34-.19.07Z"/></g><g id="path2800-8-1"><path class="cls-27" d="M253.14,197.89a.67.67,0,0,1,.24,0,.54.54,0,0,1,.22.05.84.84,0,0,1,.18.15.74.74,0,0,1,.14.23.85.85,0,0,1,.05.26.43.43,0,0,1,0,.23.44.44,0,0,1-.12.19,1.07,1.07,0,0,1-.21.13.74.74,0,0,1-.25,0,.79.79,0,0,1-.22-.06.59.59,0,0,1-.18-.14.86.86,0,0,1-.13-.23.7.7,0,0,1-.06-.27.59.59,0,0,1,0-.23.44.44,0,0,1,.12-.18A.93.93,0,0,1,253.14,197.89Zm.4,1a.33.33,0,0,0,.21-.22.65.65,0,0,0,0-.35.61.61,0,0,0-.21-.29.32.32,0,0,0-.3,0,.23.23,0,0,0-.14.09.24.24,0,0,0-.07.12.31.31,0,0,0,0,.17,1.3,1.3,0,0,0,.06.19.56.56,0,0,0,.09.17.38.38,0,0,0,.11.11.34.34,0,0,0,.14.05l.17,0Z"/></g><g id="path2802-0-3"><path class="cls-27" d="M254.17,197.51l.45,1.16-.21.09L254,197.6Zm-.09-.37a.13.13,0,0,1,0,.06s0,0,0,.05a.09.09,0,0,1,0,.05l0,0h-.06l-.06,0-.05,0,0-.05a.13.13,0,0,1,0-.06s0,0,0-.06a.1.1,0,0,1,0,0s0,0,0,0H254l.05,0Z"/></g><g id="path2804-0-9"><path class="cls-27" d="M255.39,197.28v0h-.07l-.06,0h-.09l-.11,0a.28.28,0,0,0-.14.09.32.32,0,0,0-.08.13.81.81,0,0,0,0,.16.81.81,0,0,0,.15.37.43.43,0,0,0,.12.11l.13,0a.45.45,0,0,0,.16,0,.39.39,0,0,0,.11-.06l.06-.07a.21.21,0,0,0,0-.06l0,0h.05l.09,0a.6.6,0,0,1-.14.21.83.83,0,0,1-.22.14.6.6,0,0,1-.43,0,.47.47,0,0,1-.17-.15.74.74,0,0,1-.14-.23,1.49,1.49,0,0,1-.06-.25.8.8,0,0,1,0-.23.53.53,0,0,1,.13-.2.62.62,0,0,1,.21-.13.66.66,0,0,1,.23,0,.5.5,0,0,1,.21.05Z"/></g><g id="path2806-6-4"><path class="cls-27" d="M256,196.77a.36.36,0,0,1,.2,0,.44.44,0,0,1,.2,0,.61.61,0,0,1,.16.13.53.53,0,0,1,.12.21.11.11,0,0,1,0,.07l0,0-.77.3a.78.78,0,0,0,.11.18.6.6,0,0,0,.12.11.39.39,0,0,0,.3,0,.46.46,0,0,0,.14-.07l.07-.07.05-.06s0,0,0,0a0,0,0,0,1,0,0l.09.06-.07.11a.41.41,0,0,1-.09.1l-.11.08-.12.06a.47.47,0,0,1-.23,0,.42.42,0,0,1-.22-.05.53.53,0,0,1-.19-.15.66.66,0,0,1-.15-.25.49.49,0,0,1,0-.23.43.43,0,0,1,0-.23.55.55,0,0,1,.12-.19.74.74,0,0,1,.21-.13Zm.06.15a.34.34,0,0,0-.19.18.4.4,0,0,0,0,.27l.63-.24a.35.35,0,0,0-.07-.12.3.3,0,0,0-.21-.11.34.34,0,0,0-.14,0Z"/></g><g id="path2808-0-4" class="cls-28"><path class="cls-27" d="M251.3,201.62l6-2.32.38,1-6,2.32Z"/></g><g id="path2810-1-0" class="cls-28"><path class="cls-27" d="M252,203.4l6-2.33.38,1-6,2.32Z"/></g><g id="path2812-3-4" class="cls-28"><path class="cls-27" d="M238.79,208.9l3.56-1.38.38,1-3.55,1.38Z"/></g><g id="path2814-9-7" class="cls-28"><path class="cls-27" d="M239.48,210.67l2.08-.8.38,1-2.08.81Z"/></g><g id="path2816-8-4" class="cls-29"><path class="cls-30" d="M240.84,214.2l19.58-7.57,1.76,4.55-19.57,7.57Z"/></g><g id="path2818-2-6" class="cls-28"><path class="cls-27" d="M240.81,214.1l19.59-7.58.68,1.73-19.6,7.59Z"/></g><g id="path2820-7-6" class="cls-28"><path class="cls-27" d="M257.57,215.56l5.24-2,.46,1.19-5.24,2Z"/></g><g id="path2822-2-8" class="cls-28"><path class="cls-27" d="M259.94,220.22l4.75-1.83.49,1.28-4.74,1.83Z"/></g><g id="path2824-1-1" class="cls-28"><path class="cls-27" d="M242.34,216.27l4.68-1.81.57,1.47-4.68,1.81Z"/></g><g id="path2826-0-4" class="cls-28"><path class="cls-27" d="M247.4,214.32l4.68-1.82.57,1.47L248,215.78Z"/></g><g id="path2828-8-3" class="cls-28"><path class="cls-27" d="M252.46,212.36l2.37-.92.57,1.47-2.37.91Z"/></g><g id="path2830-5-9" class="cls-28"><path class="cls-27" d="M255.24,211.28l5.38-2.08.57,1.47-5.38,2.08Z"/></g><g id="path2832-9-1" class="cls-31"><path class="cls-27" d="M240.61,205.25c.12.3-.41.79-1.18,1.09s-1.51.3-1.63,0,.41-.78,1.19-1.08,1.5-.32,1.62,0Z"/></g><g id="path2834-3-1"><path class="cls-32" d="M238.47,206.11l-.78-2,.7-.27a1.89,1.89,0,0,1,.35-.1,1.14,1.14,0,0,1,.27,0,.41.41,0,0,1,.19.12.6.6,0,0,1,.14.21.37.37,0,0,1,0,.15.78.78,0,0,1,0,.14,1,1,0,0,1-.07.15l-.13.14a.46.46,0,0,1,.58.29.53.53,0,0,1,.05.25.67.67,0,0,1-.07.24.6.6,0,0,1-.18.21.87.87,0,0,1-.3.17Zm0-1,.23.6.37-.15a.65.65,0,0,0,.17-.09.28.28,0,0,0,.08-.12.26.26,0,0,0,0-.11l0-.13a.41.41,0,0,0-.07-.11.13.13,0,0,0-.1-.06.25.25,0,0,0-.13,0,.83.83,0,0,0-.18.05Zm-.1-.26.3-.11a.46.46,0,0,0,.25-.19.24.24,0,0,0,0-.25.27.27,0,0,0-.17-.19.5.5,0,0,0-.31,0l-.32.12Z"/></g><path class="cls-25" d="M215.08,320.78l-.19.47a49.9,49.9,0,0,1-3.88,7.86,119.77,119.77,0,0,1-19.51-11c-.23-.17-.5-.38-.5-.67a.82.82,0,0,1,.45-.61c1.81-1.23,4.23-.59,6.34,0a69.8,69.8,0,0,0,13.47,2.32C212.51,319.71,213.78,320.27,215.08,320.78Z"/><path class="cls-25" d="M279.5,204.1c.11,1.93-1.21,3.36-2.5,4.85l0,.13a50.66,50.66,0,0,1-9.07,7c-1.37.9-2.74,1.82-4.1,2.74l-3.43-3.6L258,212.62c1.79-1.65,3.65-3.24,5.53-4.75.52-.44,1.05-.87,1.58-1.28a16.25,16.25,0,0,1,2.51-1.73l0-.21c-1.53-1.6-3.05-3.22-4.57-4.83l-1.28-1.36a14.91,14.91,0,0,1,3.21-3.69c1.39-1.1,1.07-2.85-.12-4.11a4.74,4.74,0,0,0-4.43-1.41,9.38,9.38,0,0,0-4.39-.76,7.81,7.81,0,0,0-3.09.39q-1.47-1.59-2.91-3.21a7.82,7.82,0,0,1-2.32-3.92,5.39,5.39,0,0,1,.53-2.89,7.11,7.11,0,0,1,3.08-3.37,5.6,5.6,0,0,1,4.49-.37h0a10.21,10.21,0,0,1,1,1,35.3,35.3,0,0,1,4,3.68c3.09,3.24,6.06,6.6,9,10q1.47,1.69,2.92,3.4a43.7,43.7,0,0,1,5.91,8.06A7,7,0,0,1,279.5,204.1Z"/><path class="cls-19" d="M247.48,225.3a11.19,11.19,0,0,1-3.91-1.11,10.33,10.33,0,0,1-2.73-1.85c-.3-.29-.67-.62-1.06-.48a.84.84,0,0,0-.34.28,3.91,3.91,0,0,0-.63,2.12c-.16,1.59-.25,3.39.81,4.57a4.81,4.81,0,0,0,3.19,1.28,13,13,0,0,0,4.52-.41,8.16,8.16,0,0,0,.88-.26A6,6,0,0,1,247.48,225.3Z"/><path class="cls-23" d="M258,212.62l5.89,6.18-.48.32q-7.92,5.37-15.63,11l-.26-.31a6,6,0,0,1-1.32-4c0-.13,0-.63,0-.76l.39.08A77.19,77.19,0,0,1,258,212.62Z"/><path class="cls-18" d="M121.3,197.77c-1.4,2.2-2.77,4.42-4.15,6.62-1.62.71-3.19,1.61-4.88,1.29.16-.24.32-.48.47-.73l.12.08a5.57,5.57,0,0,0,.88-1.05q2.63-3.69,5.52-7.15c.66.32,1.33.63,2,.92Z"/><path class="cls-19" d="M117.15,204.39a8.89,8.89,0,0,1,2.37-.73,12.87,12.87,0,0,1-4.19,6.32c-.23.19-.46.37-.71.54a12.74,12.74,0,0,1-8.05,2.28,13.42,13.42,0,0,0-1.88-3.13,3.82,3.82,0,0,1-.51.18,41.41,41.41,0,0,1,5.57-5.1c1.11-.85,2.55-1.68,3.82-1.09-.27.43-.55.86-.83,1.29-.15.25-.31.49-.47.73C114,206,115.53,205.1,117.15,204.39Z"/><path class="cls-19" d="M106.05,172.83a6.38,6.38,0,0,1-.82,1.85,5.69,5.69,0,0,0-1.31,2.6,16.4,16.4,0,0,0,.6,2.59.76.76,0,0,1,0,.45c-.13.24-.43.32-.68.42a3.28,3.28,0,0,0-1.58,1.39,6.92,6.92,0,0,0-.54,1A8.52,8.52,0,0,1,100,186a3.51,3.51,0,0,1-4.43.18,2.76,2.76,0,0,0-1.23-.76,1.61,1.61,0,0,0-1.46.94,4,4,0,0,0-.18,3.51l-.29.13c-.1-.21-.2-.42-.29-.64l-.24-.1a23,23,0,0,1-3.31-3.53l-1-.08a3.39,3.39,0,0,0,.51-.17,6.35,6.35,0,0,0,3-2.63A12.63,12.63,0,0,0,92.6,179a37.46,37.46,0,0,1,1.12-4.38,10.74,10.74,0,0,1,11.93-6.73v0A7,7,0,0,1,106.05,172.83Z"/><path class="cls-33" d="M117.21,323.84a1.64,1.64,0,0,0,.26-.2l.06-.19a143.27,143.27,0,0,1,15.2-3.85,1.09,1.09,0,0,1,.67,0,.84.84,0,0,1,.34,1.11,2.56,2.56,0,0,1-.92.9l-11.15,7.59a12,12,0,0,1-4.7,2.27,1.24,1.24,0,0,1-.74-.05,1.45,1.45,0,0,1-.59-.81l-2.34-5.73,0-.19A4.87,4.87,0,0,0,117.21,323.84Z"/><path class="cls-34" d="M115.39,210.06a2.94,2.94,0,0,1-.92,2.46,8.52,8.52,0,0,1-2.28,1.48q-5.28,2.66-10.74,4.95c-.08-.62-.15-1.25-.23-1.87l5.26-2.88a.77.77,0,0,0,.38-.33.75.75,0,0,0-.07-.58,3.52,3.52,0,0,0-.22-.49,12.74,12.74,0,0,0,8.05-2.28c.25-.17.48-.35.71-.54Z"/><path class="cls-35" d="M91.41,275.93,87,268.84c-1.89-3-3.8-6.09-5.44-9.27-2.85-5.49-4.94-11.27-4.79-17.39l0-.2A50.86,50.86,0,0,0,96,240.89c1.48,3.86,2.81,7.78,4,11.73,7.16,23.28,10.33,47.77,17.16,71.22a4.87,4.87,0,0,1-3.88.85,1.74,1.74,0,0,1-.45-.11l-6.64-11.37c-1.18-2-2.38-4-3.42-6.14a58.22,58.22,0,0,1-5.68-17.92,26.54,26.54,0,0,0-1-5.09,21.71,21.71,0,0,0-2.23-4.2C93.06,278.55,92.24,277.23,91.41,275.93Z"/><path class="cls-36" d="M80.2,187.74s0,0,0,0A5.44,5.44,0,0,0,76.25,190a11.11,11.11,0,0,0-1.85,4.77A33.18,33.18,0,0,0,75,208.92a48.52,48.52,0,0,0,1.68,5.29A8.34,8.34,0,0,1,66.1,202.88c1-2,2.71-3.65,3.34-5.79,1-3.57-1.33-7.28-1.11-11a10.15,10.15,0,0,1,2.9-6.18,22.26,22.26,0,0,1,5.62-4.07c2.41-1.32,5-2.56,6.63-4.8,1.81-2.56,2-6.07,4-8.47,2.39-2.88,6.62-3.37,10.34-3a15.12,15.12,0,0,1,6.21,1.84,7.55,7.55,0,0,1,3.72,5.1c.35,2.19-.56,4.35-1.71,6.29a7,7,0,0,0-.4-4.88v0a10.74,10.74,0,0,0-11.93,6.73A37.46,37.46,0,0,0,92.6,179a12.63,12.63,0,0,1-1.51,3.77,6.35,6.35,0,0,1-3,2.63,3.39,3.39,0,0,1-.51.17,20.45,20.45,0,0,1-3.68.44A5.09,5.09,0,0,0,80.2,187.74Z"/><path class="cls-34" d="M101.22,217.08l-11.16,6.13a14,14,0,0,1-4.83,1.91,4.4,4.4,0,0,1-2.66-.4,5.4,5.4,0,0,1-2-2.27l-.2-.36a66.25,66.25,0,0,1-3.67-7.88A48.52,48.52,0,0,1,75,208.92a33.18,33.18,0,0,1-.64-14.12A11.11,11.11,0,0,1,76.25,190a5.44,5.44,0,0,1,3.93-2.27h.1a3.91,3.91,0,0,1,1.62,1c2.72,2.55,3.83,6.36,4.55,10A80.61,80.61,0,0,1,88,214.27c4.18-1.86,9-2.35,13.5-3.57.92-.25,1.81-.52,2.69-.85a3.82,3.82,0,0,0,.51-.18,13.42,13.42,0,0,1,1.88,3.13,3.52,3.52,0,0,1,.22.49.75.75,0,0,1,.07.58.77.77,0,0,1-.38.33Z"/><path class="cls-37" d="M254.29,190c-2.07-3.63-5.29-9.37-5.29-10.05"/><path class="cls-37" d="M247,183s3.62,4.52,6.29,7.48"/><path class="cls-34" d="M102.89,238.61A49.69,49.69,0,0,1,96,240.89,50.86,50.86,0,0,1,76.76,242c-.59-.08-1.18-.16-1.75-.26,1-2.83,2-5.65,2.94-8.48,1.2-3.46,2.43-7,2.46-10.7l.18-.09a5.4,5.4,0,0,0,2,2.27,4.4,4.4,0,0,0,2.66.4,14,14,0,0,0,4.83-1.91l11.16-6.13c.08.62.15,1.25.23,1.87l2.16,18.66a1.11,1.11,0,0,1,0,.48,1,1,0,0,1-.64.5Z"/><path class="cls-36" d="M103.41,191.09a5.45,5.45,0,0,1-2.7,4.64A5.51,5.51,0,0,1,96,196h0c-.28-.45-.58-.9-.86-1.35a35.83,35.83,0,0,1-2.7-4.69l.29-.13a4,4,0,0,1,.18-3.51,1.61,1.61,0,0,1,1.46-.94,2.76,2.76,0,0,1,1.23.76A3.51,3.51,0,0,0,100,186a8.52,8.52,0,0,0,1.66-2.83,6.92,6.92,0,0,1,.54-1,11.42,11.42,0,0,0,.15,4.36A20.15,20.15,0,0,1,103.41,191.09Z"/><path class="cls-34" d="M80.28,187.75H80.2a5.09,5.09,0,0,1,3.67-1.69,20.45,20.45,0,0,0,3.68-.44l1,.08a23,23,0,0,0,3.31,3.53l.24.1c.09.22.19.43.29.64a35.83,35.83,0,0,0,2.7,4.69c.28.45.58.9.86,1.35h0q2.52,3.93,5,7.86a8.47,8.47,0,0,1,1.44,3.07,2.87,2.87,0,0,1-1.17,3l.21.78c-4.52,1.22-9.32,1.71-13.5,3.57a80.61,80.61,0,0,0-1.54-15.51c-.72-3.66-1.83-7.47-4.55-10A3.91,3.91,0,0,0,80.28,187.75Z"/><path class="cls-35" d="M102.89,238.61a52,52,0,0,1-2.42,13.88l-.42.13c-1.21-4-2.54-7.87-4-11.73A49.69,49.69,0,0,0,102.89,238.61Z"/><path class="cls-33" d="M93.64,328.77c.47.23,1,.6,1,1.13-7,.79-14,0-20.91-.81a2.21,2.21,0,0,1-1.66-.72,2.09,2.09,0,0,1-.2-1.4c.18-2,.34-4,.52-6l.12-.48a20.81,20.81,0,0,0,3.92.56l0,.75C81.56,325.21,88,326.08,93.64,328.77Z"/><path class="cls-35" d="M87,268.84l4.46,7.09c-3.84,15.23-12.54,29.42-12.92,45.1a16.2,16.2,0,0,1-2.09,0,20.81,20.81,0,0,1-3.92-.56l-.61-.15h-.11c1.28-9.08,2.18-18.24,2.68-27.4a27.23,27.23,0,0,1,1-7.31c.89-2.6,2.57-4.85,3.53-7.42a26.21,26.21,0,0,0,1.3-6.93q.53-5.82.63-11.67l.58,0C83.15,262.75,85.06,265.84,87,268.84Z"/><path class="cls-38" d="M179.1,149.16h0a15,15,0,0,1-15-15h0a15,15,0,0,1,15-15h0a15,15,0,0,1,15,15h0A15,15,0,0,1,179.1,149.16Z"/><path class="cls-39" d="M189,133a6.85,6.85,0,0,1-1.22,4.08,14,14,0,0,1-2.59,2.78,38.41,38.41,0,0,1-5.49,3.81,4.36,4.36,0,0,1-.85.39l-.09,0c-.41.1-.62-.08-.55-.51s.15-.8.19-1.21a3.53,3.53,0,0,0,0-.46.64.64,0,0,0-.35-.5,2.94,2.94,0,0,0-.91-.25,10.35,10.35,0,0,1-5.7-2.76,7.25,7.25,0,0,1-2.12-3.8,6.58,6.58,0,0,1,.87-4.84,8.66,8.66,0,0,1,3.39-3.16,11.11,11.11,0,0,1,4.13-1.28,11.56,11.56,0,0,1,6.76,1.21,8.72,8.72,0,0,1,3.53,3.23A6.49,6.49,0,0,1,189,133Z"/><path class="cls-12" d="M179,133.08v2.52c0,.16-.07.23-.23.23h-.62c-.16,0-.23-.07-.23-.24v-4.17c0-.25,0-.3.3-.3h.51a.32.32,0,0,1,.28.14l1.82,2.46a.64.64,0,0,0,.1.13s0-.08,0-.11V131.4c0-.22.06-.28.26-.28h.58c.17,0,.23.07.23.24q0,2.12,0,4.23c0,.17-.06.24-.24.24s-.37,0-.55,0a.33.33,0,0,1-.31-.16l-1.79-2.43Z"/><path class="cls-12" d="M182.74,133.46v-2.05c0-.23.06-.29.29-.29h2.6c.22,0,.27.06.27.28a4.86,4.86,0,0,1,0,.54c0,.21-.05.27-.27.27H184c-.1,0-.13,0-.13.12a4.34,4.34,0,0,1,0,.51c0,.08,0,.1.11.1h1.71c.2,0,.26.06.26.26a5.42,5.42,0,0,1,0,.57c0,.18-.06.24-.24.24-.57,0-1.14,0-1.71,0-.1,0-.13,0-.13.13a4,4,0,0,1,0,.49c0,.09,0,.12.12.12h1.69c.22,0,.27.05.27.27a5.23,5.23,0,0,1,0,.56c0,.18-.06.25-.24.25H183c-.18,0-.25-.07-.25-.26Z"/><path class="cls-12" d="M172.44,133.47c0-.69,0-1.37,0-2.06,0-.23.05-.29.28-.29h.53c.2,0,.27.07.27.27,0,1.07,0,2.14,0,3.21,0,.12,0,.15.15.15h1.68c.2,0,.26.06.26.26v.55c0,.2-.06.27-.26.27h-2.64c-.2,0-.26-.06-.26-.27C172.44,134.86,172.44,134.16,172.44,133.47Z"/><path class="cls-12" d="M177.28,133.47v2.09c0,.21-.06.27-.27.27h-.57c-.17,0-.24-.07-.24-.24v-4.22c0-.18.07-.24.24-.25H177c.19,0,.25.07.25.25Z"/><path class="cls-40" d="M137.29,181.8h0a15,15,0,0,1-15-15h0a15,15,0,0,1,15-15h0a15,15,0,0,1,15,15h0A15,15,0,0,1,137.29,181.8Z"/><path class="cls-41" d="M145.51,166.39a8.07,8.07,0,0,0-16.13-.14c0,.11,0,.23,0,.35a7.85,7.85,0,0,0,1.16,4.13l-1.46,4.3,4.47-1.42a8.16,8.16,0,0,0,3.9,1,8,8,0,0,0,8.07-8Zm-8.07,6.94a6.79,6.79,0,0,1-3.73-1.11l-2.61.83.85-2.5a6.65,6.65,0,0,1-1.3-4c0-.22,0-.44,0-.66a6.79,6.79,0,0,1,13.51.13,4.71,4.71,0,0,1,0,.53A6.77,6.77,0,0,1,137.44,173.33Z"/><path class="cls-41" d="M141.14,168.21c-.2-.09-1.17-.57-1.35-.63s-.32-.1-.45.09a9,9,0,0,1-.63.77c-.11.13-.23.15-.43.05a5.53,5.53,0,0,1-1.59-1,6.21,6.21,0,0,1-1.1-1.36c-.11-.2,0-.3.09-.4s.2-.23.3-.35l.07-.09a1.24,1.24,0,0,0,.12-.23.36.36,0,0,0,0-.35c0-.1-.45-1.06-.61-1.46s-.33-.32-.45-.32l-.38,0a.77.77,0,0,0-.53.24,2.23,2.23,0,0,0-.69,1.64,2.14,2.14,0,0,0,.11.67,4.39,4.39,0,0,0,.7,1.36,8.14,8.14,0,0,0,3.38,3c2,.78,2,.52,2.38.49a2,2,0,0,0,1.33-.94,1.58,1.58,0,0,0,.12-.93C141.47,168.36,141.34,168.31,141.14,168.21Z"/><path class="cls-42" d="M198.51,194.45h0a15,15,0,0,1-15-15h0a15,15,0,0,1,15-15h0a15,15,0,0,1,15,15h0A15,15,0,0,1,198.51,194.45Z"/><g id="Shape_17" data-name="Shape 17"><path class="cls-43" d="M207.11,175.26a1.44,1.44,0,0,0-.38-1,0,0,0,0,0,0,0h0a1.42,1.42,0,0,0-1.05-.45h-14.3a1.45,1.45,0,0,0-1.05.45h0a0,0,0,0,1,0,0,1.44,1.44,0,0,0-.37,1v8.41a1.39,1.39,0,0,0,.39,1s0,0,0,0h0a1.42,1.42,0,0,0,1,.44h14.3a1.44,1.44,0,0,0,1-.44h0l0,0a1.39,1.39,0,0,0,.39-1v-8.41ZM201.48,179l5-4.11a1,1,0,0,1,.07.35v8.41a.87.87,0,0,1-.06.32Zm4.18-4.6a1,1,0,0,1,.35.07l-7.5,6.22-7.5-6.22a1,1,0,0,1,.35-.07ZM190.58,184a.71.71,0,0,1-.07-.32v-8.41a.82.82,0,0,1,.08-.35l4.95,4.11Zm.78.52a1,1,0,0,1-.38-.09l5-5,2.32,1.92a.28.28,0,0,0,.19.07.26.26,0,0,0,.19-.07L201,179.4l5,5a.92.92,0,0,1-.38.09Z"/></g><path class="cls-37" d="M261,198l7,7s-8.72,5.55-10,7c0,0-10,10-12,13"/><path class="cls-44" d="M254,242s3.37,9,8.68,8.48"/><path class="cls-37" d="M261,229s-5,7-8,9"/><path class="cls-37" d="M261,233s-2,4-4,5"/><path class="cls-45" d="M80.5,222.45s-1.28,6.12-1.39,7.31c0,0,8.89.19,12.89-3.81a88.35,88.35,0,0,1,9.35-7.84l-.85-.66-5.58,3.09-5.42,2.91s-4,3-7,1Z"/><path class="cls-46" d="M96,241s-13.22,7.71-18.86,6.61a19.36,19.36,0,0,1-.64-5.11h0S92.5,243.45,96,241Z"/><polygon class="cls-46" points="81.21 258.99 80.5 267.45 91.08 277.22 91.5 275.45 81.21 258.99"/><path class="cls-45" d="M264.5,239.45s-6.8,3.21-27.4-.39l1.08,5.42,26-2.53Z"/><polygon class="cls-45" points="230.41 245.62 240.71 265.03 243 260.95 237 238.95 234 237.95 230.41 245.62"/></g><g class="cls-47"><path class="cls-3" d="M760.16,139.61H687.8V122.06c0-.14,0-.29,0-.43-.27-7.81-7.71-14.11-17-14.42v-6.58h-1.45v6.58c-9.28.3-16.72,6.6-17,14.42,0,.14,0,.29,0,.43V139l-15.7,0v-9.51H634.3v9.51H623.74v11.62l-87.4-1.07v27.93H521.05V169.6H510.6v-6.4h-2.33v6.4h-4.64v7.82h-2.32v41.39h-8.16V215.6H451.56v3.21h-9v29h-9.65V240H422.44v-6.4h-2.33V240h-3.17v-1.55H366.82V216.22H352.25V194.83H326.19V187H315.74v-6.4h-2.32V187h-4.65v7.82h-2.32v23.09h-9.26v-3.2H255.6v3.2h-3.91l-.32-1.63h-4.06v-3.44H230.72V200.28H188.6V175.59H150.19V145.65H145v29.94h-3.7v12.88H83.71V170.59H75.83v17.88H68v36.24H43.26V187.33h-88v10.22H-98.72v16.64H-114v-7.82h-10.45V200h-2.32v6.4h-4.65v7.82h-2.32v4.62h-8.15V215.6H-183.5v3.21h-9v29h-9.66V240h-10.45v-6.4h-2.32V240h-3.18v-1.55H-318V216.22h-15.25V123.29h-10.55v-9.51h-2.35v9.51h-4.69v92.93H-370.5v90.23l1130.66-.19Z"/><path class="cls-3" d="M682.58,173.58v-7.82H672.12v-6.4H669.8v6.4h-4.64v7.82h-2.33V195l-8.05.07V191.6H638.2V179H526.78V117.57H488.37V87.63H483.2v29.94h-3.69v12.88H421.9V112.57H414v17.88h-7.88v36.24h-24.7V118.36h-8.72V100.82c0-.15,0-.3,0-.44-.26-7.8-7.71-14.11-17-14.42V79.38h-1.45V86c-9.27.3-16.72,6.61-17,14.42,0,.14,0,.29,0,.44v17.54h-8.73v11h-2.28V117.69h-4.69v-9.51h-2.35v9.51H308.67v11.62H293.42v10.22h-54v16.64H224.17v-7.82H213.72V142h-2.33v6.4h-4.64v7.82h-2.32v17.41h-10.2v-7.82H183.78v-6.4h-2.33v6.4h-4.64v7.82h-2.32v20.77h-9.27v-.88H123.63v3.2h-3.9v2.27l-.33-3.9h-4.06V191.6H98.76V179H50.5V117.57H48.56V102.05H44.14V92.54H41.79v9.51H37.1v15.52H18.22V87.63H13.05v29.94H9.36v12.88H-48.25V112.57h-7.88v17.88H-64v36.24h-24.7V118.36h-8.71V100.82c0-.15,0-.3,0-.44-.27-7.8-7.72-14.11-17-14.42V79.38h-1.45V86c-9.27.3-16.72,6.61-17,14.42,0,.14,0,.29,0,.44v17.54h-8.73v11h-2.28V117.69h-4.69v-9.51h-2.35v9.51h-10.55v11.62h-15.25v10.22H-252.9v16.64h-40.41v-7.82h-10.45V142h-2.32v6.4h-4.65v7.82H-313V194.3l-57.45,0v112.1l405.25.09H760.16l-.09-133Z"/></g></svg>