<svg xmlns="http://www.w3.org/2000/svg" viewBox="0 0 97.38 75.17"><defs><style>.cls-1{fill:#f3fafd;fill-rule:evenodd;}.cls-2{opacity:0.7;}.cls-3{fill:#cfd9e2;}.cls-3,.cls-6,.cls-7,.cls-8{stroke:#143f5d;stroke-width:0.5px;}.cls-4{fill:#3e5567;}.cls-5{fill:#e0e7ed;}.cls-6,.cls-8{fill:none;}.cls-7{fill:#fff;}.cls-8{stroke-linecap:round;}.cls-9{fill:#c1c0c0;}</style></defs><title>Informasi Perusahaan_250319</title><g id="Tutorial"><path class="cls-1" d="M19.83,1.86c9-3.77,22.51-1.25,27.92,2.53C54,8.72,60.14,13.25,64.61,14.54,73.36,17.07,82.79,11.05,93,23c9,10.48,3.45,32.15-10.67,37.85C71,65.46,63,71.66,37.75,67.76c-21.9-3.4-47.56-29.57-33.95-53C7.68,8.06,11,5.55,19.83,1.86Z"/><g class="cls-2"><path class="cls-3" d="M38.66,44.62,27,48.76a8.89,8.89,0,0,0-4.68,6.7L20.89,74.92h55.6l-1.8-20.17a7.84,7.84,0,0,0-4.32-5.64L57.51,44.62l-9.42,3.46Z"/><polygon class="cls-4" points="45.35 50.53 46.71 52.59 49.47 52.59 50.64 50.53 48.09 48.08 45.35 50.53"/><polygon class="cls-4" points="49.47 52.59 51.01 74.92 44.98 74.92 46.71 52.59 49.47 52.59"/><rect class="cls-5" x="41.3" y="37.34" width="13.33" height="10.65"/><path class="cls-6" d="M38.66,44.62,27,48.76a8.89,8.89,0,0,0-4.68,6.7L20.89,74.92h55.6l-1.8-20.17a7.84,7.84,0,0,0-4.32-5.64L57.51,44.62l-9.42,3.46Z"/><polygon class="cls-7" points="41.38 40.65 48.09 47.95 40.27 55.33 37.91 44.86 41.38 40.65"/><polygon class="cls-7" points="54.61 40.65 48.09 47.95 55.73 55.33 58.08 44.86 54.61 40.65"/><path class="cls-5" d="M37.18,33.05s-2.37-.36-2.86-4.2.2-4.92,1.87-4.53l-.52-8H60.3l-.69,7.48s2-.1,2,2.4.19,6.16-2.69,6.82c0,0-1.38,9.19-10.37,10.23C48.59,43.28,39.27,43.48,37.18,33.05Z"/><path class="cls-6" d="M37.18,33.05s-2.37-.36-2.86-4.2.2-4.92,1.87-4.53l-.52-8H60.3l-.69,7.48s2-.1,2,2.4.19,6.16-2.69,6.82c0,0-1.38,9.19-10.37,10.23C48.59,43.28,39.27,43.48,37.18,33.05Z"/><path class="cls-3" d="M36.19,24.32s.39-6.43,3.22-6.49,15.81,0,15.81,0,3.92-.2,4.42,5.7c0,0,1.55-6.42.63-9.31s-3-6.1-11.89-6.43c0,0-6.68-.46-8.38,2.49a7.47,7.47,0,0,1-2.3,2A4.11,4.11,0,0,0,35.4,16C35.34,18,36.19,24.32,36.19,24.32Z"/><path class="cls-8" d="M45.64,38.08a4,4,0,0,0,4.53,0"/><polygon class="cls-6" points="45.35 50.53 46.71 52.59 49.47 52.59 50.64 50.53 48.09 48.08 45.35 50.53"/><polygon class="cls-6" points="49.47 52.59 51.01 74.92 44.98 74.92 46.71 52.59 49.47 52.59"/><rect class="cls-7" x="31.76" y="54.9" width="33.86" height="20.02"/><circle class="cls-9" cx="48.69" cy="64.91" r="3.02"/><path class="cls-7" d="M73.42,16.7v5.77A4.5,4.5,0,0,1,68.94,27H62.41l-5.75,2.77,1.24-2.94a4.5,4.5,0,0,1-3.27-4.31V16.7a4.5,4.5,0,0,1,4.49-4.48h9.82A4.5,4.5,0,0,1,73.42,16.7Z"/><circle class="cls-9" cx="60.22" cy="19.54" r="1.04"/><circle class="cls-9" cx="67.83" cy="19.54" r="1.04"/><circle class="cls-9" cx="64.03" cy="19.54" r="1.04"/></g></g></svg>