<svg xmlns="http://www.w3.org/2000/svg" viewBox="0 0 97.38 75.56"><defs><style>.cls-1{fill:#f3fafd;fill-rule:evenodd;}.cls-2{fill:#86bfe8;}.cls-3{fill:#d0e4f3;}.cls-4{fill:#2a83be;}.cls-5{fill:#6cb0e3;}.cls-6{fill:none;stroke:#133f5d;stroke-width:0.5px;}.cls-7{fill:#cfe3ae;}.cls-8{fill:#b5d895;}</style></defs><title>Informasi Perusahaan_250319</title><g id="Tutorial"><path class="cls-1" d="M19.83,1.86c9-3.77,22.51-1.25,27.92,2.53C54,8.72,60.14,13.25,64.61,14.54,73.36,17.07,82.79,11.05,93,23c9,10.48,3.45,32.15-10.67,37.85C71,65.46,63,71.66,37.75,67.76c-21.9-3.4-47.56-29.57-33.95-53C7.68,8.06,11,5.55,19.83,1.86Z"/><path class="cls-2" d="M62.39,65.12h-58V26.07a1.7,1.7,0,0,1,1.7-1.7H60.69a1.7,1.7,0,0,1,1.7,1.7Z"/><path class="cls-2" d="M62.39,65.12H92A1.06,1.06,0,0,0,93,64.05V49a2.1,2.1,0,0,0-1-1.81l-9.32-5.72s-2-11.21-11.3-11.85h-9Z"/><path class="cls-3" d="M64.66,32v9.5H80.4S78.72,31.62,70.17,32Z"/><rect class="cls-4" x="64.45" y="46" width="4.23" height="1.28" rx="0.64"/><rect class="cls-5" x="4.36" y="51.6" width="58.04" height="5.28"/><path class="cls-6" d="M6.06,24.37H60.69a1.71,1.71,0,0,1,1.71,1.71v39a0,0,0,0,1,0,0h-58a0,0,0,0,1,0,0v-39A1.71,1.71,0,0,1,6.06,24.37Z"/><path class="cls-6" d="M62.39,65.12H92A1.06,1.06,0,0,0,93,64.05V49a2.1,2.1,0,0,0-1-1.81l-9.32-5.72s-2-11.21-11.3-11.85h-9Z"/><circle class="cls-5" cx="19.76" cy="68.41" r="6.9"/><circle class="cls-4" cx="19.76" cy="68.41" r="2.6"/><circle class="cls-6" cx="19.76" cy="68.41" r="6.9"/><circle class="cls-5" cx="78.76" cy="68.41" r="6.9"/><circle class="cls-6" cx="78.76" cy="68.41" r="6.9"/><circle class="cls-4" cx="78.76" cy="68.41" r="2.6"/><rect class="cls-7" x="30.16" y="61.61" width="14.74" height="13.7" rx="1.04"/><rect class="cls-8" x="36.23" y="61.61" width="2.59" height="4.35"/><rect class="cls-6" x="30.16" y="61.61" width="14.74" height="13.7" rx="1.04"/><rect class="cls-7" x="44.9" y="61.61" width="14.74" height="13.7" rx="1.04"/><rect class="cls-8" x="50.97" y="61.61" width="2.59" height="4.35"/><rect class="cls-6" x="44.9" y="61.61" width="14.74" height="13.7" rx="1.04"/><rect class="cls-7" x="37.53" y="47.91" width="14.74" height="13.7" rx="1.04"/><rect class="cls-8" x="43.6" y="47.91" width="2.59" height="4.35"/><rect class="cls-6" x="37.53" y="47.91" width="14.74" height="13.7" rx="1.04"/></g></svg>