<svg xmlns="http://www.w3.org/2000/svg" viewBox="0 0 251.3 240.69"><defs><style>.cls-1,.cls-7{fill:#d9dcdf;}.cls-1,.cls-10,.cls-11,.cls-12,.cls-13,.cls-14,.cls-15,.cls-16,.cls-19,.cls-2,.cls-20,.cls-21,.cls-22,.cls-5{stroke:#133f5d;stroke-width:0.5px;}.cls-1,.cls-12,.cls-13,.cls-14,.cls-22{stroke-linecap:round;}.cls-1,.cls-12,.cls-13,.cls-14{stroke-linejoin:round;}.cls-1,.cls-7,.cls-8{isolation:isolate;}.cls-2,.cls-4{fill:#fff;}.cls-10,.cls-11,.cls-15,.cls-16,.cls-19,.cls-2,.cls-20,.cls-21,.cls-22,.cls-5{stroke-miterlimit:10;}.cls-3{fill:#c5dff4;}.cls-5{fill:none;}.cls-6{fill:#f3fafd;}.cls-8{opacity:0.5;}.cls-9{opacity:0.6;}.cls-10,.cls-17,.cls-20{fill:#133f5d;}.cls-10{opacity:0.15;}.cls-11,.cls-12{fill:#e1c4a6;}.cls-13{fill:#b0928c;}.cls-14,.cls-16,.cls-22{fill:#e9d3be;}.cls-15,.cls-18{fill:#4299d4;}.cls-19{fill:#aed4ec;}.cls-21{fill:#b9d87f;}</style></defs><title>Informasi Perusahaan_250319</title><g id="Tutorial"><path class="cls-1" d="M227.79,206.25H23.51c-7.93,0-15.81,0-23.26-2.72h250.8C243.6,206.26,235.73,206.25,227.79,206.25Z"/><path class="cls-2" d="M142.67,196.53V198a1.87,1.87,0,0,1-1.87,1.87H110.38a1.87,1.87,0,0,1-1.87-1.87v-1.5H.25v7h250.8v-7Z"/><path class="cls-3" d="M140.62,200.66H110.87a2.65,2.65,0,0,1-2.65-2.64v-1.26h35V198A2.64,2.64,0,0,1,140.62,200.66Z"/><path class="cls-4" d="M215.17,72.94H36.45a4.51,4.51,0,0,0-4.5,4.5v119.1H219.67V77.44A4.51,4.51,0,0,0,215.17,72.94Z"/><path class="cls-5" d="M215.17,72.94H36.45a4.51,4.51,0,0,0-4.5,4.5v119.1H219.67V77.44A4.51,4.51,0,0,0,215.17,72.94Z"/><rect class="cls-6" x="40.3" y="80.7" width="171.21" height="110.01"/><path class="cls-7" d="M126.43,77.59a.8.8,0,1,1-.8-.8A.79.79,0,0,1,126.43,77.59Z"/><g class="cls-8"><path class="cls-3" d="M49.43,93.23H202.36a.05.05,0,0,1,.05.05V120a0,0,0,0,1,0,0h-153a0,0,0,0,1,0,0V93.23A0,0,0,0,1,49.43,93.23Z"/></g><g class="cls-8"><g class="cls-9"><path class="cls-3" d="M49.43,126.09h96a0,0,0,0,1,0,0v4.51a0,0,0,0,1,0,0h-96a0,0,0,0,1,0,0v-4.53A0,0,0,0,1,49.43,126.09Z"/><path class="cls-3" d="M49.43,135H201.27a0,0,0,0,1,0,0v2.44a0,0,0,0,1,0,0H49.43a0,0,0,0,1,0,0V135A0,0,0,0,1,49.43,135Z"/><path class="cls-3" d="M49.43,140.51H201.27a0,0,0,0,1,0,0V143a0,0,0,0,1,0,0H49.43a0,0,0,0,1,0,0v-2.45A0,0,0,0,1,49.43,140.51Z"/><path class="cls-3" d="M49.43,146.06H201.27a0,0,0,0,1,0,0v2.44a0,0,0,0,1,0,0H49.43a0,0,0,0,1,0,0v-2.45A0,0,0,0,1,49.43,146.06Z"/><path class="cls-3" d="M49.43,151.61h58.16a0,0,0,0,1,0,0v2.44a0,0,0,0,1,0,0H49.43a0,0,0,0,1,0,0v-2.45A0,0,0,0,1,49.43,151.61Z"/></g></g><ellipse class="cls-10" cx="68.99" cy="230.65" rx="40.84" ry="9.8"/><ellipse class="cls-10" cx="173.53" cy="230.65" rx="40.84" ry="9.8"/><path class="cls-11" d="M126.75,83.8a34.88,34.88,0,0,1-6.65-.28c-1.44-.4-5.62.44-5.09.93s.28.48,2.41.64,1.64.87,2,1.09-1.34,5-1.34,5,8.68-2.21,9.82-3.06S126.75,83.8,126.75,83.8Z"/><polygon class="cls-12" points="178.94 28.97 178.82 39.65 188.34 39.14 188.94 22.58 178.94 28.97"/><path class="cls-12" d="M177.35,30a5.84,5.84,0,0,1-3.21-.76c-3.83-5.58.54-20.62.54-20.62L180.81,6l7.79,4.86L189,20.93a8.18,8.18,0,0,1-3.48,7h0A16,16,0,0,1,177.35,30Z"/><path class="cls-13" d="M187,17.84l-.52-1.27c-.43-1.7.73-5.6-1-5.32-1.26.21-5.56.38-7,.38-3.46,0-9.62-1.35-9.62-6.61A4.78,4.78,0,0,1,172,.39c1.59-.66,3.38,1.24,5,1.8,3.8,1.33,11.66,2.41,13.67,2,2.28-.48,4.67,1.85,4.84,3.24.39,3.05-.76,8.4-2.27,11.34-.87,1.7-2.27,5.36-4.54,6.14l.2-2.33-.9-2.16"/><path class="cls-12" d="M188,20.37a2.93,2.93,0,0,0,2.42-.67c1-.84,1.2-2.07.43-2.75a2.6,2.6,0,0,0-3.22.29A2.7,2.7,0,0,0,187,18"/><polyline class="cls-14" points="188.51 33.26 189.1 36.77 178.16 36.75 178.88 33.26"/><path class="cls-15" d="M158.72,221.31s-3.24,3-10.62,4.88c-1.62.42-3.38-.14-3.38,2.54h9l7.45-1.29v1.29h4s1.12-6.58-1.22-7.42Z"/><path class="cls-16" d="M159.17,216.58l-.45,4.73h0a4.54,4.54,0,0,0,4.93.16l.28-.16,1.67-4.73Z"/><path class="cls-15" d="M194.52,221.31s-3.24,3-10.62,4.88c-1.62.42-3.38-.14-3.38,2.54h9l7.45-1.29v1.29h4s1.13-6.58-1.22-7.42Z"/><path class="cls-16" d="M195,216.58l-.45,4.73h0a4.54,4.54,0,0,0,4.93.16l.28-.16,1.49-4.73Z"/><polygon class="cls-15" points="172.99 98.28 162.49 108.68 159.06 217.71 166.02 217.71 186.48 120.51 172.99 98.28"/><polygon class="cls-15" points="171.87 99.22 193.73 217.71 201.4 217.71 198.25 98.28 171.87 99.22"/><path class="cls-17" d="M189.66,124.05l2.31-.17a4.08,4.08,0,0,1,1.08-2.81,5.79,5.79,0,0,1,4.27-1.37c2.12,0,3.72.47,4.61,1.35a2.84,2.84,0,0,1,.84,2l2.31.13a4.89,4.89,0,0,0-1.43-3.57c-1.36-1.38-3.49-2.09-6.33-2.09a8,8,0,0,0-6,2.1A6.29,6.29,0,0,0,189.66,124.05Z"/><rect class="cls-18" x="180.13" y="126.73" width="34.49" height="22.19" transform="translate(394.75 275.65) rotate(180)"/><path class="cls-19" d="M196.11,141.69c0,1.35.64,1.51,1.44,1.51S199,143,199,141.69V136c10.66-.49,15.63-2.66,15.63-2.66v18.4c0,1.56-.61,2.83-1.53,2.83H181.65c-.92,0-1.52-1.27-1.52-2.83v-18.4c7.14,2,7.71,1.87,16,2.65Z"/><path class="cls-19" d="M181.65,122h31.44c.92,0,1.53,1.27,1.53,2.83v8.49A53.44,53.44,0,0,1,199,136V134.8c0-1.36-.64-1.51-1.44-1.51s-1.44.15-1.44,1.51v1.14a55,55,0,0,1-16-2.65V124.8C180.13,123.24,180.73,122,181.65,122Z"/><path class="cls-11" d="M196.63,112.18l-3.24,7.13s.69,3.91,2.13,5.44a1.53,1.53,0,0,0,1.7.34c1.35-.56,4.46-1.9,5-2.64a1.5,1.5,0,0,0,.16-1.27l-1-3.14-.12-7.32Z"/><path class="cls-20" d="M182.05,34c3.88,0,7.11-.14,9.89,1.09,6.87,3,8.77,8.42,10.49,15.72,2.71,11.49,8.45,39.34-.2,63.56a51.46,51.46,0,0,1-7,0l-.93-46.69,1.37,41H162.48l5.12-42.89s-5.47,8.52-13.27,13.93-27.71,9.82-27.71,9.82v-6.1S144,74.35,148.16,71.18s16.55-28,16.55-28c2.83-5.58,4.64-5,9.06-8.54C175.54,33.24,179,34,182.05,34Z"/><path class="cls-16" d="M80.8,218.11l1,4a4.53,4.53,0,0,0,1.64,2.64A15.92,15.92,0,0,0,88,227c-2.92,2.61-7,0-9.36-1.93a6.22,6.22,0,0,1-2.1-3.94l-.32-3Z"/><path class="cls-20" d="M76.3,220.17s-2,1.62-1.79,3.69.26,6.92.26,6.92h1.89l.3-4.52c0-.3,3.69,4.52,4.38,4.52h10s.91-3.05-4.89-4S76.3,220.17,76.3,220.17Z"/><path class="cls-19" d="M75.33,105.28c9.55,64.56,6,113.08,6,113.08l-5.6.13s-7.08-23.68-7.3-43.38a37.91,37.91,0,0,0-1.6-9.06c-5.77-22.44-9.67-49.1-9.67-49.1l8.74-11.67h9.4Z"/><path class="cls-16" d="M50.63,218.11l1.36,4a5,5,0,0,0,1.84,2.64A17.68,17.68,0,0,0,58.5,227c-2.72,2.61-7,0-9.52-1.93a6.9,6.9,0,0,1-2.41-3.94l-.57-3Z"/><path class="cls-20" d="M46.29,220.17a4.57,4.57,0,0,0-1.5,3.69c.34,2.07.82,6.92.82,6.92H47.5l-.06-4.52c0-.3,4.05,4.52,4.74,4.52h10s.66-3.05-5.21-4S46.29,220.17,46.29,220.17Z"/><path class="cls-19" d="M53.82,106s-10.45,10.34-3.48,57.32a21.92,21.92,0,0,1-.56,8.72c-3.6,13.75-4,46.47-4,46.47h5.61s11.11-42.64,17-77.24c2.51-14.64,4.6-25.22,3-36C60.1,105.28,53.82,106,53.82,106Z"/><path class="cls-16" d="M93.93,54.1C93.6,53.36,91.09,51.67,90,51a1.39,1.39,0,0,0-1.55,0c-1.51,1.11-2.77,4.43-2.77,4.43L87.29,62,78.5,78.56s-1.73-5.72-4-15.93-13.39-8.06-13.39-8.06,5.48,37.06,14.78,36.64S91.28,62.63,91.28,62.63l1.24-4.79,1.34-2.6A1.28,1.28,0,0,0,93.93,54.1Z"/><path class="cls-21" d="M57.87,47.05c6.57,0,8.1,1,8.1,1s8.42,10.43,11.35,17.18a9.65,9.65,0,0,1,0,7.91c-5.17,11.14-2,32.18-2,32.18s-16.48.42-21.74.42C54.44,89.71,37.93,50.08,57.87,47.05Z"/><polygon class="cls-16" points="66.94 42.54 66.96 55.12 59.41 46.89 60.22 35.18 66.94 42.54"/><path class="cls-20" d="M68.2,24.15c-5.23.72-7.74,5.43-7.74,5.43L64,53.89l-9.88-5.65S50.7,34.62,52.93,24.87c1.94-6.15,9.77-7.77,15.27-4.77,2.67,1.46,4.26,4.32,5.21,7.16A22.8,22.8,0,0,1,74,39.11L70.83,53.67,67,49.83a15.87,15.87,0,0,1,0-7.29C68.94,35.23,71.71,23.68,68.2,24.15Z"/><path class="cls-16" d="M71.16,24.87l-4.67-2.16-5.93,4.06-.19,4.8a1.56,1.56,0,0,0-1.54.28,1.6,1.6,0,0,0,.32,2.3,2.31,2.31,0,0,0,1.09.55l0,.48A7.05,7.05,0,0,0,62.87,41a11.28,11.28,0,0,0,6.26,1.73,4.06,4.06,0,0,0,2.44-.64C74.49,37.42,71.16,24.87,71.16,24.87Z"/><path class="cls-20" d="M66.23,21.06s2.77,1.78,3,2.41c1.12,3.75-8.82,8.1-8.82,8.1l-2.5-4.68"/><path class="cls-20" d="M69.25,24.26c.21,1.48,2.52,3.27,2.52,3.27L72,25.76l-.52-1.24-1.19-.66S69,22.78,69.25,24.26Z"/><path class="cls-16" d="M110.52,84.18,79.39,72.07a9.8,9.8,0,0,1-3.09-2.29c-4.71-5.16-17.81-22.67-24.67-15.59s12.19,20,18.74,24.23a13.65,13.65,0,0,0,3.82,1.7l34.63,7.42,0,0"/><path class="cls-22" d="M110.13,84a15.81,15.81,0,0,0,3.66.69c.51,0,5.17.66,5.56.84a30.73,30.73,0,0,1,3.16,4c.21.4,0,1.14-1.17.81a1,1,0,0,1-1.45.45,1.32,1.32,0,0,1-1.23.82,1.69,1.69,0,0,1-1.38.29,17.18,17.18,0,0,0-2.1-1.8,23.78,23.78,0,0,1-3.6-1.33c-1-.56-2.89-1.2-3.11-1.32"/><path class="cls-11" d="M118.07,92c-.56.19-1.72.36-1.84.19s-1.42-.1-1.46-.94c-1.19,0-1.34-.72-1.33-1-.62-.37-1.06-.24-.84-.71a.83.83,0,0,1,1.2-.32,1.2,1.2,0,0,1,1.59.77c.69-.19,1.31,0,1.41.66.63.19,1.37,0,1.3.6A3.46,3.46,0,0,0,118.07,92Z"/></g></svg>