<svg xmlns="http://www.w3.org/2000/svg" viewBox="0 0 97.38 76.75"><defs><style>.cls-1{fill:#f3fafd;fill-rule:evenodd;}.cls-2,.cls-4{fill:#fff;}.cls-3{opacity:0.7;}.cls-4,.cls-7{stroke:#143f5d;}.cls-4,.cls-5,.cls-7{stroke-width:0.5px;}.cls-5{fill:none;stroke:#13405d;stroke-miterlimit:10;}.cls-6{fill:#9ac5d9;}.cls-7,.cls-9{fill:#cfd9e2;}.cls-8{fill:#e0e7ed;}</style></defs><title>Informasi Perusahaan_250319</title><g id="Tutorial"><path class="cls-1" d="M19.83,1.86c9-3.77,22.51-1.25,27.92,2.53C54,8.72,60.14,13.25,64.61,14.54,73.36,17.07,82.79,11.05,93,23c9,10.48,3.45,32.15-10.67,37.85C71,65.46,63,71.66,37.75,67.76c-21.9-3.4-47.56-29.57-33.95-53C7.68,8.06,11,5.55,19.83,1.86Z"/><polygon class="cls-2" points="55.96 23.84 55.95 23.86 55.95 23.84 55.96 23.84"/><polygon class="cls-2" points="66.03 23.84 66.03 23.86 66.02 23.84 66.03 23.84"/><path class="cls-2" d="M69,29.26l.31-.18V32.8l-3.73,2.93v-4.5h0l-1.94-3.09H58.34l-2,3.1v4.49L52.66,32.8V29.08L56,23.86v0h.83v-4.2a3.51,3.51,0,0,1,.11-.92l-8.78-7.07h0A2.61,2.61,0,0,1,47,11.4L30.56,16.27l-.27.08-.14.29-7,14.89-.56,1.19V47.79a4.8,4.8,0,0,1,2.17,5.7h3.37v23H12.25v-23h3.37a4.8,4.8,0,0,1,2.16-5.69V32.3a2.59,2.59,0,0,1-.07-.63,2.69,2.69,0,0,1,1.08-2.17l7-14.9v-.13a2.73,2.73,0,0,1,2.73-2.73h.3L46.69,6.46l0,.11a2.7,2.7,0,0,1,2.71-.05l.74.59h0l10.37,8.34.44,0a4.2,4.2,0,0,1,4.2,4.2v4.2H66v0l3.28,5.2Z"/><path class="cls-2" d="M23.17,31.53v.14a2.72,2.72,0,0,1-.56,1.66v-.61Z"/><path class="cls-2" d="M23.17,31.53v.14a2.72,2.72,0,0,1-.56,1.66v-.61Z"/><path class="cls-2" d="M30.56,16.27a2.05,2.05,0,0,1-.41.37l.14-.29Z"/><path class="cls-2" d="M30.56,16.27a2.05,2.05,0,0,1-.41.37l.14-.29Z"/><path class="cls-2" d="M50.17,7.11l-.74-.59A2.64,2.64,0,0,1,50.17,7.11Z"/><path class="cls-2" d="M50.17,7.11l-.74-.59A2.64,2.64,0,0,1,50.17,7.11Z"/><path class="cls-2" d="M76,63.75a6.58,6.58,0,0,0,0-13.16h-.69V46.66H66.5v3.93H63V46.66h-8.8v3.93H50.67V46.66h-8.8v3.93h-.68a6.58,6.58,0,0,0,0,13.16h1.75V74.14H38.81v2.37H78.35V74.14H74.7V63.75ZM72.33,74.14h-27V63.75h27Z"/><g class="cls-3"><rect class="cls-4" x="72.33" y="63.75" width="2.37" height="11.03"/><rect class="cls-5" x="72.33" y="63.75" width="2.37" height="11.03"/><polygon class="cls-6" points="55.95 23.84 55.96 23.84 55.95 23.86 55.95 23.84"/><polygon class="cls-6" points="66.03 23.84 66.03 23.86 66.02 23.84 66.03 23.84"/><rect class="cls-7" x="17.78" y="31.67" width="4.83" height="20.23"/><rect class="cls-5" x="17.78" y="31.67" width="4.83" height="20.23"/><rect class="cls-7" x="22.19" y="12.65" width="4.83" height="20.23" transform="translate(11.99 -8.29) rotate(25.12)"/><rect class="cls-5" x="22.19" y="12.65" width="4.83" height="20.23" transform="translate(11.99 -8.29) rotate(25.12)"/><rect class="cls-7" x="35.26" y="1.53" width="4.83" height="20.23" transform="translate(38.14 -27.79) rotate(73.51)"/><rect class="cls-5" x="35.26" y="1.53" width="4.83" height="20.23" transform="translate(38.14 -27.79) rotate(73.51)"/><rect class="cls-7" x="51.94" y="5.31" width="4.83" height="16.53" transform="translate(99.02 -20.25) rotate(128.84)"/><rect class="cls-5" x="51.94" y="5.31" width="4.83" height="16.53" transform="translate(99.02 -20.25) rotate(128.84)"/><rect class="cls-7" x="12.25" y="58.73" width="15.89" height="17.77"/><rect class="cls-8" x="12.25" y="53.49" width="15.89" height="5.24"/><rect class="cls-5" x="12.25" y="58.73" width="15.89" height="17.77"/><rect class="cls-5" x="12.25" y="53.49" width="15.89" height="5.24"/><circle class="cls-8" cx="20.2" cy="51.97" r="4.83"/><circle class="cls-9" cx="20.2" cy="51.97" r="2.44"/><circle class="cls-5" cx="20.2" cy="51.97" r="4.83"/><circle class="cls-8" cx="20.44" cy="31.67" r="2.73"/><circle class="cls-5" cx="20.44" cy="31.67" r="2.73"/><path class="cls-8" d="M61,15.43h0a4.2,4.2,0,0,1,4.2,4.2v4.2a0,0,0,0,1,0,0h-8.4a0,0,0,0,1,0,0v-4.2A4.2,4.2,0,0,1,61,15.43Z"/><path class="cls-5" d="M61,15.43h0a4.2,4.2,0,0,1,4.2,4.2v4.2a0,0,0,0,1,0,0h-8.4a0,0,0,0,1,0,0v-4.2A4.2,4.2,0,0,1,61,15.43Z"/><polygon class="cls-8" points="69 29.25 69.31 29.08 69.31 32.8 65.58 35.73 65.58 31.23 65.59 31.23 63.64 28.14 58.34 28.14 56.38 31.24 56.38 35.73 52.66 32.79 52.66 29.08 55.95 23.86 55.96 23.84 66.02 23.84 66.03 23.86 69.31 29.06 69 29.25"/><polygon class="cls-5" points="69 29.25 69.31 29.08 69.31 32.8 65.58 35.73 65.58 31.23 65.59 31.23 63.64 28.14 58.34 28.14 56.38 31.24 56.38 35.73 52.66 32.79 52.66 29.08 55.95 23.86 55.96 23.84 66.02 23.84 66.03 23.86 69.31 29.06 69 29.25"/><circle class="cls-8" cx="28.5" cy="14.47" r="2.73"/><circle class="cls-5" cx="28.5" cy="14.47" r="2.73"/><circle class="cls-8" cx="48.11" cy="8.91" r="2.73"/><circle class="cls-5" cx="48.11" cy="8.91" r="2.73"/><rect class="cls-4" x="42.94" y="63.75" width="2.37" height="11.03"/><rect class="cls-5" x="42.94" y="63.75" width="2.37" height="11.03"/><rect class="cls-4" x="41.87" y="46.65" width="8.79" height="3.93"/><rect class="cls-4" x="54.18" y="46.65" width="8.79" height="3.93"/><rect class="cls-4" x="66.49" y="46.65" width="8.79" height="3.93"/><rect class="cls-5" x="41.87" y="46.65" width="8.79" height="3.93"/><rect class="cls-5" x="54.18" y="46.65" width="8.79" height="3.93"/><rect class="cls-5" x="66.49" y="46.65" width="8.79" height="3.93"/><rect class="cls-8" x="34.61" y="50.59" width="47.95" height="13.16" rx="6.58"/><path class="cls-9" d="M41.19,62.24a5.07,5.07,0,1,1,0-10.14H76a5.07,5.07,0,0,1,0,10.14Z"/><circle class="cls-8" cx="42.1" cy="57.17" r="2.22"/><circle class="cls-8" cx="57.93" cy="57.17" r="2.22"/><circle class="cls-8" cx="74.93" cy="57.17" r="2.22"/><rect class="cls-5" x="34.61" y="50.59" width="47.95" height="13.16" rx="6.58"/><rect class="cls-4" x="57.4" y="55.55" width="2.37" height="39.54" transform="translate(133.9 16.74) rotate(90)"/><rect class="cls-5" x="57.4" y="55.55" width="2.37" height="39.54" transform="translate(133.9 16.74) rotate(90)"/></g></g></svg>