<svg xmlns="http://www.w3.org/2000/svg" viewBox="0 0 97.38 76.75"><defs><style>.cls-1{fill:#f3fafd;fill-rule:evenodd;}.cls-2{fill:#9ac5d9;}.cls-3{fill:#d0e4f3;}.cls-4{fill:none;stroke:#133f5d;stroke-miterlimit:10;stroke-width:0.5px;}.cls-5{fill:#86bfe8;}.cls-6{fill:#6cb0e3;}.cls-7{fill:#cfe3ae;}</style></defs><title>Informasi Perusahaan_250319</title><g id="Tutorial"><path class="cls-1" d="M19.83,1.86c9-3.77,22.51-1.25,27.92,2.53C54,8.72,60.14,13.25,64.61,14.54,73.36,17.07,82.79,11.05,93,23c9,10.48,3.45,32.15-10.67,37.85C71,65.46,63,71.66,37.75,67.76c-21.9-3.4-47.56-29.57-33.95-53C7.68,8.06,11,5.55,19.83,1.86Z"/><polygon class="cls-2" points="55.95 23.84 55.96 23.84 55.95 23.86 55.95 23.84"/><rect class="cls-3" x="17.78" y="31.67" width="4.83" height="20.23"/><rect class="cls-4" x="17.78" y="31.67" width="4.83" height="20.23"/><rect class="cls-3" x="22.2" y="12.65" width="4.83" height="20.23" transform="translate(11.99 -8.29) rotate(25.12)"/><rect class="cls-4" x="22.2" y="12.65" width="4.83" height="20.23" transform="translate(11.99 -8.29) rotate(25.12)"/><rect class="cls-3" x="35.26" y="1.53" width="4.83" height="20.23" transform="translate(38.15 -27.79) rotate(73.51)"/><rect class="cls-4" x="35.26" y="1.53" width="4.83" height="20.23" transform="translate(38.15 -27.79) rotate(73.51)"/><rect class="cls-3" x="51.94" y="5.31" width="4.83" height="16.53" transform="translate(99.02 -20.25) rotate(128.84)"/><rect class="cls-4" x="51.94" y="5.31" width="4.83" height="16.53" transform="translate(99.02 -20.25) rotate(128.84)"/><polygon class="cls-2" points="55.95 23.84 55.96 23.84 55.95 23.86 55.95 23.84"/><rect class="cls-3" x="17.78" y="31.67" width="4.83" height="20.23"/><rect class="cls-4" x="17.78" y="31.67" width="4.83" height="20.23"/><rect class="cls-3" x="22.2" y="12.65" width="4.83" height="20.23" transform="translate(11.99 -8.29) rotate(25.12)"/><rect class="cls-4" x="22.2" y="12.65" width="4.83" height="20.23" transform="translate(11.99 -8.29) rotate(25.12)"/><rect class="cls-3" x="35.26" y="1.53" width="4.83" height="20.23" transform="translate(38.15 -27.79) rotate(73.51)"/><rect class="cls-4" x="35.26" y="1.53" width="4.83" height="20.23" transform="translate(38.15 -27.79) rotate(73.51)"/><rect class="cls-3" x="51.94" y="5.31" width="4.83" height="16.53" transform="translate(99.02 -20.25) rotate(128.84)"/><rect class="cls-4" x="51.94" y="5.31" width="4.83" height="16.53" transform="translate(99.02 -20.25) rotate(128.84)"/><rect class="cls-5" x="42.94" y="63.75" width="2.37" height="11.03"/><rect class="cls-4" x="42.94" y="63.75" width="2.37" height="11.03"/><rect class="cls-5" x="72.33" y="63.75" width="2.37" height="11.03"/><rect class="cls-4" x="72.33" y="63.75" width="2.37" height="11.03"/><rect class="cls-5" x="34.6" y="50.59" width="47.95" height="13.16" rx="6.58"/><path class="cls-6" d="M41.18,62.24a5.07,5.07,0,1,1,0-10.14H76a5.07,5.07,0,0,1,0,10.14Z"/><circle class="cls-5" cx="42.09" cy="57.17" r="2.22"/><circle class="cls-5" cx="57.93" cy="57.17" r="2.22"/><circle class="cls-5" cx="74.93" cy="57.17" r="2.22"/><rect class="cls-7" x="41.87" y="46.65" width="8.79" height="3.93"/><rect class="cls-7" x="54.18" y="46.65" width="8.79" height="3.93"/><rect class="cls-7" x="66.49" y="46.65" width="8.79" height="3.93"/><rect class="cls-4" x="41.87" y="46.65" width="8.79" height="3.93"/><rect class="cls-4" x="54.18" y="46.65" width="8.79" height="3.93"/><rect class="cls-4" x="66.49" y="46.65" width="8.79" height="3.93"/><rect class="cls-4" x="34.6" y="50.59" width="47.95" height="13.16" rx="6.58"/><rect class="cls-5" x="57.4" y="55.55" width="2.37" height="39.54" transform="translate(133.9 16.74) rotate(90)"/><rect class="cls-4" x="57.4" y="55.55" width="2.37" height="39.54" transform="translate(133.9 16.74) rotate(90)"/><circle class="cls-5" cx="48.11" cy="8.91" r="2.73"/><circle class="cls-4" cx="48.11" cy="8.91" r="2.73"/><circle class="cls-5" cx="28.5" cy="14.47" r="2.73"/><circle class="cls-4" cx="28.5" cy="14.47" r="2.73"/><circle class="cls-5" cx="20.44" cy="31.67" r="2.73"/><circle class="cls-4" cx="20.44" cy="31.67" r="2.73"/><rect class="cls-5" x="12.25" y="58.73" width="15.89" height="17.77"/><rect class="cls-5" x="12.25" y="53.49" width="15.89" height="5.24"/><rect class="cls-4" x="12.25" y="58.73" width="15.89" height="17.77"/><rect class="cls-4" x="12.25" y="53.49" width="15.89" height="5.24"/><circle class="cls-5" cx="20.2" cy="51.97" r="4.83"/><circle class="cls-6" cx="20.2" cy="51.97" r="2.44"/><circle class="cls-4" cx="20.2" cy="51.97" r="4.83"/><polygon class="cls-2" points="66.03 23.84 66.03 23.86 66.02 23.84 66.03 23.84"/><path class="cls-5" d="M61,15.43h0a4.2,4.2,0,0,1,4.2,4.2v4.2a0,0,0,0,1,0,0h-8.4a0,0,0,0,1,0,0v-4.2A4.2,4.2,0,0,1,61,15.43Z"/><path class="cls-4" d="M61,15.43h0a4.2,4.2,0,0,1,4.2,4.2v4.2a0,0,0,0,1,0,0h-8.4a0,0,0,0,1,0,0v-4.2A4.2,4.2,0,0,1,61,15.43Z"/><polygon class="cls-5" points="69 29.25 69.31 29.08 69.31 32.8 65.58 35.73 65.58 31.23 65.59 31.23 63.65 28.14 58.34 28.14 56.38 31.24 56.38 35.73 52.66 32.79 52.66 29.08 55.95 23.86 55.96 23.84 66.02 23.84 66.03 23.86 69.31 29.06 69 29.25"/><polygon class="cls-4" points="69.31 29.08 69.31 32.8 65.58 35.73 65.58 31.23 65.59 31.23 63.65 28.14 58.34 28.14 56.38 31.24 56.38 35.73 52.66 32.79 52.66 29.08 55.95 23.86 55.96 23.84 66.02 23.84 66.03 23.86 69.31 29.06 69.31 29.08"/><polygon class="cls-2" points="66.03 23.84 66.03 23.86 66.02 23.84 66.03 23.84"/></g></svg>