<svg id="Layer_1" data-name="Layer 1" xmlns="http://www.w3.org/2000/svg" viewBox="0 0 15.94 17.04"><defs><style>.cls-1{fill:#8bbd37;opacity:0.1;}.cls-2{fill:#fff;}.cls-3{fill:none;stroke:#a5ce5e;stroke-linecap:round;stroke-linejoin:round;}</style></defs><title>Icon Shield</title><path class="cls-1" d="M8,16.54s7.85-1,7.45-12.88c0,0-1.25-1.6-7.45-3.16C1.77,2.06.51,3.66.51,3.66.12,15.49,8,16.54,8,16.54Z"/><path class="cls-2" d="M8,16.54s7.85-1,7.45-12.88c0,0-1.25-1.6-7.45-3.16C1.77,2.06.51,3.66.51,3.66.12,15.49,8,16.54,8,16.54Z"/><path class="cls-3" d="M8,16.54S.12,15.49.51,3.66c0,0,1.26-1.6,7.46-3.16,6.2,1.56,7.45,3.16,7.45,3.16C15.82,15.49,8,16.54,8,16.54Z"/><path class="cls-1" d="M8,.5v16S.12,15.49.51,3.66C.51,3.66,1.77,2.06,8,.5Z"/><polyline class="cls-3" points="5.36 8.52 6.97 10.13 10.58 6.52"/></svg>