<svg xmlns="http://www.w3.org/2000/svg" viewBox="0 0 97.38 80.34"><defs><style>.cls-1{fill:#f3fafd;fill-rule:evenodd;}.cls-2{fill:#cfe3ae;}.cls-3{fill:none;stroke:#133f5d;stroke-miterlimit:10;stroke-width:0.5px;}.cls-4{fill:#86bfe8;}.cls-5{fill:#d0e4f3;}</style></defs><title>Informasi Perusahaan_250319</title><g id="Tutorial"><path class="cls-1" d="M19.83,1.86c9-3.77,22.51-1.25,27.92,2.53C54,8.72,60.14,13.25,64.61,14.54,73.36,17.07,82.79,11.05,93,23c9,10.48,3.45,32.15-10.67,37.85C71,65.46,63,71.66,37.75,67.76c-21.9-3.4-47.56-29.57-33.95-53C7.68,8.06,11,5.55,19.83,1.86Z"/><path class="cls-2" d="M45,45.15a19,19,0,1,0-24.35,11.3A19,19,0,0,0,45,45.15ZM30,25.1a1.93,1.93,0,1,1,1.14,2.48A1.93,1.93,0,0,1,30,25.1Zm-10.49.68a1.93,1.93,0,1,1,1.14,2.47A1.92,1.92,0,0,1,19.46,25.78Zm-6.87,7.53a1.93,1.93,0,1,1,1.15,2.48A1.93,1.93,0,0,1,12.59,33.31Zm6.7,2.41a8.43,8.43,0,1,1,5,10.83A8.44,8.44,0,0,1,19.29,35.72Zm-6.38,7.94a1.93,1.93,0,1,1,1.15,2.48A1.94,1.94,0,0,1,12.91,43.66Zm7.66,7.05a1.93,1.93,0,1,1,1.15,2.48A1.94,1.94,0,0,1,20.57,50.71Z"/><path class="cls-3" d="M45,45.15a19,19,0,1,0-24.35,11.3A19,19,0,0,0,45,45.15ZM30,25.1a1.93,1.93,0,1,1,1.14,2.48A1.93,1.93,0,0,1,30,25.1Zm-10.49.68a1.93,1.93,0,1,1,1.14,2.47A1.92,1.92,0,0,1,19.46,25.78Zm-6.87,7.53a1.93,1.93,0,1,1,1.15,2.48A1.93,1.93,0,0,1,12.59,33.31Zm6.7,2.41a8.43,8.43,0,1,1,5,10.83A8.44,8.44,0,0,1,19.29,35.72Zm-6.38,7.94a1.93,1.93,0,1,1,1.15,2.48A1.94,1.94,0,0,1,12.91,43.66Zm7.66,7.05a1.93,1.93,0,1,1,1.15,2.48A1.94,1.94,0,0,1,20.57,50.71Z"/><path class="cls-4" d="M70,35.1l-6.78-4.2-3.09,5a19.92,19.92,0,0,0-7.4-1.2L51.41,29l-7.76,1.82L45,36.5a19.72,19.72,0,0,0-6.09,4.38l-5-3.09-4.2,6.78,5,3.09a19.75,19.75,0,0,0-1.21,7.41l-5.71,1.34,1.82,7.76,5.72-1.34a19.69,19.69,0,0,0,4.37,6.09l-3.08,5,6.77,4.2,3.09-5a19.78,19.78,0,0,0,7.41,1.21L55.22,80,63,78.22l-1.34-5.71a19.64,19.64,0,0,0,6.1-4.38l5,3.09,4.2-6.78-5-3.09a19.57,19.57,0,0,0,1.2-7.41l5.72-1.34L77,44.84l-5.71,1.34a19.76,19.76,0,0,0-4.38-6.1ZM58.81,57.91A6.46,6.46,0,1,1,56.72,49,6.48,6.48,0,0,1,58.81,57.91Z"/><path class="cls-3" d="M70,35.1l-6.78-4.2-3.09,5a19.92,19.92,0,0,0-7.4-1.2L51.41,29l-7.76,1.82L45,36.5a19.72,19.72,0,0,0-6.09,4.38l-5-3.09-4.2,6.78,5,3.09a19.75,19.75,0,0,0-1.21,7.41l-5.71,1.34,1.82,7.76,5.72-1.34a19.69,19.69,0,0,0,4.37,6.09l-3.08,5,6.77,4.2,3.09-5a19.78,19.78,0,0,0,7.41,1.21L55.22,80,63,78.22l-1.34-5.71a19.64,19.64,0,0,0,6.1-4.38l5,3.09,4.2-6.78-5-3.09a19.57,19.57,0,0,0,1.2-7.41l5.72-1.34L77,44.84l-5.71,1.34a19.76,19.76,0,0,0-4.38-6.1ZM58.81,57.91A6.46,6.46,0,1,1,56.72,49,6.48,6.48,0,0,1,58.81,57.91Z"/><path class="cls-5" d="M89.16,36.72l-1.49-4.4-3.24,1.1a11.55,11.55,0,0,0-2.88-3.29l1.51-3.06L78.89,25l-1.51,3.07a11.59,11.59,0,0,0-4.36-.3l-1.1-3.23L67.52,26l1.09,3.24a11.51,11.51,0,0,0-3.28,2.88l-3.07-1.51L60.2,34.81l3.07,1.52A11.37,11.37,0,0,0,63,40.69l-3.24,1.1,1.49,4.4,3.24-1.1a11.7,11.7,0,0,0,2.88,3.29l-1.51,3.06L70,53.5l1.51-3.07a11.59,11.59,0,0,0,4.36.3L77,54l4.4-1.49-1.09-3.24a11.51,11.51,0,0,0,3.28-2.88l3.07,1.51L88.7,43.7l-3.07-1.52a11.37,11.37,0,0,0,.29-4.36Zm-12.79,8.2a6,6,0,1,1,3.74-7.58A6,6,0,0,1,76.37,44.92Z"/><path class="cls-3" d="M89.16,36.72l-1.49-4.4-3.24,1.1a11.55,11.55,0,0,0-2.88-3.29l1.51-3.06L78.89,25l-1.51,3.07a11.59,11.59,0,0,0-4.36-.3l-1.1-3.23L67.52,26l1.09,3.24a11.51,11.51,0,0,0-3.28,2.88l-3.07-1.51L60.2,34.81l3.07,1.52A11.37,11.37,0,0,0,63,40.69l-3.24,1.1,1.49,4.4,3.24-1.1a11.7,11.7,0,0,0,2.88,3.29l-1.51,3.06L70,53.5l1.51-3.07a11.59,11.59,0,0,0,4.36.3L77,54l4.4-1.49-1.09-3.24a11.51,11.51,0,0,0,3.28-2.88l3.07,1.51L88.7,43.7l-3.07-1.52a11.37,11.37,0,0,0,.29-4.36Zm-12.79,8.2a6,6,0,1,1,3.74-7.58A6,6,0,0,1,76.37,44.92Z"/></g></svg>