<svg id="Layer_1" data-name="Layer 1" xmlns="http://www.w3.org/2000/svg" xmlns:xlink="http://www.w3.org/1999/xlink" viewBox="0 0 363 103.31"><defs><style>.cls-1{fill:none;}.cls-2{clip-path:url(#clip-path);}.cls-3{fill:#87c3ea;}.cls-3,.cls-7{opacity:0.1;}.cls-4{opacity:0.7;}.cls-5{clip-path:url(#clip-path-2);}.cls-6,.cls-7{fill:#fff;isolation:isolate;}.cls-6{opacity:0.15;}</style><clipPath id="clip-path"><rect class="cls-1" width="363" height="103.31"/></clipPath><clipPath id="clip-path-2"><rect class="cls-1" x="379.72" y="21.04" width="362.57" height="77.79"/></clipPath></defs><title>Onboarding Ionic Paper - 210519</title><g class="cls-2"><path class="cls-3" d="M458.3,54S346-43.49,259.92,32.44s-142.54-49.28-217.1,19-144-37.2-207.14,9.9L-160.1,125S-83.53,108.23,55,106.72C199.15,105.14,283.64,129,409.82,98.2S557.23,29.94,557.23,29.94L465.46,53Z"/><path class="cls-3" d="M507.45,70.37C483.08,111.7,370,22,266.78,42.23S68.69,109.78,8.46,71.33s-80.05-98.41-146-37.86-56.17,139.74-56.17,139.74l675.36,1.93Z"/></g><g class="cls-4"><g class="cls-5"><g id="g12693" class="cls-4"><path id="path12689" class="cls-6" d="M348.91,68.19S425.87-20,484.8,48.72,582.44,4.14,633.51,65.87s98.67-33.65,141.89,9l-2.9,57.6s-56,17.39-147.32-16.52S468.55,136,382.12,108.2s-101-61.74-101-61.74L344,67.32Z"/><path id="path12691" class="cls-7" d="M315.25,97.22C331.94,134.6,409.39,53.5,480.1,71.76S615.79,132.87,657,98.09s54.84-89,100-34.25,38.47,126.41,38.47,126.41L332.93,192Z"/></g></g></g></svg>