<?xml version="1.0" encoding="utf-8"?>
<!-- Generator: Adobe Illustrator 23.0.0, SVG Export Plug-In . SVG Version: 6.00 Build 0)  -->
<svg version="1.1" id="Layer_1" xmlns="http://www.w3.org/2000/svg" xmlns:xlink="http://www.w3.org/1999/xlink" x="0px" y="0px"
	 viewBox="0 0 362.6 77.8" style="enable-background:new 0 0 362.6 77.8;" xml:space="preserve">
<style type="text/css">
	.st0{opacity:0.7;}
	.st1{clip-path:url(#SVGID_2_);}
	.st2{opacity:0.15;fill:#FFFFFF;enable-background:new    ;}
	.st3{opacity:0.1;fill:#FFFFFF;enable-background:new    ;}
</style>
<g class="st0">
	<g>
		<defs>
			<rect id="SVGID_1_" y="0" width="362.6" height="77.8"/>
		</defs>
		<clipPath id="SVGID_2_">
			<use xlink:href="#SVGID_1_"  style="overflow:visible;"/>
		</clipPath>
		<g class="st1">
			<g id="g12693" class="st0">
				<path id="path12689" class="st2" d="M-30.8,47.2c0,0,76.9-88.2,135.9-19.5s97.6-44.6,148.7,17.1s98.7-33.7,141.9,9l-2.9,57.6
					c0,0-56,17.4-147.3-16.5S88.8,115,2.4,87.2s-101-61.8-101-61.8l62.9,20.9L-30.8,47.2z"/>
				<path id="path12691" class="st3" d="M-64.5,76.2c16.7,37.4,94.1-43.7,164.9-25.5s135.7,61.1,176.9,26.3s54.8-89,100-34.2
					s38.5,126.4,38.5,126.4L-46.8,171L-64.5,76.2z"/>
			</g>
		</g>
	</g>
</g>
</svg>
