<?xml version="1.0" encoding="utf-8"?>
<!-- Generator: Adobe Illustrator 23.0.0, SVG Export Plug-In . SVG Version: 6.00 Build 0)  -->
<svg version="1.1" baseProfile="basic" id="Layer_1"
	 xmlns="http://www.w3.org/2000/svg" xmlns:xlink="http://www.w3.org/1999/xlink" x="0px" y="0px" viewBox="0 0 31.2 31.2"
	 xml:space="preserve">
<g>
	<path fill="#E0F3FD" stroke="#4299D4" stroke-width="1.3" stroke-linecap="round" stroke-miterlimit="10" d="M30.5,14.6
		c0,2.2-0.5,4.3-1.5,6.2c-2.4,4.7-7.2,7.7-12.4,7.7c-2.2,0-4.3-0.5-6.2-1.5L1,30.1l3.1-9.3c-1-1.9-1.5-4.1-1.5-6.2
		c0-5.3,3-10.1,7.7-12.4c1.9-1,4.1-1.5,6.2-1.5h0.8c7.1,0.4,12.7,6,13.1,13.1V14.6z"/>
	<g>
		<path fill="#4299D4" d="M12.7,9c0.2-0.2,0.5-0.4,0.7-0.6C13.7,8.3,14,8.1,14.3,8c0.3-0.1,0.6-0.2,1-0.3s0.8-0.1,1.2-0.1
			c0.6,0,1.1,0.1,1.6,0.2s0.9,0.4,1.2,0.7s0.6,0.6,0.8,1.1c0.2,0.4,0.3,0.9,0.3,1.4c0,0.5-0.1,0.9-0.2,1.3c-0.1,0.4-0.3,0.7-0.5,0.9
			c-0.2,0.3-0.5,0.5-0.7,0.7c-0.3,0.2-0.5,0.4-0.7,0.6c-0.2,0.2-0.4,0.3-0.6,0.5s-0.3,0.4-0.3,0.6l-0.2,1.4h-1.7l-0.2-1.6
			c0,0,0-0.1,0-0.1s0-0.1,0-0.1c0-0.3,0.1-0.5,0.2-0.8s0.3-0.4,0.5-0.6c0.2-0.2,0.4-0.4,0.7-0.5s0.5-0.4,0.7-0.6
			c0.2-0.2,0.4-0.4,0.5-0.7c0.1-0.3,0.2-0.6,0.2-0.9c0-0.2,0-0.4-0.1-0.6c-0.1-0.2-0.2-0.3-0.4-0.5s-0.3-0.2-0.6-0.3
			c-0.2-0.1-0.5-0.1-0.7-0.1c-0.4,0-0.7,0-0.9,0.1s-0.5,0.2-0.7,0.3c-0.2,0.1-0.3,0.2-0.5,0.3c-0.1,0.1-0.2,0.1-0.3,0.1
			c-0.2,0-0.4-0.1-0.5-0.3L12.7,9z M14.5,20.6c0-0.2,0-0.4,0.1-0.6c0.1-0.2,0.2-0.3,0.3-0.5c0.1-0.1,0.3-0.2,0.5-0.3
			s0.4-0.1,0.6-0.1c0.2,0,0.4,0,0.6,0.1s0.3,0.2,0.5,0.3c0.1,0.1,0.2,0.3,0.3,0.5c0.1,0.2,0.1,0.4,0.1,0.6c0,0.2,0,0.4-0.1,0.6
			c-0.1,0.2-0.2,0.3-0.3,0.5c-0.1,0.1-0.3,0.2-0.5,0.3s-0.4,0.1-0.6,0.1c-0.2,0-0.4,0-0.6-0.1s-0.3-0.2-0.5-0.3
			c-0.1-0.1-0.2-0.3-0.3-0.5C14.6,21,14.5,20.8,14.5,20.6z"/>
	</g>
</g>
</svg>
