<svg xmlns="http://www.w3.org/2000/svg" baseProfile="tiny" width="14" height="18" viewBox="0 0 13.839 17.107"><path d="M280.534-43.378H270.34c-1.048 0-1.9-.854-1.9-1.904v-6.797c0-1.05.852-1.904 1.9-1.904h10.194c1.045 0 1.897.854 1.897 1.904v6.797c-.001 1.05-.852 1.904-1.897 1.904zM270.34-52.44c-.205 0-.37.163-.37.362v6.797c0 .2.167.363.37.363h10.194c.203 0 .367-.164.367-.363v-6.797c0-.2-.164-.362-.367-.362H270.34zm1.02 2.126h8.15v1.327h-8.15z" transform="matrix(.653899 0 0 .648254 -173.18724 43.403478)" fill="#f2f7f9"/><g fill="#f2f7f9"><path d="M11.735 17.108h-9.63A2.11 2.11 0 0 1 0 14.998v-9.87L5.108 0h6.627a2.11 2.11 0 0 1 2.104 2.112v12.886a2.11 2.11 0 0 1-2.104 2.11zM1 5.54V15a1.11 1.11 0 0 0 1.104 1.109h9.63a1.11 1.11 0 0 0 1.104-1.109V2.113A1.11 1.11 0 0 0 11.735 1H5.523L1 5.54z"/><path d="M5.815 5.834H.5v-1h4.315V.5h1z"/></g></svg>