<svg xmlns="http://www.w3.org/2000/svg" width="17" height="17" viewBox="0 0 4.479 4.479"><style><![CDATA[.B{stroke-width:.264}.C{stroke-width:.265}]]></style><g transform="matrix(.909477 0 0 .909477 331.973453 -165.8883)" fill="none" stroke="#f1f6f9" stroke-width=".291"><circle cx="-565.003" cy="-4.064" r="2.646"/><path d="M-563.88-5.185l-.56 1.683-1.683.56.56-1.683z"/></g><g fill="none" stroke="#f1f6f9"><path d="M22.358 53.168h-1.623c-.224 0-.406.182-.406.407v3.258c0 .225.182.407.406.407h2.435c.108 0 .21-.043.287-.12a.41.41 0 0 0 .119-.288V54.39z" class="B"/><path d="M22.358 53.168v1.222h1.217" class="C"/><path d="M22.764 55.408H21.14m1.624.815H21.14" class="B"/><path d="M21.547 54.594h-.406" class="C"/><path d="M-19.975-25.45h-1.623c-.224 0-.406.182-.406.407v3.258c0 .225.182.407.406.407h2.435c.108 0 .21-.043.287-.12a.41.41 0 0 0 .119-.288v-2.443z" class="B"/><path d="M-19.975-25.45v1.222h1.217" class="C"/><path d="M-19.57-23.21h-1.623m1.623.814h-1.623" class="B"/><path d="M-20.786-24.025h-.406" class="C"/><path d="M3.97 4.405v-.53c0-.57-.466-1.037-1.058-1.037H1.6C1.007 2.84.54 3.304.54 3.876v.53m2.774-3.134c0 .57-.487 1.037-1.058 1.037a1.04 1.04 0 0 1-1.037-1.037C1.22.68 1.685.214 2.256.214a1.06 1.06 0 0 1 1.058 1.058z" stroke-width=".275"/></g></svg>