<svg xmlns="http://www.w3.org/2000/svg" xmlns:xlink="http://www.w3.org/1999/xlink" width="19" height="19" viewBox="0 0 5.011 4.857"><style><![CDATA[.B{stroke-width:.264}.C{stroke-width:.265}]]></style><g transform="matrix(.909477 0 0 .909477 330.711453 -165.7713)" fill="none" stroke="#f1f6f9" stroke-width=".291"><circle cx="-565.003" cy="-4.064" r="2.646"/><path d="M-566.125-2.942l.56-1.683 1.683-.56-.56 1.683z"/></g><g fill="none" stroke="#f1f6f9"><use xlink:href="#B" class="B"/><path d="M21.096 53.285v1.222h1.217" class="C"/><path d="M21.502 55.525H19.88m1.622.815H19.88" class="B"/><path d="M20.285 54.71h-.406" class="C"/><use xlink:href="#B" x="-42.333" y="-78.619" class="B"/><path d="M-21.237-25.334v1.222h1.217" class="C"/><path d="M-20.83-23.094h-1.623m1.623.814h-1.623" class="B"/><g class="C"><path d="M-22.048-23.908h-.406M2.877.56H1.4a.37.37 0 0 0-.263.109c-.07.07-.1.165-.1.264v2.99c0 .1.04.194.1.264a.37.37 0 0 0 .263.109h2.23c.205 0 .372-.167.372-.374V1.68z"/><path d="M2.877.56v1.12h1.116M1.948 2.99h1.116"/></g></g><defs ><path id="B" d="M21.096 53.285h-1.623c-.224 0-.406.182-.406.407v3.258c0 .225.182.407.406.407h2.435c.108 0 .21-.043.287-.12a.41.41 0 0 0 .119-.288v-2.443z"/></defs></svg>