<svg xmlns="http://www.w3.org/2000/svg" xmlns:xlink="http://www.w3.org/1999/xlink" width="19" height="19" viewBox="0 0 5.011 4.857"><style><![CDATA[.B{stroke-width:.264}.C{stroke-width:.265}]]></style><g transform="matrix(.909477 0 0 .909477 332.180453 -165.7343)" fill="none" stroke="#f1f6f9" stroke-width=".291"><circle cx="-565.003" cy="-4.064" r="2.646"/><path d="M-566.125-2.942l.56-1.683 1.683-.56-.56 1.683z"/></g><g fill="none" stroke="#f1f6f9"><use xlink:href="#B" class="B"/><path d="M22.565 53.322v1.222h1.217" class="C"/><path d="M22.97 55.562h-1.623m1.623.815h-1.623" class="B"/><path d="M21.754 54.748h-.406" class="C"/><use xlink:href="#B" x="-42.333" y="-78.619" class="B"/><path d="M-19.768-25.297v1.222h1.217" class="C"/><path d="M-19.362-23.057h-1.623m1.623.815h-1.623" class="B"/><path d="M-20.58-23.87h-.406M4.103 1.722V4.02H.908V1.722" class="C"/><path d="M.553.84h3.905v.883H.553zM2.15 2.43h.7" class="B"/></g><defs ><path id="B" d="M22.565 53.322h-1.623c-.224 0-.406.182-.406.407v3.258c0 .225.182.407.406.407h2.435c.108 0 .21-.043.287-.12a.41.41 0 0 0 .119-.288v-2.443z"/></defs></svg>