<svg xmlns="http://www.w3.org/2000/svg" width="19" height="19" viewBox="0 0 5.011 4.873"><style><![CDATA[.B{stroke-width:.264}.C{stroke-width:.265}.D{stroke:#f1f6f9}]]></style><g transform="matrix(.909477 0 0 .909477 332.202453 -165.6333)" fill="none" stroke-width=".291" class="D"><circle cx="-565.003" cy="-4.064" r="2.646"/><path d="M-563.88-5.185l-.56 1.683-1.683.56.56-1.683z"/></g><g fill="none" class="D"><path d="M22.587 53.423h-1.623c-.224 0-.406.182-.406.407v3.258c0 .225.182.407.406.407H23.4c.108 0 .21-.043.287-.12a.41.41 0 0 0 .119-.288v-2.443z" class="B"/><path d="M22.587 53.423v1.222h1.217" class="C"/><path d="M22.993 55.663H21.37m1.623.815H21.37" class="B"/><path d="M21.776 54.85h-.406" class="C"/><path d="M-19.746-25.196h-1.623c-.224 0-.406.182-.406.407v3.258c0 .225.182.407.406.407h2.435c.108 0 .21-.043.287-.12a.41.41 0 0 0 .119-.288v-2.443z" class="B"/><path d="M-19.746-25.196v1.222h1.217" class="C"/><path d="M-19.34-22.956h-1.623m1.623.816h-1.623" class="B"/><path d="M-20.557-23.77h-.406" class="C"/></g><g transform="matrix(.82955 0 0 .829383 462.28309 -10.680719)" fill="none" stroke-width=".319" class="D"><circle cx="-555.139" cy="18.329" r=".265"/><circle cx="-552.228" cy="18.329" r=".265"/><path d="M-557.256 13.038h1.058l.71 3.543a.529.529 0 0 0 .529.426h2.572a.529.529 0 0 0 .529-.426l.423-2.22h-4.498"/></g></svg>