<svg xmlns="http://www.w3.org/2000/svg" width="19" height="19" viewBox="0 0 5.011 4.857"><style><![CDATA[.B{stroke-width:.264}.C{stroke-width:.265}.D{stroke:#f1f6f9}]]></style><g transform="matrix(.909477 0 0 .909477 332.202453 -165.4513)" fill="none" stroke-width=".291" class="D"><circle cx="-565.003" cy="-4.064" r="2.646"/><path d="M-566.125-2.942l.56-1.683 1.683-.56-.56 1.683z"/></g><g fill="none" class="D"><path d="M22.587 53.605h-1.623c-.224 0-.406.182-.406.407v3.258c0 .225.182.407.406.407H23.4c.108 0 .21-.043.287-.12a.41.41 0 0 0 .119-.288v-2.443z" class="B"/><path d="M22.587 53.605v1.222h1.217" class="C"/><path d="M22.993 55.845H21.37m1.623.815H21.37" class="B"/><path d="M21.776 55.03h-.406" class="C"/><path d="M-19.746-25.014h-1.623c-.224 0-.406.182-.406.407v3.258c0 .225.182.407.406.407h2.435c.108 0 .21-.043.287-.12a.41.41 0 0 0 .119-.288v-2.443z" class="B"/><path d="M-19.746-25.014v1.222h1.217" class="C"/><path d="M-19.34-22.774h-1.623m1.623.814h-1.623" class="B"/><path d="M-20.557-23.588h-.406" class="C"/></g><g transform="matrix(.755833 0 0 .749308 422.67517 14.087585)" fill="none" stroke-width=".406" class="D"><rect x="-558.812" y="-17.677" width="5.821" height="4.233" rx=".529"/><path d="M-558.812-16.09h5.82"/></g></svg>