<svg xmlns="http://www.w3.org/2000/svg" xmlns:xlink="http://www.w3.org/1999/xlink" width="19" height="19" viewBox="0 0 5.011 4.857"><style><![CDATA[.B{stroke-width:.264}.C{stroke-width:.265}]]></style><g transform="matrix(.909477 0 0 .909477 338.830453 -165.8613)" fill="none" stroke="#f1f6f9" stroke-width=".291"><circle cx="-565.003" cy="-4.064" r="2.646"/><path d="M-563.88-5.185l-.56 1.683-1.683.56.56-1.683z"/></g><g fill="none" stroke="#f1f6f9"><use xlink:href="#B" class="B"/><path d="M29.215 53.195v1.222h1.217" class="C"/><path d="M29.62 55.435h-1.623m1.623.815h-1.623" class="B"/><path d="M28.404 54.62h-.406" class="C"/><use xlink:href="#B" x="-42.333" y="-78.619" class="B"/><path d="M-13.118-25.424v1.222h1.217" class="C"/><path d="M-12.712-23.184h-1.623m1.623.814h-1.623" class="B"/><path d="M-13.93-23.998h-.406" class="C"/><path d="M2.672.458l1.492.747c.127.063.207.193.207.334v1.78c0 .142-.08.27-.207.334L2.672 4.4c-.105.053-.23.053-.334 0L.846 3.653C.72 3.59.64 3.458.64 3.316V1.54c0-.142.08-.27.207-.334L2.34.458c.105-.052.227-.052.332 0z" class="B"/><path d="M.7 1.337l1.805.904 1.805-.904" class="C"/><path d="M2.506 4.437V2.24M1.574.84l1.864.934" class="B"/></g><defs ><path id="B" d="M29.215 53.195h-1.623c-.224 0-.406.182-.406.407v3.258c0 .225.182.407.406.407h2.435c.108 0 .21-.043.287-.12a.41.41 0 0 0 .119-.288v-2.443z"/></defs></svg>