<svg xmlns="http://www.w3.org/2000/svg" width="19" height="19" viewBox="0 0 5.011 4.857"><style><![CDATA[.B{stroke-width:.264}.C{stroke-width:.265}]]></style><g transform="matrix(.909477 0 0 .909477 332.202453 -165.7073)" fill="none" stroke="#f1f6f9" stroke-width=".291"><circle cx="-565.003" cy="-4.064" r="2.646"/><path d="M-566.125-2.942l.56-1.683 1.683-.56-.56 1.683z"/></g><g fill="none" stroke="#f1f6f9"><path d="M22.587 53.35h-1.623c-.224 0-.406.182-.406.407v3.258c0 .225.182.407.406.407H23.4c.108 0 .21-.043.287-.12a.41.41 0 0 0 .119-.288V54.57z" class="B"/><path d="M22.587 53.35v1.222h1.217" class="C"/><path d="M22.993 55.59H21.37m1.623.814H21.37" class="B"/><path d="M21.776 54.775h-.406" class="C"/><path d="M-19.746-25.27h-1.623c-.224 0-.406.182-.406.407v3.258c0 .225.182.407.406.407h2.435c.108 0 .21-.043.287-.12a.41.41 0 0 0 .119-.288v-2.443z" class="B"/><path d="M-19.746-25.27v1.222h1.217" class="C"/><path d="M-19.34-23.03h-1.623m1.623.815h-1.623" class="B"/><g class="C"><path d="M-20.557-23.844h-.406M4.4 3.226a2.05 2.05 0 0 1-2.15 1.233C1.338 4.342.607 3.627.478 2.717A2.05 2.05 0 0 1 1.686.553"/><path d="M4.552 2.43A2.05 2.05 0 0 0 2.505.383V2.43z"/></g></g></svg>