<svg xmlns="http://www.w3.org/2000/svg" width="17" height="17" viewBox="0 0 16.805 16.958" fill="none" stroke="currentColor" stroke-width="2" stroke-linecap="round" stroke-linejoin="round"><g transform="matrix(2.678106 0 0 2.678106 821.15199 129.65319)" stroke="#eff5f9" stroke-width=".339"><circle cx="-303.459" cy="-45.259" r=".794"/><path d="M-301.5-44.466a.437.437 0 0 0 .087.482l.016.016a.529.529 0 1 1-.749.749l-.016-.016a.437.437 0 0 0-.746.312v.045a.529.529 0 1 1-1.058 0v-.024a.437.437 0 0 0-.286-.4.437.437 0 0 0-.482.087l-.016.016a.529.529 0 1 1-.749-.749l.016-.016a.437.437 0 0 0-.312-.746h-.045a.529.529 0 1 1 0-1.058h.024a.437.437 0 0 0 .4-.286.437.437 0 0 0-.087-.482l-.016-.016a.529.529 0 1 1 .749-.749l.016.016a.437.437 0 0 0 .482.087h.02a.437.437 0 0 0 .265-.4v-.045a.529.529 0 0 1 1.058 0v.024a.437.437 0 0 0 .746.312l.016-.016a.529.529 0 1 1 .749.749l-.016.016a.437.437 0 0 0-.087.482v.02a.437.437 0 0 0 .4.265h.045a.529.529 0 1 1 0 1.058h-.024a.437.437 0 0 0-.4.265z"/></g></svg>