<svg xmlns="http://www.w3.org/2000/svg" width="49" height="53" viewBox="0 0 12.867 13.776"><defs><clipPath id="A"><path d="M973.42 823.562h360.016v303.75H973.42z"/></clipPath></defs><g clip-path="url(#A)" transform="matrix(.997287 0 0 -.997287 -1004.8723 1054.0455)" fill="none" stroke="#a2d076" stroke-linejoin="round"><path d="M1014.587 1056.288l4.76-2.38a1.19 1.19 0 0 0 .66-1.065v-5.672a1.19 1.19 0 0 0-.66-1.065l-4.76-2.38c-.335-.167-.73-.167-1.065 0l-4.76 2.38a1.19 1.19 0 0 0-.655 1.071v5.666a1.19 1.19 0 0 0 .661 1.065l4.76 2.38a1.19 1.19 0 0 0 1.06 0z"/><path d="M1008.297 1053.485l5.76-2.88 5.76 2.88m-5.76-9.88v7m-2.975 4.463l5.95-2.976" stroke-linecap="round"/></g></svg>