<svg xmlns="http://www.w3.org/2000/svg" width="410" height="427" viewBox="0 0 108.443 112.742" fill="none" stroke="#4399d4" stroke-width="6.96"><path d="M45.975 25.98l31.208 15.607a7.83 7.83 0 0 1 4.326 7.003v37.22c0 2.982-1.68 5.686-4.326 7.003l-31.208 15.628c-2.206 1.093-4.792 1.093-6.987 0L7.78 92.815c-2.65-1.343-4.32-4.048-4.3-7.03V48.59a7.83 7.83 0 0 1 4.337-7.003L39.025 25.98c2.185-1.087 4.76-1.087 6.95 0z"/><path d="M4.73 44.385L42.497 63.28 80.26 44.386M42.5 109.22V63.282M22.985 33.98L62 53.512"/><g stroke-linecap="round"><path d="M89.633 34.096V3.53"/><path d="M74.352 18.813h30.56"/></g></svg>