<svg xmlns="http://www.w3.org/2000/svg" xmlns:xlink="http://www.w3.org/1999/xlink" width="43" height="27" viewBox="0 0 11.26 7.014"><style><![CDATA[.B{fill:#e0f3fd}.C{stroke:#4399d4}.D{stroke-miterlimit:10}.E{stroke-width:.459}]]></style><use xlink:href="#B" class="B"/><g fill="none" class="C D"><use xlink:href="#B" class="E"/><path d="M6.984 3.51c0 .748-.606 1.355-1.355 1.355S4.275 4.257 4.275 3.51s.606-1.354 1.354-1.354 1.355.606 1.355 1.354z" stroke-width=".353"/></g><use xlink:href="#C" class="B"/><use xlink:href="#C" fill="none" class="C D E"/><path d="M9.888.73a1.01 1.01 0 0 0 1.008 1.008c.046 0 .09-.008.135-.014V.577c-.3-.13-.66-.216-1.047-.27-.06.13-.096.272-.096.423" class="B"/><path d="M9.888.73a1.01 1.01 0 0 0 1.008 1.008c.046 0 .09-.008.135-.014V.577c-.3-.13-.66-.216-1.047-.27-.06.13-.096.272-.096.423z" fill="none" class="C D E"/><path d="M.395 5.086c-.057 0-.11.008-.166.017v1.332c.35.11.676.19.982.247a1 1 0 0 0 .192-.587A1.01 1.01 0 0 0 .395 5.086" class="B"/><path d="M.395 5.086c-.057 0-.11.008-.166.017v1.332c.35.11.676.19.982.247a1 1 0 0 0 .192-.587A1.01 1.01 0 0 0 .395 5.086z" fill="none" class="C D E"/><use xlink:href="#D" class="B"/><use xlink:href="#D" fill="none" class="C D E"/><defs ><path id="B" d="M.23.577s3.583.353 5.33 0c1.34-.27 4.033-.624 5.473 0V6.3s-3.936-.86-6.337 0c-1.05.377-2.316.828-4.465.144z"/><path id="C" d="M.23 2c.084.023.17.04.263.04a1.01 1.01 0 0 0 1.009-1.008 1.01 1.01 0 0 0-.07-.362L.23.578z"/><path id="D" d="M11.03 4.68c-.044-.006-.09-.014-.135-.014a1.01 1.01 0 0 0-1.008 1.008c0 .156.038.302.102.435l1.04.18z"/></defs></svg>