<svg xmlns="http://www.w3.org/2000/svg" width="35" height="39" viewBox="0 0 9.211 10.073"><path d="M2.75 8.338H7.55V.23H.23v8.214c0 .836.376 1.4 1.21 1.4s1.3-.564 1.3-1.4z" fill="#e0f3fd"/><path d="M2.75 8.338H7.55V.23H.23v8.214c0 .836.376 1.4 1.21 1.4s1.3-.564 1.3-1.4z" fill="none" stroke="#4399d4" stroke-width=".459" stroke-miterlimit="10"/><path d="M2.75 8.338h6.212s.25 1.014-.998 1.474H1.04s1.747.22 1.7-1.474" fill="#e0f3fd"/><g fill="none" stroke="#4399d4" stroke-width=".459" stroke-miterlimit="10"><path d="M2.75 8.338h6.212s.25 1.014-.998 1.474H1.04s1.747.22 1.7-1.474z"/><path d="M1.7 5.47h4.413M1.7 7.013h4.413M1.7 2.877l1.05-1.05 1.05 1.05m-.504-.455V3.82h-1.1V2.422" stroke-linecap="round"/></g></svg>