<svg xmlns="http://www.w3.org/2000/svg" width="40" height="30" viewBox="0 0 10.572 7.751"><path d="M1.148.23h8.275c.508 0 .92.408.92.912V6.61c0 .503-.412.912-.92.912H1.148c-.507 0-.92-.41-.92-.912V1.14C.23.637.64.23 1.148.23" fill="#e0f3fd"/><path d="M8.54 5.024H5.416m1.884.93H5.416" fill="none" stroke="#4399d4" stroke-width=".265" stroke-linecap="round"/><path d="M10.108 3.305H.464v-1.2h9.644z" fill="#bee6fa"/><path d="M1.148.23h8.275c.508 0 .92.408.92.912V6.61c0 .503-.412.912-.92.912H1.148c-.507 0-.92-.41-.92-.912V1.14C.23.637.64.23 1.148.23z" fill="none" stroke="#4399d4" stroke-width=".459" stroke-miterlimit="10"/><path d="M2.544 6.262H1.62c-.17 0-.306-.137-.306-.306s.137-.306.306-.306h.924c.17 0 .306.137.306.306s-.137.306-.306.306" fill="#4399d4"/></svg>