<svg xmlns="http://www.w3.org/2000/svg" width="32" height="38" viewBox="0 0 8.388 9.884"><path d="M8.158 9.655V8.597c0-1.167-.947-2.114-2.115-2.114h-3.7C1.176 6.483.23 7.43.23 8.597v1.057z" fill="#e0f3fd"/><path d="M8.158 9.655V8.597c0-1.167-.947-2.114-2.115-2.114h-3.7C1.176 6.483.23 7.43.23 8.597v1.057z" fill="none" stroke="#4399d4" stroke-width=".459" stroke-miterlimit="10"/><path d="M4.193 7.253a.24.24 0 0 0-.247.247c0 .147.1.247.247.247A.24.24 0 0 0 4.44 7.5a.24.24 0 0 0-.247-.247m0 .96a.24.24 0 0 0-.247.247c0 .147.1.247.247.247a.24.24 0 0 0 .247-.247.24.24 0 0 0-.247-.247" fill="#4399d4"/><g fill="#e0f3fd"><path d="M6.89 3.3c0 1.024-1.21 1.854-2.7 1.854s-2.7-.83-2.7-1.854 1.21-1.854 2.7-1.854 2.7.83 2.7 1.854"/><path d="M1.84 4.124c.222.4.546.745.923 1.007.452.314.952.48 1.447.48s.995-.166 1.447-.48a3.12 3.12 0 0 0 .923-1.006c.272-.015.672-.16.672-.89 0-.466-.163-.785-.462-.9-.14-.54-.46-1.045-.91-1.432C5.384.465 4.776.23 4.17.23S2.972.467 2.496.897c-.422.382-.727.887-.867 1.432-.308.132-.494.47-.494.907 0 .263.062.475.185.63s.303.245.52.258"/></g><g fill="none" stroke="#4399d4" stroke-width=".459" stroke-miterlimit="10"><path d="M1.84 4.124c.222.4.546.745.923 1.007.452.314.952.48 1.447.48s.995-.166 1.447-.48a3.12 3.12 0 0 0 .923-1.006c.272-.015.672-.16.672-.89 0-.466-.163-.785-.462-.9-.14-.54-.46-1.045-.91-1.432C5.384.465 4.776.23 4.17.23S2.972.467 2.496.897c-.422.382-.727.887-.867 1.432-.308.132-.494.47-.494.907 0 .263.062.475.185.63s.303.245.52.258z"/><path d="M1.49 2.714l.103-.026c.053-.007.86-.29 1.506-1 .097-.107.225-.075.32.002 1.52 1.243 3.43 1.03 3.546 1.016l.03.008" stroke-linecap="round"/></g></svg>