<svg xmlns="http://www.w3.org/2000/svg" width="35" height="31" viewBox="0 0 9.017 7.983"><g fill="#e0f3fd"><path d="M8.275 2.34v5.413H.742V2.34"/><path d="M.23.23h8.558v2.14H.23z"/></g><path d="M7.14 6.93h-.924c-.17 0-.306-.137-.306-.306s.137-.306.306-.306h.924c.17 0 .306.137.306.306s-.137.306-.306.306m-2.08 0c-.08 0-.16-.032-.216-.1a.31.31 0 0 1-.09-.216.28.28 0 0 1 .1-.216c.067-.056.135-.1.216-.1s.16.033.216.1.1.135.1.216-.032.16-.1.216-.135.1-.216.1" fill="#4399d4"/><path d="M2.2 2.37v5.307a.1.1 0 0 0 .099.1H3.35c.055 0 .1-.045.1-.1V2.37z" fill="#bee6fa"/><g fill="none" stroke="#4399d4" stroke-width=".459" stroke-miterlimit="10"><path d="M8.275 2.34v5.413H.742V2.34"/><path d="M.23.23h8.558v2.14H.23z"/></g></svg>