<svg xmlns="http://www.w3.org/2000/svg" xmlns:xlink="http://www.w3.org/1999/xlink" viewBox="0 0 500 274.638" width="500" height="275"><style><![CDATA[.I{fill:none}.J{stroke:#3e5568}.K{stroke-linejoin:round}.L{stroke-width:2.333}.M{fill:#cecece}]]></style><path d="M187.932 1.166L57.294 46.423l131.245 44.93L318.617 45.9z" fill="#999595"/><path d="M187.932 1.166L57.294 46.423l131.245 44.93L318.617 45.9z" class="I J K L"/><path d="M489.566 215.506l8.118 3.453a3.779 3.779 0 0 1 1.96 5.086 4.666 4.666 0 0 1-.84 1.446 5.925 5.925 0 0 1-2.286 1.493L364.434 273.64a17.403 17.403 0 0 1-11.617 0l-107.823-37.978a570.002 570.002 0 0 1-57.061 2.799C83.982 238.46 0 211.774 0 178.88s83.982-59.58 187.932-59.58 187.886 26.64 187.886 59.58c0 7.418-4.246 14.5-12.037 20.995z" fill="#30506b" opacity=".15"/><use xlink:href="#B" fill="#ededee"/><g class="I J K L"><use xlink:href="#B"/><path d="M188.54 91.353l-.607 131.43" stroke-linecap="round"/></g><use xlink:href="#C" fill="#b3b3b2"/><use xlink:href="#C" class="I J K L"/><use xlink:href="#D" class="M"/><use xlink:href="#E" fill="#e1e1e1"/><g class="I J K L"><use xlink:href="#D"/><use xlink:href="#E"/></g><use xlink:href="#F" class="M"/><use xlink:href="#F" class="I J K L"/><use xlink:href="#G" class="M"/><use xlink:href="#G" class="I J K L"/><use xlink:href="#H" class="M"/><use xlink:href="#I" fill="#b3b3b2"/><g class="I J K L"><use xlink:href="#I"/><use xlink:href="#H"/></g><defs ><path id="B" d="M57.294 46.656L69.985 168.3a5.879 5.879 0 0 0 3.453 4.666L185.88 222.27a5.785 5.785 0 0 0 4.666 0l113.33-49.97a5.739 5.739 0 0 0 3.406-4.666L318.617 45.9 191.99 89.954a12.271 12.271 0 0 1-8.165 0z"/><path id="C" d="M238.6 201.276s-8.538-73.204 19.922-82.815a32.006 32.006 0 0 1 19.876-2.24 16.19 16.19 0 0 0-16.096 13.997c-3.453 14.743.747 60.094.747 60.094z"/><path id="D" d="M224.697 181.354l5.18 37.045a6.019 6.019 0 0 0 4.106 4.946l121.773 41.15a17.636 17.636 0 0 0 3.453.513 16.563 16.563 0 0 0 2.986-.467l123.36-43.764a6.205 6.205 0 0 0 4.012-5.272L492.6 178.6a6.019 6.019 0 0 0-4.199-6.299l-125.972-41.15a12.037 12.037 0 0 0-7.792 0l-126.02 43.577a6.019 6.019 0 0 0-3.919 6.625z"/><path id="E" d="M492.226 176.875l-132.97 42.41-134.65-40.638a6.252 6.252 0 0 1 3.826-3.919l125.74-43.53a12.037 12.037 0 0 1 7.792 0l125.972 41.104a6.159 6.159 0 0 1 4.292 4.572z"/><path id="F" d="M246.486 129.052s9.61-19.13 26.408-25.38 39.518.746 41.99 20.39-.467 27.994 1.726 36.952 7.185 27.62 37.978 25.614c0 0 1.586 8.91-1.773 11.944s-15.583 10.778-34.852 0-13.017-40.87-13.017-40.87 5.74-32.66-26.734-41.618a31.68 31.68 0 0 0-31.726 12.97z"/><path id="G" d="M331.867 174.31s18.056-4.852 22.722 12.317a21.882 21.882 0 0 1-.98 10.964l13.484-17.776a19.362 19.362 0 0 0-13.997-23.048 27.154 27.154 0 0 0-12.504.467 24.681 24.681 0 0 1-8.725 17.076z"/><path id="H" d="M105.724 136.937s-21.042-2.893-31.726 9.33-4.012 29.674-9.75 54.588S26.92 222.83 26.92 222.83l9.33 19.082s27.994-.513 40.218-14.743 10.73-28.88 12.177-39.378a209.954 209.954 0 0 1 2.1-33.826c2.566-15.817 10.264-16.376 14.977-17.03z"/><path id="I" d="M142.442 202.91s7.932-60.653-36.065-65.926a11.338 11.338 0 0 0-8.818 2.846s6.72-4.666 12.69 4.666 8.398 36.065 7.745 47.87z"/></defs></svg>