<svg xmlns="http://www.w3.org/2000/svg" xmlns:xlink="http://www.w3.org/1999/xlink" width="1890" height="2082" viewBox="0 0 500 550.75"><style><![CDATA[.B{stroke:#11405e}.C{stroke-width:.25}.D{stroke-miterlimit:10}.E{fill:#d1e5a6}]]></style><defs><clipPath id="A"><path d="M2514.88 127.458h360v751.6h-360z"/></clipPath><clipPath id="B"><path d="M2656.7 797.802h15.47v-9.517h-15.47z"/></clipPath><path id="C" d="M2664.215 801.646s-1.968-1.39-3.495-1.698-2.32-.17-2.68 1.255c0 0-.16.84.593 1.568 0 0 .244.196.083.59s-.412.9-.36 1.616.89 1.625 2.33 1.128 3.485-2.024 3.485-2.024z"/><path id="D" d="M2662.716 803.083s-.67.372-1.268.412-.854-.347-.873-.714.236-.77.984-.706l1.252.16z"/><path id="E" d="M2664.51 801.652s2.017-1.318 3.554-1.57 2.325-.086 2.632 1.35c0 0 .13.846-.65 1.547 0 0-.25.187-.104.585s.38.914.302 1.628-.948 1.592-2.368 1.043-3.4-2.148-3.4-2.148z"/><path id="F" d="M2665.956 803.14s.657.396 1.252.458.865-.317.897-.683-.207-.778-.957-.74l-1.256.114z"/></defs><g clip-path="url(#A)" transform="matrix(28.302394 0 0 -28.302394 -75158.361 22826.687)"><path d="M2655.677 800.362l.363-2.407c.023-.148.127-.272.27-.318l8.033-2.614c.085-.028.177-.026.26.005l8.054 2.953c.147.054.25.19.26.345l.17 2.4c.013.183-.1.352-.277.407l-8.23 2.586c-.165.052-.342.048-.506-.01l-8.14-2.915c-.18-.064-.288-.246-.26-.433" fill="#d0e3f2"/><g fill="#edf4fb"><path d="M2671.657 800.364s.987.326 1.204-.228c.175-.45.07-1.632.07-1.632l.145 2.038.015.296zm-7.182-2.377l1.562.517s-1.157-.5-1.263-1l-.3-2.077z"/><path d="M2663.167 798.367s.83-.358.937-.697.36-2.413.36-2.413l.013 2.73zm-7.21.153s-.148 1.4.063 1.574c.257.2 1.865-.192 1.865-.192l-2.186.635-.024-.048z"/><path d="M2673.087 800.838l-8.612-2.85-8.778 2.55a.4.4 0 0 0 .246.258l8.14 2.915c.164.058.34.062.507.01l8.228-2.585c.14-.045.24-.16.27-.297"/></g><path d="M2655.677 800.362l.363-2.407c.023-.148.127-.272.27-.318l8.033-2.614c.085-.028.177-.026.26.005l8.054 2.953c.147.054.25.19.26.345l.17 2.4c.013.183-.1.352-.277.407l-8.23 2.586c-.165.052-.342.048-.506-.01l-8.14-2.915c-.18-.064-.288-.246-.26-.433z" fill="none" class="B C D"/><path d="M2656.696 797.523l.866-7.224c.015-.122.094-.228.208-.276l6.71-2.803a.34.34 0 0 1 .276.006l6.672 3.077a.34.34 0 0 1 .199.286l.544 7.227-7.452-2.75c-.156-.058-.327-.06-.485-.01z" fill="#d0e3f2"/><g clip-path="url(#B)" opacity=".75"><path d="M2672.172 797.802l-.033-.386a.46.46 0 0 0-.296-.39l-4.192-1.558-.382-7.184v7.042l-2.776-1.03-2.854.954.292-6.965-.637 7.08-4.248 1.422c-.168.055-.288.203-.31.38l-.043.358 7.786-2.52z" fill="#aed8ee"/></g><g fill="none" class="B C D"><path d="M2656.696 797.5l.866-7.212c.015-.122.094-.228.208-.276l6.7-2.803c.1-.037.2-.035.276.005l6.672 3.078a.34.34 0 0 1 .199.286l.544 7.214-7.452-2.738a.74.74 0 0 0-.485-.01zm-.998 3.027l8.777-2.55"/><path d="M2673.087 800.838l-8.612-2.85.007-2.983.14-7.812"/></g><g fill="#88c2e7"><path d="M2658.825 796.826l2.4-.8.697-7.753-2.433 1.018zm11.243.21l-2.38-.875-.418-7.773 2.396 1.104z"/><path d="M2661.238 796.038l-.318 2.988-2.374.694.282-2.893zm6.448.116l.212 2.95 2.348.78-.18-2.854z"/><path d="M2660.92 799.026l8.39 3.208-2.147.675-8.618-3.19z"/><path d="M2659.862 802.2l8.036-3.097 2.348.78-7.942 3.193z"/></g><path d="M2670.246 799.895l-3.4 1.354 2.465.985-2.146.675-2.315-.857-2.544 1.023-2.444-.874 2.64-1.017-3.955-1.464.242-2.444-.003.001.714-7.975 2.434-1.017-.698 7.754.003-.001-.036.368-.282 2.62 3.63 1.38 3.35-1.29-.21-2.96-.417-7.768 2.397 1.104.4 7.544z" fill="none" class="B C D"/><use xlink:href="#C" class="E"/><use xlink:href="#D" fill="#add064"/><use xlink:href="#E" class="E"/><path d="M2665.563 803.955s1.883 2.26 2.995 2.443c0 0-.3.048-1.168-.38-.796-.393-2.44-1.56-2.44-1.56zm-2.448.092s-1.977 2.013-3.1 2.195c0 0 .463.01 1.33-.418.796-.393 2.38-1.442 2.38-1.442z" fill="#e3eec8"/><use xlink:href="#F" fill="#add064"/><g fill="none" class="B C D"><use xlink:href="#C"/><use xlink:href="#D"/><use xlink:href="#E"/><use xlink:href="#F"/></g><path d="M2666.037 802.904c.017-.937-.73-1.7-1.666-1.727s-1.7.73-1.727 1.666.73 1.7 1.665 1.727 1.71-.73 1.728-1.666" class="E"/><path d="M2666.036 802.904c.003-.12-.008-.237-.03-.35a1.7 1.7 0 0 1-1.698 1.376c-.816-.015-1.487-.603-1.635-1.374-.018.094-.03.19-.03.287a1.7 1.7 0 0 0 1.666 1.727c.938.017 1.7-.73 1.727-1.666" fill="#e3eec8"/><path d="M2666.037 802.904c.017-.937-.73-1.7-1.666-1.727s-1.7.73-1.727 1.666.73 1.7 1.665 1.727 1.71-.73 1.728-1.666z" fill="none" class="B C D"/></g></svg>