<svg xmlns="http://www.w3.org/2000/svg" viewBox="0 0 64.709 68.478" width="65" height="69"><style><![CDATA[.S{stroke-width:.51}.T{fill:none}.U{stroke:#3e5568}.V{stroke-linejoin:round}.W{stroke:#cecece}.X{stroke-miterlimit:10}]]></style><defs><clipPath ><path d="M-42.8-427.25H447.3v347.72H-42.8z" class="T"/></clipPath></defs><path d="M5.172 32.66H.255l4.917-4.002z" fill="#6c9bb9"/><path d="M5.172 32.66H.255l4.917-4.002z" class="S T U V"/><path d="M51.824 32.66h4.917l-4.917-4.002z" fill="#6c9bb9"/><g class="S"><path d="M51.824 32.66h4.917l-4.917-4.002z" class="T U V"/><path d="M5.172.255h46.662V61.32H5.172z" fill="#fff" stroke="#14395e"/></g><path d="M13.568.255s9.396 34.02 38.266 37.94v5.88H5.172V.255z" fill="#f8f8f9" opacity=".65"/><g class="S T X"><path d="M5.172.255h46.662V61.32H5.172z" class="U"/><path d="M11.273 19.695h34.38v8.7h-34.38zm11.7-12.2H45.65m-22.687 3.573h22.688m-17.638 3.4h11.252" class="W"/></g><g fill="#cecece" class="S W"><circle cx="42.204" cy="14.488" r=".296"/><circle cx="45.101" cy="14.488" r=".296"/></g><path d="M11.273 6.994h4.58v4.584h-4.58z" fill="#3d97d2"/><path d="M56.74 32.672v28.65H.255v-28.65h17.343a10.865 10.874 0 0 0 21.729 0z" fill="#86c2e8"/><g fill="#fff"><path d="M26.412 43.617s11.915 2.49 14.74-9.832l15.588-1.113H39.4s-2.47 10.465-12.987 10.945z" opacity=".6"/><path d="M30.33 43.647c-12.67 1-15.027-8.28-15.027-8.28H7.845c-2.877 0-5.733.225-6 3.778L.316 61.32l-.06-28.65h17.343l.367 2.593c3.234 9.107 12.364 8.382 12.364 8.382z" opacity=".4"/></g><path d="M56.74 32.672v28.65H.255v-28.65h17.343a10.865 10.874 0 0 0 21.729 0z" class="S T U V"/><g fill="#3e5568"><circle cx="54.813" cy="34.571" r=".296"/><circle cx="2.153" cy="34.571" r=".296"/><circle cx="2.153" cy="59.401" r=".296"/></g><path d="M13.21 24.044h30.41" class="S T W X"/><circle cx="51.47" cy="55.11" r="11.96" fill="#3e5568" transform="matrix(1.020158 0 0 1.020992 .000104 -.0001)" opacity=".15"/><ellipse cx="50.559" cy="54.102" rx="12.201" ry="12.211" fill="#a5ce5d"/><path d="M40.664 55.39c.008 3.964 1.94 7.677 5.182 9.955a12.25 12.25 0 0 1-7.852-10.656c-.31-4.783 2.197-9.308 6.414-11.58s9.37-1.874 13.2 1.02c-3.764-1.564-8.058-1.15-11.455 1.103s-5.45 6.05-5.48 10.128z" fill="#c9e293" opacity=".35"/><g class="T"><ellipse cx="50.559" cy="54.102" rx="12.201" ry="12.211" class="S U"/><path d="M45.51 54.582l2.856 3.155 7.253-7.26" stroke-linecap="round" stroke="#fff" stroke-width="1.531" class="V"/></g></svg>