<svg xmlns="http://www.w3.org/2000/svg" xmlns:xlink="http://www.w3.org/1999/xlink" viewBox="0 0 166.04 121.46"><style><![CDATA[.T{fill:none}.U{stroke:#113f5d}.V{stroke-width:.5}.W{fill:#86c1e6}.X{stroke-linejoin:round}.Y{fill-rule:evenodd}.Z{fill:#cfe2f1}.a{stroke-miterlimit:10}.b{fill:#ecf3fa}.c{fill:#d0e4a5}]]></style><path d="M21.94 88.8L0 102.43l38.4 19 39.42-19.6L86.9 106l7.78-3.3s7 12.06 28.2 14.15 37.46-3.67 42.12-15.88L106.2 84.1z" fill="#2f506b" opacity=".15"/><use xlink:href="#B" class="Z"/><g class="b"><path d="M124 31.82s5.16-1.7 6.3 1.2c.92 2.35.37 8.53.37 8.53l.76-10.65.07-1.54zM86.52 44.24l8.16-2.7s-6.05 2.57-6.6 5.18l-1.62 10.85z"/><path d="M79.68 42.26s4.32 1.86 4.9 3.64 1.88 12.6 1.88 12.6l.07-14.27zM42 41.46s-.77-7.37.34-8.23c1.34-1 9.74 1 9.74 1l-11.43-3.3-.13.25z"/><path d="M131.52 29.35l-45 14.9-45.87-13.32a2.07 2.07 0 0 1 1.28-1.35l42.54-15.24a4.21 4.21 0 0 1 2.65-.05l43 13.5a2.11 2.11 0 0 1 1.4 1.56z"/></g><use xlink:href="#B" class="T U V a"/><path d="M45.86 46.67L50.4 84.4a1.78 1.78 0 0 0 1.09 1.45l35.06 14.65a1.83 1.83 0 0 0 1.45 0l34.86-16.1a1.8 1.8 0 0 0 1-1.5l2.85-37.77L87.8 59.5a3.85 3.85 0 0 1-2.53.05z" class="Z"/><path d="M126.74 45.2l-.18 2a2.38 2.38 0 0 1-1.54 2l-21.9 8.2-2 37.54v-36.8l-14.5 5.4-14.92-5 1.53 36.4-3.33-37-22.2-7.4a2.39 2.39 0 0 1-1.62-2l-.22-1.87 40.7 13.18z" fill="#add7ec" opacity=".75"/><g class="T U V a"><path d="M45.86 46.73L50.4 84.4a1.78 1.78 0 0 0 1.09 1.45l35.06 14.65a1.83 1.83 0 0 0 1.45 0l34.86-16.1a1.8 1.8 0 0 0 1-1.5l2.85-37.7-38.9 14.3a3.85 3.85 0 0 1-2.53.05zm-5.2-15.8l45.87 13.32"/><path d="M131.52 29.35l-45 14.9.03 15.6.73 40.83"/></g><g class="W"><path d="M57 50.3l12.6 4.12 3.65 40.5-12.72-5.3L57 50.3zm58.74-1.08L103.3 53.8l-2.18 40.62 12.52-5.77 2.1-39.42z"/><path d="M69.6 54.43L67.93 38.8l-12.4-3.62L57 50.3l12.6 4.12zm33.7-.6l1.1-15.4 12.27-4.08-.94 14.92-12.44 4.57z"/><path d="M67.93 38.8l43.85-16.76-11.22-3.53L55.53 35.2l12.4 3.62z"/><path d="M62.4 22.22l42 16.2 12.27-4.08-41.5-16.68-12.76 4.57z"/></g><g class="T U V a"><path d="M116.67 34.27L98.9 27.2l12.9-5.14-11.22-3.53L88.47 23l-13.3-5.35-12.76 4.57 13.8 5.32-20.67 7.65 1.26 12.77-.01-.01 3.73 41.68 12.72 5.3-3.65-40.52.02.01-.2-1.93-1.47-13.7L86.9 31.6l17.5 6.75-1.1 15.47-2.18 40.6 12.52-5.77 2.1-39.42.93-14.95z"/><path d="M86.9 31.6l12.3-4.52m-23 .46L88.47 23"/></g><use xlink:href="#C" class="c"/><use xlink:href="#D" fill="#acce63"/><use xlink:href="#E" class="c"/><path d="M92.2 13.06S102 1.25 107.85.3c0 0-1.57-.25-6.1 2C97.6 4.33 89 10.43 89 10.43zm-12.8-.5S69.07 2.06 63.26 1.1c0 0 2.42-.05 7 2.2 4.15 2.05 12.44 7.53 12.44 7.53z" fill="#e2edc7"/><use xlink:href="#F" fill="#acce63"/><g class="T U V a"><use xlink:href="#C"/><use xlink:href="#D"/><use xlink:href="#E"/><use xlink:href="#F"/></g><circle cx="85.81" cy="18.71" r="8.87" class="c"/><path d="M94.67,18.55a8.59,8.59,0,0,1-.16,1.83,8.86,8.86,0,0,0-17.41,0,9.3,9.3,0,0,1-.16-1.5,8.87,8.87,0,1,1,17.73-.32Z" fill="#e2edc7"/><circle cx="85.81" cy="18.71" r="8.87" class="T U V"/><use xlink:href="#G" class="Y Z"/><use xlink:href="#G" class="T U V a"/><use xlink:href="#H" class="W Y"/><use xlink:href="#H" class="T U V a"/><g class="Y"><path d="M165.78 80.28c0 10.15-14.95 18.37-33.4 18.37A53 53 0 0 1 112.32 95a30.59 30.59 0 0 1-7.4-4.23c-3.75-3-6-6.57-6-10.46 0-10.14 15-18.37 33.4-18.37a53.18 53.18 0 0 1 19.76 3.57 30.52 30.52 0 0 1 7.69 4.34c3.8 2.94 6 6.54 6 10.43z" class="b"/><path d="M163.3 80.28c0 9.93-14.4 18-32.17 18a50.35 50.35 0 0 1-19.32-3.6 29.18 29.18 0 0 1-7.12-4.14C101.08 87.6 99 84.1 99 80.28c0-9.92 14.4-18 32.17-18a50.7 50.7 0 0 1 19 3.49 29.56 29.56 0 0 1 7.41 4.25c3.62 2.98 5.73 6.46 5.73 10.26z" class="Z"/></g><path d="M165.8 80.28c0 3.83-2.13 7.4-5.78 10.33a30.69 30.69 0 0 1-7.64 4.39 56.51 56.51 0 0 1-40 0 30.79 30.79 0 0 1-7.4-4.23c-3.75-3-5.94-6.57-5.94-10.46s2.2-7.5 5.94-10.46a30.32 30.32 0 0 1 7.41-4.22 56.39 56.39 0 0 1 39.81-.12 30.59 30.59 0 0 1 7.7 4.34c3.7 2.94 5.9 6.54 5.9 10.43z" class="T U V a"/><g class="Y"><use xlink:href="#I" class="W"/><path d="M158.44 89.8a45 45 0 0 1-7.3 4.56l1.23.65a33.49 33.49 0 0 0 7.63-4.39z" opacity=".5" class="b"/></g><use xlink:href="#I" class="T U V a"/><g class="Y"><use xlink:href="#J" class="W"/><path d="M150.93,66.12s6.16,2.95,7.35,4.52l1.55-.82a29.59,29.59,0,0,0-7.69-4.34Z" opacity=".5" class="b"/></g><use xlink:href="#J" class="T U V a"/><g class="Y"><path d="M151.44 80.46c-1.23-.94-4.07-.95-6.66-.7l-.58.06 1-.3.27-.13-.73.37 1.52-.77.86-.5c6.07-3.6 3.3-6.5 2.7-7h-.1l-7.78-4c-1.7-.12-2.58-.1-4.92 1.75-1.9 1.5-3.48 6.13-4 7.75h-.34c-1.44-3.23-5.2-10.6-9.65-10.68l-8.27 4.5-.2.18-.16.17-.08.1c0 .06-.1.12-.13.2-.7 1.13-1 3.73 6.72 7.5-2.46-.37-5.38-.2-7.28 2-3.83 4.47 0 6.6 0 6.6l7.38 3.83a.08.08 0 0 1 0 0s3.16 3.72 11.38-6.12h.06l.1.1h-.08.1c6.8 8.45 11.56 6 11.56 6l8.5-4.4s1.4-4.58-1.17-6.5z" fill="#4294d0" opacity=".3"/><path d="M144.08 90s-4.8 2.5-11.68-6.13l.72-4.7 17.16 3.65z" class="W"/></g><path d="M144.08 90s-4.8 2.5-11.68-6.13l.72-4.7 17.16 3.65z" class="T U V a"/><path d="M132.37 83.88C124.15 93.7 121 90 121 90s-.75-5.46 2.55-7.3 8.82 1.18 8.82 1.18z" class="W Y"/><path d="M132.37 83.88C124.15 93.7 121 90 121 90s-.75-5.46 2.55-7.3 8.82 1.18 8.82 1.18z" class="T U V X"/><path d="M114.8 69.32s-5.5 3.5 11.54 10.45l-4-11.48z" class="W Y"/><path d="M114.8 69.32s-5.7 3.85 11.54 10.45l-4-11.48z" class="T U V X"/><path d="M149.76 70s4.85 3.64-4.52 8.12l-7.1 2 4.66-8.93 4.7-1.8z" class="W Y"/><path d="M147.5 69.42l2.25.58s4.58 3.9-5 8.36" stroke-linecap="round" class="T U V X"/><g class="Y"><path d="M114.8 69.32s2.2-1.32 5.37 2.44 4.35 7.6 7.65 9.08l5.52-3.84s-4.6-12-10.27-12.15z" class="Z"/><path d="M122.87 75.5s2.34-3.37 8-3.6l2.6 5-5.68 4a7.73 7.73 0 0 1-3.53-3.19z" opacity=".45" class="W"/></g><path d="M114.8 69.32s2.2-1.32 5.37 2.44 4.35 7.6 7.65 9.08l5.52-3.84s-4.6-12-10.27-12.15z" class="T U V X"/><use xlink:href="#K" class="Y Z"/><use xlink:href="#K" class="T U V X"/><use xlink:href="#L" class="Y Z"/><use xlink:href="#L" class="T U V X"/><g class="Y"><use xlink:href="#M" class="Z"/><path d="M134.18,72.44s5.45,0,8.5,2.34c0,0-1.56,4.62-3.14,4.37s-6.82-2.65-6.82-2.65" opacity=".45" class="W"/></g><use xlink:href="#M" class="T U V X"/><ellipse cx="132.4" cy="79.68" rx="7.14" ry="4.19" class="b"/><ellipse cx="131.9" cy="80.14" rx="6.4" ry="3.71" class="Z"/><ellipse cx="132.4" cy="79.68" rx="7.14" ry="4.19" class="T U V X"/><path d="M4.43 74.78l35 14.02v28.02l-35-16.98V74.78z" class="Z"/><path d="M4.44 87.52l1.64-9.65a.81.81 0 0 1 1-.69l17.36 5.6-20-8zm23.24-3.42s9.3 4.76 9.85 7.28 1.9 18.53 1.9 18.53V88.8z" class="b"/><path d="M39.44 88.8l35-14.02v25.06l-35 16.98V88.8z" class="Z"/><path d="M66.34 78l5.42-1a1.41 1.41 0 0 1 1.65 1.21l1 8.16v-11.6zm-26.78 30.42L41 92.76a5 5 0 0 1 2-3.37l9-5.53-12.56 4.94z" class="b"/><path d="M4.43 74.78l35 14.02 35-14.02-35-13.64-35 13.64z" class="Z"/><path d="M69.12 72.7s4.1 2.3-2.78 5.3l8.1-3.25zm-37.7 12.88s8.8 3.16 13.3.82l-5.3 2.4zM17.8 80.14l-8.1-4.8a.93.93 0 0 1 0-1.61l4.7-2.85-10 3.9z" class="b"/><path d="M60.12 106.85v-26.2L40.48 72.7 35 74.78l19.64 7.94v26.72l5.47-2.6z" class="W"/><g class="T U V X"><path d="M60.12 106.8V80.64L40.48 72.7 35 74.78l19.64 7.94v26.72l5.47-2.65z"/><path d="M39.44 88.8l35-14.02v25.06l-35 16.98V88.8zm-35-14.02l35 14.02 35-14.02-35-13.64-35 13.64z"/></g><path d="M19.7 107.44v-26.3l20.77-8.43 5.47 2.07-20.77 8.43v26.82l-5.47-2.6z" class="W"/><g class="T U V X"><path d="M19.7 107.25v-26.1l20.4-8.43 5.47 2.07-20.4 8.43v26.7l-5.47-2.65z"/><path d="M4.43 74.78l35 14.02v28.02l-35-16.98V74.78z"/></g><use xlink:href="#N" fill="#51a3da"/><use xlink:href="#N" class="T U V X"/><path d="M47.53 63s4.56-2.23 8.17 2.8c0 0-4.37 10.82-16.67 10.68L50.2 67z" fill="#51a3da"/><path d="M47.53 63s4.56-2.23 8.17 2.8c0 0-4.37 10.82-16.67 10.68L50.2 67z" class="T U V X"/><use xlink:href="#O" class="W"/><use xlink:href="#O" class="T U V X"/><use xlink:href="#P" class="W"/><use xlink:href="#P" class="T U V X"/><defs ><path id="B" d="M40.54 31.83l1.9 12.58a2.06 2.06 0 0 0 1.41 1.66l42 13.66a2 2 0 0 0 1.35 0l42.1-15.44a2.07 2.07 0 0 0 1.35-1.8l.9-12.55a2.08 2.08 0 0 0-1.45-2.12l-43-13.52a4.15 4.15 0 0 0-2.65.06L41.9 29.57a2.07 2.07 0 0 0-1.35 2.26z"/><path id="C" d="M85.16 25.12S74.87 32.38 66.9 34s-12.13.9-14-6.55a9.64 9.64 0 0 1 3.1-8.2 2.58 2.58 0 0 0 .44-3.08c-.84-2.05-2.16-4.7-1.9-8.44s4.65-8.5 12.18-5.9 18.2 10.56 18.2 10.56z"/><path id="D" d="M77.32 17.6a19.06 19.06 0 0 0-6.62-2.15c-3.12-.2-4.46 1.8-4.56 3.73s1.23 4 5.14 3.7l6.54-.83z"/><path id="E" d="M86.7 25.1s10.54 6.9 18.57 8.2 12.16.45 13.76-7a9.65 9.65 0 0 0-3.4-8.09 2.58 2.58 0 0 1-.54-3.06c.76-2.08 2-4.77 1.58-8.5s-5-8.32-12.38-5.45-17.82 11.17-17.82 11.17z"/><path id="F" d="M94.25 17.3a19 19 0 0 1 6.54-2.39c3.1-.33 4.53 1.65 4.7 3.56s-1.1 4.07-5 3.87l-6.56-.6z"/><path id="G" d="M165.8 87.28v8.94c0 3.84-2.13 7.4-5.78 10.33a31 31 0 0 1-7.64 4.4 56.61 56.61 0 0 1-40.05 0 30.79 30.79 0 0 1-7.4-4.23c-3.75-3-5.94-6.57-5.94-10.46v-8.98z"/><path id="H" d="M161.57 80.63h4.2v8.94c0 10.15-14.95 18.37-33.4 18.37S99 99.72 99 89.57v-8.94h62.6z"/><path id="I" d="M160 90.6v15.94a31 31 0 0 1-7.64 4.4V95l-14.53-7.72-32.9-17.46a30.32 30.32 0 0 1 7.41-4.22l41.35 21.68z"/><path id="J" d="M159.83 69.82l-33 17.46-14.5 7.72v15.94a30.59 30.59 0 0 1-7.4-4.23V90.74l6.46-3.46 40.76-21.8a30.52 30.52 0 0 1 7.69 4.34z"/><path id="K" d="M132.4 84s7.15-2.16 10.53-.67c0 0 3.85 2.23 1.15 6.63l8.5-4.4s1.43-4.56-1.13-6.5-11.9.1-11.9.1z"/><path id="L" d="M131.7 83.84l-6.23-5.06s-8-3.76-11.8.7 0 6.6 0 6.6L121 90s-.75-5.47 2.55-7.3 8.14 1.15 8.14 1.15z"/><path id="M" d="M132.9 76.1s1.84-6.48 4.17-8.32S140.28 65.9 142 66l7.78 4s-4.5-.65-6.7 4.54l-.48 1a9.47 9.47 0 0 1-3.92 4.25z"/><path id="N" d="M30.8 64l-1.65 3.74 9.3 7.45.55 1.25s-11.34-1.07-15.76-8.26c.03 0 3-6.18 7.55-4.18z"/><path id="O" d="M55.7 65.76s-2.78-7.06-10.12-7.36c0 0-4-.35-4.5.77L39 76.44l6.75-13.13a10.12 10.12 0 0 1 9.95 2.45z"/><path id="P" d="M39 76.44L33.2 64s-6.57-.74-9.94 4.2c0 0 2.67-10 13.14-9.25 0-.03 4.7 10.94 2.6 17.48z"/></defs></svg>