<svg xmlns="http://www.w3.org/2000/svg" viewBox="0 0 63.43 67.07"><style><![CDATA[.V{stroke-width:.5}.W{fill:none}.X{stroke:#3e5568}.Y{stroke-linejoin:round}.Z{stroke:#cecece}.a{stroke-miterlimit:10}]]></style><defs><clipPath id="A"><path d="M-42.8-427.25H447.3v347.72H-42.8z" class="W"/></clipPath></defs><g clip-path="url(#A)"><path d="M-118.92-76.13c25 46.3 111.18-53.5 195.4-39.53 66.35 11 63.45 14.9 128.8 0 36-8.18 69.4-24.9 98.16-48 31.26-25.17 64-26.47 109.37 22.27 60.52 65 35.45 120 35.45 120l-532.1 66z" fill="#fff" opacity=".07"/></g><path d="M.25 32l4.82-3.92V32H.25z" fill="#6c9bb9"/><path d="M.25 32l4.82-3.92V32H.25z" class="V W X Y"/><path d="M55.62 32l-4.82-3.92V32h4.82z" fill="#6c9bb9"/><g class="V"><path d="M55.62 32l-4.82-3.92V32h4.82z" class="W X Y"/><path d="M5.07.25H50.8v59.8H5.07z" fill="#fff" stroke="#14395e"/></g><path d="M13.3.25s9.2 33.32 37.5 37.16v5.76H5.07V.25z" fill="#f8f8f9" opacity=".65"/><g class="V W a"><path d="M5.07.25H50.8v59.8H5.07z" class="X"/><path d="M11.05 19.3h33.7v8.52h-33.7zM22.5 7.35h22.24m-22.24 3.5h22.24M27.46 14.2H38.5" class="Z"/></g><g fill="#cecece" class="V Z"><circle cx="41.37" cy="14.19" r=".29"/><circle cx="44.21" cy="14.19" r=".29"/></g><path d="M11.05 6.85h4.5v4.5h-4.5z" fill="#3d97d2"/><path d="M55.62,32V60.06H.25V32h17a10.65,10.65,0,0,0,21.3,0Z" fill="#86c2e8"/><g fill="#fff"><path d="M25.9 42.72s11.68 2.44 14.45-9.63L55.62 32h-17S36.2 42.25 25.9 42.72z" opacity=".6"/><path d="M29.73 42.75C17.3 43.72 15 34.64 15 34.64H7.7c-2.82 0-5.62.22-5.88 3.7L.3 60.06.25 32h17l.36 2.54c3.17 8.92 12.12 8.2 12.12 8.2z" opacity=".4"/></g><path d="M55.62,32V60.06H.25V32h17a10.65,10.65,0,0,0,21.3,0Z" class="V W X Y"/><g fill="#3e5568"><circle cx="53.73" cy="33.86" r=".29"/><circle cx="2.11" cy="33.86" r=".29"/><circle cx="2.11" cy="58.18" r=".29"/></g><path d="M12.95 23.55h29.8" class="V W Z a"/><circle cx="51.47" cy="55.11" r="11.96" fill="#3e5568" opacity=".15"/><circle cx="49.56" cy="52.99" r="11.96" fill="#a5ce5d"/><path d="M39.86,54.25A11.94,11.94,0,0,0,44.94,64,12,12,0,1,1,56.46,43.22a12,12,0,0,0-16.6,11Z" fill="#c9e293" opacity=".35"/><g class="W"><circle cx="49.56" cy="52.99" r="11.96" class="V X"/><path d="M44.6 53.46l2.8 3.1 7.1-7.1" stroke-linecap="round" stroke="#fff" stroke-width="1.5" class="Y"/></g></svg>