<svg xmlns="http://www.w3.org/2000/svg" viewBox="0 0 55.87 60.31"><style><![CDATA[.Q{stroke-width:.5}.R{fill:none}.S{stroke:#3e5568}.T{stroke:#cecece}.U{stroke-linejoin:round}.V{stroke-miterlimit:10}]]></style><defs><clipPath id="A"><path d="M36.16-427.25h490.12v347.72H36.16z" class="R"/></clipPath></defs><g clip-path="url(#A)"><path d="M-40-76.13c25 46.3 111.2-53.5 195.4-39.53 66.34 11 63.45 14.9 128.8 0 36-8.18 69.4-24.9 98.15-48 31.27-25.17 64-26.47 109.37 22.27 60.52 65 35.45 120 35.45 120L-4.9 44.6z" fill="#fff" opacity=".07"/></g><path d="M.25 32l4.82-3.92V32H.25z" fill="#9a9696"/><path d="M.25 32l4.82-3.92V32H.25z" class="Q R S U"/><path d="M55.62 32l-4.82-3.92V32h4.82z" fill="#9a9696"/><path d="M55.62 32l-4.82-3.92V32h4.82z" class="Q R S U"/><path d="M5.07.25H50.8v59.8H5.07z" fill="#f0f0f0"/><path d="M13.3.25s9.2 33.32 37.5 37.16v5.76H5.07V.25z" fill="#cfcfcf" opacity=".15"/><g class="Q R V"><path d="M5.07.25H50.8v59.8H5.07z" class="S"/><path d="M11.05 19.3h33.7v8.52h-33.7zM22.5 7.35h22.24m-22.24 3.5h22.24M27.46 14.2H38.5" class="T"/></g><g fill="#cecece"><circle cx="41.37" cy="14.19" r=".29" class="Q T"/><circle cx="44.21" cy="14.19" r=".29" class="Q T"/><path d="M11.05 6.85h4.5v4.5h-4.5z"/></g><path d="M55.62,32V60.06H.25V32h17a10.65,10.65,0,0,0,21.3,0Z" fill="#cfcfcf"/><g fill="#fff"><path d="M25.9 42.72s11.68 2.44 14.45-9.63L55.62 32h-17S36.2 42.25 25.9 42.72z" opacity=".6"/><path d="M29.73 42.75C17.3 43.72 15 34.64 15 34.64H7.7c-2.82 0-5.62.22-5.88 3.7L.3 60.06.25 32h17l.36 2.54c3.17 8.92 12.12 8.2 12.12 8.2z" opacity=".4"/></g><path d="M55.62,32V60.06H.25V32h17a10.65,10.65,0,0,0,21.3,0Z" class="Q R S U"/><g fill="#3e5568"><circle cx="53.73" cy="33.86" r=".29"/><circle cx="53.73" cy="58.18" r=".29"/><circle cx="2.11" cy="33.86" r=".29"/><circle cx="2.11" cy="58.18" r=".29"/></g><path d="M12.95 23.55h29.8" class="Q R T V"/></svg>