<svg xmlns="http://www.w3.org/2000/svg" xmlns:xlink="http://www.w3.org/1999/xlink" viewBox="0 0 325.1 295.11"><style><![CDATA[.P{stroke:#133f5d}.Q{stroke-width:.5}.R{stroke-miterlimit:10}.S{fill:#d0e4a6}.T{fill:#d0e2a8}.U{fill:#a9d0ea}.V{fill:#f2aaba}]]></style><defs><linearGradient id="A" x1="161.54" y1="200" x2="300.01" y2="61.53" gradientUnits="userSpaceOnUse"><stop offset="0" stop-color="#b7f28c"/><stop offset=".09" stop-color="#c3f49f" stop-opacity=".84"/><stop offset=".22" stop-color="#d3f7b8" stop-opacity=".62"/><stop offset=".35" stop-color="#e0f9ce" stop-opacity=".43"/><stop offset=".49" stop-color="#ebfbdf" stop-opacity=".27"/><stop offset=".62" stop-color="#f4fded" stop-opacity=".15"/><stop offset=".75" stop-color="#fafef7" stop-opacity=".07"/><stop offset=".88" stop-color="#fefffd" stop-opacity=".02"/><stop offset="1" stop-color="#fff" stop-opacity="0"/></linearGradient><linearGradient id="B" x1="159.34" y1="201.08" x2="20.87" y2="62.61" xlink:href="#A"/><linearGradient id="C" x1="224.835" y1="219.724" x2="159.754" y2="35.559" xlink:href="#A"/><path id="D" d="M82 161.35L85.27 183a3.57 3.57 0 0 0 2.43 2.86l72.24 23.5a3.58 3.58 0 0 0 2.33-.05l72.43-26.55a3.59 3.59 0 0 0 2.34-3.11l1.53-21.6a3.57 3.57 0 0 0-2.49-3.66l-74-23.25a7.09 7.09 0 0 0-4.55.09l-73.2 26.2a3.56 3.56 0 0 0-2.33 3.89z"/><path id="E" d="M158.78 149.8s-17.7 12.5-31.42 15.26-20.88 1.53-24.1-11.28c0 0-1.43-7.55 5.34-14.1 0 0 2.2-1.76.75-5.3s-3.7-8.1-3.25-14.53 8-14.6 21-10.14 31.33 18.2 31.33 18.2z"/><path id="F" d="M145.3 136.9s-6-3.35-11.4-3.7-7.68 3.12-7.85 6.42 2.12 6.93 8.85 6.35 11.25-1.43 11.25-1.43z"/><path id="G" d="M161.43 149.76s18.13 11.85 31.95 14.12 20.92.78 23.67-12.14c0 0 1.17-7.6-5.84-13.9 0 0-2.25-1.7-.94-5.27s3.42-8.2 2.73-14.63-8.53-14.32-21.3-9.38-30.7 19.3-30.7 19.3z"/><path id="H" d="M174.43 136.36s5.9-3.56 11.26-4.1 7.78 2.84 8.07 6.13-1.86 7-8.6 6.66-11.3-1-11.3-1z"/></defs><ellipse cx="160.27" cy="258.22" rx="95.47" ry="30.27" fill="#30506b" opacity=".15"/><path d="M200.27 225.6l104.8-159.02-52.4-22.03-66.42 180.17 14.02.88z" fill="url(#A)"/><path d="M120.6 226.68L15.8 67.66l52.4-22.03 66.4 180.16-14.02.9z" fill="url(#B)"/><path d="M154.17 188.73L128.74 0h63.4L167.2 194.02l-13.02-5.3z" fill="url(#C)"/><use xlink:href="#D" fill="#d0e4f3"/><g fill="#ecf4fb"><path d="M225.7 161.34s8.88-2.94 10.82 2c1.58 4.05.63 14.7.63 14.7l1.3-18.34.12-2.65zm-64.58 21.36l14-4.64s-10.4 4.4-11.36 8.9l-2.76 18.7z"/><path d="M149.35 179.3s7.46 3.22 8.42 6.27 3.23 21.7 3.23 21.7l.12-24.55zm-64.85-1.38s-1.33-12.68.58-14.16c2.3-1.8 16.76 1.73 16.76 1.73l-19.65-5.7-.22.43zm154.07-20.84l-77.45 25.63-78.93-22.93a3.57 3.57 0 0 1 2.21-2.32l73.2-26.22a7.16 7.16 0 0 1 4.55-.08l74 23.25a3.58 3.58 0 0 1 2.42 2.67z"/></g><use xlink:href="#D" fill="none" class="P Q R"/><path d="M91.16 186.88l7.8 65a3.09 3.09 0 0 0 1.88 2.48l60.34 25.2a3.06 3.06 0 0 0 2.48 0l60-27.67a3.09 3.09 0 0 0 1.79-2.57l4.9-65-67 24.75a6.65 6.65 0 0 1-4.36.08z" fill="#d0e4f3"/><path d="M230.34 184.37l-.3 3.47a4.12 4.12 0 0 1-2.66 3.51l-37.7 14-3.43 64.65v-63.36l-24.95 9.27-25.67-8.58 2.63 62.67-5.73-63.67-38.2-12.78a4.1 4.1 0 0 1-2.78-3.41l-.38-3.22 70 22.66z" fill="#add8ee" opacity=".75"/><g fill="none" class="P Q R"><path d="M91.16 187L99 251.84a3.09 3.09 0 0 0 1.88 2.48l60.34 25.2a3.06 3.06 0 0 0 2.48 0l60-27.67a3.09 3.09 0 0 0 1.79-2.57l4.9-64.87-67 24.62a6.65 6.65 0 0 1-4.36.08zm-8.96-27.22l78.93 22.93"/><path d="M238.57 157.08l-77.45 25.63.06 26.83 1.26 70.25"/></g><g fill="#86c2e8"><path d="M110.3 193.15l21.67 7.1 6.27 69.72-21.9-9.15-6.05-67.66zm101.1-1.88l-21.4 7.87-3.76 69.9 21.55-9.93 3.6-67.84z"/><path d="M132 200.24l-2.87-26.87-21.34-6.24 2.54 26.02 21.67 7.1zm58-1.04l1.9-26.53 21.1-7-1.6 25.67-21.4 7.87zm-60.86-25.83l75.46-28.85-19.3-6.07-77.5 28.68 21.34 6.24z"/><path d="M119.63 144.82l72.27 27.85 21.1-7-71.4-28.7-21.97 7.87z"/></g><g fill="none" class="P Q R"><path d="M213 165.55l-30.57-12.18 22.17-8.85-19.3-6.07-20.82 7.7-22.88-9.2-21.96 7.86 23.73 9.15-35.57 13.16 2.17 21.98h-.03l6.42 71.7 21.9 9.15-6.28-69.73.03.01-.33-3.32-2.53-23.55 32.63-12.42 30.12 11.6-1.9 26.63-3.76 69.85 21.55-9.93 3.62-67.84h-.01l1.6-25.72z"/><path d="M161.78 160.95l21.17-7.8m-39.58.82l21.1-7.82"/></g><use xlink:href="#E" class="S"/><use xlink:href="#F" fill="#add064"/><use xlink:href="#G" class="S"/><path d="M170.9 129.05s16.94-20.33 26.93-22c0 0-2.7-.44-10.5 3.4-7.15 3.53-22 14-22 14zm-22-.83s-17.78-18.1-27.78-19.74c0 0 4.16-.1 12 3.76 7.16 3.53 21.4 13 21.4 13z" fill="#e3f0c8"/><use xlink:href="#H" fill="#add064"/><g fill="none" class="P Q R"><use xlink:href="#E"/><use xlink:href="#F"/><use xlink:href="#G"/><use xlink:href="#H"/></g><circle cx="159.9" cy="138.77" r="15.26" class="S"/><path d="M175.16 138.5a14.89 14.89 0 0 1-.27 3.15 15.26 15.26 0 0 0-30 0 15.67 15.67 0 0 1-.27-2.58 15.26 15.26 0 0 1 30.51-.55z" fill="#e3f0c8"/><circle cx="159.9" cy="138.77" r="15.26" fill="none" class="P Q"/><g fill-rule="evenodd"><path d="M261 97.37c.7-.62 3.57-.74 6 2s3.35 6 2 7.13-4.35-.17-6.8-3-2.07-5.4-1.2-6.13z" class="T"/><path d="M268.47 214.62a2.63 2.63 0 0 1-2.52-1c-1.3-2.95-3.4-11.58 8.36-23.37 9.75-9.77 9.74-16.74 8.64-20.32-.35-1.12 1.67-2.06 3.5-1.65l.74.16c.92.2 1.5.7 1.5 1.28a31.22 31.22 0 0 1-9.57 21.84c-7.12 6.9-10.77 16.66-8.14 21.05.55.93-.56 1.95-2.3 2z" class="U"/><path d="M30.94 200.38a2.63 2.63 0 0 1-2.43-1.22c-1.05-3-2.45-11.82 10.23-22.62C49.24 167.6 49.8 160.64 49 157c-.25-1.15 1.83-1.92 3.64-1.36l.72.22c.9.28 1.45.82 1.4 1.4a31.18 31.18 0 0 1-11.31 21c-7.66 6.3-12.08 15.73-9.82 20.32.48 1-.7 1.9-2.46 1.83z" class="V"/><path d="M65.38 112.68c-.86-.36-2.23-2.87-.8-6.3s3.88-5.65 5.5-5 1.77 4 .35 7.4-4 4.3-5.03 3.9z" class="U"/><path d="M179.74 93.34c-.42 1.1-1.22 1.9-1.93 1.9-3.22 0-12-1.44-18.17-16.9-5.13-12.8-11.54-15.55-15.26-16-1.16-.12-1.23-2.35-.13-3.88l.44-.6c.55-.76 1.24-1.1 1.77-.88a31.18 31.18 0 0 1 16.29 17.41c3.53 9.27 11.05 16.48 16.12 15.8 1.08-.15 1.57 1.28.95 2.9zM6.7 174.3c-.82.42-3.63-.14-5.33-3.42s-1.83-6.6-.28-7.4 4.2 1.2 5.9 4.54.7 5.77-.3 6.3z" class="T"/><path d="M271 260.45c.18-.92 2.36-2.77 6-2.07s6.32 2.65 6 4.37-3.55 2.54-7.18 1.84-5.02-3.04-4.82-4.14z" class="V"/><path d="M323.9 220.06c-.83.43-3.64-.13-5.34-3.4s-1.83-6.6-.28-7.4 4.2 1.2 5.9 4.5.7 5.82-.28 6.33z" class="T"/><path d="M22.15 253.74c-.33-.87.54-3.6 4-4.93s6.76-1.08 7.4.55-1.66 4-5.1 5.36-5.88.06-6.28-.98z" class="U"/><path d="M120.05 290.72c.18-.9 2.36-2.77 6-2.07s6.3 2.66 6 4.37-3.54 2.55-7.18 1.85-5.03-3.05-4.82-4.15zm94.55-52.12c-.5 1.08-1.35 1.82-2.06 1.77-3.2-.2-11.85-2.26-17-18.1-4.24-13.13-10.44-16.3-14.12-17-1.16-.2-1.08-2.42.13-3.88l.48-.58c.6-.72 1.32-1 1.83-.76a31.18 31.18 0 0 1 15.05 18.49c2.9 9.5 9.9 17.2 15 16.87 1.07-.07 1.47 1.38.74 3z" class="V"/></g></svg>