<svg xmlns="http://www.w3.org/2000/svg" viewBox="0 0 27 27"><circle cx="13.498" cy="13.504" r="13" fill="#4399d4" stroke="#4399d4"/><g fill="none" stroke="#fff" stroke-miterlimit="10" stroke-width=".651"><path d="M8.544 9.176h9.907a1.09 1.09 0 0 1 1.099 1.083v6.483a1.09 1.09 0 0 1-1.099 1.083H8.544a1.09 1.09 0 0 1-1.099-1.083v-6.483a1.09 1.09 0 0 1 1.099-1.083z"/><path d="M7.446 12.417h12.1"/></g><g fill="#fff"><circle cx="9.18" cy="16.15" r=".51"/><path d="M12.53 16.65H10.7a.51.51 0 0 1 0-1.02h1.82a.51.51 0 0 1 0 1.02z"/></g></svg>