<svg xmlns="http://www.w3.org/2000/svg" viewBox="0 0 27.3 27.3" width="28" height="28"><circle cx="13.65" cy="13.65" r="13" fill="#4399d4" stroke="#4399d4" stroke-width="1.3"/><circle cx="13.652" cy="14.466" r="5.12" fill="#4299d4" stroke="#fff" stroke-linejoin="round"/><g fill="#fff"><circle cx="13.652" cy="14.466" r=".67"/><g fill-rule="evenodd"><path d="M13.652 14.576a.28.28 0 0 1-.28-.28v-2.84a.28.28 0 0 1 .56 0v2.84a.28.28 0 0 1-.28.28z"/><path d="M13.652 14.476v-.02a.28.28 0 0 1 .28-.28h3.02a.28.28 0 0 1 .28.28v.02a.28.28 0 0 1-.28.28h-3.02c-.16-.01-.28-.13-.28-.28z"/></g></g><path d="M11.882 7.706h3.54m-1.77.1v1.54" stroke="#fff" stroke-linejoin="round" fill="none" stroke-linecap="round" stroke-miterlimit="10"/></svg>