<svg xmlns="http://www.w3.org/2000/svg" xmlns:xlink="http://www.w3.org/1999/xlink" viewBox="0 0 27.3 27.3"><linearGradient gradientUnits="userSpaceOnUse" x1="1673.297" y1="-2395.093" x2="1920.379" y2="-2222.065"><stop offset="0" stop-color="#50a0d8"/><stop offset="1" stop-color="#2b7fb9"/></linearGradient><linearGradient gradientUnits="userSpaceOnUse" x1="1263.242" y1="-2395.092" x2="1510.324" y2="-2222.064"><stop offset="0" stop-color="#50a0d8"/><stop offset="1" stop-color="#2b7fb9"/></linearGradient><defs><path id="A" d="M1191-2494.34h360.74v205.52H1191z"/><path id="B" d="M1244.3-2651.4s80.64-92.38 142.4-20.4c61.75 71.97 102.3-46.72 155.82 17.97 53.52 64.7 103.4-35.26 148.68 9.38l-3.03 60.36s-58.66 18.22-154.38-17.3c-95.7-35.53-164.12 21.07-254.7-8.08s-105.8-64.7-105.8-64.7l65.87 21.86 5.14.92z"/><path id="C" d="M1209.02-2620.98c17.5 39.17 98.64-45.8 172.74-26.67s142.18 64.03 185.4 27.58c43.23-36.44 57.46-93.28 104.8-35.88s40.3 132.46 40.3 132.46l-484.74 1.82-18.52-99.3z"/><path id="D" d="M-3570.3-2522.4s77.1-125.84 164.85-52.86c87.75 72.97 112-76.02 188.5-10.04s115.6-62.65 178.3-18.8l8.55 72.23s-65.94 33.43-186.66 10.53-190.5 58.03-303.83 41.67-138.56-55.47-138.56-55.47l82.56 12.7 6.28.04z"/><path id="E" d="M-3606.05-2479.2c28.65 42.96 107.83-74.2 199.6-66.4s181.6 47.35 225.55-4.6 49.4-122.25 117.14-63.67c67.73 58.57 74.5 149.05 74.5 149.05l-574.8 99.72-41.98-114.1z"/><path id="F" d="M-128.46-488.7c-1.67 0-3.04-1.37-3.04-3.04s1.37-3.04 3.04-3.04 3.04 1.37 3.04 3.04-1.37 3.04-3.04 3.04z"/><path id="G" d="M204.22-2620.98c17.5 39.18 98.64-45.8 172.74-26.67s142.18 64.03 185.4 27.58c43.23-36.44 57.46-93.28 104.8-35.88s40.3 132.46 40.3 132.46l-484.74 1.82-18.52-99.3z"/></defs><clipPath id="H"><use xlink:href="#A"/></clipPath><g transform="matrix(.833777 0 0 .833777 147.87569 -91.725744)" clip-path="url(#H)" fill="#fff" opacity=".7"><use xlink:href="#B" opacity=".15"/><use xlink:href="#C" opacity=".1"/></g><linearGradient gradientUnits="userSpaceOnUse" x1="2889.711" y1="-2395.092" x2="3136.793" y2="-2222.064"><stop offset="0" stop-color="#50a0d8"/><stop offset="1" stop-color="#2b7fb9"/></linearGradient><defs><path id="I" d="M2817.47-2494.34h360.74v205.52h-360.74z"/></defs><clipPath id="J"><use xlink:href="#I"/></clipPath><g transform="matrix(.833777 0 0 .833777 147.87569 -91.725744)" clip-path="url(#J)" fill="#fff" opacity=".7"><use xlink:href="#B" x="1950.72" opacity=".15"/><use xlink:href="#C" x="1950.72" opacity=".1"/></g><linearGradient gradientUnits="userSpaceOnUse" x1="-2047.55" y1="-2252.571" x2="-1555.107" y2="-2252.571"><stop offset="0" stop-color="#50a0d8"/><stop offset="1" stop-color="#2b7fb9"/></linearGradient><linearGradient gradientUnits="userSpaceOnUse" x1="-2880.596" y1="-2254.41" x2="-2388.153" y2="-2254.41"><stop offset="0" stop-color="#50a0d8"/><stop offset="1" stop-color="#2b7fb9"/></linearGradient><defs><path id="K" d="M-2418.47-2245.44v331.56H-2778v-331.56"/></defs><clipPath ><use xlink:href="#K"/></clipPath><defs><path id="M" d="M-2418.47-1859.72v331.57H-2778v-331.57"/></defs><clipPath ><use xlink:href="#M"/></clipPath><defs><path id="O" d="M-2778.24-2351.2h360v205.7h-360z"/></defs><clipPath id="P"><use xlink:href="#O"/></clipPath><g clip-path="url(#P)"><defs><path id="Q" d="M-2388.15-2183s-79.9-35.7-159.55-9.2c-78.67 26.2-107.47 91.95-325 12.3l-7.9-162.43h482.55l9.9 159.32z"/></defs><clipPath id="R"><use xlink:href="#Q"/></clipPath><g transform="matrix(.833777 0 0 .833777 147.87569 -91.725744)" clip-path="url(#R)" fill="#fff" opacity=".7"><use xlink:href="#D" opacity=".15"/><use xlink:href="#E" opacity=".1"/></g></g><linearGradient gradientUnits="userSpaceOnUse" x1="-2880.591" y1="-2254.411" x2="-2388.147" y2="-2254.411"><stop offset="0" stop-color="#50a0d8"/><stop offset="1" stop-color="#2b7fb9"/></linearGradient><defs><path id="S" d="M-2010.72-2243.6v331.56h-359.52v-331.56"/></defs><clipPath ><use xlink:href="#S"/></clipPath><defs><path id="U" d="M-2010.72-1857.88v331.57h-359.52v-331.57"/></defs><clipPath ><use xlink:href="#U"/></clipPath><linearGradient gradientUnits="userSpaceOnUse" x1="-2880.596" y1="-2254.411" x2="-2388.153" y2="-2254.411"><stop offset="0" stop-color="#50a0d8"/><stop offset="1" stop-color="#2b7fb9"/></linearGradient><defs><path id="W" d="M-1169.06-2243.32v331.57h-359.53v-331.57"/></defs><clipPath ><use xlink:href="#W"/></clipPath><linearGradient gradientUnits="userSpaceOnUse" x1="-2880.594" y1="-2254.41" x2="-2388.151" y2="-2254.41"><stop offset="0" stop-color="#50a0d8"/><stop offset="1" stop-color="#2b7fb9"/></linearGradient><defs><path id="Y" d="M-3448.1-2245.44v331.56h-359.53v-331.56"/></defs><clipPath ><use xlink:href="#Y"/></clipPath><defs><path id="a" d="M-3448.1-1859.72v331.57h-359.53v-331.57"/></defs><clipPath ><use xlink:href="#a"/></clipPath><defs><path id="c" d="M-3807.86-2351.2h360v205.7h-360z"/></defs><clipPath id="d"><use xlink:href="#c"/></clipPath><g clip-path="url(#d)"><defs><path id="e" d="M-3417.78-2183s-79.9-35.7-159.55-9.2c-78.67 26.2-107.47 91.95-325 12.3l-7.9-162.43h482.55l9.9 159.32z"/></defs><clipPath id="f"><use xlink:href="#e"/></clipPath><g transform="matrix(.833777 0 0 .833777 147.87569 -91.725744)" clip-path="url(#f)" fill="#fff" opacity=".7"><use xlink:href="#D" x="-1234.9" opacity=".15"/><use xlink:href="#E" x="-1234.9" opacity=".1"/></g></g><linearGradient gradientUnits="userSpaceOnUse" x1="-2880.588" y1="-2254.41" x2="-2388.145" y2="-2254.41"><stop offset="0" stop-color="#50a0d8"/><stop offset="1" stop-color="#2b7fb9"/></linearGradient><defs><path id="g" d="M-3040.34-2245.44v331.56h-359.53v-331.56"/></defs><clipPath ><use xlink:href="#g"/></clipPath><defs><path id="i" d="M-3040.34-1859.72v331.57h-359.53v-331.57"/></defs><clipPath ><use xlink:href="#i"/></clipPath><defs><path id="k" d="M-1584.83-1857.88v331.57h-359.53v-331.57"/></defs><clipPath ><use xlink:href="#k"/></clipPath><defs><path id="m" d="M-1584.83-2269.83v370.67h-359.53v-370.67"/></defs><clipPath ><use xlink:href="#m"/></clipPath><defs><path id="o" d="M-1169.06-1849.82v331.56h-359.53v-331.56"/></defs><clipPath ><use xlink:href="#o"/></clipPath><linearGradient gradientUnits="userSpaceOnUse" x1="425.463" y1="-2395.092" x2="672.544" y2="-2222.064"><stop offset="0" stop-color="#50a0d8"/><stop offset="1" stop-color="#2b7fb9"/></linearGradient><defs><path id="q" d="M353.22-2494.34h360.74v205.52H353.22z"/></defs><clipPath id="r"><use xlink:href="#q"/></clipPath><g transform="matrix(.833777 0 0 .833777 147.87569 -91.725744)" clip-path="url(#r)" fill="#fff" opacity=".7"><path d="M239.5-2651.4s80.64-92.38 142.4-20.4c61.75 71.97 102.3-46.72 155.82 17.97 53.52 64.7 103.4-35.26 148.68 9.38l-3.03 60.36s-58.66 18.22-154.37-17.3-164.12 21.07-254.7-8.08-105.8-64.7-105.8-64.7l65.87 21.86 5.13.92z" opacity=".15"/><use xlink:href="#G" opacity=".1"/></g><linearGradient gradientUnits="userSpaceOnUse" x1="844.845" y1="-2395.313" x2="1091.927" y2="-2222.286"><stop offset="0" stop-color="#50a0d8"/><stop offset="1" stop-color="#2b7fb9"/></linearGradient><defs><path id="s" d="M772.6-2494.57h360.74v205.52H772.6z"/></defs><clipPath id="t"><use xlink:href="#s"/></clipPath><g transform="matrix(.833777 0 0 .833777 147.87569 -91.725744)" clip-path="url(#t)" fill="#fff" opacity=".7"><use xlink:href="#B" x="-501.8" y="-.26" opacity=".15"/><use xlink:href="#G" x="502.98" y="-.27" opacity=".1"/></g><linearGradient gradientUnits="userSpaceOnUse" x1="2470.328" y1="-555.578" x2="2717.41" y2="-382.549"><stop offset="0" stop-color="#50a0d8"/><stop offset="1" stop-color="#2b7fb9"/></linearGradient><linearGradient gradientUnits="userSpaceOnUse" x1="2889.711" y1="-557.362" x2="3136.793" y2="-384.333"><stop offset="0" stop-color="#50a0d8"/><stop offset="1" stop-color="#2b7fb9"/></linearGradient><circle cx="13.648" cy="13.654" r="13" stroke-width="1.3" stroke="#4399d4" fill="#4399d4"/><g fill="#4299d4" stroke="#fff" stroke-linejoin="round"><ellipse cx="14.8" cy="14.98" rx="4.34" ry="1.93"/><ellipse cx="14.8" cy="12.46" rx="4.34" ry="1.93"/><ellipse cx="14.8" cy="9.94" rx="4.34" ry="1.93"/><use xlink:href="#F" x="139" y="508" stroke-miterlimit="10"/></g></svg>