<svg xmlns="http://www.w3.org/2000/svg" viewBox="0 0 27.3 27.3"><circle cx="13.668" cy="13.684" r="13" fill="#4399d4" stroke="#4399d4" stroke-width="1.3"/><path d="M14.804 9.46a1.82 1.82 0 0 0-2.544-.027l-2.173 2.104c-.292.293-.45.666-.45 1.065V18.7a1.04 1.04 0 0 0 1.034 1.039h5.67a1.02 1.02 0 0 0 1.034-1.039v-6.098c0-.213-.053-.4-.133-.586L14.804 9.46z" fill="none" stroke="#fff" stroke-miterlimit="10" stroke-width=".531"/><path d="M13.5 12.9a.68.68 0 0 1-.7-.7.68.68 0 0 1 .7-.7.68.68 0 0 1 .7.7c0 .3-.3.7-.7.7z" fill="#fff"/><path d="M13.5 12.1s4.9-2.9 4.1-4.3C16.8 6.7 14.1 9 14.1 9" fill="none" stroke="#fff" stroke-miterlimit="10"/></svg>