<svg xmlns="http://www.w3.org/2000/svg" viewBox="0 0 27.3 27.3"><circle cx="13.648" cy="13.654" r="13" fill="#4399d4" stroke="#4399d4" stroke-width="1.3"/><g transform="matrix(.805138 0 0 .80291 616.76596 71.1129)"><g fill="#4299d4" stroke="#fff" stroke-linejoin="round"><g stroke-miterlimit="10"><path d="M-750.58-76.24h3v5.96h-3z"/><path d="M-754.92-74.03l-.8 9.68h13.3l-.8-9.68h-11.68zm-.38-4.77v.02c0 2.12 2.75 2.78 6.2 2.78s6.3-.66 6.3-2.78v-.02h-12.5z"/></g><circle cx="-749.089" cy="-69.19" r="2.39"/></g><g fill="#fff"><ellipse cx="-1068.31" cy="-541.33" rx=".37" ry=".39" transform="matrix(.655597 0 0 .686587 -48.706113 302.48345)"/><path d="M-749.09-68.97a.18.18 0 0 1-.18-.18v-1.78a.18.18 0 0 1 .36 0v1.78a.18.18 0 0 1-.18.18z" fill-rule="evenodd"/></g></g></svg>