<?xml version="1.0" encoding="utf-8"?>
<!-- Generator: Adobe Illustrator 23.0.0, SVG Export Plug-In . SVG Version: 6.00 Build 0)  -->
<svg version="1.1"
	 id="Layer_1" xmlns:cc="http://creativecommons.org/ns#" xmlns:dc="http://purl.org/dc/elements/1.1/" xmlns:inkscape="http://www.inkscape.org/namespaces/inkscape" xmlns:rdf="http://www.w3.org/1999/02/22-rdf-syntax-ns#" xmlns:sodipodi="http://sodipodi.sourceforge.net/DTD/sodipodi-0.dtd" xmlns:svg="http://www.w3.org/2000/svg"
	 xmlns="http://www.w3.org/2000/svg" xmlns:xlink="http://www.w3.org/1999/xlink" x="0px" y="0px" viewBox="0 0 27.3 27.3"
	 style="enable-background:new 0 0 27.3 27.3;" xml:space="preserve">
<style type="text/css">
	.st0{fill:#4399D4;stroke:#4399D4;stroke-miterlimit:10;}
	.st1{fill:#FFFFFF;}
	.st2{fill:none;stroke:#FFFFFF;stroke-miterlimit:10;}
</style>
<sodipodi:namedview  bordercolor="#666666" borderopacity="1" fit-margin-bottom="0" fit-margin-left="0" fit-margin-right="0" fit-margin-top="0" gridtolerance="10" guidetolerance="10" id="namedview17" inkscape:current-layer="Layer_1" inkscape:cx="13.502208" inkscape:cy="13.503893" inkscape:pageopacity="0" inkscape:pageshadow="2" inkscape:window-height="1005" inkscape:window-maximized="1" inkscape:window-width="1920" inkscape:window-x="-9" inkscape:window-y="-9" inkscape:zoom="8.7407407" objecttolerance="10" pagecolor="#ffffff" showgrid="false">
	</sodipodi:namedview>
<g id="g14" transform="matrix(1.0111154,0,0,1.0111068,0.00224657,-0.0039221)">
	<g id="g4762_64_" transform="translate(2202.6677,294.48389)">
		<circle id="circle4614-2_64_" class="st0" cx="-2189.2" cy="-281" r="12.9"/>
	</g>
	<g id="g12">
		<g id="g8">
			<path id="path6" inkscape:connector-curvature="0" class="st1" d="M16.5,9l-5.1,9.4c-0.1,0.2-0.4,0.3-0.7,0.2l0,0
				c-0.2-0.1-0.3-0.4-0.2-0.7l5.1-9.4c0.1-0.2,0.4-0.3,0.7-0.2l0,0C16.5,8.5,16.6,8.8,16.5,9z"/>
		</g>
		<path id="path4138_16_" inkscape:connector-curvature="0" class="st2" d="M12.2,11.5c0,1.1-0.7,2-1.5,2c-0.8,0-1.5-0.9-1.5-2
			c0-1.1,0.7-2,1.5-2C11.6,9.5,12.3,10.4,12.2,11.5z"/>
		<path id="path4138_15_" inkscape:connector-curvature="0" class="st2" d="M18,15.9c0,1.1-0.7,2-1.5,2c-0.8,0-1.5-0.9-1.5-2
			c0-1.1,0.7-2,1.5-2C17.4,13.9,18,14.8,18,15.9z"/>
	</g>
</g>
</svg>
