<svg xmlns="http://www.w3.org/2000/svg" viewBox="0 0 27.3 27.3"><circle cx="13.648" cy="13.654" r="13" fill="none" stroke="#4399d4" stroke-width="1.3"/><circle cx="13.65" cy="14.47" r="5.12" fill="#fff" stroke="#4299d4" stroke-linejoin="round"/><g fill="#4299d4"><circle cx="13.65" cy="14.47" r=".67"/><g fill-rule="evenodd"><path d="M13.65 14.58a.28.28 0 0 1-.28-.28v-2.84a.28.28 0 1 1 .56 0v2.84a.28.28 0 0 1-.28.28z"/><path d="M13.65 14.48v-.02a.28.28 0 0 1 .28-.28h3.02a.28.28 0 0 1 .28.28v.02a.28.28 0 0 1-.28.28h-3.02c-.16-.01-.28-.13-.28-.28z"/></g></g><path d="M11.88 7.7h3.54m-1.77.1v1.54" fill="none" stroke="#4299d4" stroke-linejoin="round" stroke-linecap="round" stroke-miterlimit="10"/></svg>