<svg xmlns="http://www.w3.org/2000/svg" viewBox="0 0 27.3 27.3"><circle cx="13.648" cy="13.654" r="13" fill="none" stroke="#4399d4" stroke-width="1.3"/><path d="M16.65 9.14l-5.14 9.5c-.13.24-.43.32-.66.2-.24-.13-.32-.43-.2-.66l5.14-9.5c.13-.24.43-.32.66-.2a.48.48 0 0 1 .2.66z" fill="#4299d4"/><path d="M12.38 11.64c-.02 1.1-.7 2-1.55 2-.83-.01-1.5-.92-1.48-2.03s.7-2 1.55-2 1.5.92 1.48 2.03zm5.82 4.4c-.02 1.1-.7 2-1.55 2s-1.5-.92-1.5-2.03.7-2 1.55-2 1.5.92 1.5 2.03z" fill="none" stroke="#4299d4" stroke-miterlimit="10"/></svg>