<svg xmlns="http://www.w3.org/2000/svg" viewBox="0 0 27.3 27.3"><g fill="none"><circle cx="13.668" cy="13.684" r="12.9" stroke="#4399d4" stroke-width="1.3"/><g stroke="#4299d4" stroke-miterlimit="10"><path d="M8.793 9.435h9.874c.59 0 1.112.454 1.112 1.102v6.418c0 .583-.458 1.102-1.112 1.102H8.793c-.59 0-1.112-.454-1.112-1.102v-6.418c0-.648.523-1.102 1.112-1.102z" stroke-width="1.302"/><path d="M7.68 12.676h12.032" stroke-width=".651"/></g></g><g fill="#4299d4"><circle cx="9.4" cy="16.4" r=".5"/><path d="M12.8 16.9H11a.47.47 0 0 1-.5-.5.47.47 0 0 1 .5-.5h1.8a.47.47 0 0 1 .5.5c0 .2-.3.5-.5.5z"/></g></svg>