<svg id="Layer_1" data-name="Layer 1" xmlns="http://www.w3.org/2000/svg" viewBox="0 0 13.14 13.14"><defs><style>.cls-1{fill:none;stroke:#133f5d;stroke-linecap:round;stroke-linejoin:round;}</style></defs><title>Onboarding Ionic Paper - 040719</title><path class="cls-1" d="M9.85,9.85A5.56,5.56,0,0,1,6.57,11C2.71,11,.5,6.57.5,6.57A10.25,10.25,0,0,1,3.29,3.29m2.12-1a4.54,4.54,0,0,1,1.16-.13c3.86,0,6.07,4.41,6.07,4.41a10.66,10.66,0,0,1-1.19,1.76M7.74,7.74A1.66,1.66,0,0,1,5.32,5.48.6.6,0,0,1,5.4,5.4"/><line class="cls-1" x1="0.5" y1="0.5" x2="12.64" y2="12.64"/></svg>