<svg id="Layer_1" data-name="Layer 1" xmlns="http://www.w3.org/2000/svg" viewBox="0 0 11.19 13.52"><defs><style>.cls-1,.cls-3{fill:#4198d3;opacity:0.3;}.cls-1{fill-rule:evenodd;}.cls-2{fill:none;stroke:#133f5d;stroke-linecap:round;stroke-linejoin:round;stroke-width:0.75px;}</style></defs><title>SVG - Onboarding Ionic Paper Phase 1</title><path class="cls-1" d="M10.5,9.85a3.08,3.08,0,0,1-1.17.37c-1.25.07-2.19-.4-3.54.06s-2,2.08-4.57,1.57a2.57,2.57,0,0,1-.84-.32V11.1a2.82,2.82,0,0,1,.15-.92A2.78,2.78,0,0,1,3.16,8.32H8a2.72,2.72,0,0,1,2,.87A2.25,2.25,0,0,1,10.5,9.85Z"/><path class="cls-2" d="M6.67,13.15H.38V11.1a3.11,3.11,0,0,1,.15-.92A2.8,2.8,0,0,1,3.17,8.32H8a2.74,2.74,0,0,1,2,.87,2.45,2.45,0,0,1,.46.66,2.75,2.75,0,0,1,.31,1.25v2.05H9.45"/><path class="cls-3" d="M7.94,4.64a2.77,2.77,0,0,1-4.7,0,2.76,2.76,0,0,1,4.7,0Z"/><path class="cls-2" d="M8.38,3.16a2.68,2.68,0,0,1-.44,1.48,2.77,2.77,0,0,1-4.7,0,2.7,2.7,0,0,1-.43-1.48A2.59,2.59,0,0,1,3.08,2a2.78,2.78,0,0,1,5.1.15A2.7,2.7,0,0,1,8.38,3.16Z"/></svg>