<svg id="Layer_1" data-name="Layer 1" xmlns="http://www.w3.org/2000/svg" viewBox="0 0 14.77 12.25"><defs><style>.cls-1{fill:#4198d3;fill-rule:evenodd;opacity:0.3;}.cls-2{fill:none;stroke:#133f5d;stroke-linecap:round;stroke-linejoin:round;stroke-width:0.75px;}</style></defs><title>SVG - Onboarding Ionic Paper Phase 1</title><path class="cls-1" d="M14.39,8.21V9.73a2.17,2.17,0,0,1-1.91,2.15s-10.27,0-10.4-.06A2.15,2.15,0,0,1,.46,10.26c1.19-1,1.58-1.9,3.62-2,1.78-.09,2.08,1,3.86.9s2.58-2.56,5.32-1.63A3.19,3.19,0,0,1,14.39,8.21Z"/><path class="cls-2" d="M3.27,11.86c-.74,0-1.12,0-1.19,0A2.15,2.15,0,0,1,.46,10.26a2.12,2.12,0,0,1-.08-.57V2.55A2.17,2.17,0,0,1,2.46.38l9.68.06a2.17,2.17,0,0,1,2.25,2.17V9.73a2.17,2.17,0,0,1-1.91,2.15H6"/><polyline class="cls-2" points="0.38 2.55 7.57 6.76 14.4 2.61"/></svg>