<svg id="Layer_1" data-name="Layer 1" xmlns="http://www.w3.org/2000/svg" viewBox="0 0 12 14.48"><defs><style>.cls-1{fill:none;stroke:#133f5d;stroke-linecap:round;stroke-linejoin:round;stroke-width:0.75px;}.cls-2{fill:#4198d3;fill-rule:evenodd;opacity:0.3;}.cls-3{fill:#133f5d;}</style></defs><title>SVG - Onboarding Ionic Paper Phase 1</title><path class="cls-1" d="M2.81,5.1V3.56a3.19,3.19,0,1,1,6.37,0V5.05"/><path class="cls-2" d="M11.29,13.27a1.91,1.91,0,0,1-1.58.83H2.29A1.91,1.91,0,0,1,.38,12.18V8.5a4.87,4.87,0,0,1,3.86.28,10.44,10.44,0,0,0,2.39,1.37c1.23.33,2.54-.55,4,1.1A2.89,2.89,0,0,1,11.29,13.27Z"/><circle class="cls-3" cx="6" cy="8.48" r="1.25"/><line class="cls-1" x1="6" y1="8.48" x2="6" y2="12"/><path class="cls-1" d="M11.62,9.55v2.63A1.9,1.9,0,0,1,9.71,14.1H2.29A1.91,1.91,0,0,1,.38,12.18V7.05A1.92,1.92,0,0,1,2.29,5.13H9.71a1.92,1.92,0,0,1,1.91,1.92"/></svg>