<?xml version="1.0" encoding="UTF-8" standalone="no"?>
<svg
   xmlns:dc="http://purl.org/dc/elements/1.1/"
   xmlns:cc="http://creativecommons.org/ns#"
   xmlns:rdf="http://www.w3.org/1999/02/22-rdf-syntax-ns#"
   xmlns:svg="http://www.w3.org/2000/svg"
   xmlns="http://www.w3.org/2000/svg"
   xmlns:sodipodi="http://sodipodi.sourceforge.net/DTD/sodipodi-0.dtd"
   xmlns:inkscape="http://www.inkscape.org/namespaces/inkscape"
   width="19"
   height="19"
   viewBox="0 0 5.011 4.857"
   version="1.1"
   id="svg34"
   sodipodi:docname="payment.svg"
   inkscape:version="0.92.1 r15371">
  <metadata
     id="metadata40">
    <rdf:RDF>
      <cc:Work
         rdf:about="">
        <dc:format>image/svg+xml</dc:format>
        <dc:type
           rdf:resource="http://purl.org/dc/dcmitype/StillImage" />
      </cc:Work>
    </rdf:RDF>
  </metadata>
  <defs
     id="defs38" />
  <sodipodi:namedview
     pagecolor="#ffffff"
     bordercolor="#666666"
     borderopacity="1"
     objecttolerance="10"
     gridtolerance="10"
     guidetolerance="10"
     inkscape:pageopacity="0"
     inkscape:pageshadow="2"
     inkscape:window-width="1366"
     inkscape:window-height="715"
     id="namedview36"
     showgrid="false"
     inkscape:zoom="12.421053"
     inkscape:cx="-4.4279661"
     inkscape:cy="9.5"
     inkscape:window-x="-8"
     inkscape:window-y="-8"
     inkscape:window-maximized="1"
     inkscape:current-layer="svg34" />
  <style
     id="style2"><![CDATA[.B{stroke-width:.264}.C{stroke-width:.265}.D{stroke:#f1f6f9}]]></style>
  <g
     transform="matrix(.909477 0 0 .909477 332.202453 -165.4513)"
     fill="none"
     stroke-width=".291"
     class="D"
     id="g8">
    <circle
       cx="-565.003"
       cy="-4.064"
       r="2.646"
       id="circle4" />
    <path
       d="M-566.125-2.942l.56-1.683 1.683-.56-.56 1.683z"
       id="path6" />
  </g>
  <g
     fill="none"
     class="D"
     id="g26">
    <path
       d="M22.587 53.605h-1.623c-.224 0-.406.182-.406.407v3.258c0 .225.182.407.406.407H23.4c.108 0 .21-.043.287-.12a.41.41 0 0 0 .119-.288v-2.443z"
       class="B"
       id="path10" />
    <path
       d="M22.587 53.605v1.222h1.217"
       class="C"
       id="path12" />
    <path
       d="M22.993 55.845H21.37m1.623.815H21.37"
       class="B"
       id="path14" />
    <path
       d="M21.776 55.03h-.406"
       class="C"
       id="path16" />
    <path
       d="M-19.746-25.014h-1.623c-.224 0-.406.182-.406.407v3.258c0 .225.182.407.406.407h2.435c.108 0 .21-.043.287-.12a.41.41 0 0 0 .119-.288v-2.443z"
       class="B"
       id="path18" />
    <path
       d="M-19.746-25.014v1.222h1.217"
       class="C"
       id="path20" />
    <path
       d="M-19.34-22.774h-1.623m1.623.814h-1.623"
       class="B"
       id="path22" />
    <path
       d="M-20.557-23.588h-.406"
       class="C"
       id="path24" />
  </g>
  <g
     transform="matrix(.755833 0 0 .749308 422.67517 14.087585)"
     fill="none"
     stroke-width=".406"
     class="D"
     id="g32"
     style="stroke-width:0.40617307;stroke-miterlimit:4;stroke-dasharray:none;stroke:#3e5568;stroke-opacity:1">
    <rect
       x="-558.812"
       y="-17.677"
       width="5.821"
       height="4.233"
       rx=".529"
       id="rect28"
       style="stroke-width:0.40617307;stroke-miterlimit:4;stroke-dasharray:none;stroke:#3e5568;stroke-opacity:1" />
    <path
       d="M-558.812-16.09h5.82"
       id="path30"
       style="stroke-width:0.40617307;stroke-miterlimit:4;stroke-dasharray:none;stroke:#3e5568;stroke-opacity:1" />
  </g>
</svg>
