<?xml version="1.0" encoding="UTF-8" standalone="no"?>
<!-- Generator: Adobe Illustrator 23.0.0, SVG Export Plug-In . SVG Version: 6.00 Build 0)  -->

<svg
   xmlns:dc="http://purl.org/dc/elements/1.1/"
   xmlns:cc="http://creativecommons.org/ns#"
   xmlns:rdf="http://www.w3.org/1999/02/22-rdf-syntax-ns#"
   xmlns:svg="http://www.w3.org/2000/svg"
   xmlns="http://www.w3.org/2000/svg"
   xmlns:sodipodi="http://sodipodi.sourceforge.net/DTD/sodipodi-0.dtd"
   xmlns:inkscape="http://www.inkscape.org/namespaces/inkscape"
   version="1.1"
   id="Layer_1"
   x="0px"
   y="0px"
   viewBox="0 0 198.2 205.75"
   style="enable-background:new 0 0 198.2 205.75;"
   xml:space="preserve"
   sodipodi:docname="update.svg"
   inkscape:version="0.92.1 r15371"><metadata
     id="metadata171"><rdf:RDF><cc:Work
         rdf:about=""><dc:format>image/svg+xml</dc:format><dc:type
           rdf:resource="http://purl.org/dc/dcmitype/StillImage" /></cc:Work></rdf:RDF></metadata><defs
     id="defs169" /><sodipodi:namedview
     pagecolor="#ffffff"
     bordercolor="#666666"
     borderopacity="1"
     objecttolerance="10"
     gridtolerance="10"
     guidetolerance="10"
     inkscape:pageopacity="0"
     inkscape:pageshadow="2"
     inkscape:window-width="1366"
     inkscape:window-height="715"
     id="namedview167"
     showgrid="false"
     inkscape:zoom="1.1470231"
     inkscape:cx="-169.42119"
     inkscape:cy="172.62076"
     inkscape:window-x="-8"
     inkscape:window-y="-8"
     inkscape:window-maximized="1"
     inkscape:current-layer="g20" /><style
     type="text/css"
     id="style2">
	.st0{fill:#FFFFFF;}
	.st1{fill:#D1DFE8;}
	.st2{fill:none;stroke:#13415E;stroke-width:0.5;stroke-linecap:round;stroke-linejoin:round;stroke-miterlimit:10;}
	.st3{fill:#F2F2F2;stroke:#13415E;stroke-width:0.5;stroke-linecap:round;stroke-linejoin:round;stroke-miterlimit:10;}
	.st4{opacity:0.4;fill:#87BBDE;}
	.st5{opacity:0.15;fill:#010101;}
	.st6{fill:#A5CDE3;}
	.st7{fill-rule:evenodd;clip-rule:evenodd;fill:#C5DEED;}
	.st8{fill-rule:evenodd;clip-rule:evenodd;fill:none;stroke:#FFFFFF;stroke-linecap:round;stroke-miterlimit:10;}
	.st9{fill-rule:evenodd;clip-rule:evenodd;fill:#CBE1EF;}
	.st10{fill:none;stroke:#FFFFFF;stroke-linecap:round;stroke-miterlimit:10;}
	.st11{fill:#B8D880;stroke:#11405D;stroke-width:0.5;stroke-miterlimit:10;}
	.st12{fill:#9ABE46;}
	.st13{fill-rule:evenodd;clip-rule:evenodd;fill:#FFFFFF;}
	.st14{fill-rule:evenodd;clip-rule:evenodd;fill:#B8D880;}
	.st15{fill-rule:evenodd;clip-rule:evenodd;fill:#9ABE46;}
	.st16{opacity:0.05;fill-rule:evenodd;clip-rule:evenodd;fill:#010101;}
	.st17{opacity:0.1;fill:#010101;}
	.st18{fill:#D1E3A4;stroke:#10415D;stroke-width:0.5;stroke-miterlimit:10;}
	.st19{fill:#B9D980;stroke:#10415D;stroke-width:0.5;stroke-linecap:round;stroke-linejoin:round;stroke-miterlimit:10;}
	.st20{fill:#EAD3BE;}
	.st21{fill:#E0BC9C;}
	.st22{fill:none;stroke:#12405D;stroke-width:0.5;stroke-linecap:round;stroke-linejoin:round;stroke-miterlimit:10;}
	.st23{fill:#083D5F;stroke:#10415D;stroke-width:0.5;stroke-linecap:round;stroke-linejoin:round;stroke-miterlimit:10;}
	.st24{fill:#EAD3BE;stroke:#12405D;stroke-width:0.5;stroke-linecap:round;stroke-linejoin:round;stroke-miterlimit:10;}
	.st25{fill:#4399D4;}
	.st26{fill:#2B7FB9;}
	.st27{fill:#4399D4;stroke:#10415D;stroke-width:0.5;stroke-linecap:round;stroke-linejoin:round;stroke-miterlimit:10;}
	.st28{fill:#AFD6E9;stroke:#10415D;stroke-width:0.5;stroke-miterlimit:10;}
	.st29{opacity:0.3;fill:#4399D4;}
	.st30{fill:#236FA2;}
	.st31{fill:#3B8EC8;}
</style><g
     id="g164"><g
       id="g20"><g
         id="g16"
         transform="matrix(1.6636496,0,0,1.6636496,-131.5353,-9.3803731e-6)"><g
           id="g14"><g
             id="g12"><polygon
               class="st0"
               points="181.66,10.83 178.4,6.05 176.13,8.67 176.78,3.88 173.49,0.25 197.95,5.08 "
               id="polygon4"
               style="fill:#ffffff" /><polygon
               class="st1"
               points="178.4,6.1 176.13,8.71 176.78,3.92 197.95,5.12 "
               id="polygon6"
               style="fill:#d1dfe8" /><polygon
               class="st2"
               points="181.66,10.83 178.4,6.05 176.13,8.67 176.78,3.88 173.49,0.25 197.95,5.08 "
               id="polygon8"
               style="fill:none;stroke:#13415e;stroke-width:0.5;stroke-linecap:round;stroke-linejoin:round;stroke-miterlimit:10" /><polygon
               class="st3"
               points="179.69,7.93 176.13,8.67 178.4,6.05 "
               id="polygon10"
               style="fill:#f2f2f2;stroke:#13415e;stroke-width:0.5;stroke-linecap:round;stroke-linejoin:round;stroke-miterlimit:10" /></g></g></g><path
         class="st4"
         d="m 111.2075,38.24178 c 0,0 12.52011,-23.192737 57.5925,-28.132072 v 0 c 0,0 -43.14093,-0.5954689 -57.5925,28.132072 z"
         id="path18"
         inkscape:connector-curvature="0"
         style="opacity:0.4;fill:#87bbde;stroke-width:0.76342124" /></g><g
       id="g100"
       transform="matrix(1.051305,0,0,1.051305,16.000027,-10.555486)"><ellipse
         class="st5"
         cx="75.970001"
         cy="195.3"
         rx="54.200001"
         ry="10.44"
         id="ellipse22"
         style="opacity:0.15;fill:#010101" /><g
         id="g74"><path
           class="st6"
           d="m 12.35,169.83 c -0.75,-0.36 -2.62,-1.12 -3.3,-1.58 -0.69,-0.46 -1.25,-1.67 -1.05,-2.1 1.23,-2.64 6.72,0.46 9.72,2.12 -4.02,-3.58 -8.32,-6.83 -12.85,-9.72 -1.29,-0.83 -2.8,-2.27 -2.05,-3.61 0.47,-0.83 1.6,-1.02 2.54,-0.87 1.99,0.32 3.64,1.67 5.18,2.96 2.05,1.73 4.1,3.46 6.15,5.19 -4.4,-5.23 -8.8,-10.48 -12.47,-16.24 -0.9,-1.42 -1.76,-3.29 -0.82,-4.69 1.06,-1.57 3.58,-1.16 5.07,0.01 1.39,1.09 2.36,2.63 3.26,4.15 2.82,4.71 5.36,9.6 7.6,14.61 -0.17,-2.17 -0.23,-4.36 -0.16,-6.54 0.02,-0.79 0.14,-1.71 0.83,-2.1 0.54,-0.3 1.24,-0.13 1.75,0.21 1.84,1.22 1.86,3.87 1.67,6.08 -0.21,2.45 -0.42,4.91 -0.63,7.36 0.59,-0.96 1.17,-1.92 1.76,-2.88 0.29,-0.48 0.67,-1.01 1.22,-1.05 1.05,-0.08 1.19,1.41 1.18,2.46 -0.09,7.26 22.27,23.21 22.41,26.89 -1.5,0.61 -8.25,0.05 -13.12,-3.93 -5.63,-4.63 -14.15,-11.97 -23.89,-16.73 z"
           id="path24"
           inkscape:connector-curvature="0"
           style="fill:#a5cde3" /><g
           id="g46"><g
             id="g28"><path
               class="st7"
               d="m 108.07,176.74 0.06,-0.22 c 2.18,-8.57 8.48,-6.37 10.1,-10.22 1.62,-3.85 1.15,-11.79 4.73,-13.37 3.59,-1.58 6.59,0.93 9.49,-3.71 2.9,-4.64 5.2,-14.04 11.14,-13.97 5.94,0.07 12.13,7.34 5.46,15 -6.67,7.66 -6.34,10.56 -5.28,13.71 1.06,3.15 -0.85,8.78 -4.86,9.87 -4.02,1.09 -5.05,4.94 -4.7,7.44 0.35,2.51 -1.02,9.43 -10.08,10.43 -1.75,0.19 -9.81,-0.54 -11.83,-1.54 -7.5,-3.73 -2.93,-6.75 -4.23,-13.42 z"
               id="path26"
               inkscape:connector-curvature="0"
               style="clip-rule:evenodd;fill:#c5deed;fill-rule:evenodd" /></g><g
             id="g44"><path
               class="st8"
               d="m 145.58,141.67 c 0,0 -16.55,21.65 -26.05,45.01"
               id="path30"
               inkscape:connector-curvature="0"
               style="clip-rule:evenodd;fill:none;fill-rule:evenodd;stroke:#ffffff;stroke-linecap:round;stroke-miterlimit:10" /><path
               class="st8"
               d="m 139.76,142.96 c 0,0 0.47,5.16 -0.86,8.2"
               id="path32"
               inkscape:connector-curvature="0"
               style="clip-rule:evenodd;fill:none;fill-rule:evenodd;stroke:#ffffff;stroke-linecap:round;stroke-miterlimit:10" /><path
               class="st8"
               d="m 142.96,154.42 c 0,0 -5.08,0.56 -7.85,2.86"
               id="path34"
               inkscape:connector-curvature="0"
               style="clip-rule:evenodd;fill:none;fill-rule:evenodd;stroke:#ffffff;stroke-linecap:round;stroke-miterlimit:10" /><path
               class="st8"
               d="m 128.34,155.75 c 1.43,2.91 1.92,9.07 1.92,9.07"
               id="path36"
               inkscape:connector-curvature="0"
               style="clip-rule:evenodd;fill:none;fill-rule:evenodd;stroke:#ffffff;stroke-linecap:round;stroke-miterlimit:10" /><path
               class="st8"
               d="m 136.91,168.84 c -4.19,-1.19 -9.86,1.99 -9.86,1.99"
               id="path38"
               inkscape:connector-curvature="0"
               style="clip-rule:evenodd;fill:none;fill-rule:evenodd;stroke:#ffffff;stroke-linecap:round;stroke-miterlimit:10" /><path
               class="st8"
               d="m 119.18,171.09 c 2.81,2.18 4.05,7.27 4.05,7.27"
               id="path40"
               inkscape:connector-curvature="0"
               style="clip-rule:evenodd;fill:none;fill-rule:evenodd;stroke:#ffffff;stroke-linecap:round;stroke-miterlimit:10" /><path
               class="st8"
               d="m 121.07,183.04 c 0,0 4.71,-2.96 8.03,-2.68"
               id="path42"
               inkscape:connector-curvature="0"
               style="clip-rule:evenodd;fill:none;fill-rule:evenodd;stroke:#ffffff;stroke-linecap:round;stroke-miterlimit:10" /></g></g><g
           id="g72"><g
             id="g52"><g
               id="g50"><path
                 class="st9"
                 d="m 42.72,190.24 c -3.42,-6.59 -18.24,-21.78 -41.29,-20.4 0,0 -2.59,-0.33 -0.8,2.91 1.39,2.51 9.95,14.92 25.27,17.94 12.03,2.38 16.82,-0.45 16.82,-0.45 z"
                 id="path48"
                 inkscape:connector-curvature="0"
                 style="clip-rule:evenodd;fill:#cbe1ef;fill-rule:evenodd" /></g></g><g
             id="g70"><g
               id="g66"><path
                 class="st8"
                 d="m 3.63,172.9 c 0,0 19.02,4.71 31.48,15.35"
                 id="path54"
                 inkscape:connector-curvature="0"
                 style="clip-rule:evenodd;fill:none;fill-rule:evenodd;stroke:#ffffff;stroke-linecap:round;stroke-miterlimit:10" /><path
                 class="st8"
                 d="m 5.92,176.7 c 0.21,-0.21 2.75,-1.56 4.31,-1.77"
                 id="path56"
                 inkscape:connector-curvature="0"
                 style="clip-rule:evenodd;fill:none;fill-rule:evenodd;stroke:#ffffff;stroke-linecap:round;stroke-miterlimit:10" /><path
                 class="st8"
                 d="m 13.04,182.14 c 0,0 2.66,-2.8 6.83,-3.33"
                 id="path58"
                 inkscape:connector-curvature="0"
                 style="clip-rule:evenodd;fill:none;fill-rule:evenodd;stroke:#ffffff;stroke-linecap:round;stroke-miterlimit:10" /><path
                 class="st8"
                 d="m 14.78,176.62 c 0,0 -1.56,-3.29 -3.82,-4.35"
                 id="path60"
                 inkscape:connector-curvature="0"
                 style="clip-rule:evenodd;fill:none;fill-rule:evenodd;stroke:#ffffff;stroke-linecap:round;stroke-miterlimit:10" /><path
                 class="st10"
                 d="m 28.06,183.18 c 0,0 -6.6,0.91 -8.5,3.14"
                 id="path62"
                 inkscape:connector-curvature="0"
                 style="fill:none;stroke:#ffffff;stroke-linecap:round;stroke-miterlimit:10" /><path
                 class="st10"
                 d="m 31.8,185.67 c 0,0 -0.11,-3.02 -1.98,-4.77"
                 id="path64"
                 inkscape:connector-curvature="0"
                 style="fill:none;stroke:#ffffff;stroke-linecap:round;stroke-miterlimit:10" /></g><path
               class="st8"
               d="m 22.41,176.37 c 0,0 1.78,3.06 2.05,4.74"
               id="path68"
               inkscape:connector-curvature="0"
               style="clip-rule:evenodd;fill:none;fill-rule:evenodd;stroke:#ffffff;stroke-linecap:round;stroke-miterlimit:10" /></g></g></g><g
         id="g98"><circle
           class="st11"
           cx="75.970001"
           cy="141.94"
           r="59.16"
           id="circle76"
           style="fill:#b8d880;stroke:#11405d;stroke-width:0.5;stroke-miterlimit:10" /><path
           class="st12"
           d="M 123.37,119.41 C 117.58,107.19 107.32,97.62 94.62,92.74 88.79,90.61 82.61,89.35 76,89.35 c -6.48,0 -12.79,1.26 -18.49,3.39 -12.79,4.87 -23.1,14.44 -28.89,26.67 -3.3,6.79 -5.13,14.45 -5.13,22.58 0,8.05 1.83,15.7 5.13,22.58 8.44,17.75 26.45,29.85 47.38,29.93 20.92,-0.09 38.93,-12.18 47.37,-29.93 3.31,-6.87 5.13,-14.53 5.13,-22.58 0,-8.14 -1.83,-15.8 -5.13,-22.58 z"
           id="path78"
           inkscape:connector-curvature="0"
           style="fill:#9abe46" /><path
           class="st13"
           d="m 124.5,141.99 c 0,0.45 -0.01,0.89 -0.02,1.34 -0.71,26.15 -22.17,47.18 -48.49,47.18 -26.77,0 -48.51,-21.75 -48.51,-48.52 0,-26.77 21.74,-48.66 48.51,-48.66 26.77,0.01 48.51,21.89 48.51,48.66 z"
           id="path80"
           inkscape:connector-curvature="0"
           style="clip-rule:evenodd;fill:#ffffff;fill-rule:evenodd" /><g
           id="g94"><polygon
             class="st14"
             points="103.05,142.96 103.05,140.92 114.1,140.92 114.1,142.96 "
             id="polygon82"
             style="clip-rule:evenodd;fill:#b8d880;fill-rule:evenodd" /><polygon
             class="st14"
             points="75.37,114.97 75.37,103.79 77.41,103.79 77.41,114.97 "
             id="polygon84"
             style="clip-rule:evenodd;fill:#b8d880;fill-rule:evenodd" /><polygon
             class="st14"
             points="48.98,140.92 48.98,142.96 37.93,142.96 37.93,140.92 "
             id="polygon86"
             style="clip-rule:evenodd;fill:#b8d880;fill-rule:evenodd" /><polygon
             class="st14"
             points="75.37,180.09 75.37,169 77.41,169 77.41,180.09 "
             id="polygon88"
             style="clip-rule:evenodd;fill:#b8d880;fill-rule:evenodd" /><path
             class="st15"
             d="m 89.24,114.19 c -3.03,6.34 -13.42,27.32 -13.42,27.32 H 61.07 c -0.57,0 -0.96,0.39 -0.96,0.87 0,0.48 0.39,0.96 0.96,0.96 h 15.71 c 0.48,0 0.87,-0.48 0.87,-0.96 l 13.28,-27.22 c 0.42,-0.83 0.7,-1.56 -0.04,-1.96 -0.42,-0.24 -1.15,-0.06 -1.65,0.99 z"
             id="path90"
             inkscape:connector-curvature="0"
             style="clip-rule:evenodd;fill:#9abe46;fill-rule:evenodd" /><circle
             class="st15"
             cx="75.82"
             cy="141.50999"
             r="3.72"
             id="circle92"
             style="clip-rule:evenodd;fill:#9abe46;fill-rule:evenodd" /></g><path
           class="st16"
           d="m 124.48,143.33 c -0.71,26.15 -22.17,47.18 -48.49,47.18 38.93,-9.4 48.49,-47.18 48.49,-47.18 z"
           id="path96"
           inkscape:connector-curvature="0"
           style="clip-rule:evenodd;opacity:0.05;fill:#010101;fill-rule:evenodd" /></g></g><path
       class="st17"
       d="m 70.405921,77.207454 c 0,0 -1.156436,2.155175 2.007992,3.805724 2.165689,1.135409 14.665705,0.04205 15.496236,2.354923 1.629522,4.510098 -10.113554,20.510959 -10.082015,21.772529 0.03154,1.26156 5.729612,9.52482 6.360395,9.52482 1.293105,0 0.07359,-8.23172 0.07359,-8.23172 L 95.553136,81.013178 c 0,0 5.498324,7.537856 7.527344,9.913805 2.62826,3.10135 7.04374,11.301527 9.1043,11.932307 2.05005,0.63079 8.64173,-6.518086 8.64173,-6.518086 l -5.33012,0.956688 -13.32003,-15.349053 -7.012207,-8.557623 z"
       id="path102"
       inkscape:connector-curvature="0"
       style="opacity:0.1;fill:#010101;stroke-width:1.05130494" /><g
       id="g162"
       transform="matrix(1.051305,0,0,1.051305,16.000027,-10.555486)"><path
         class="st17"
         d="m 57.65,85.55 c -0.25,0.59 1.53,-0.4 1.79,0 0.26,0.4 0.58,2.21 1.37,2.03 0.79,-0.18 0.47,-3.07 0.47,-3.07 0,0 -2.95,-0.55 -3.63,1.04 z"
         id="path104"
         inkscape:connector-curvature="0"
         style="opacity:0.1;fill:#010101" /><g
         id="g114"><g
           id="g108"><path
             class="st18"
             d="m 69.08,36.59 -1.36,0.89 c -1.96,1.29 -1.82,4.62 -0.53,6.58 l 0.46,0.7 8.46,-5.56 -0.46,-0.7 c -1.28,-1.96 -4.6,-3.2 -6.57,-1.91 z"
             id="path106"
             inkscape:connector-curvature="0"
             style="fill:#d1e3a4;stroke:#10415d;stroke-width:0.5;stroke-miterlimit:10" /></g><g
           id="g112"><ellipse
             transform="matrix(0.8355,-0.5494,0.5494,0.8355,-11.5999,46.9126)"
             class="st19"
             cx="72.559998"
             cy="42.830002"
             rx="10.04"
             ry="3.49"
             id="ellipse110"
             style="fill:#b9d980;stroke:#10415d;stroke-width:0.5;stroke-linecap:round;stroke-linejoin:round;stroke-miterlimit:10" /></g></g><g
         id="g122"><path
           class="st20"
           d="m 86.05,72.32 c -0.4,0.6 -1.41,1.49 -1.41,1.49 -4.72,-4.91 -5.66,-13.78 -5.96,-11.54 -0.15,1.11 -2.2,6.84 -2.06,7.95 -0.27,0.3 -0.47,0.66 -0.57,1.05 -3.66,-3.44 -8.79,-8.44 -9.05,-9.24 -0.57,-1.78 -0.74,-3.7 -0.49,-5.55 0.35,-2.52 3.44,-2.93 5.65,-3.23 l -0.12,-1.13 -0.39,-3.77 3.93,-2.01 c 0,0 0.56,5.14 0.56,6.63 0,0.06 0.01,0.13 0.01,0.21 v 0.03 c 0.63,-0.02 3.14,1.12 3.19,1.44 0.14,0.91 3.32,11.41 6.71,17.67 z"
           id="path116"
           inkscape:connector-curvature="0"
           style="fill:#ead3be" /><path
           class="st21"
           d="m 76.16,53.15 c -1.5,0.37 -3.6,-0.71 -4.16,-1.58 l -0.34,-3.25 3.93,-2.01 c 0,0 0.56,5.14 0.56,6.63 -0.01,0.06 0.01,0.14 0.01,0.21 z"
           id="path118"
           inkscape:connector-curvature="0"
           style="fill:#e0bc9c" /><path
           class="st22"
           d="m 86.39,73.31 c -0.4,0.6 -1.76,1.15 -1.76,1.15 -0.46,-0.39 -3.52,-6.17 -3.75,-6.74 -0.33,-0.82 -1.76,-5.14 -2.22,-5.46 -1.09,-0.76 -1.87,3.44 -2.03,4.59 -0.15,1.11 -0.17,2.25 -0.03,3.35 -0.27,0.3 -0.47,0.66 -0.57,1.05 -3.66,-3.44 -8.79,-8.44 -9.05,-9.24 -0.57,-1.78 -0.74,-3.7 -0.49,-5.55 0.35,-2.52 3.44,-2.93 5.65,-3.23 l -0.12,-1.13 -0.39,-3.77 3.93,-2.01 c 0,0 0.56,5.14 0.56,6.63 0,0.06 0.01,0.13 0.01,0.21 v 0.03 c 0.63,-0.02 2.98,1.18 3.19,1.44 0.47,0.6 3.23,9.88 3.64,11.07 0.41,1.1 2.73,5.32 3.43,7.61 z"
           id="path120"
           inkscape:connector-curvature="0"
           style="fill:none;stroke:#12405d;stroke-width:0.5;stroke-linecap:round;stroke-linejoin:round;stroke-miterlimit:10" /></g><path
         class="st23"
         d="m 78.19,46.92 c 0,0 0.24,0.62 0.05,1.36 -0.19,0.74 -0.1,1.52 0.77,2.14 0,0 -0.7,-0.94 -0.12,-1.79 1.22,-1.77 -0.06,-4.16 -0.06,-4.16 z"
         id="path124"
         inkscape:connector-curvature="0"
         style="fill:#083d5f;stroke:#10415d;stroke-width:0.5;stroke-linecap:round;stroke-linejoin:round;stroke-miterlimit:10" /><g
         id="g134"><path
           class="st24"
           d="m 106.46,104.55 c 0.06,0.78 0.65,1.62 1.43,1.56 0.31,-0.03 0.59,-0.19 0.86,-0.35 2.33,-1.4 4.65,-2.81 6.98,-4.21 -0.74,-0.65 -1.84,-0.64 -2.82,-0.59 -1.36,0.07 -2.71,0.13 -4.07,0.2 -2.05,0.09 -2.52,1.49 -2.38,3.39 z"
           id="path126"
           inkscape:connector-curvature="0"
           style="fill:#ead3be;stroke:#12405d;stroke-width:0.5;stroke-linecap:round;stroke-linejoin:round;stroke-miterlimit:10" /><path
           class="st25"
           d="m 110.58,101.38 c 0.01,0.16 -0.09,0.3 -0.19,0.42 -0.11,0.16 -0.3,0.45 -0.53,0.8 -0.67,1.05 -3.41,2.98 -3.98,3 -0.66,0.01 -1.7,-2.22 -2.14,-2.72 -1.86,-2.13 -2.88,-4.52 -4.81,-6.59 -2.97,-3.18 -4.1,-6.14 -6.37,-9.35 -0.42,-0.59 -0.87,-1.21 -1.36,-1.86 -3.26,-0.2 -7.87,-0.32 -11.24,0.18 -2.12,0.31 -3.71,1.08 -5.51,0.64 -2.54,-0.61 -3.56,-3.16 -3.9,-5.95 -0.02,-0.2 -0.04,-0.39 -0.05,-0.59 -0.05,-0.57 -0.05,-1.15 0.1,-1.69 0.36,-1.26 1.53,-2 2.71,-2.13 2.73,-0.3 6.15,0.86 8.9,1.32 2.01,0.34 4.04,0.65 6.05,1.05 2.21,0.45 6.3,1.34 7.78,3.21 2.42,3.06 3.46,5.43 5.88,8.5 2.94,3.73 5.46,7.72 8.48,11.4 0.08,0.1 0.17,0.22 0.18,0.36 z"
           id="path128"
           inkscape:connector-curvature="0"
           style="fill:#4399d4" /><path
           class="st26"
           d="m 92.56,86.93 c -0.42,-0.59 -0.87,-1.21 -1.36,-1.86 -3.26,-0.2 -7.87,-0.32 -11.24,0.18 -2.12,0.31 -3.71,1.08 -5.51,0.64 -2.54,-0.61 -1.27,-6.97 -1.61,-9.76 4.77,0.33 16.7,5.29 18.04,6.65 0.71,0.71 1.81,2.44 1.68,4.15 z"
           id="path130"
           inkscape:connector-curvature="0"
           style="fill:#2b7fb9" /><path
           class="st22"
           d="m 110.58,101.38 c 0.01,0.16 -0.09,0.3 -0.19,0.42 -0.11,0.16 -0.3,0.45 -0.53,0.8 -0.67,1.05 -3.41,2.98 -3.98,3 -0.66,0.01 -1.7,-2.22 -2.14,-2.72 -1.86,-2.13 -2.88,-4.52 -4.81,-6.59 -2.97,-3.18 -4.1,-6.14 -6.37,-9.35 -0.42,-0.59 -0.87,-1.21 -1.36,-1.86 -3.26,-0.2 -7.87,-0.32 -11.24,0.18 -2.12,0.31 -3.71,1.08 -5.51,0.64 -2.54,-0.61 -3.56,-3.16 -3.9,-5.95 -0.02,-0.2 -0.04,-0.39 -0.05,-0.59 -0.05,-0.57 -0.05,-1.15 0.1,-1.69 0.36,-1.26 1.53,-2 2.71,-2.13 2.73,-0.3 6.15,0.86 8.9,1.32 2.01,0.34 4.04,0.65 6.05,1.05 2.21,0.45 6.3,1.34 7.78,3.21 2.42,3.06 3.46,5.43 5.88,8.5 2.94,3.73 5.46,7.72 8.48,11.4 0.08,0.1 0.17,0.22 0.18,0.36 z"
           id="path132"
           inkscape:connector-curvature="0"
           style="fill:none;stroke:#12405d;stroke-width:0.5;stroke-linecap:round;stroke-linejoin:round;stroke-miterlimit:10" /></g><path
         class="st24"
         d="m 76.56,108.72 c -0.78,0.1 -1.59,0.74 -1.47,1.51 0.04,0.31 0.23,0.58 0.4,0.84 1.53,2.25 3.05,4.49 4.58,6.74 0.61,-0.78 0.54,-1.87 0.43,-2.85 -0.14,-1.35 -0.28,-2.7 -0.42,-4.05 -0.21,-2.04 -1.63,-2.43 -3.52,-2.19 z"
         id="path136"
         inkscape:connector-curvature="0"
         style="fill:#ead3be;stroke:#12405d;stroke-width:0.5;stroke-linecap:round;stroke-linejoin:round;stroke-miterlimit:10" /><path
         class="st27"
         d="m 88.84,100.68 c 0.6,-1.39 1.17,-2.81 1.69,-4.23 0.94,-2.58 2.71,-8.55 1.19,-11.21 -1.31,-2.28 -5.17,-3.75 -7.47,-4.67 -1.9,-0.76 -3.83,-1.44 -5.75,-2.14 -2.62,-0.96 -5.77,-2.73 -8.51,-2.93 -1.18,-0.09 -2.47,0.43 -3.05,1.6 -0.25,0.5 -0.35,1.07 -0.41,1.64 -0.3,3.02 0.14,6.01 2.69,7.15 1.69,0.76 3.4,0.3 5.54,0.38 2.88,0.11 6.6,0.35 9.08,1.93 3,1.91 -0.61,7.13 -1.68,9.52 -1.51,3.4 -3.29,6.7 -5.56,9.66 -0.19,0.25 -0.71,1.25 -0.72,1.57 -0.01,0.54 0.53,0.89 1.01,1.14 1.1,0.57 3.01,2.39 4.3,2.21 1.39,-0.19 3,-2.53 3.64,-3.64 1.48,-2.58 2.82,-5.25 4.01,-7.98 z"
         id="path138"
         inkscape:connector-curvature="0"
         style="fill:#4399d4;stroke:#10415d;stroke-width:0.5;stroke-linecap:round;stroke-linejoin:round;stroke-miterlimit:10" /><path
         class="st24"
         d="m 79.2,45.64 c -0.38,3.66 -1.56,7.25 -4.09,6.76 -1.74,-0.34 -4.36,-2.95 -4.16,-6.63 0.16,-2.81 1.92,-4.84 4.5,-4.87 2.58,-0.03 4.2,0.34 3.75,4.74 z"
         id="path140"
         inkscape:connector-curvature="0"
         style="fill:#ead3be;stroke:#12405d;stroke-width:0.5;stroke-linecap:round;stroke-linejoin:round;stroke-miterlimit:10" /><path
         class="st23"
         d="m 76.7,40 c -1.65,-0.48 -8.2,4.2 -8.3,6 -0.25,4.92 3.59,5.57 3.59,5.57 l -0.15,-1.93 c 0,0 -1.1,-1.71 -0.35,-2.22 0.73,-0.5 1.08,0.91 1.08,0.91 0,0 0.2,0.04 0.43,0.46 0.55,0.98 0.18,1.64 0.18,1.64 0.53,-0.38 0.12,-1.51 -0.01,-2.26 -0.08,-0.44 0.03,-0.72 0.14,-0.94 0.69,-0.56 1.79,-1.73 1.79,-1.73 0.87,0.69 3.46,1.12 4.1,0.14 1.19,-1.85 0.19,-4.85 -2.5,-5.64 z"
         id="path142"
         inkscape:connector-curvature="0"
         style="fill:#083d5f;stroke:#10415d;stroke-width:0.5;stroke-linecap:round;stroke-linejoin:round;stroke-miterlimit:10" /><g
         id="g146"><path
           class="st28"
           d="m 78.63,64.67 c 0.26,-0.96 0.93,-2.7 0.85,-3.66 -0.12,-1.27 -0.86,-2.54 -0.92,-2.62 -4.12,4.34 -10.04,-0.44 -12.35,-0.4 0.01,0.12 0.02,0.25 0.04,0.36 0.1,0.61 0.25,1.2 0.41,1.79 0.7,2.62 1.8,5.13 2.34,7.79 0.13,0.62 0.45,1.55 0.32,2.17 -0.11,0.55 -0.76,0.71 -0.98,1.2 -0.18,0.41 0.06,0.9 -0.05,1.34 -0.38,1.47 -1.41,2.31 -1.44,3.96 3.3,1.29 7.51,1.5 11.02,1.67 0.17,0.01 0.36,0.01 0.51,-0.08 0.22,-0.14 0.26,-0.45 0.28,-0.72 0.16,-2.6 -0.16,-4.45 -0.34,-7.04 -0.11,-1.54 -0.11,-4.23 0.31,-5.76 z"
           id="path144"
           inkscape:connector-curvature="0"
           style="fill:#afd6e9;stroke:#10415d;stroke-width:0.5;stroke-miterlimit:10" /></g><path
         class="st24"
         d="m 66.76,55.57 c -2.46,3.74 -5.14,16.22 -5.14,16.22 v 0 c -0.17,0.75 -0.46,2.06 -0.73,3.3 -0.38,1.82 -0.88,3.61 -1.35,5.41 -0.15,0.56 -0.22,1.37 -0.51,1.88 -0.5,0.85 -2.19,1.6 -3.08,2.01 -0.25,0.11 -0.51,0.24 -0.68,0.45 -0.13,0.17 -0.2,0.39 -0.26,0.6 -0.15,0.53 -0.13,0.69 -0.21,1.24 0,0 1.35,-0.5 1.43,-0.53 0.54,-0.24 1.21,-0.52 1.82,-0.75 0.46,-0.17 1.52,-0.46 1.82,-0.43 0.49,0.05 0.4,0.66 0.38,1.13 -0.02,0.52 0.49,1.06 0.66,1 0.17,-0.06 0.57,-2.45 0.55,-2.9 -0.09,-1.93 0.77,-3.71 1.37,-5.54 0.4,-1.21 0.82,-2.4 1.28,-3.59 0.06,-0.16 0.13,-0.33 0.19,-0.49 0.26,-0.67 1.18,-2.09 1.31,-3.02 v 0 c 0,0 2.47,-8.39 3.52,-12.11 0.18,-0.64 0.33,-1.19 0.44,-1.67"
         id="path148"
         inkscape:connector-curvature="0"
         style="fill:#ead3be;stroke:#12405d;stroke-width:0.5;stroke-linecap:round;stroke-linejoin:round;stroke-miterlimit:10" /><line
         class="st22"
         x1="78"
         y1="57.23"
         x2="78.559998"
         y2="58.389999"
         id="line150"
         style="fill:none;stroke:#12405d;stroke-width:0.5;stroke-linecap:round;stroke-linejoin:round;stroke-miterlimit:10" /><path
         class="st29"
         d="m 58.93,78.27 3.78,1.59 c 0,0 0.43,-0.07 0.56,-0.35 0.08,-0.18 0.1,-0.84 0.19,-1.08 0.08,-0.23 0.56,-0.8 0.64,-1.11 0.75,-2.87 3.97,-10.93 3.97,-10.93 0,0 0.93,2.59 0.27,3.65 -0.37,0.6 -1.88,4.36 -3.04,7.93 -0.21,0.65 -0.28,1.82 -0.49,2.41 -0.83,2.4 -1.06,2.56 -1.1,2.8 -0.1,0.61 4.53,0.84 8.09,-0.01 0.61,-0.15 1.67,-1.57 1.69,-2.2 0.15,-4.44 0.66,-19.35 0.5,-19.98 -0.19,-0.73 -2.47,-2.55 -1.83,-8.07 0,0 -4.08,-0.53 -5.77,2.27 -1.69,2.8 -3.07,6.88 -4.6,12.58 -0.81,3.02 -1.01,4.56 -1.78,7.22 -0.09,0.31 -0.46,1.55 -0.54,1.82 -0.14,0.48 -0.63,0.56 -0.52,0.85 0.29,0.74 -0.02,0.61 -0.02,0.61 z"
         id="path152"
         inkscape:connector-curvature="0"
         style="opacity:0.3;fill:#4399d4" /><path
         class="st29"
         d="m 75.09,53.17 c 0,-0.01 1.93,3.9 0.87,7.16 -0.09,0.26 0.8,15.36 1.15,18.47 0,0.02 0.01,0.05 0.02,0.08 0.14,0.51 0.58,0.89 1.1,1.01 l 0.5,0.12 c 0.17,0.11 0.41,0.08 0.54,-0.08 l 1.35,-2.85 c 0,0 -0.21,-1.89 2.08,-3.12 1.57,-0.84 6,0.03 5.66,-0.11 C 88.02,73.7 82.99,66.48 82.9,65.39 82.81,64.3 79.72,55.54 78.64,54.47 78.2,54.03 75.45,52.88 75.09,53.17 Z"
         id="path154"
         inkscape:connector-curvature="0"
         style="opacity:0.3;fill:#4399d4" /><g
         id="g158"><polygon
           class="st19"
           points="88.45,71.67 90.27,62.82 86.41,65.59 85.88,68.05 85.82,68.31 84.59,73.91 "
           id="polygon156"
           style="fill:#b9d980;stroke:#10415d;stroke-width:0.5;stroke-linecap:round;stroke-linejoin:round;stroke-miterlimit:10" /></g><path
         class="st24"
         d="m 84.55,74.14 c 0,0 -0.54,-1.27 -0.21,-1.71 0.65,-0.85 1.73,-0.77 1.8,-0.59 0.04,0.1 0.16,0.3 0.39,0.78 0.21,0.43 0.49,0.61 0.49,0.61 0,0 0.23,-0.69 0.46,-1.21 0.16,-0.36 0.49,-0.43 0.58,-0.27 0.18,0.31 -0.1,0.92 -0.14,1.33 -0.07,0.7 -0.18,1.2 -0.4,1.41 -0.87,0.81 -2.29,0.91 -2.97,-0.35 z"
         id="path160"
         inkscape:connector-curvature="0"
         style="fill:#ead3be;stroke:#12405d;stroke-width:0.5;stroke-linecap:round;stroke-linejoin:round;stroke-miterlimit:10" /></g></g></svg>