<?xml version="1.0" encoding="utf-8"?>
<!-- Generator: Adobe Illustrator 23.0.0, SVG Export Plug-In . SVG Version: 6.00 Build 0)  -->
<svg version="1.0" id="Layer_1" xmlns="http://www.w3.org/2000/svg" xmlns:xlink="http://www.w3.org/1999/xlink" x="0px" y="0px"
	 viewBox="0 0 12.9 13.8" enable-background="new 0 0 12.9 13.8" xml:space="preserve">
<g>
	<path fill="none" stroke="#BCBDC2" stroke-linecap="round" stroke-linejoin="round" d="M7,0.6L11.7,3c0.4,0.2,0.7,0.6,0.7,1.1v5.7
		c0,0.5-0.3,0.9-0.7,1.1L7,13.2c-0.3,0.2-0.7,0.2-1.1,0l-4.8-2.4c-0.4-0.2-0.7-0.6-0.7-1.1V4.1c0-0.5,0.3-0.9,0.7-1.1l4.8-2.4
		C6.3,0.5,6.6,0.5,7,0.6z"/>
	<polyline fill="none" stroke="#BCBDC2" stroke-linecap="round" stroke-linejoin="round" points="0.7,3.4 6.5,6.3 12.2,3.4 	"/>
	<line fill="none" stroke="#BCBDC2" stroke-linecap="round" stroke-linejoin="round" x1="6.5" y1="13.3" x2="6.5" y2="6.3"/>
	<line fill="none" stroke="#BCBDC2" stroke-linecap="round" stroke-linejoin="round" x1="3.5" y1="1.8" x2="9.4" y2="4.8"/>
</g>
</svg>
