<?xml version="1.0" standalone="no"?><!DOCTYPE svg PUBLIC "-//W3C//DTD SVG 1.1//EN" "http://www.w3.org/Graphics/SVG/1.1/DTD/svg11.dtd"><svg class="icon" height="512" viewBox="0 0 1024 1024" version="1.1" xmlns="http://www.w3.org/2000/svg"><path d="M293.75 179.45h620.1v92.25h-620.1v-92.25zM293.75 472.85h620.1v92.25h-620.1v-92.25zM293.75 762.2h620.1v92.25h-620.1v-92.25zM116.45 144.35c7.2 0 13.95-0.45 20.7-1.8s12.6-3.15 18-5.85c5.4-2.7 9.9-6.3 13.95-10.8 3.6-4.5 6.3-9.45 7.65-15.75h27.45v205.65h-36.9v-145.35h-50.4v-26.1h-0.45zM252.8 609.65h-140.4c0-17.1 4.5-31.95 12.15-44.55 8.1-12.6 18.9-23.85 32.85-33.3 6.75-4.95 13.5-9.45 20.7-14.4 7.2-4.5 13.95-9.45 19.8-14.85 5.85-5.4 11.25-10.8 14.85-17.1 4.050-6.3 5.85-13.050 6.3-21.15 0-3.6-0.45-7.65-1.35-11.7-0.9-4.050-2.7-8.1-4.95-11.7-2.7-3.6-5.85-6.75-10.8-9-4.5-2.25-10.35-3.6-17.55-3.6-6.75 0-12.15 1.35-16.65 4.050-4.5 2.7-8.1 6.3-10.8 10.8-2.7 4.5-4.5 9.9-5.85 16.2-1.35 6.3-1.8 13.050-2.25 20.25h-33.3c0-11.25 1.35-22.050 4.5-31.5 3.15-9.9 7.65-18 13.5-25.2 5.85-7.2 13.5-12.6 22.050-16.65 8.55-4.050 18.9-5.85 30.6-5.85 12.6 0 22.95 2.25 31.5 6.3 8.55 4.050 15.3 9.45 20.25 15.75 5.4 6.3 9 13.050 10.8 20.25 2.25 7.2 3.15 14.4 3.15 21.15 0 8.1-1.35 15.75-3.6 22.5-2.7 6.75-5.85 12.6-10.35 18.45-4.5 5.4-9 10.8-14.85 15.3-5.4 4.5-11.25 9-17.1 13.050-5.85 4.050-11.7 8.1-17.55 11.7-5.85 3.6-11.25 7.65-16.2 11.25s-9.45 7.65-13.050 11.7c-3.6 4.050-6.3 8.1-7.65 12.6h100.35l0.9 29.25zM168.2 788.75c5.4 0 10.8 0 16.65-1.35 5.4-0.9 10.35-2.7 14.85-4.95 4.5-2.25 7.65-5.85 10.35-10.35 2.7-4.5 4.050-9.45 4.050-15.75 0-9-3.15-15.75-9-21.15-5.85-5.4-13.5-8.1-22.95-8.1-5.85 0-10.8 1.35-15.3 3.6s-8.1 5.4-10.8 9.45c-2.7 4.050-4.95 8.55-6.3 13.5-1.35 4.95-1.8 10.35-1.8 15.3h-33.3c0.45-9.9 2.25-19.35 5.4-27.9 3.15-8.55 8.1-15.75 13.5-22.050 5.85-6.3 12.6-11.25 21.15-14.85 8.1-3.6 17.55-5.4 27.9-5.4 8.1 0 15.75 1.35 23.85 3.6 7.65 2.25 14.85 5.85 20.7 10.35 6.3 4.5 11.25 10.35 14.85 17.1 3.6 6.75 5.4 14.85 5.4 23.85 0 10.35-2.25 19.35-7.2 27-4.5 7.65-12.15 13.5-22.050 17.1v0.45c11.7 2.25 20.7 8.1 27.45 17.55s9.9 20.7 9.9 33.75c0 9.9-1.8 18.45-5.85 26.1-4.050 7.65-9 14.4-15.75 19.8-6.75 5.4-14.4 9.45-23.4 12.6-9 3.15-18 4.5-27.9 4.5-12.15 0-22.5-1.8-31.5-4.95-9-3.6-16.2-8.1-22.5-14.4-5.85-6.3-10.35-13.95-13.5-22.5-3.15-9-4.95-18.45-4.95-29.25h33.3c-0.45 12.6 2.7 22.95 9.45 31.5s16.2 12.6 29.7 12.6c11.25 0 20.7-3.15 27.9-9.45 7.65-6.3 11.25-15.3 11.25-27 0-8.1-1.35-14.4-4.5-18.9s-7.2-8.1-12.15-10.8c-4.95-2.25-10.8-4.050-17.1-4.5-6.3-0.45-13.050-0.9-19.35-0.45v-25.65h-0.45z" /></svg>