<?xml version="1.0" encoding="UTF-8" standalone="no"?>
<svg
   xmlns:dc="http://purl.org/dc/elements/1.1/"
   xmlns:cc="http://creativecommons.org/ns#"
   xmlns:rdf="http://www.w3.org/1999/02/22-rdf-syntax-ns#"
   xmlns:svg="http://www.w3.org/2000/svg"
   xmlns="http://www.w3.org/2000/svg"
   xmlns:sodipodi="http://sodipodi.sourceforge.net/DTD/sodipodi-0.dtd"
   xmlns:inkscape="http://www.inkscape.org/namespaces/inkscape"
   class="icon"
   height="512"
   viewBox="0 0 1024 1024"
   version="1.1"
   id="svg4"
   sodipodi:docname="tree.svg"
   inkscape:version="0.92.1 r15371">
  <metadata
     id="metadata10">
    <rdf:RDF>
      <cc:Work
         rdf:about="">
        <dc:format>image/svg+xml</dc:format>
        <dc:type
           rdf:resource="http://purl.org/dc/dcmitype/StillImage" />
      </cc:Work>
    </rdf:RDF>
  </metadata>
  <defs
     id="defs8" />
  <sodipodi:namedview
     pagecolor="#ffffff"
     bordercolor="#666666"
     borderopacity="1"
     objecttolerance="10"
     gridtolerance="10"
     guidetolerance="10"
     inkscape:pageopacity="0"
     inkscape:pageshadow="2"
     inkscape:window-width="1366"
     inkscape:window-height="715"
     id="namedview6"
     showgrid="false"
     inkscape:zoom="0.29394531"
     inkscape:cx="59.534884"
     inkscape:cy="256"
     inkscape:window-x="-8"
     inkscape:window-y="-8"
     inkscape:window-maximized="1"
     inkscape:current-layer="svg4" />
  <path
     d="M184.2 203.3c-47.6 0-86.2 38.6-86.2 86.2s38.6 86.2 86.2 86.2 86.2-38.6 86.2-86.2-38.6-86.2-86.2-86.2z m0 229.8c-47.6 0-86.2 38.6-86.2 86.2s38.6 86.2 86.2 86.2 86.2-38.6 86.2-86.2-38.6-86.2-86.2-86.2z m0 229.9c-47.6 0-86.2 38.6-86.2 86.2s38.6 86.2 86.2 86.2 86.2-38.6 86.2-86.2-38.6-86.2-86.2-86.2z m229.9-316.1h459.7c31.7 0 57.5-25.7 57.5-57.5 0-31.7-25.7-57.5-57.5-57.5H414.1c-31.7 0-57.5 25.7-57.5 57.5s25.7 57.5 57.5 57.5z m459.7 115H414.1c-31.7 0-57.5 25.7-57.5 57.5 0 31.7 25.7 57.5 57.5 57.5h459.7c31.7 0 57.5-25.7 57.5-57.5-0.1-31.8-25.8-57.5-57.5-57.5z m0 229.8H414.1c-31.7 0-57.5 25.7-57.5 57.5 0 31.7 25.7 57.5 57.5 57.5h459.7c31.7 0 57.5-25.7 57.5-57.5-0.1-31.7-25.8-57.5-57.5-57.5z"
     id="path2"
     style="fill:#ffffff" />
</svg>
