<svg xmlns="http://www.w3.org/2000/svg" width="54" height="53" viewBox="0 0 14.197 13.766"><style><![CDATA[.B{fill:#e0f3fd}.C{stroke:#4399d4}.D{stroke-width:.635}.E{stroke-miterlimit:10}.F{stroke-linecap:round}]]></style><path d="M3.76 11.393h6.553V.317H.317v11.22c0 1.14.513 1.912 1.655 1.912s1.79-.77 1.79-1.912z" class="B"/><path d="M3.76 11.393h6.553V.317H.317v11.22c0 1.14.513 1.912 1.655 1.912s1.79-.77 1.79-1.912z" fill="none" class="C D E"/><path d="M3.76 11.393h8.484s.34 1.384-1.363 2.013H1.425s2.385.302 2.336-2.013" class="B"/><g class="C D E"><path d="M3.76 11.393h8.484s.34 1.384-1.363 2.013H1.425s2.385.302 2.336-2.013z" fill="none"/><g class="B F"><path d="M2.312 7.474h4.094m-4.094 2.1h4.094M2.312 4.03l1.435-1.435L5.183 4.03"/><path d="M4.506 3.312V5.22H2.99V3.312"/></g></g><path d="M10.203 2.765a2.5 2.5 0 0 1 2.5 2.499 2.5 2.5 0 0 1-2.5 2.499 2.5 2.5 0 0 1-2.499-2.499 2.5 2.5 0 0 1 2.499-2.499" class="B"/><g class="C D E"><path d="M10.203 2.765a2.5 2.5 0 0 1 2.5 2.499 2.5 2.5 0 0 1-2.5 2.499 2.5 2.5 0 0 1-2.499-2.499 2.5 2.5 0 0 1 2.499-2.499z" fill="none"/><path d="M13.876 8.937L11.968 7.03" class="B F"/></g></svg>