<svg xmlns="http://www.w3.org/2000/svg" width="54" height="53" viewBox="0 0 14.196 13.765"><path d="M3.76 11.393h6.553V.318H.317v11.218c0 1.14.513 1.912 1.654 1.912s1.79-.77 1.79-1.912z" fill="#e0f3fd"/><path d="M3.76 11.393h6.553V.318H.317v11.218c0 1.14.513 1.912 1.654 1.912s1.79-.77 1.79-1.912z" fill="none" stroke="#4399d4" stroke-width=".635" stroke-miterlimit="10"/><path d="M3.76 11.393h8.484s.34 1.384-1.363 2.013H1.425s2.385.302 2.336-2.013" fill="#e0f3fd"/><path d="M3.76 11.393h8.484s.34 1.384-1.363 2.013H1.425s2.385.302 2.336-2.013zM6.403 9.72H4.976v-3.8h1.428zm-2.833 0H2.14V7.833h1.43z" fill="none" stroke="#4399d4" stroke-width=".635" stroke-miterlimit="10"/><path d="M10.203 2.844a2.5 2.5 0 0 1 2.5 2.499 2.5 2.5 0 0 1-2.5 2.499 2.5 2.5 0 0 1-2.499-2.499 2.5 2.5 0 0 1 2.499-2.499" fill="#e0f3fd"/><g stroke="#4399d4" stroke-width=".635" stroke-miterlimit="10"><path d="M10.203 2.844a2.5 2.5 0 0 1 2.5 2.499 2.5 2.5 0 0 1-2.5 2.499 2.5 2.5 0 0 1-2.499-2.499 2.5 2.5 0 0 1 2.499-2.499z" fill="none"/><path d="M13.876 9.016l-1.907-1.907" fill="#e0f3fd" stroke-linecap="round"/></g></svg>